<?xml version="1.0" encoding="UTF-8" standalone="no"?><!DOCTYPE svg PUBLIC "-//W3C//DTD SVG 1.1//EN" "http://www.w3.org/Graphics/SVG/1.1/DTD/svg11.dtd"><svg width="100%" height="100%" viewBox="0 0 45 70" version="1.1" xmlns="http://www.w3.org/2000/svg" xmlns:xlink="http://www.w3.org/1999/xlink" xml:space="preserve" xmlns:serif="http://www.serif.com/" style="fill-rule:evenodd;clip-rule:evenodd;stroke-linejoin:round;stroke-miterlimit:1.41421;"><g id="wingR"><path d="M34.261,1.091c0,0 -0.001,0 -0.001,0c-0.001,0 -0.001,0.001 -0.001,0.001c0.073,0.255 1.864,6.629 1.194,10.429c-1.352,7.668 -4.214,10.421 -9.644,9.464c0,0 -0.001,0 -0.003,-0.001c-0.177,-0.057 -0.37,0.014 -0.468,0.173c-0.097,0.158 -0.097,0.39 0.057,0.495c5.983,4.108 0.988,15.159 -6.829,13.76c-0.155,-0.029 -0.311,0.047 -0.384,0.187c-0.074,0.139 -0.048,0.311 0.064,0.422c6.746,6.677 -2.754,17.038 -9.818,11.656c-0.327,-0.249 -0.76,0.306 -0.866,0.704c-0.968,3.493 -3.24,6.583 -6.552,8.565c-0.382,0.223 -0.521,0.707 -0.317,1.099c1.213,2.331 5,9.583 5,9.583c7.818,-4.083 16.851,-3.48 23.877,0.8c0.451,0.281 1.041,0.172 1.361,-0.252c13.256,-17.805 17.672,-40.001 5.652,-63.017c0,0 -2.214,-3.879 -2.322,-4.068Z" style="fill:#6a2b2b;"/><clipPath id="_clip1"><path d="M34.261,1.091c0,0 -0.001,0 -0.001,0c-0.001,0 -0.001,0.001 -0.001,0.001c0.073,0.255 1.864,6.629 1.194,10.429c-1.352,7.668 -4.214,10.421 -9.644,9.464c0,0 -0.001,0 -0.003,-0.001c-0.177,-0.057 -0.37,0.014 -0.468,0.173c-0.097,0.158 -0.097,0.39 0.057,0.495c5.983,4.108 0.988,15.159 -6.829,13.76c-0.155,-0.029 -0.311,0.047 -0.384,0.187c-0.074,0.139 -0.048,0.311 0.064,0.422c6.746,6.677 -2.754,17.038 -9.818,11.656c-0.327,-0.249 -0.76,0.306 -0.866,0.704c-0.968,3.493 -3.24,6.583 -6.552,8.565c-0.382,0.223 -0.521,0.707 -0.317,1.099c1.213,2.331 5,9.583 5,9.583c7.818,-4.083 16.851,-3.48 23.877,0.8c0.451,0.281 1.041,0.172 1.361,-0.252c13.256,-17.805 17.672,-40.001 5.652,-63.017c0,0 -2.214,-3.879 -2.322,-4.068Z"/></clipPath><g clip-path="url(#_clip1)"><path d="M28.826,-7.821c0,-0.001 0,-0.001 -0.001,-0.001c0,0 -0.001,0.001 0,0.001c0.087,0.251 2.25,6.508 1.804,10.341c-0.898,7.734 -6.074,13.496 -11.551,12.86c0,0 -0.001,-0.001 -0.003,-0.001c-0.18,-0.047 -0.369,0.036 -0.457,0.2c-0.088,0.164 -0.053,0.367 0.086,0.491c1.188,1.083 2.125,2.388 2.747,3.897c2.824,6.849 -1.903,15.305 -10.549,18.87c-1.698,0.701 -3.423,1.16 -5.126,1.366c-0.408,0.046 -0.74,0.35 -0.822,0.753c-0.762,3.544 -2.848,6.762 -6.038,8.935c-0.368,0.245 -0.478,0.736 -0.251,1.116c1.348,2.256 5.555,9.272 5.555,9.272c7.564,-4.535 16.616,-4.464 23.883,-0.604c0.466,0.254 1.049,0.11 1.343,-0.332c12.187,-18.553 15.29,-40.971 1.937,-63.24c0,0 -2.438,-3.742 -2.557,-3.924Z" style="fill:#402a2a;"/><clipPath id="_clip2"><path d="M28.826,-7.821c0,-0.001 0,-0.001 -0.001,-0.001c0,0 -0.001,0.001 0,0.001c0.087,0.251 2.25,6.508 1.804,10.341c-0.898,7.734 -6.074,13.496 -11.551,12.86c0,0 -0.001,-0.001 -0.003,-0.001c-0.18,-0.047 -0.369,0.036 -0.457,0.2c-0.088,0.164 -0.053,0.367 0.086,0.491c1.188,1.083 2.125,2.388 2.747,3.897c2.824,6.849 -1.903,15.305 -10.549,18.87c-1.698,0.701 -3.423,1.16 -5.126,1.366c-0.408,0.046 -0.74,0.35 -0.822,0.753c-0.762,3.544 -2.848,6.762 -6.038,8.935c-0.368,0.245 -0.478,0.736 -0.251,1.116c1.348,2.256 5.555,9.272 5.555,9.272c7.564,-4.535 16.616,-4.464 23.883,-0.604c0.466,0.254 1.049,0.11 1.343,-0.332c12.187,-18.553 15.29,-40.971 1.937,-63.24c0,0 -2.438,-3.742 -2.557,-3.924Z"/></clipPath><g clip-path="url(#_clip2)"><path d="M32.134,1.468c2.122,0.975 8.12,12.869 4.312,14.313c4.264,2.74 2.071,6.708 -0.258,4.47c-3.874,1.356 -8.601,0.962 -13.734,-0.832c7.374,5.811 12.247,9.246 13.9,12.224c1.036,1.865 -6.707,-0.274 -7.2,-0.516c13.784,5.924 -0.809,6.366 -15.577,2.614c10.553,5.597 16.499,9.579 17.585,14.805c0.533,2.563 -5.132,2.823 -6.788,0.71c0.011,0.615 3.155,5.841 1.683,5.922c-8.659,1.222 -15.472,-3.215 -22.176,-5.517l11.387,19.065l33.316,-1.236l-3.189,-58.498l-15.746,-15.03l2.485,7.506Z" style="fill:#2d1c1c;"/></g><path d="M34.321,1.084c3.016,6.543 6.197,12.141 6.974,22.304c0.127,1.653 -1.331,1.872 -2.491,1.791c1.207,0.175 2.822,1.55 2.658,2.465c3.179,10.663 -1.627,12.11 -5.317,12.536c6.673,1.771 2.965,15.244 -4.88,24.457c-0.528,0.62 -1.396,-1.633 -1.962,-1.05c-0.455,2.427 -2.199,2.535 -2.673,0.513c-0.011,-0.049 0.012,-0.14 -0.036,-0.143c-5.513,-0.311 -7.79,-0.038 -13.562,-1.986l2.347,12.172l45.955,-11.875l-11.956,-51.16l-15.057,-10.024Z" style="fill:#923f39;"/></g><path d="M34.261,1.091c0,0 -0.001,0 -0.001,0c-0.001,0 -0.001,0.001 -0.001,0.001c0.073,0.255 1.864,6.629 1.194,10.429c-1.352,7.668 -4.214,10.421 -9.644,9.464c0,0 -0.001,0 -0.003,-0.001c-0.177,-0.057 -0.37,0.014 -0.468,0.173c-0.097,0.158 -0.097,0.39 0.057,0.495c5.983,4.108 0.988,15.159 -6.829,13.76c-0.155,-0.029 -0.311,0.047 -0.384,0.187c-0.074,0.139 -0.048,0.311 0.064,0.422c6.746,6.677 -2.754,17.038 -9.818,11.656c-0.327,-0.249 -0.76,0.306 -0.866,0.704c-0.968,3.493 -3.24,6.583 -6.552,8.565c-0.382,0.223 -0.521,0.707 -0.317,1.099c1.213,2.331 5,9.583 5,9.583c7.818,-4.083 16.851,-3.48 23.877,0.8c0.451,0.281 1.041,0.172 1.361,-0.252c13.256,-17.805 17.672,-40.001 5.652,-63.017c0,0 -2.214,-3.879 -2.322,-4.068Z" style="fill:none;stroke:#000;stroke-width:1px;"/><path d="M27.205,21.825c-0.099,-0.012 -0.191,0.053 -0.213,0.151c-0.023,0.097 0.032,0.195 0.126,0.228c4.691,1.535 7.23,4.017 10.686,5.619c1.177,0.526 1.936,1.693 1.938,2.982c0.042,0.16 0.043,0.324 0.043,0.491c0.006,3.089 -2.325,5.682 -5.397,6.002c-4.346,0.401 -9.641,-0.129 -14.346,-1.055c-0.123,-0.027 -0.246,0.047 -0.281,0.168c-0.035,0.121 0.03,0.248 0.149,0.292c3.028,1.09 6.257,2.381 9.266,3.813c3.258,1.574 5.694,4.456 6.704,7.93c1.01,3.474 0.497,7.213 -1.41,10.288c-0.404,0.675 -0.635,0.922 -0.75,1.012c-0.064,0.051 1.558,-1.145 1.814,-1.334c0.023,-0.017 0.041,-0.038 0.054,-0.063c5.933,-11.255 9.167,-21.554 5.487,-38.482c0,0 0,0.001 0,0.001c-0.375,2.206 -2.298,3.811 -4.535,3.786c-3.008,-0.036 -5.907,-1.226 -9.335,-1.829Z" style="fill:#6a2b2b;"/><clipPath id="_clip3"><path d="M27.205,21.825c-0.099,-0.012 -0.191,0.053 -0.213,0.151c-0.023,0.097 0.032,0.195 0.126,0.228c4.691,1.535 7.23,4.017 10.686,5.619c1.177,0.526 1.936,1.693 1.938,2.982c0.042,0.16 0.043,0.324 0.043,0.491c0.006,3.089 -2.325,5.682 -5.397,6.002c-4.346,0.401 -9.641,-0.129 -14.346,-1.055c-0.123,-0.027 -0.246,0.047 -0.281,0.168c-0.035,0.121 0.03,0.248 0.149,0.292c3.028,1.09 6.257,2.381 9.266,3.813c3.258,1.574 5.694,4.456 6.704,7.93c1.01,3.474 0.497,7.213 -1.41,10.288c-0.404,0.675 -0.635,0.922 -0.75,1.012c-0.064,0.051 1.558,-1.145 1.814,-1.334c0.023,-0.017 0.041,-0.038 0.054,-0.063c5.933,-11.255 9.167,-21.554 5.487,-38.482c0,0 0,0.001 0,0.001c-0.375,2.206 -2.298,3.811 -4.535,3.786c-3.008,-0.036 -5.907,-1.226 -9.335,-1.829Z"/></clipPath><g clip-path="url(#_clip3)"><path d="M34.321,1.084c3.016,6.543 6.197,12.141 6.974,22.304c0.127,1.653 -1.331,1.872 -2.491,1.791c1.207,0.175 2.822,1.55 2.658,2.465c3.179,10.663 -1.627,12.11 -5.317,12.536c7.122,1.891 2.686,16.432 -6.288,25.667c-4.792,-0.436 -10.372,-1.698 -16.825,-3.876l2.347,12.172l45.955,-11.875l-11.956,-51.16l-15.057,-10.024Z" style="fill:#923f39;"/></g><path d="M10.013,57.753c5.217,-1.754 11.48,-0.951 18.586,1.913c0.123,0.05 0.264,0.02 0.357,-0.076c2.91,-3.027 4.741,-6.662 6.204,-10.505c0.513,-1.355 0.326,-2.875 -0.5,-4.065c-2.416,-3.16 -8.037,-5.95 -14.877,-8.583c5.289,0.794 10.287,1.032 14.995,0.717c0.959,-0.066 1.881,-0.402 2.658,-0.969c1.088,-0.833 1.75,-1.862 2.037,-3.092c0.453,-2.015 -0.362,-4.103 -2.06,-5.278c-2.381,-1.494 -6.229,-3.604 -10.244,-5.787c-0.005,-0.003 -0.006,-0.008 -0.005,-0.013c0.002,-0.004 0.007,-0.007 0.012,-0.005c3.532,0.988 6.844,1.462 10.007,1.582c0.015,0.001 0.029,0.004 0.043,0.007c0.595,0.072 2.628,-1 2.858,-1.373c0.739,-1.198 -4.734,-20.263 -5.162,-19.611" style="fill:none;stroke:#000;stroke-width:1px;stroke-linecap:round;stroke-miterlimit:1.5;"/></g></svg>