<?xml version="1.0" encoding="UTF-8" standalone="no"?><!DOCTYPE svg PUBLIC "-//W3C//DTD SVG 1.1//EN" "http://www.w3.org/Graphics/SVG/1.1/DTD/svg11.dtd"><svg width="100%" height="100%" viewBox="0 0 67 51" version="1.1" xmlns="http://www.w3.org/2000/svg" xmlns:xlink="http://www.w3.org/1999/xlink" xml:space="preserve" xmlns:serif="http://www.serif.com/" style="fill-rule:evenodd;clip-rule:evenodd;stroke-linejoin:round;stroke-miterlimit:1.41421;"><g id="wingL"><path d="M0.73,1.435c0,-0.001 0,-0.001 0.001,-0.001c0,0 0.001,0 0.001,0c0.113,0.24 2.947,6.224 5.948,8.65c6.054,4.895 10.021,5.093 13.487,0.806c0,0 0.001,-0.001 0.002,-0.003c0.096,-0.16 0.289,-0.233 0.466,-0.177c0.178,0.055 0.329,0.231 0.283,0.411c-1.816,7.027 9.208,12.081 14.185,5.894c0.098,-0.124 0.265,-0.169 0.413,-0.112c0.147,0.057 0.24,0.203 0.229,0.361c-0.704,9.465 13.264,11.042 15.058,2.344c0.083,-0.402 0.774,-0.267 1.115,-0.037c3.024,1.999 6.767,2.838 10.566,2.157c0.434,-0.082 0.857,0.191 0.96,0.622c0.616,2.555 2.521,10.51 2.521,10.51c-8.577,2.054 -14.993,8.44 -17.483,16.282c-0.155,0.508 -0.672,0.813 -1.192,0.703c-21.689,-4.724 -39.594,-18.565 -45.64,-43.817c0,0 -0.877,-4.38 -0.92,-4.593Z" style="fill:#6a2b2b;"/><clipPath id="_clip1"><path d="M0.73,1.435c0,-0.001 0,-0.001 0.001,-0.001c0,0 0.001,0 0.001,0c0.113,0.24 2.947,6.224 5.948,8.65c6.054,4.895 10.021,5.093 13.487,0.806c0,0 0.001,-0.001 0.002,-0.003c0.096,-0.16 0.289,-0.233 0.466,-0.177c0.178,0.055 0.329,0.231 0.283,0.411c-1.816,7.027 9.208,12.081 14.185,5.894c0.098,-0.124 0.265,-0.169 0.413,-0.112c0.147,0.057 0.24,0.203 0.229,0.361c-0.704,9.465 13.264,11.042 15.058,2.344c0.083,-0.402 0.774,-0.267 1.115,-0.037c3.024,1.999 6.767,2.838 10.566,2.157c0.434,-0.082 0.857,0.191 0.96,0.622c0.616,2.555 2.521,10.51 2.521,10.51c-8.577,2.054 -14.993,8.44 -17.483,16.282c-0.155,0.508 -0.672,0.813 -1.192,0.703c-21.689,-4.724 -39.594,-18.565 -45.64,-43.817c0,0 -0.877,-4.38 -0.92,-4.593Z"/></clipPath><g clip-path="url(#_clip1)"><path d="M-1.023,-8.856c0,0 0,-0.001 0.001,-0.001c0,0 0.001,0 0.001,0.001c0.098,0.246 2.576,6.386 5.428,8.984c5.756,5.243 13.444,6.19 17.156,2.114c0,0 0.001,-0.001 0.002,-0.003c0.106,-0.153 0.302,-0.215 0.476,-0.149c0.174,0.066 0.281,0.243 0.258,0.427c-0.185,1.597 -0.034,3.197 0.487,4.743c2.367,7.02 11.484,10.294 20.346,7.306c1.741,-0.587 3.344,-1.372 4.763,-2.336c0.338,-0.233 0.789,-0.222 1.115,0.028c2.901,2.173 6.588,3.231 10.421,2.775c0.438,-0.057 0.844,0.241 0.922,0.676c0.465,2.587 1.899,10.641 1.899,10.641c-8.684,1.546 -15.464,7.544 -18.41,15.226c-0.185,0.498 -0.719,0.772 -1.232,0.632c-21.373,-5.991 -38.434,-20.861 -42.985,-46.425c0,0 -0.618,-4.423 -0.648,-4.639Z" style="fill:#402a2a;"/><clipPath id="_clip2"><path d="M-1.023,-8.856c0,0 0,-0.001 0.001,-0.001c0,0 0.001,0 0.001,0.001c0.098,0.246 2.576,6.386 5.428,8.984c5.756,5.243 13.444,6.19 17.156,2.114c0,0 0.001,-0.001 0.002,-0.003c0.106,-0.153 0.302,-0.215 0.476,-0.149c0.174,0.066 0.281,0.243 0.258,0.427c-0.185,1.597 -0.034,3.197 0.487,4.743c2.367,7.02 11.484,10.294 20.346,7.306c1.741,-0.587 3.344,-1.372 4.763,-2.336c0.338,-0.233 0.789,-0.222 1.115,0.028c2.901,2.173 6.588,3.231 10.421,2.775c0.438,-0.057 0.844,0.241 0.922,0.676c0.465,2.587 1.899,10.641 1.899,10.641c-8.684,1.546 -15.464,7.544 -18.41,15.226c-0.185,0.498 -0.719,0.772 -1.232,0.632c-21.373,-5.991 -38.434,-20.861 -42.985,-46.425c0,0 -0.618,-4.423 -0.648,-4.639Z"/></clipPath><g clip-path="url(#_clip2)"><path d="M2.582,0.323c-0.961,2.128 2.326,15.037 6.146,13.626c-1.417,4.866 2.843,6.419 3.129,3.202c3.813,-1.521 7.119,-4.922 9.812,-9.646c-1.746,9.225 -3.165,15.016 -2.457,18.347c0.443,2.086 4.879,-4.611 5.092,-5.117c-6.507,13.519 4.79,4.27 13.465,-8.257c-4.284,11.152 -6.154,18.059 -3.542,22.714c1.281,2.282 5.724,-1.241 5.586,-3.922c0.396,0.471 1.456,6.477 2.619,5.572c7.333,-4.764 9.558,-12.585 13.103,-18.723l3.93,21.857l-25.939,20.943l-36.006,-46.214l2.007,-21.676l3.055,7.294Z" style="fill:#2d1c1c;"/></g><path d="M0.68,1.469c2.022,6.915 3.298,13.225 9.385,21.401c0.99,1.33 2.233,0.538 3.055,-0.285c-0.796,0.925 -1.111,3.022 -0.386,3.605c4.604,10.13 9.178,8.065 12.241,5.964c-3.869,5.717 7.774,13.444 19.74,15.241c0.806,0.121 -0.019,-2.148 0.79,-2.08c1.937,1.532 3.323,0.468 2.353,-1.368c-0.023,-0.044 -0.101,-0.098 -0.067,-0.132c3.954,-3.853 5.851,-5.143 8.925,-10.402l6.222,10.721l-42.457,21.218l-24.575,-46.437l4.774,-17.446Z" style="fill:#923f39;"/></g><path d="M0.73,1.435c0,-0.001 0,-0.001 0.001,-0.001c0,0 0.001,0 0.001,0c0.113,0.24 2.947,6.224 5.948,8.65c6.054,4.895 10.021,5.093 13.487,0.806c0,0 0.001,-0.001 0.002,-0.003c0.096,-0.16 0.289,-0.233 0.466,-0.177c0.178,0.055 0.329,0.231 0.283,0.411c-1.816,7.027 9.208,12.081 14.185,5.894c0.098,-0.124 0.265,-0.169 0.413,-0.112c0.147,0.057 0.24,0.203 0.229,0.361c-0.704,9.465 13.264,11.042 15.058,2.344c0.083,-0.402 0.774,-0.267 1.115,-0.037c3.024,1.999 6.767,2.838 10.566,2.157c0.434,-0.082 0.857,0.191 0.96,0.622c0.616,2.555 2.521,10.51 2.521,10.51c-8.577,2.054 -14.993,8.44 -17.483,16.282c-0.155,0.508 -0.672,0.813 -1.192,0.703c-21.689,-4.724 -39.594,-18.565 -45.64,-43.817c0,0 -0.877,-4.38 -0.92,-4.593Z" style="fill:none;stroke:#000;stroke-width:1px;"/><path d="M19.666,12.439c0.067,-0.073 0.179,-0.085 0.26,-0.026c0.08,0.059 0.104,0.169 0.055,0.256c-2.531,4.237 -2.815,7.777 -4.371,11.254c-0.542,1.169 -0.348,2.548 0.496,3.521c0.074,0.149 0.181,0.273 0.291,0.399c2.023,2.334 5.484,2.759 8.011,0.984c3.541,-2.552 7.188,-6.428 10.127,-10.216c0.076,-0.101 0.217,-0.126 0.322,-0.058c0.106,0.068 0.141,0.207 0.08,0.318c-1.567,2.809 -3.154,5.903 -4.483,8.958c-1.425,3.326 -1.37,7.101 0.15,10.385c1.52,3.283 4.362,5.768 7.82,6.834c0.746,0.244 1.082,0.278 1.228,0.271c0.082,-0.004 -1.927,0.159 -2.245,0.185c-0.028,0.002 -0.056,-0.002 -0.082,-0.012c-11.865,-4.594 -21.066,-10.238 -29.406,-25.421c0,0 0.001,0 0.001,0c1.731,1.418 4.236,1.366 5.906,-0.122c2.245,-2.002 3.65,-4.803 5.84,-7.51Z" style="fill:#6a2b2b;"/><clipPath id="_clip3"><path d="M19.666,12.439c0.067,-0.073 0.179,-0.085 0.26,-0.026c0.08,0.059 0.104,0.169 0.055,0.256c-2.531,4.237 -2.815,7.777 -4.371,11.254c-0.542,1.169 -0.348,2.548 0.496,3.521c0.074,0.149 0.181,0.273 0.291,0.399c2.023,2.334 5.484,2.759 8.011,0.984c3.541,-2.552 7.188,-6.428 10.127,-10.216c0.076,-0.101 0.217,-0.126 0.322,-0.058c0.106,0.068 0.141,0.207 0.08,0.318c-1.567,2.809 -3.154,5.903 -4.483,8.958c-1.425,3.326 -1.37,7.101 0.15,10.385c1.52,3.283 4.362,5.768 7.82,6.834c0.746,0.244 1.082,0.278 1.228,0.271c0.082,-0.004 -1.927,0.159 -2.245,0.185c-0.028,0.002 -0.056,-0.002 -0.082,-0.012c-11.865,-4.594 -21.066,-10.238 -29.406,-25.421c0,0 0.001,0 0.001,0c1.731,1.418 4.236,1.366 5.906,-0.122c2.245,-2.002 3.65,-4.803 5.84,-7.51Z"/></clipPath><g clip-path="url(#_clip3)"><path d="M0.68,1.469c2.022,6.915 3.298,13.225 9.385,21.401c0.99,1.33 2.233,0.538 3.055,-0.285c-0.796,0.925 -1.111,3.022 -0.386,3.605c4.604,10.13 9.178,8.065 12.241,5.964c-4.13,6.102 8.764,14.156 21.596,15.229c3.328,-3.475 6.708,-8.091 10.145,-13.97l6.222,10.721l-42.457,21.218l-24.575,-46.437l4.774,-17.446Z" style="fill:#923f39;"/></g><path d="M56.224,28.249c-5.087,2.103 -9.283,6.82 -12.762,13.646c-0.061,0.119 -0.187,0.189 -0.319,0.178c-4.183,-0.372 -7.951,-1.912 -11.577,-3.85c-1.277,-0.685 -2.134,-1.954 -2.292,-3.394c-0.253,-3.97 2.154,-9.765 5.584,-16.242c-3.468,4.072 -7.081,7.533 -10.838,10.386c-0.767,0.581 -1.683,0.933 -2.641,1.015c-1.368,0.086 -2.543,-0.255 -3.568,-0.995c-1.664,-1.222 -2.42,-3.331 -1.911,-5.332c0.815,-2.691 2.332,-6.81 3.926,-11.092c0.002,-0.005 0,-0.01 -0.004,-0.012c-0.005,-0.003 -0.01,-0.001 -0.013,0.003c-2.014,3.065 -4.202,5.597 -6.508,7.764c-0.01,0.011 -0.02,0.022 -0.029,0.034c-0.4,0.445 -2.638,0.971 -3.057,0.841c-1.344,-0.419 -9.734,-18.391 -8.983,-18.181" style="fill:none;stroke:#000;stroke-width:1px;stroke-linecap:round;stroke-miterlimit:1.5;"/></g></svg>