<?xml version="1.0" encoding="UTF-8" standalone="no"?><!DOCTYPE svg PUBLIC "-//W3C//DTD SVG 1.1//EN" "http://www.w3.org/Graphics/SVG/1.1/DTD/svg11.dtd"><svg width="100%" height="100%" viewBox="0 0 60 63" version="1.1" xmlns="http://www.w3.org/2000/svg" xmlns:xlink="http://www.w3.org/1999/xlink" xml:space="preserve" xmlns:serif="http://www.serif.com/" style="fill-rule:evenodd;clip-rule:evenodd;stroke-linejoin:round;stroke-miterlimit:1.41421;"><g id="feather"><g><g><g><path d="M31.812,60.842c0.051,-1.864 0.835,-3.518 2.154,-3.908c1.332,-0.394 2.913,0.588 3.963,2.124l0.491,1.206c-1.067,-1.651 -2.744,-2.751 -4.151,-2.333c-1.406,0.418 -2.211,2.255 -2.204,4.22l-0.253,-1.309Z" style="fill:#6a2b2b;"/><path d="M19.392,57.667c0.025,-1.899 0.814,-3.621 2.164,-4.021c1.293,-0.382 2.821,0.533 3.881,2.022l0.548,1.346c-1.067,-1.651 -2.744,-2.75 -4.15,-2.332c-1.407,0.417 -2.212,2.254 -2.205,4.22l-0.238,-1.235Z" style="fill:#6a2b2b;"/><path d="M45.327,53.156c0.07,-1.783 0.848,-3.377 2.139,-3.759c1.368,-0.404 2.997,0.642 4.064,2.25l0.428,1.052c-1.067,-1.651 -2.744,-2.75 -4.15,-2.333c-1.407,0.418 -2.212,2.255 -2.204,4.22l-0.277,-1.43Z" style="fill:#6a2b2b;"/><path d="M12.541,47.577c0.034,-1.891 0.821,-3.592 2.161,-3.988c1.293,-0.382 2.821,0.532 3.867,2.004l0.586,1.439c-1.067,-1.651 -2.744,-2.75 -4.151,-2.332c-1.406,0.417 -2.211,2.254 -2.204,4.22l-0.259,-1.343Z" style="fill:#6a2b2b;"/><path d="M27.435,44.992c0.057,-1.822 0.839,-3.453 2.148,-3.84c1.332,-0.394 2.913,0.588 3.971,2.134l0.516,1.268c-1.066,-1.651 -2.744,-2.75 -4.15,-2.333c-1.406,0.418 -2.212,2.255 -2.204,4.22l-0.281,-1.449Z" style="fill:#6a2b2b;"/><path d="M52.212,43.596c0.102,-1.736 0.872,-3.25 2.126,-3.621c1.383,-0.409 3.034,0.665 4.137,2.341l0.398,0.979c-1.066,-1.651 -2.744,-2.751 -4.15,-2.333c-1.406,0.418 -2.212,2.255 -2.204,4.22l-0.307,-1.586Z" style="fill:#6a2b2b;"/><path d="M1.284,41.674c0.021,-1.908 0.811,-3.643 2.166,-4.044c1.273,-0.376 2.772,0.503 3.81,1.932l0.638,1.568c-1.067,-1.651 -2.744,-2.75 -4.15,-2.332c-1.407,0.417 -2.212,2.254 -2.205,4.22l-0.259,-1.344Z" style="fill:#6a2b2b;"/><path d="M37.462,40.582c0.082,-1.776 0.857,-3.34 2.135,-3.718c1.363,-0.403 2.987,0.635 4.05,2.233l0.47,1.156c-1.066,-1.651 -2.744,-2.751 -4.15,-2.333c-1.406,0.418 -2.212,2.254 -2.204,4.22l-0.301,-1.558Z" style="fill:#6a2b2b;"/><path d="M48.291,34.376c0.12,-1.73 0.886,-3.206 2.122,-3.571c1.382,-0.409 3.033,0.665 4.139,2.344l0.421,1.036c-1.066,-1.651 -2.744,-2.75 -4.15,-2.332c-1.406,0.417 -2.211,2.254 -2.204,4.22l-0.328,-1.697Z" style="fill:#6a2b2b;"/><path d="M32.573,25.573c0.102,-1.766 0.873,-3.285 2.13,-3.657c1.367,-0.404 2.997,0.642 4.053,2.237l0.499,1.226c-1.067,-1.651 -2.744,-2.751 -4.151,-2.333c-1.406,0.418 -2.211,2.255 -2.204,4.22l-0.327,-1.693Z" style="fill:#6a2b2b;"/><path d="M53.15,26.185c0.143,-1.683 0.902,-3.101 2.111,-3.458c1.402,-0.415 3.08,0.696 4.151,2.359l-0.614,-1.509c0.428,0.767 0.785,1.624 1.061,2.554c-1.067,-1.651 -2.744,-2.751 -4.15,-2.333c-1.407,0.418 -2.212,2.255 -2.204,4.22l-0.355,-1.833Z" style="fill:#6a2b2b;"/><path d="M6.092,22.785c0.054,-1.803 0.836,-3.435 2.145,-3.822c1.309,-0.387 2.858,0.555 3.901,2.047l0.629,1.545c-1.067,-1.651 -2.744,-2.75 -4.151,-2.333c-1.406,0.418 -2.211,2.255 -2.204,4.22l-0.32,-1.657Z" style="fill:#6a2b2b;"/><path d="M15.272,17.216c0.084,-1.742 0.858,-3.294 2.131,-3.67c1.34,-0.397 2.932,0.6 3.997,2.167l0.572,1.406c-1.066,-1.651 -2.744,-2.751 -4.15,-2.333c-1.406,0.418 -2.212,2.254 -2.204,4.22l-0.346,-1.79Z" style="fill:#6a2b2b;"/><path d="M31.401,12.989c0.116,-1.703 0.882,-3.178 2.118,-3.543c1.383,-0.409 3.034,0.665 4.097,2.291l0.499,1.225c-1.067,-1.651 -2.744,-2.75 -4.15,-2.332c-1.407,0.417 -2.212,2.254 -2.204,4.22l-0.36,-1.861Z" style="fill:#6a2b2b;"/><path d="M42.299,11.739c0.144,-1.653 0.902,-3.064 2.107,-3.42c1.403,-0.415 3.081,0.696 4.152,2.359l-0.55,-1.351c0.396,0.721 0.753,1.578 1.029,2.508c-1.066,-1.651 -2.744,-2.751 -4.15,-2.333c-1.406,0.418 -2.212,2.255 -2.204,4.22l-0.384,-1.983Z" style="fill:#6a2b2b;"/><path d="M20.52,7.652c0.082,-1.768 0.857,-3.332 2.135,-3.709c1.332,-0.394 2.913,0.588 3.951,2.109l0.617,1.517c-1.066,-1.651 -2.744,-2.75 -4.15,-2.332c-1.406,0.417 -2.211,2.254 -2.204,4.22l-0.349,-1.805Z" style="fill:#6a2b2b;"/></g></g><g><g opacity="0.8"><path d="M31.812,60.842l-0.031,0.325c-1.085,-3.639 -0.547,-7.013 1.202,-7.53c1.748,-0.517 4.049,2.017 5.135,5.656l-0.189,-0.235c-1.121,-2.964 -3.087,-4.862 -4.633,-4.403c-1.545,0.459 -2.157,3.122 -1.484,6.187Z" style="fill:#e7a582;fill-opacity:0.5;"/><path d="M19.392,57.667l-0.021,0.213c-1.085,-3.639 -0.547,-7.013 1.202,-7.53c1.749,-0.517 4.049,2.017 5.135,5.656l-0.271,-0.338c-1.119,-2.877 -3.052,-4.715 -4.576,-4.263c-1.558,0.463 -2.167,3.168 -1.469,6.262Z" style="fill:#e7a582;fill-opacity:0.5;"/><path d="M45.327,53.156l-0.046,0.475c-1.085,-3.639 -0.546,-7.013 1.202,-7.53c1.749,-0.517 4.05,2.017 5.135,5.656l-0.088,-0.11c-1.117,-3.054 -3.124,-5.024 -4.695,-4.557c-1.524,0.453 -2.14,3.048 -1.508,6.066Z" style="fill:#e7a582;fill-opacity:0.5;"/><path d="M12.541,47.577l-0.024,0.246c-1.085,-3.639 -0.547,-7.013 1.202,-7.531c1.748,-0.517 4.049,2.018 5.135,5.657l-0.285,-0.356c-1.125,-2.825 -3.031,-4.617 -4.538,-4.17c-1.537,0.457 -2.15,3.093 -1.49,6.154Z" style="fill:#e7a582;fill-opacity:0.5;"/><path d="M27.435,44.992l-0.037,0.393c-1.086,-3.639 -0.547,-7.013 1.201,-7.53c1.749,-0.517 4.05,2.017 5.135,5.656l-0.18,-0.225c-1.117,-2.924 -3.071,-4.798 -4.607,-4.341c-1.524,0.453 -2.14,3.048 -1.512,6.047Z" style="fill:#e7a582;fill-opacity:0.5;"/><path d="M52.212,43.596l-0.059,0.613c-1.085,-3.639 -0.546,-7.013 1.202,-7.531c1.749,-0.517 4.05,2.018 5.135,5.656l-0.015,-0.018c-1.097,-3.078 -3.134,-5.103 -4.725,-4.63c-1.494,0.443 -2.115,2.946 -1.538,5.91Z" style="fill:#e7a582;fill-opacity:0.5;"/><path d="M1.284,41.674l-0.019,0.19c-1.085,-3.639 -0.547,-7.014 1.202,-7.531c1.749,-0.517 4.05,2.017 5.135,5.656l-0.342,-0.427c-1.127,-2.747 -3.001,-4.482 -4.486,-4.041c-1.536,0.457 -2.15,3.093 -1.49,6.153Z" style="fill:#e7a582;fill-opacity:0.5;"/><path d="M37.462,40.582l-0.05,0.516c-1.085,-3.639 -0.547,-7.013 1.202,-7.53c1.748,-0.518 4.049,2.017 5.135,5.656l-0.102,-0.127c-1.108,-2.983 -3.095,-4.916 -4.653,-4.453c-1.494,0.443 -2.115,2.945 -1.532,5.938Z" style="fill:#e7a582;fill-opacity:0.5;"/><path d="M48.291,34.376l-0.064,0.663c-1.085,-3.639 -0.546,-7.014 1.202,-7.531c1.749,-0.517 4.05,2.017 5.135,5.656l-0.012,-0.015c-1.099,-3.045 -3.121,-5.042 -4.702,-4.573c-1.476,0.439 -2.1,2.888 -1.559,5.8Z" style="fill:#e7a582;fill-opacity:0.5;"/><path d="M32.573,25.573l-0.056,0.577c-1.085,-3.639 -0.546,-7.013 1.202,-7.53c1.749,-0.518 4.05,2.017 5.135,5.656l-0.098,-0.123c-1.113,-2.944 -3.079,-4.842 -4.625,-4.383c-1.476,0.438 -2.1,2.888 -1.558,5.803Z" style="fill:#e7a582;fill-opacity:0.5;"/><path d="M53.15,26.185l-0.074,0.775c-1.086,-3.638 -0.547,-7.013 1.201,-7.53c1.49,-0.44 3.38,1.333 4.521,4.147c-1.158,-2.154 -2.76,-3.442 -4.062,-3.055c-1.448,0.43 -2.076,2.793 -1.586,5.663Z" style="fill:#e7a582;fill-opacity:0.5;"/><path d="M6.092,22.785l-0.04,0.412c-1.085,-3.639 -0.547,-7.013 1.202,-7.53c1.748,-0.517 4.049,2.017 5.135,5.656l-0.251,-0.313c-1.137,-2.771 -3.01,-4.505 -4.495,-4.064c-1.485,0.441 -2.108,2.917 -1.551,5.839Z" style="fill:#e7a582;fill-opacity:0.5;"/><path d="M15.272,17.216l-0.054,0.563c-1.086,-3.639 -0.547,-7.013 1.202,-7.53c1.748,-0.517 4.049,2.017 5.134,5.656l-0.154,-0.192c-1.127,-2.849 -3.04,-4.652 -4.551,-4.203c-1.46,0.433 -2.087,2.835 -1.577,5.706Z" style="fill:#e7a582;fill-opacity:0.5;"/><path d="M31.401,12.989l-0.067,0.69c-1.085,-3.639 -0.546,-7.013 1.202,-7.53c1.749,-0.517 4.05,2.017 5.135,5.656l-0.055,-0.068c-1.112,-2.945 -3.079,-4.843 -4.624,-4.384c-1.448,0.43 -2.076,2.793 -1.591,5.636Z" style="fill:#e7a582;fill-opacity:0.5;"/><path d="M42.299,11.739l-0.078,0.813c-1.085,-3.639 -0.547,-7.013 1.202,-7.53c1.52,-0.449 3.456,1.405 4.585,4.305c-1.19,-2.201 -2.792,-3.488 -4.094,-3.101c-1.425,0.423 -2.056,2.72 -1.615,5.513Z" style="fill:#e7a582;fill-opacity:0.5;"/><path d="M20.52,7.652l-0.05,0.524c-1.086,-3.639 -0.547,-7.013 1.201,-7.53c1.749,-0.517 4.05,2.017 5.135,5.656l-0.2,-0.25c-1.126,-2.778 -3.013,-4.535 -4.506,-4.092c-1.46,0.434 -2.087,2.836 -1.58,5.692Z" style="fill:#e7a582;fill-opacity:0.5;"/><path d="M31.812,60.842c-0.673,-3.065 -0.061,-5.728 1.484,-6.187c1.546,-0.459 3.512,1.439 4.633,4.403c-1.05,-1.536 -2.631,-2.518 -3.963,-2.124c-1.319,0.39 -2.103,2.044 -2.154,3.908Z" style="fill:#923f39;"/><path d="M19.392,57.667c-0.698,-3.094 -0.089,-5.799 1.469,-6.262c1.524,-0.452 3.457,1.386 4.576,4.263c-1.06,-1.489 -2.588,-2.404 -3.881,-2.022c-1.35,0.4 -2.139,2.122 -2.164,4.021Z" style="fill:#923f39;"/><path d="M45.327,53.156c-0.632,-3.018 -0.016,-5.613 1.508,-6.066c1.571,-0.467 3.578,1.503 4.695,4.557c-1.067,-1.608 -2.696,-2.654 -4.064,-2.25c-1.291,0.382 -2.069,1.976 -2.139,3.759Z" style="fill:#923f39;"/><path d="M12.541,47.577c-0.66,-3.061 -0.047,-5.697 1.49,-6.154c1.507,-0.447 3.413,1.345 4.538,4.17c-1.046,-1.472 -2.574,-2.386 -3.867,-2.004c-1.34,0.396 -2.127,2.097 -2.161,3.988Z" style="fill:#923f39;"/><path d="M27.435,44.992c-0.628,-2.999 -0.012,-5.594 1.512,-6.047c1.536,-0.457 3.49,1.417 4.607,4.341c-1.058,-1.546 -2.639,-2.528 -3.971,-2.134c-1.309,0.387 -2.091,2.018 -2.148,3.84Z" style="fill:#923f39;"/><path d="M52.212,43.596c-0.577,-2.964 0.044,-5.467 1.538,-5.91c1.591,-0.473 3.628,1.552 4.725,4.63c-1.103,-1.676 -2.754,-2.75 -4.137,-2.341c-1.254,0.371 -2.024,1.885 -2.126,3.621Z" style="fill:#923f39;"/><path d="M1.284,41.674c-0.66,-3.06 -0.046,-5.696 1.49,-6.153c1.485,-0.441 3.359,1.294 4.486,4.041c-1.038,-1.429 -2.537,-2.308 -3.81,-1.932c-1.355,0.401 -2.145,2.136 -2.166,4.044Z" style="fill:#923f39;"/><path d="M37.462,40.582c-0.583,-2.993 0.038,-5.495 1.532,-5.938c1.558,-0.463 3.545,1.47 4.653,4.453c-1.063,-1.598 -2.687,-2.636 -4.05,-2.233c-1.278,0.378 -2.053,1.942 -2.135,3.718Z" style="fill:#923f39;"/><path d="M48.291,34.376c-0.541,-2.912 0.083,-5.361 1.559,-5.8c1.581,-0.469 3.603,1.528 4.702,4.573c-1.106,-1.679 -2.757,-2.753 -4.139,-2.344c-1.236,0.365 -2.002,1.841 -2.122,3.571Z" style="fill:#923f39;"/><path d="M32.573,25.573c-0.542,-2.915 0.082,-5.365 1.558,-5.803c1.546,-0.459 3.512,1.439 4.625,4.383c-1.056,-1.595 -2.686,-2.641 -4.053,-2.237c-1.257,0.372 -2.028,1.891 -2.13,3.657Z" style="fill:#923f39;"/><path d="M19.165,26.214c0.102,-1.767 0.872,-3.286 2.129,-3.657c1.368,-0.405 2.997,0.641 4.054,2.237l0.498,1.225c-1.066,-1.651 -2.744,-2.75 -4.15,-2.332c-1.406,0.417 -2.212,2.254 -2.204,4.22l-0.327,-1.693Z" style="fill:#6a2b2b;"/><path d="M19.165,26.214l-0.056,0.576c-1.085,-3.638 -0.547,-7.013 1.202,-7.53c1.749,-0.517 4.049,2.017 5.135,5.656l-0.098,-0.122c-1.113,-2.945 -3.08,-4.843 -4.625,-4.384c-1.476,0.439 -2.101,2.888 -1.558,5.804Z" style="fill:#e7a582;fill-opacity:0.5;"/><path d="M19.165,26.214c-0.543,-2.916 0.082,-5.365 1.558,-5.804c1.545,-0.459 3.512,1.439 4.625,4.384c-1.057,-1.596 -2.686,-2.642 -4.054,-2.237c-1.257,0.371 -2.027,1.89 -2.129,3.657Z" style="fill:#923f39;"/><path d="M53.15,26.185c-0.49,-2.87 0.138,-5.233 1.586,-5.663c1.302,-0.387 2.904,0.901 4.062,3.055l0.614,1.509c-1.071,-1.663 -2.749,-2.774 -4.151,-2.359c-1.209,0.357 -1.968,1.775 -2.111,3.458Z" style="fill:#923f39;"/><path d="M6.092,22.785c-0.557,-2.922 0.066,-5.398 1.551,-5.839c1.485,-0.441 3.358,1.293 4.495,4.064c-1.043,-1.492 -2.592,-2.434 -3.901,-2.047c-1.309,0.387 -2.091,2.019 -2.145,3.822Z" style="fill:#923f39;"/><path d="M15.272,17.216c-0.51,-2.871 0.117,-5.273 1.577,-5.706c1.511,-0.449 3.424,1.354 4.551,4.203c-1.065,-1.567 -2.657,-2.564 -3.997,-2.167c-1.273,0.376 -2.047,1.928 -2.131,3.67Z" style="fill:#923f39;"/><path d="M31.401,12.989c-0.485,-2.843 0.143,-5.206 1.591,-5.636c1.545,-0.459 3.512,1.439 4.624,4.384c-1.063,-1.626 -2.714,-2.7 -4.097,-2.291c-1.236,0.365 -2.002,1.84 -2.118,3.543Z" style="fill:#923f39;"/><path d="M42.299,11.739c-0.441,-2.793 0.19,-5.09 1.615,-5.513c1.302,-0.387 2.904,0.9 4.094,3.101l0.55,1.351c-1.071,-1.663 -2.749,-2.774 -4.152,-2.359c-1.205,0.356 -1.963,1.767 -2.107,3.42Z" style="fill:#923f39;"/><path d="M20.52,7.652c-0.507,-2.856 0.12,-5.258 1.58,-5.692c1.493,-0.443 3.38,1.314 4.506,4.092c-1.038,-1.521 -2.619,-2.503 -3.951,-2.109c-1.278,0.377 -2.053,1.941 -2.135,3.709Z" style="fill:#923f39;"/></g></g></g></g></svg>