<?xml version="1.0" encoding="UTF-8" standalone="no"?><!DOCTYPE svg PUBLIC "-//W3C//DTD SVG 1.1//EN" "http://www.w3.org/Graphics/SVG/1.1/DTD/svg11.dtd"><svg width="100%" height="100%" viewBox="0 0 15 10" version="1.1" xmlns="http://www.w3.org/2000/svg" xmlns:xlink="http://www.w3.org/1999/xlink" xml:space="preserve" xmlns:serif="http://www.serif.com/" style="fill-rule:evenodd;clip-rule:evenodd;stroke-linejoin:round;stroke-miterlimit:1.41421;"><path id="wingLHorn3" d="M10.905,6.929c0.988,0.13 1.978,-0.22 2.666,-0.94c0.688,-0.721 0.991,-1.727 0.816,-2.707c-0.058,-0.244 -0.129,-0.486 -0.224,-0.724c-2.02,-5.071 -10.208,0.673 -12.414,5.741c-0.045,0.132 0.002,0.278 0.115,0.36c0.113,0.082 0.267,0.081 0.379,-0.003c2.129,-1.425 5.32,-2.162 8.662,-1.727Z" style="fill:#923f39;"/><clipPath id="_clip1"><path d="M10.905,6.929c0.988,0.13 1.978,-0.22 2.666,-0.94c0.688,-0.721 0.991,-1.727 0.816,-2.707c-0.058,-0.244 -0.129,-0.486 -0.224,-0.724c-2.02,-5.071 -10.208,0.673 -12.414,5.741c-0.045,0.132 0.002,0.278 0.115,0.36c0.113,0.082 0.267,0.081 0.379,-0.003c2.129,-1.425 5.32,-2.162 8.662,-1.727Z"/></clipPath><g clip-path="url(#_clip1)"><path id="hornR" d="M1.596,9.086c-0.015,-0.003 -0.03,-0.008 -0.044,-0.017c-0.044,-0.029 -0.064,-0.084 -0.049,-0.134c1.751,-5.201 10.554,-11.661 12.66,-6.377c0.211,0.53 0.303,1.079 0.253,1.652c-1.307,-0.618 -2.441,-1.067 -2.945,0.276c-1.378,-2.081 -2.366,-1.766 -3.03,0.535c-1.105,-0.614 -3.021,-1.387 -2.417,0.869c-1.85,-0.666 -1.662,-0.097 -1.801,1.128c-1.608,0.077 -2.31,0.926 -2.627,2.068Z" style="fill:#c46751;"/><path d="M1.973,9.543c-0.016,0.014 -0.033,0.028 -0.049,0.042c-0.04,0.036 -0.099,0.037 -0.145,0.003c-0.047,-0.034 -0.07,-0.095 -0.058,-0.151c1.538,-5.694 10.214,-12.445 12.62,-6.472c0.311,0.774 0.42,1.576 0.281,2.412c-0.034,-0.477 -0.147,-0.942 -0.331,-1.398c-2.279,-5.658 -10.184,0.101 -12.318,5.564Z" style="fill:#e7a582;"/></g><path d="M10.905,6.929c0.988,0.13 1.978,-0.22 2.666,-0.94c0.688,-0.721 0.991,-1.727 0.816,-2.707c-0.058,-0.244 -0.129,-0.486 -0.224,-0.724c-2.02,-5.071 -10.208,0.673 -12.414,5.741c-0.045,0.132 0.002,0.278 0.115,0.36c0.113,0.082 0.267,0.081 0.379,-0.003c2.129,-1.425 5.32,-2.162 8.662,-1.727Z" style="fill:none;stroke:#000;stroke-width:1px;"/></svg>