<?xml version="1.0" encoding="UTF-8" standalone="no"?><!DOCTYPE svg PUBLIC "-//W3C//DTD SVG 1.1//EN" "http://www.w3.org/Graphics/SVG/1.1/DTD/svg11.dtd"><svg width="100%" height="100%" viewBox="0 0 17 24" version="1.1" xmlns="http://www.w3.org/2000/svg" xmlns:xlink="http://www.w3.org/1999/xlink" xml:space="preserve" xmlns:serif="http://www.serif.com/" style="fill-rule:evenodd;clip-rule:evenodd;stroke-linejoin:round;stroke-miterlimit:1.41421;"><path id="wingRHorn1" d="M3.71,10.06c-1.561,-0.789 -2.41,-2.518 -2.08,-4.236c0.371,-2.072 1.383,-3.487 2.873,-4.405c7.936,-4.89 13.237,11.879 10.698,20.683c-0.047,0.134 -0.176,0.221 -0.318,0.214c-0.141,-0.006 -0.262,-0.104 -0.297,-0.241c-1.317,-4.439 -5.279,-9.151 -10.876,-12.015Z" style="fill:#923f39;"/><clipPath id="_clip1"><path d="M3.71,10.06c-1.561,-0.789 -2.41,-2.518 -2.08,-4.236c0.371,-2.072 1.383,-3.487 2.873,-4.405c7.936,-4.89 13.237,11.879 10.698,20.683c-0.047,0.134 -0.176,0.221 -0.318,0.214c-0.141,-0.006 -0.262,-0.104 -0.297,-0.241c-1.317,-4.439 -5.279,-9.151 -10.876,-12.015Z"/></clipPath><g clip-path="url(#_clip1)"><path id="hornR" d="M14.803,22.612c0.023,0.011 0.049,0.018 0.076,0.02c0.088,0.006 0.169,-0.047 0.199,-0.129c2.825,-8.684 -2.516,-26.049 -10.575,-21.084c-0.807,0.498 -1.474,1.141 -1.977,1.955c2.359,0.472 4.319,0.998 3.659,3.293c3.906,-1.412 4.912,-0.011 3.514,3.721c2.084,0.278 5.41,1.148 2.366,3.561c3.13,0.947 2.314,1.52 1.284,3.293c2.071,1.701 2.166,3.531 1.454,5.37Z" style="fill:#c46751;"/><path d="M13.799,22.875c0.008,0.035 0.016,0.071 0.024,0.106c0.017,0.087 0.094,0.147 0.191,0.147c0.096,0.001 0.189,-0.059 0.228,-0.146c3.645,-9.154 -1.211,-26.797 -10.416,-21.174c-1.193,0.728 -2.141,1.695 -2.792,2.954c0.522,-0.605 1.14,-1.117 1.842,-1.546c8.719,-5.326 13.536,10.223 10.923,19.659Z" style="fill:#e7a582;"/></g><path d="M3.71,10.06c-1.561,-0.789 -2.41,-2.518 -2.08,-4.236c0.371,-2.072 1.383,-3.487 2.873,-4.405c7.936,-4.89 13.237,11.879 10.698,20.683c-0.047,0.134 -0.176,0.221 -0.318,0.214c-0.141,-0.006 -0.262,-0.104 -0.297,-0.241c-1.317,-4.439 -5.279,-9.151 -10.876,-12.015Z" style="fill:none;stroke:#000;stroke-width:1px;"/></svg>