<?xml version="1.0" encoding="UTF-8" standalone="no"?><!DOCTYPE svg PUBLIC "-//W3C//DTD SVG 1.1//EN" "http://www.w3.org/Graphics/SVG/1.1/DTD/svg11.dtd"><svg width="100%" height="100%" viewBox="0 0 14 26" version="1.1" xmlns="http://www.w3.org/2000/svg" xmlns:xlink="http://www.w3.org/1999/xlink" xml:space="preserve" xmlns:serif="http://www.serif.com/" style="fill-rule:evenodd;clip-rule:evenodd;stroke-linejoin:round;stroke-miterlimit:1.41421;"><path id="wingLHorn1" d="M11.859,7.562c0.66,-1.62 0.165,-3.481 -1.212,-4.561c-1.64,-1.319 -3.333,-1.721 -5.06,-1.435c-9.196,1.523 -2.184,17.651 5.513,22.624c0.123,0.07 0.277,0.05 0.38,-0.047c0.102,-0.098 0.129,-0.251 0.066,-0.378c-1.922,-4.212 -2.028,-10.368 0.313,-16.203Z" style="fill:#923f39;"/><clipPath id="_clip1"><path d="M11.859,7.562c0.66,-1.62 0.165,-3.481 -1.212,-4.561c-1.64,-1.319 -3.333,-1.721 -5.06,-1.435c-9.196,1.523 -2.184,17.651 5.513,22.624c0.123,0.07 0.277,0.05 0.38,-0.047c0.102,-0.098 0.129,-0.251 0.066,-0.378c-1.922,-4.212 -2.028,-10.368 0.313,-16.203Z"/></clipPath><g clip-path="url(#_clip1)"><path id="hornR" d="M11.734,24.313c-0.01,0.024 -0.024,0.046 -0.044,0.065c-0.062,0.062 -0.158,0.075 -0.235,0.033c-7.832,-4.695 -15.206,-21.299 -5.868,-22.845c0.936,-0.155 1.862,-0.108 2.776,0.176c-1.47,1.905 -2.603,3.589 -0.598,4.886c-3.873,1.5 -3.712,3.217 -0.207,5.114c-1.39,1.578 -3.327,4.418 0.553,4.239c-1.739,2.77 -0.747,2.666 1.194,3.327c-0.445,2.642 0.685,4.085 2.429,5.005Z" style="fill:#c46751;"/><path d="M12.192,23.946c0.017,0.032 0.033,0.064 0.05,0.096c0.042,0.077 0.025,0.173 -0.043,0.235c-0.067,0.063 -0.17,0.078 -0.252,0.037c-8.315,-4.6 -15.974,-21.147 -5.961,-22.827c1.298,-0.218 2.573,-0.096 3.821,0.439c-0.747,-0.122 -1.504,-0.111 -2.268,0.017c-9.484,1.591 -3.113,16.522 4.653,22.003Z" style="fill:#e7a582;"/></g><path d="M11.859,7.562c0.66,-1.62 0.165,-3.481 -1.212,-4.561c-1.64,-1.319 -3.333,-1.721 -5.06,-1.435c-9.196,1.523 -2.184,17.651 5.513,22.624c0.123,0.07 0.277,0.05 0.38,-0.047c0.102,-0.098 0.129,-0.251 0.066,-0.378c-1.922,-4.212 -2.028,-10.368 0.313,-16.203Z" style="fill:none;stroke:#000;stroke-width:1px;"/></svg>