<?xml version="1.0" encoding="UTF-8" standalone="no"?><!DOCTYPE svg PUBLIC "-//W3C//DTD SVG 1.1//EN" "http://www.w3.org/Graphics/SVG/1.1/DTD/svg11.dtd"><svg width="100%" height="100%" viewBox="0 0 29 31" version="1.1" xmlns="http://www.w3.org/2000/svg" xmlns:xlink="http://www.w3.org/1999/xlink" xml:space="preserve" xmlns:serif="http://www.serif.com/" style="fill-rule:evenodd;clip-rule:evenodd;stroke-linejoin:round;stroke-miterlimit:1.41421;"><path id="eyeN2" d="M24.138,1.262c1.573,2.188 2.808,4.822 3.534,7.761c2.372,9.601 -1.585,18.85 -8.831,20.64c-7.247,1.79 -15.056,-4.551 -17.428,-14.153c-0.617,-2.5 -0.806,-4.975 -0.619,-7.302c2.958,1.48 7.404,1.843 12.065,0.712c3.893,-0.944 7.175,-2.747 9.288,-4.872c0.881,-0.886 1.558,-1.827 1.991,-2.786Z" style="fill:#a8a6a6;"/><clipPath id="_clip1"><path d="M24.138,1.262c1.573,2.188 2.808,4.822 3.534,7.761c2.372,9.601 -1.585,18.85 -8.831,20.64c-7.247,1.79 -15.056,-4.551 -17.428,-14.153c-0.617,-2.5 -0.806,-4.975 -0.619,-7.302c2.958,1.48 7.404,1.843 12.065,0.712c3.893,-0.944 7.175,-2.747 9.288,-4.872c0.881,-0.886 1.558,-1.827 1.991,-2.786Z"/></clipPath><g clip-path="url(#_clip1)"><path d="M10.925,-5.275c-6.117,1.978 -9.381,10.039 -7.316,18.397c2.135,8.641 9.163,14.349 15.685,12.738c6.308,-1.558 9.846,-9.396 8.141,-17.727c0.084,0.294 0.163,0.59 0.237,0.89c2.372,9.601 -1.585,18.85 -8.831,20.64c-7.247,1.79 -15.056,-4.551 -17.428,-14.153c-2.372,-9.602 1.586,-18.851 8.832,-20.641c0.226,-0.056 0.453,-0.104 0.68,-0.144Z" style="fill-opacity:0.4;"/><path d="M16.077,3.95c3.906,-0.965 8.117,2.454 9.396,7.631c1.279,5.177 -0.855,10.163 -4.762,11.128c-3.907,0.965 -8.117,-2.454 -9.396,-7.631c-1.279,-5.176 0.855,-10.163 4.762,-11.128Z"/><path id="eye" d="M24.094,1.357c0.135,0.137 0.269,0.276 0.401,0.418c1.403,2.082 2.507,4.535 3.177,7.248c0.036,0.145 0.071,0.29 0.103,0.435c-0.867,1.875 -2.319,3.252 -4.176,3.71c-3.167,0.783 -6.536,-1.348 -8.346,-4.962c2.842,-1.012 5.231,-2.485 6.894,-4.158c0.851,-0.856 1.513,-1.765 1.947,-2.691Z" style="fill:#fff;fill-opacity:0.4;"/></g><path d="M24.138,1.262c1.573,2.188 2.808,4.822 3.534,7.761c2.372,9.601 -1.585,18.85 -8.831,20.64c-7.247,1.79 -15.056,-4.551 -17.428,-14.153c-0.617,-2.5 -0.806,-4.975 -0.619,-7.302c2.958,1.48 7.404,1.843 12.065,0.712c3.893,-0.944 7.175,-2.747 9.288,-4.872c0.881,-0.886 1.558,-1.827 1.991,-2.786Z" style="fill:none;stroke:#000;stroke-width:1px;"/></svg>