<?xml version="1.0" encoding="UTF-8" standalone="no"?><!DOCTYPE svg PUBLIC "-//W3C//DTD SVG 1.1//EN" "http://www.w3.org/Graphics/SVG/1.1/DTD/svg11.dtd"><svg width="100%" height="100%" viewBox="0 0 16 9" version="1.1" xmlns="http://www.w3.org/2000/svg" xmlns:xlink="http://www.w3.org/1999/xlink" xml:space="preserve" xmlns:serif="http://www.serif.com/" style="fill-rule:evenodd;clip-rule:evenodd;stroke-linejoin:round;stroke-miterlimit:1.41421;"><path id="wingRHorn3" d="M6.394,6.853c-0.66,0.746 -1.636,1.133 -2.628,1.041c-0.992,-0.092 -1.881,-0.652 -2.393,-1.506c-0.116,-0.222 -0.222,-0.451 -0.306,-0.692c-1.806,-5.152 8.141,-6.196 13.133,-3.822c0.12,0.07 0.181,0.211 0.149,0.347c-0.032,0.136 -0.148,0.236 -0.288,0.246c-2.541,0.323 -5.432,1.863 -7.667,4.386Z" style="fill:#923f39;"/><clipPath id="_clip1"><path d="M6.394,6.853c-0.66,0.746 -1.636,1.133 -2.628,1.041c-0.992,-0.092 -1.881,-0.652 -2.393,-1.506c-0.116,-0.222 -0.222,-0.451 -0.306,-0.692c-1.806,-5.152 8.141,-6.196 13.133,-3.822c0.12,0.07 0.181,0.211 0.149,0.347c-0.032,0.136 -0.148,0.236 -0.288,0.246c-2.541,0.323 -5.432,1.863 -7.667,4.386Z"/></clipPath><g clip-path="url(#_clip1)"><path id="hornR" d="M14.831,2.367c0.01,-0.012 0.018,-0.026 0.022,-0.042c0.015,-0.051 -0.006,-0.105 -0.05,-0.133c-4.737,-2.773 -15.618,-1.865 -13.736,3.504c0.188,0.537 0.48,1.012 0.894,1.412c0.579,-1.325 1.14,-2.408 2.403,-1.727c-0.328,-2.474 0.624,-2.885 2.635,-1.585c0.431,-1.189 1.368,-3.03 2.394,-0.932c0.959,-1.717 1.19,-1.164 2.099,-0.332c1.264,-0.998 2.351,-0.819 3.339,-0.165Z" style="fill:#c46751;"/><path d="M14.874,3.044c0.022,0 0.044,0 0.065,0c0.054,0.001 0.099,-0.037 0.111,-0.094c0.013,-0.057 -0.011,-0.12 -0.057,-0.154c-4.923,-3.365 -15.915,-2.808 -13.772,3.388c0.278,0.804 0.726,1.493 1.384,2.044c-0.29,-0.389 -0.513,-0.822 -0.676,-1.295c-2.03,-5.87 7.726,-6.68 12.945,-3.889Z" style="fill:#e7a582;"/></g><path d="M6.394,6.853c-0.66,0.746 -1.636,1.133 -2.628,1.041c-0.992,-0.092 -1.881,-0.652 -2.393,-1.506c-0.116,-0.222 -0.222,-0.451 -0.306,-0.692c-1.806,-5.152 8.141,-6.196 13.133,-3.822c0.12,0.07 0.181,0.211 0.149,0.347c-0.032,0.136 -0.148,0.236 -0.288,0.246c-2.541,0.323 -5.432,1.863 -7.667,4.386Z" style="fill:none;stroke:#000;stroke-width:1px;"/></svg>