<?xml version="1.0" encoding="UTF-8" standalone="no"?><!DOCTYPE svg PUBLIC "-//W3C//DTD SVG 1.1//EN" "http://www.w3.org/Graphics/SVG/1.1/DTD/svg11.dtd"><svg width="100%" height="100%" viewBox="0 0 66 66" version="1.1" xmlns="http://www.w3.org/2000/svg" xmlns:xlink="http://www.w3.org/1999/xlink" xml:space="preserve" xmlns:serif="http://www.serif.com/" style="fill-rule:evenodd;clip-rule:evenodd;stroke-linejoin:round;stroke-miterlimit:1.41421;"><circle id="body" cx="32.944" cy="32.641" r="32.028" style="fill:#b74f4f;"/><clipPath id="_clip1"><circle cx="32.944" cy="32.641" r="32.028"/></clipPath><g clip-path="url(#_clip1)"><ellipse cx="31.455" cy="33.584" rx="30.164" ry="30.567" style="fill:#782b2b;"/><path d="M64.954,31.542c0.012,0.365 0.018,0.731 0.018,1.099c0,17.677 -14.351,32.028 -32.028,32.028c-17.677,0 -32.028,-14.351 -32.028,-32.028c0,-17.677 14.351,-32.029 32.028,-32.029c0.367,0 0.734,0.006 1.098,0.019c-15.995,0.559 -28.81,13.72 -28.81,29.851c0,16.486 13.385,29.87 29.87,29.87c16.131,0 29.293,-12.814 29.852,-28.81Z" style="fill:#4b2222;"/><path id="body1" serif:id="body" d="M34.412,0.645c16.78,0.759 30.215,14.455 30.554,31.341c-5.16,-1.122 -12.138,-5.405 -18.555,-11.823c-6.827,-6.826 -11.238,-14.285 -11.999,-19.518Z" style="fill:#b74f4f;"/></g><circle cx="32.944" cy="32.641" r="32.028" style="fill:none;stroke:#000;stroke-width:1px;"/></svg>