<?xml version="1.0" encoding="UTF-8" standalone="no"?><!DOCTYPE svg PUBLIC "-//W3C//DTD SVG 1.1//EN" "http://www.w3.org/Graphics/SVG/1.1/DTD/svg11.dtd"><svg width="100%" height="100%" viewBox="0 0 12 19" version="1.1" xmlns="http://www.w3.org/2000/svg" xmlns:xlink="http://www.w3.org/1999/xlink" xml:space="preserve" xmlns:serif="http://www.serif.com/" style="fill-rule:evenodd;clip-rule:evenodd;stroke-linejoin:round;stroke-miterlimit:1.41421;"><path id="wingLHorn2" d="M8.649,7.918c1.058,-0.831 1.61,-2.152 1.458,-3.489c-0.151,-1.337 -0.985,-2.501 -2.203,-3.074c-0.065,-0.042 -0.135,-0.073 -0.206,-0.103c-6.252,-2.642 -8.272,9.8 -5.603,16.034c0.065,0.125 0.203,0.193 0.342,0.167c0.138,-0.025 0.244,-0.138 0.26,-0.277c0.522,-3.135 2.635,-6.651 5.952,-9.258Z" style="fill:#923f39;"/><clipPath id="_clip1"><path d="M8.649,7.918c1.058,-0.831 1.61,-2.152 1.458,-3.489c-0.151,-1.337 -0.985,-2.501 -2.203,-3.074c-0.065,-0.042 -0.135,-0.073 -0.206,-0.103c-6.252,-2.642 -8.272,9.8 -5.603,16.034c0.065,0.125 0.203,0.193 0.342,0.167c0.138,-0.025 0.244,-0.138 0.26,-0.277c0.522,-3.135 2.635,-6.651 5.952,-9.258Z"/></clipPath><g clip-path="url(#_clip1)"><path id="hornR" d="M2.558,17.872c-0.016,0.011 -0.034,0.019 -0.054,0.023c-0.063,0.014 -0.128,-0.015 -0.16,-0.072c-3.034,-6.02 -1.083,-19.292 5.354,-16.571c0.645,0.272 1.204,0.667 1.663,1.205c-1.669,0.608 -3.041,1.212 -2.302,2.813c-3.009,-0.593 -3.585,0.543 -2.147,3.109c-1.49,0.437 -3.82,1.444 -1.327,2.864c-2.179,1.042 -1.519,1.369 -0.568,2.547c-1.321,1.473 -1.185,2.82 -0.459,4.082Z" style="fill:#c46751;"/><path d="M3.603,18.061c-0.002,0.027 -0.003,0.053 -0.005,0.08c-0.001,0.066 -0.053,0.118 -0.126,0.128c-0.073,0.01 -0.151,-0.025 -0.192,-0.085c-3.952,-6.375 -2.544,-19.855 5.176,-16.64c1,0.417 1.846,1.033 2.503,1.895c-0.475,-0.393 -1.011,-0.708 -1.6,-0.954c-7.312,-3.045 -8.962,8.89 -5.756,15.576Z" style="fill:#e7a582;"/></g><path d="M8.649,7.918c1.058,-0.831 1.61,-2.152 1.458,-3.489c-0.151,-1.337 -0.985,-2.501 -2.203,-3.074c-0.065,-0.042 -0.135,-0.073 -0.206,-0.103c-6.252,-2.642 -8.272,9.8 -5.603,16.034c0.065,0.125 0.203,0.193 0.342,0.167c0.138,-0.025 0.244,-0.138 0.26,-0.277c0.522,-3.135 2.635,-6.651 5.952,-9.258Z" style="fill:none;stroke:#000;stroke-width:1px;"/></svg>