<?xml version="1.0" encoding="UTF-8" standalone="no"?><!DOCTYPE svg PUBLIC "-//W3C//DTD SVG 1.1//EN" "http://www.w3.org/Graphics/SVG/1.1/DTD/svg11.dtd"><svg width="100%" height="100%" viewBox="0 0 30 35" version="1.1" xmlns="http://www.w3.org/2000/svg" xmlns:xlink="http://www.w3.org/1999/xlink" xml:space="preserve" xmlns:serif="http://www.serif.com/" style="fill-rule:evenodd;clip-rule:evenodd;stroke-linejoin:round;stroke-miterlimit:1.41421;"><path id="hornL" d="M25.582,17.083c1.586,0.246 2.863,1.434 3.223,2.998c1.098,4.602 0.188,8.018 -2.173,10.582c-10.41,11.306 -26.397,-13.485 -25.802,-28.301c0.011,-0.142 0.115,-0.259 0.254,-0.289c0.139,-0.03 0.282,0.034 0.351,0.159c4.049,6.915 13.155,13.073 24.147,14.851Z" style="fill:#923f39;"/><clipPath id="_clip1"><path d="M25.582,17.083c1.586,0.246 2.863,1.434 3.223,2.998c1.098,4.602 0.188,8.018 -2.173,10.582c-10.41,11.306 -26.397,-13.485 -25.802,-28.301c0.011,-0.142 0.115,-0.259 0.254,-0.289c0.139,-0.03 0.282,0.034 0.351,0.159c4.049,6.915 13.155,13.073 24.147,14.851Z"/></clipPath><g clip-path="url(#_clip1)"><path id="hornL1" serif:id="hornL" d="M0.884,4.965c-0.068,-0.894 -0.088,-1.764 -0.054,-2.603c0.011,-0.142 0.115,-0.259 0.254,-0.289c0.139,-0.03 0.282,0.034 0.351,0.159c4.049,6.915 13.155,13.073 24.147,14.851c1.586,0.246 2.863,1.434 3.223,2.998c1.098,4.602 0.188,8.018 -2.173,10.582c-1.68,1.825 -3.505,2.709 -5.383,2.847c0.032,-3.363 -0.199,-6.199 -3.221,-6.894c0.567,-2.246 1.356,-4.642 -3.832,-5.374c0.223,-1.922 -1.9,-7.514 -5.851,-5.088c-0.347,-4.906 -2.598,-4.537 -5.164,-4.389c-1.206,-2.995 -1.702,-5.274 -2.297,-6.8Z" style="fill:#c46751;"/><path d="M0.814,3.086c0.001,-0.243 0.006,-0.485 0.016,-0.724c0.011,-0.142 0.115,-0.259 0.254,-0.289c0.139,-0.03 0.282,0.034 0.351,0.159c4.049,6.915 13.155,13.073 24.147,14.851c1.586,0.246 2.863,1.434 3.223,2.998c1.098,4.602 0.188,8.018 -2.173,10.582c-1,1.087 -2.052,1.84 -3.136,2.3c0.176,-0.149 0.35,-0.308 0.524,-0.475c2.509,-2.419 3.621,-5.775 2.799,-10.434c-0.266,-1.583 -1.47,-2.845 -3.038,-3.185c-10.623,-2.376 -19.196,-8.821 -22.967,-15.783Z" style="fill:#e7a582;"/></g><path d="M25.582,17.083c1.586,0.246 2.863,1.434 3.223,2.998c1.098,4.602 0.188,8.018 -2.173,10.582c-10.41,11.306 -26.397,-13.485 -25.802,-28.301c0.011,-0.142 0.115,-0.259 0.254,-0.289c0.139,-0.03 0.282,0.034 0.351,0.159c4.049,6.915 13.155,13.073 24.147,14.851Z" style="fill:none;stroke:#000;stroke-width:1px;"/></svg>