<?xml version="1.0" encoding="UTF-8" standalone="no"?><!DOCTYPE svg PUBLIC "-//W3C//DTD SVG 1.1//EN" "http://www.w3.org/Graphics/SVG/1.1/DTD/svg11.dtd"><svg width="100%" height="100%" viewBox="0 0 18 14" version="1.1" xmlns="http://www.w3.org/2000/svg" xmlns:xlink="http://www.w3.org/1999/xlink" xml:space="preserve" xmlns:serif="http://www.serif.com/" style="fill-rule:evenodd;clip-rule:evenodd;stroke-linejoin:round;stroke-miterlimit:1.41421;"><path id="wingRHorn2" d="M5.311,9.017c-1.344,0.068 -2.627,-0.566 -3.391,-1.674c-0.764,-1.108 -0.898,-2.533 -0.356,-3.765c0.021,-0.074 0.053,-0.144 0.087,-0.213c2.981,-6.098 12.675,1.96 14.755,8.414c0.032,0.137 -0.028,0.279 -0.149,0.351c-0.12,0.071 -0.274,0.056 -0.378,-0.039c-2.452,-2.021 -6.354,-3.285 -10.568,-3.074Z" style="fill:#923f39;"/><clipPath id="_clip1"><path d="M5.311,9.017c-1.344,0.068 -2.627,-0.566 -3.391,-1.674c-0.764,-1.108 -0.898,-2.533 -0.356,-3.765c0.021,-0.074 0.053,-0.144 0.087,-0.213c2.981,-6.098 12.675,1.96 14.755,8.414c0.032,0.137 -0.028,0.279 -0.149,0.351c-0.12,0.071 -0.274,0.056 -0.378,-0.039c-2.452,-2.021 -6.354,-3.285 -10.568,-3.074Z"/></clipPath><g clip-path="url(#_clip1)"><path id="hornR" d="M16.441,12.525c0.019,-0.002 0.038,-0.008 0.056,-0.018c0.057,-0.031 0.086,-0.095 0.073,-0.159c-1.664,-6.533 -11.85,-15.262 -14.919,-8.983c-0.307,0.629 -0.47,1.293 -0.463,2c1.659,-0.637 3.09,-1.082 3.583,0.611c1.881,-2.423 3.061,-1.945 3.662,0.935c1.41,-0.649 3.829,-1.419 2.881,1.288c2.327,-0.644 2.044,0.036 2.101,1.549c1.963,0.244 2.745,1.348 3.026,2.777Z" style="fill:#c46751;"/><path d="M16.01,12.912c0.02,0.018 0.039,0.037 0.057,0.055c0.046,0.048 0.118,0.055 0.177,0.019c0.059,-0.036 0.093,-0.107 0.082,-0.175c-1.425,-6.988 -11.469,-15.984 -14.873,-9.072c-0.441,0.896 -0.637,1.846 -0.533,2.863c0.079,-0.568 0.253,-1.114 0.513,-1.641c3.225,-6.548 12.407,1.178 14.577,7.951Z" style="fill:#e7a582;"/></g><path d="M5.311,9.017c-1.344,0.068 -2.627,-0.566 -3.391,-1.674c-0.764,-1.108 -0.898,-2.533 -0.356,-3.765c0.021,-0.074 0.053,-0.144 0.087,-0.213c2.981,-6.098 12.675,1.96 14.755,8.414c0.032,0.137 -0.028,0.279 -0.149,0.351c-0.12,0.071 -0.274,0.056 -0.378,-0.039c-2.452,-2.021 -6.354,-3.285 -10.568,-3.074Z" style="fill:none;stroke:#000;stroke-width:1px;"/></svg>