<?xml version="1.0" encoding="UTF-8" standalone="no"?><!DOCTYPE svg PUBLIC "-//W3C//DTD SVG 1.1//EN" "http://www.w3.org/Graphics/SVG/1.1/DTD/svg11.dtd"><svg width="100%" height="100%" viewBox="0 0 11 18" version="1.1" xmlns="http://www.w3.org/2000/svg" xmlns:xlink="http://www.w3.org/1999/xlink" xml:space="preserve" xmlns:serif="http://www.serif.com/" style="fill-rule:evenodd;clip-rule:evenodd;stroke-linejoin:round;stroke-miterlimit:1.41421;"><path id="wingRHorn2" d="M8.747,12.452c0.309,1.348 -0.117,2.758 -1.119,3.711c-1.002,0.952 -2.432,1.305 -3.762,0.929c-0.007,0.019 -0.008,0.018 -0.009,0.018c-6.518,-1.849 -0.32,-12.796 5.652,-15.984c0.129,-0.057 0.279,-0.023 0.372,0.083c0.092,0.106 0.104,0.26 0.029,0.38c-1.544,2.753 -2.097,6.783 -1.163,10.863Z" style="fill:#923f39;"/><clipPath id="_clip1"><path d="M8.747,12.452c0.309,1.348 -0.117,2.758 -1.119,3.711c-1.002,0.952 -2.432,1.305 -3.762,0.929c-0.007,0.019 -0.008,0.018 -0.009,0.018c-6.518,-1.849 -0.32,-12.796 5.652,-15.984c0.129,-0.057 0.279,-0.023 0.372,0.083c0.092,0.106 0.104,0.26 0.029,0.38c-1.544,2.753 -2.097,6.783 -1.163,10.863Z"/></clipPath><g clip-path="url(#_clip1)"><path d="M9.247,0.601c1.148,1.666 -0.288,1.944 -2.49,4.302c0.553,1.027 1.137,1.882 -0.814,2.966c1.756,1.16 -0.137,3.107 -0.97,3.384c0.695,2.274 -0.442,2.41 -1.475,2.608c0.5,2.338 -3.088,2.549 -5.129,4.213l15.517,2.344l0.194,-16.46" style="fill:#c46751;"/><path d="M10.05,-0.155c0.108,-0.043 0.215,-0.083 0.322,-0.121c0.065,-0.02 0.136,0.008 0.176,0.068c0.039,0.06 0.038,0.139 -0.004,0.193c-2.277,3.129 -3.263,8.5 -1.965,13.98c0.192,0.789 -0.089,1.599 -0.709,2.046c-1.818,1.332 -3.494,1.51 -5.069,0.856c-0.668,-0.278 -1.199,-0.638 -1.606,-1.066c0.099,0.056 0.201,0.11 0.308,0.162c1.54,0.75 3.227,0.677 5.122,-0.536c0.647,-0.405 0.974,-1.195 0.827,-1.992c-0.966,-5.412 0.248,-10.584 2.598,-13.59Z" style="fill:#e7a582;"/></g><path d="M8.747,12.452c0.309,1.348 -0.117,2.758 -1.119,3.711c-1.002,0.952 -2.432,1.305 -3.762,0.929c-0.007,0.019 -0.008,0.018 -0.009,0.018c-6.518,-1.849 -0.32,-12.796 5.652,-15.984c0.129,-0.057 0.279,-0.023 0.372,0.083c0.092,0.106 0.104,0.26 0.029,0.38c-1.544,2.753 -2.097,6.783 -1.163,10.863Z" style="fill:none;stroke:#000;stroke-width:1px;"/></svg>