<?xml version="1.0" encoding="UTF-8" standalone="no"?><!DOCTYPE svg PUBLIC "-//W3C//DTD SVG 1.1//EN" "http://www.w3.org/Graphics/SVG/1.1/DTD/svg11.dtd"><svg width="100%" height="100%" viewBox="0 0 21 20" version="1.1" xmlns="http://www.w3.org/2000/svg" xmlns:xlink="http://www.w3.org/1999/xlink" xml:space="preserve" xmlns:serif="http://www.serif.com/" style="fill-rule:evenodd;clip-rule:evenodd;stroke-linejoin:round;stroke-miterlimit:1.41421;"><path id="wingRHorn1" d="M11.725,15.751c-0.147,1.744 -1.433,3.179 -3.15,3.516c-2.056,0.431 -3.745,0.022 -5.153,-1.014c-7.5,-5.522 6.05,-16.709 15.157,-17.652c0.142,-0.007 0.27,0.08 0.318,0.214c0.047,0.133 0.001,0.282 -0.113,0.366c-3.618,2.881 -6.501,8.315 -7.059,14.57Z" style="fill:#923f39;"/><clipPath id="_clip1"><path d="M11.725,15.751c-0.147,1.744 -1.433,3.179 -3.15,3.516c-2.056,0.431 -3.745,0.022 -5.153,-1.014c-7.5,-5.522 6.05,-16.709 15.157,-17.652c0.142,-0.007 0.27,0.08 0.318,0.214c0.047,0.133 0.001,0.282 -0.113,0.366c-3.618,2.881 -6.501,8.315 -7.059,14.57Z"/></clipPath><g clip-path="url(#_clip1)"><path d="M18.114,-0.146c0.666,2.662 -1.289,2.331 -5.206,4.278c0.214,1.568 0.549,2.93 -2.444,3.38c1.679,2.307 -1.65,3.879 -2.839,3.835c-0.2,3.218 -1.707,2.85 -3.113,2.61c-0.477,3.207 -5.133,1.769 -8.515,2.911l18.588,10.352l8.07,-20.806" style="fill:#c46751;"/><path d="M18.506,0.394c0.155,-0.016 0.309,-0.03 0.461,-0.041c0.091,-0.002 0.172,0.053 0.201,0.138c0.029,0.084 -0.003,0.177 -0.077,0.228c-4.113,2.99 -7.401,9.058 -7.781,15.988c-0.048,0.999 -0.715,1.872 -1.683,2.204c-2.846,1.002 -5.076,0.677 -6.865,-0.605c-0.757,-0.544 -1.307,-1.143 -1.673,-1.781c0.107,0.098 0.219,0.195 0.337,0.29c1.706,1.385 3.912,1.839 6.814,1.005c0.986,-0.276 1.705,-1.109 1.814,-2.104c0.784,-6.743 4.291,-12.501 8.452,-15.322Z" style="fill:#e7a582;"/></g><path d="M11.725,15.751c-0.147,1.744 -1.433,3.179 -3.15,3.516c-2.056,0.431 -3.745,0.022 -5.153,-1.014c-7.5,-5.522 6.05,-16.709 15.157,-17.652c0.142,-0.007 0.27,0.08 0.318,0.214c0.047,0.133 0.001,0.282 -0.113,0.366c-3.618,2.881 -6.501,8.315 -7.059,14.57Z" style="fill:none;stroke:#000;stroke-width:1px;"/></svg>