<?xml version="1.0" encoding="UTF-8" standalone="no"?><!DOCTYPE svg PUBLIC "-//W3C//DTD SVG 1.1//EN" "http://www.w3.org/Graphics/SVG/1.1/DTD/svg11.dtd"><svg width="100%" height="100%" viewBox="0 0 13 12" version="1.1" xmlns="http://www.w3.org/2000/svg" xmlns:xlink="http://www.w3.org/1999/xlink" xml:space="preserve" xmlns:serif="http://www.serif.com/" style="fill-rule:evenodd;clip-rule:evenodd;stroke-linejoin:round;stroke-miterlimit:1.41421;"><path id="wingRHorn3" d="M3.706,5.137c-0.991,0.111 -1.869,0.687 -2.364,1.551c-0.496,0.865 -0.549,1.914 -0.144,2.824c0.114,0.223 0.241,0.441 0.39,0.649c3.175,4.44 9.75,-3.096 10.68,-8.545c0.012,-0.139 -0.069,-0.27 -0.198,-0.322c-0.13,-0.053 -0.278,-0.014 -0.367,0.094c-1.726,1.893 -4.648,3.372 -7.997,3.749Z" style="fill:#923f39;"/><clipPath id="_clip1"><path d="M3.706,5.137c-0.991,0.111 -1.869,0.687 -2.364,1.551c-0.496,0.865 -0.549,1.914 -0.144,2.824c0.114,0.223 0.241,0.441 0.39,0.649c3.175,4.44 9.75,-3.096 10.68,-8.545c0.012,-0.139 -0.069,-0.27 -0.198,-0.322c-0.13,-0.053 -0.278,-0.014 -0.367,0.094c-1.726,1.893 -4.648,3.372 -7.997,3.749Z"/></clipPath><g clip-path="url(#_clip1)"><path id="hornR" d="M12.227,0.815c0.016,-0.001 0.032,0.001 0.048,0.007c0.049,0.017 0.082,0.065 0.08,0.118c-0.457,5.469 -7.458,13.848 -10.767,9.221c-0.332,-0.464 -0.552,-0.976 -0.641,-1.544c1.417,0.288 2.625,0.452 2.794,-0.973c1.836,1.692 2.719,1.15 2.813,-1.244c1.22,0.332 3.265,0.624 2.14,-1.422c1.955,0.204 1.636,-0.304 1.478,-1.526c1.543,-0.46 2.022,-1.452 2.055,-2.637Z" style="fill:#c46751;"/><path d="M11.488,0.116c0.012,-0.018 0.025,-0.036 0.037,-0.054c0.029,-0.046 0.087,-0.059 0.143,-0.034c0.056,0.026 0.097,0.084 0.1,0.144c0.119,6.222 -6.542,15.046 -10.655,9.368c-0.533,-0.736 -0.872,-1.544 -0.975,-2.439c0.17,0.486 0.417,0.944 0.731,1.378c3.896,5.379 10.078,-2.255 10.619,-8.363Z" style="fill:#e7a582;"/></g><path d="M3.706,5.137c-0.991,0.111 -1.869,0.687 -2.364,1.551c-0.496,0.865 -0.549,1.914 -0.144,2.824c0.114,0.223 0.241,0.441 0.39,0.649c3.175,4.44 9.75,-3.096 10.68,-8.545c0.012,-0.139 -0.069,-0.27 -0.198,-0.322c-0.13,-0.053 -0.278,-0.014 -0.367,0.094c-1.726,1.893 -4.648,3.372 -7.997,3.749Z" style="fill:none;stroke:#000;stroke-width:1px;"/></svg>