<?xml version="1.0" encoding="UTF-8" standalone="no"?><!DOCTYPE svg PUBLIC "-//W3C//DTD SVG 1.1//EN" "http://www.w3.org/Graphics/SVG/1.1/DTD/svg11.dtd"><svg width="100%" height="100%" viewBox="0 0 59 59" version="1.1" xmlns="http://www.w3.org/2000/svg" xmlns:xlink="http://www.w3.org/1999/xlink" xml:space="preserve" xmlns:serif="http://www.serif.com/" style="fill-rule:evenodd;clip-rule:evenodd;stroke-linejoin:round;stroke-miterlimit:1.41421;"><g id="feather"><g><g><g opacity="0.8"><path d="M43.976,10.421c0.992,-1.466 2.47,-2.395 3.757,-2.051c1.342,0.36 2.178,2.023 2.27,3.862l-0.265,1.616c-0.049,-1.965 -0.906,-3.778 -2.323,-4.155c-1.418,-0.378 -3.064,0.769 -4.083,2.45l0.644,-1.722Z" style="fill:#6a2b2b;"/><path d="M43.976,10.421l-0.316,0.421c0.973,-3.671 3.193,-6.268 4.954,-5.797c1.762,0.471 2.402,3.834 1.429,7.505l-0.04,-0.318c0.489,-2.957 -0.203,-5.441 -1.709,-5.842c-1.472,-0.392 -3.26,1.33 -4.318,4.031Z" style="fill:#e7a582;fill-opacity:0.5;"/><path d="M43.976,10.421c1.058,-2.701 2.846,-4.423 4.318,-4.031c1.506,0.401 2.198,2.885 1.709,5.842c-0.092,-1.839 -0.928,-3.502 -2.27,-3.862c-1.287,-0.344 -2.765,0.585 -3.757,2.051Z" style="fill:#923f39;"/><path d="M47.727,19.58c0.993,-1.465 2.47,-2.394 3.757,-2.05c1.342,0.359 2.178,2.023 2.27,3.862l-0.265,1.616c-0.049,-1.965 -0.906,-3.778 -2.323,-4.156c-1.418,-0.377 -3.063,0.77 -4.083,2.45l0.644,-1.722Z" style="fill:#6a2b2b;"/><path d="M47.727,19.58l-0.316,0.422c0.973,-3.671 3.193,-6.268 4.954,-5.797c1.762,0.471 2.402,3.834 1.429,7.504l-0.04,-0.317c0.489,-2.958 -0.203,-5.441 -1.709,-5.842c-1.472,-0.392 -3.26,1.33 -4.318,4.03Z" style="fill:#e7a582;fill-opacity:0.5;"/><path d="M47.727,19.58c1.058,-2.7 2.846,-4.422 4.318,-4.03c1.506,0.401 2.198,2.884 1.709,5.842c-0.092,-1.839 -0.928,-3.503 -2.27,-3.862c-1.287,-0.344 -2.764,0.585 -3.757,2.05Z" style="fill:#923f39;"/><path d="M35.163,14.741c0.992,-1.466 2.469,-2.395 3.756,-2.051c1.342,0.359 2.178,2.023 2.27,3.862l-0.265,1.616c-0.048,-1.965 -0.906,-3.778 -2.323,-4.155c-1.418,-0.378 -3.063,0.769 -4.083,2.45l0.645,-1.722Z" style="fill:#6a2b2b;"/><path d="M35.163,14.741l-0.317,0.421c0.973,-3.671 3.193,-6.268 4.954,-5.797c1.762,0.471 2.402,3.834 1.429,7.505l-0.04,-0.318c0.489,-2.957 -0.203,-5.441 -1.709,-5.842c-1.472,-0.392 -3.26,1.33 -4.317,4.031Z" style="fill:#e7a582;fill-opacity:0.5;"/><path d="M35.163,14.741c1.057,-2.701 2.845,-4.423 4.317,-4.031c1.506,0.401 2.198,2.885 1.709,5.842c-0.092,-1.839 -0.928,-3.503 -2.27,-3.862c-1.287,-0.344 -2.764,0.585 -3.756,2.051Z" style="fill:#923f39;"/><path d="M27.107,5.742c0.992,-1.465 2.469,-2.394 3.756,-2.05c1.342,0.359 2.178,2.023 2.27,3.862l-0.265,1.616c-0.048,-1.965 -0.906,-3.778 -2.323,-4.156c-1.418,-0.377 -3.063,0.77 -4.083,2.45l0.645,-1.722Z" style="fill:#6a2b2b;"/><path d="M27.107,5.742l-0.317,0.422c0.973,-3.671 3.193,-6.268 4.954,-5.797c1.762,0.471 2.402,3.834 1.429,7.504l-0.04,-0.317c0.489,-2.958 -0.203,-5.441 -1.709,-5.842c-1.472,-0.392 -3.26,1.33 -4.317,4.03Z" style="fill:#e7a582;fill-opacity:0.5;"/><path d="M27.107,5.742c1.057,-2.7 2.845,-4.422 4.317,-4.03c1.506,0.401 2.198,2.884 1.709,5.842c-0.092,-1.839 -0.928,-3.503 -2.27,-3.862c-1.287,-0.344 -2.764,0.585 -3.756,2.05Z" style="fill:#923f39;"/><path d="M11.011,10.24c0.992,-1.465 2.469,-2.394 3.756,-2.05c1.342,0.359 2.178,2.023 2.27,3.862l-0.265,1.616c-0.048,-1.965 -0.905,-3.778 -2.323,-4.155c-1.418,-0.378 -3.063,0.769 -4.082,2.449l0.644,-1.722Z" style="fill:#6a2b2b;"/><path d="M11.011,10.24l-0.317,0.422c0.973,-3.671 3.193,-6.268 4.955,-5.797c1.761,0.471 2.402,3.834 1.429,7.504l-0.041,-0.317c0.49,-2.958 -0.203,-5.441 -1.708,-5.842c-1.472,-0.392 -3.26,1.33 -4.318,4.03Z" style="fill:#e7a582;fill-opacity:0.5;"/><path d="M11.011,10.24c1.058,-2.7 2.846,-4.422 4.318,-4.03c1.505,0.401 2.198,2.884 1.708,5.842c-0.092,-1.839 -0.928,-3.503 -2.27,-3.862c-1.287,-0.344 -2.764,0.585 -3.756,2.05Z" style="fill:#923f39;"/><path d="M19.798,15.456c0.992,-1.465 2.47,-2.394 3.757,-2.05c1.342,0.359 2.178,2.023 2.27,3.862l-0.265,1.616c-0.049,-1.965 -0.906,-3.778 -2.323,-4.156c-1.418,-0.377 -3.064,0.769 -4.083,2.45l0.644,-1.722Z" style="fill:#6a2b2b;"/><path d="M19.798,15.456l-0.316,0.421c0.973,-3.67 3.193,-6.268 4.954,-5.796c1.762,0.471 2.402,3.834 1.429,7.504l-0.04,-0.317c0.489,-2.958 -0.203,-5.441 -1.709,-5.842c-1.472,-0.392 -3.26,1.329 -4.318,4.03Z" style="fill:#e7a582;fill-opacity:0.5;"/><path d="M19.798,15.456c1.058,-2.701 2.846,-4.422 4.318,-4.03c1.506,0.401 2.198,2.884 1.709,5.842c-0.092,-1.839 -0.928,-3.503 -2.27,-3.862c-1.287,-0.344 -2.765,0.585 -3.757,2.05Z" style="fill:#923f39;"/><path d="M32.905,24.936c0.992,-1.465 2.469,-2.394 3.756,-2.05c1.342,0.359 2.178,2.023 2.27,3.862l-0.265,1.616c-0.048,-1.965 -0.906,-3.778 -2.323,-4.156c-1.418,-0.377 -3.063,0.769 -4.083,2.45l0.645,-1.722Z" style="fill:#6a2b2b;"/><path d="M32.905,24.936l-0.317,0.421c0.973,-3.67 3.193,-6.267 4.954,-5.796c1.762,0.471 2.402,3.834 1.429,7.504l-0.04,-0.317c0.489,-2.958 -0.203,-5.441 -1.709,-5.842c-1.472,-0.392 -3.26,1.33 -4.317,4.03Z" style="fill:#e7a582;fill-opacity:0.5;"/><path d="M32.905,24.936c1.057,-2.7 2.845,-4.422 4.317,-4.03c1.506,0.401 2.198,2.884 1.709,5.842c-0.092,-1.839 -0.928,-3.503 -2.27,-3.862c-1.287,-0.344 -2.764,0.585 -3.756,2.05Z" style="fill:#923f39;"/><path d="M52.205,29.982c0.992,-1.465 2.47,-2.394 3.757,-2.05c1.342,0.359 2.178,2.023 2.27,3.862l-0.265,1.616c-0.049,-1.965 -0.906,-3.778 -2.324,-4.156c-1.417,-0.377 -3.063,0.77 -4.082,2.45l0.644,-1.722Z" style="fill:#6a2b2b;"/><path d="M52.205,29.982l-0.317,0.421c0.973,-3.67 3.194,-6.267 4.955,-5.796c1.762,0.471 2.402,3.834 1.429,7.504l-0.04,-0.317c0.489,-2.958 -0.204,-5.441 -1.709,-5.842c-1.472,-0.392 -3.26,1.33 -4.318,4.03Z" style="fill:#e7a582;fill-opacity:0.5;"/><path d="M52.205,29.982c1.058,-2.7 2.846,-4.422 4.318,-4.03c1.505,0.401 2.198,2.884 1.709,5.842c-0.092,-1.839 -0.928,-3.503 -2.27,-3.862c-1.287,-0.344 -2.765,0.585 -3.757,2.05Z" style="fill:#923f39;"/><path d="M10.133,18.994c0.992,-1.465 2.469,-2.394 3.756,-2.05c1.342,0.359 2.179,2.023 2.271,3.862l-0.266,1.616c-0.048,-1.965 -0.905,-3.778 -2.323,-4.156c-1.417,-0.377 -3.063,0.77 -4.082,2.45l0.644,-1.722Z" style="fill:#6a2b2b;"/><path d="M10.133,18.994l-0.317,0.422c0.973,-3.671 3.193,-6.268 4.955,-5.797c1.761,0.471 2.402,3.834 1.429,7.504l-0.04,-0.317c0.489,-2.958 -0.204,-5.441 -1.709,-5.842c-1.472,-0.392 -3.26,1.33 -4.318,4.03Z" style="fill:#e7a582;fill-opacity:0.5;"/><path d="M10.133,18.994c1.058,-2.7 2.846,-4.422 4.318,-4.03c1.505,0.401 2.198,2.884 1.709,5.842c-0.092,-1.839 -0.929,-3.503 -2.271,-3.862c-1.287,-0.344 -2.764,0.585 -3.756,2.05Z" style="fill:#923f39;"/><path d="M0.686,25.135c0.992,-1.466 2.47,-2.395 3.757,-2.051c1.342,0.36 2.178,2.023 2.27,3.862l-0.265,1.616c-0.049,-1.965 -0.906,-3.778 -2.324,-4.155c-1.417,-0.378 -3.063,0.769 -4.082,2.45l0.644,-1.722Z" style="fill:#6a2b2b;fill-opacity:0.3;"/><path d="M0.686,25.135l-0.317,0.421c0.973,-3.671 3.194,-6.268 4.955,-5.797c1.762,0.471 2.402,3.834 1.429,7.505l-0.04,-0.318c0.489,-2.957 -0.204,-5.441 -1.709,-5.842c-1.472,-0.392 -3.26,1.33 -4.318,4.031Z" style="fill:#e7a582;fill-opacity:0.3;"/><path d="M0.686,25.135c1.058,-2.701 2.846,-4.423 4.318,-4.031c1.505,0.401 2.198,2.885 1.709,5.842c-0.092,-1.839 -0.928,-3.502 -2.27,-3.862c-1.287,-0.344 -2.765,0.585 -3.757,2.051Z" style="fill:#923f39;fill-opacity:0.3;"/><path d="M21.464,27.658c0.992,-1.465 2.469,-2.394 3.756,-2.05c1.342,0.359 2.179,2.022 2.271,3.862l-0.266,1.616c-0.048,-1.965 -0.905,-3.778 -2.323,-4.156c-1.417,-0.377 -3.063,0.769 -4.082,2.45l0.644,-1.722Z" style="fill:#6a2b2b;"/><path d="M21.464,27.658l-0.317,0.421c0.973,-3.67 3.193,-6.268 4.955,-5.796c1.762,0.471 2.402,3.833 1.429,7.504l-0.04,-0.317c0.489,-2.958 -0.204,-5.442 -1.709,-5.843c-1.472,-0.392 -3.26,1.33 -4.318,4.031Z" style="fill:#e7a582;fill-opacity:0.5;"/><path d="M21.464,27.658c1.058,-2.701 2.846,-4.423 4.318,-4.031c1.505,0.401 2.198,2.885 1.709,5.843c-0.092,-1.84 -0.929,-3.503 -2.271,-3.862c-1.287,-0.344 -2.764,0.585 -3.756,2.05Z" style="fill:#923f39;"/><path d="M36.229,35.176c0.992,-1.465 2.469,-2.394 3.756,-2.05c1.342,0.359 2.178,2.022 2.27,3.862l-0.265,1.616c-0.048,-1.965 -0.905,-3.778 -2.323,-4.156c-1.418,-0.377 -3.063,0.769 -4.082,2.45l0.644,-1.722Z" style="fill:#6a2b2b;"/><path d="M36.229,35.176l-0.317,0.421c0.973,-3.67 3.193,-6.268 4.955,-5.796c1.761,0.471 2.401,3.833 1.428,7.504l-0.04,-0.317c0.489,-2.958 -0.203,-5.442 -1.709,-5.843c-1.472,-0.392 -3.26,1.33 -4.317,4.031Z" style="fill:#e7a582;fill-opacity:0.5;"/><path d="M36.229,35.176c1.057,-2.701 2.845,-4.423 4.317,-4.031c1.506,0.401 2.198,2.885 1.709,5.843c-0.092,-1.84 -0.928,-3.503 -2.27,-3.862c-1.287,-0.344 -2.764,0.585 -3.756,2.05Z" style="fill:#923f39;"/><path d="M6.078,32.704c0.992,-1.465 2.47,-2.394 3.757,-2.05c1.342,0.359 2.178,2.023 2.27,3.862l-0.265,1.616c-0.049,-1.965 -0.906,-3.778 -2.323,-4.155c-1.418,-0.378 -3.064,0.769 -4.083,2.449l0.644,-1.722Z" style="fill:#6a2b2b;"/><path d="M6.078,32.704l-0.316,0.422c0.973,-3.671 3.193,-6.268 4.954,-5.797c1.762,0.471 2.402,3.834 1.429,7.504l-0.04,-0.317c0.489,-2.958 -0.203,-5.441 -1.709,-5.842c-1.472,-0.392 -3.26,1.33 -4.318,4.03Z" style="fill:#e7a582;fill-opacity:0.5;"/><path d="M6.078,32.704c1.058,-2.7 2.846,-4.422 4.318,-4.03c1.506,0.401 2.198,2.884 1.709,5.842c-0.092,-1.839 -0.928,-3.503 -2.27,-3.862c-1.287,-0.344 -2.765,0.585 -3.757,2.05Z" style="fill:#923f39;"/><path d="M16.868,38.59c0.993,-1.466 2.47,-2.395 3.757,-2.051c1.342,0.359 2.178,2.023 2.27,3.862l-0.265,1.616c-0.049,-1.965 -0.906,-3.778 -2.323,-4.155c-1.418,-0.378 -3.063,0.769 -4.083,2.45l0.644,-1.722Z" style="fill:#6a2b2b;"/><path d="M16.868,38.59l-0.316,0.421c0.973,-3.671 3.193,-6.268 4.954,-5.797c1.762,0.471 2.402,3.834 1.429,7.505l-0.04,-0.318c0.489,-2.957 -0.203,-5.441 -1.709,-5.842c-1.472,-0.392 -3.26,1.33 -4.318,4.031Z" style="fill:#e7a582;fill-opacity:0.5;"/><path d="M16.868,38.59c1.058,-2.701 2.846,-4.423 4.318,-4.031c1.506,0.401 2.198,2.885 1.709,5.842c-0.092,-1.839 -0.928,-3.503 -2.27,-3.862c-1.287,-0.344 -2.764,0.585 -3.757,2.051Z" style="fill:#923f39;"/><path d="M27.166,42.556c0.992,-1.466 2.469,-2.395 3.756,-2.05c1.342,0.359 2.178,2.022 2.27,3.861l-0.265,1.617c-0.048,-1.965 -0.905,-3.778 -2.323,-4.156c-1.418,-0.378 -3.063,0.769 -4.082,2.45l0.644,-1.722Z" style="fill:#6a2b2b;"/><path d="M27.166,42.556l-0.317,0.421c0.973,-3.67 3.193,-6.268 4.955,-5.797c1.761,0.472 2.401,3.834 1.428,7.505l-0.04,-0.318c0.489,-2.957 -0.203,-5.441 -1.709,-5.842c-1.472,-0.392 -3.26,1.33 -4.317,4.031Z" style="fill:#e7a582;fill-opacity:0.5;"/><path d="M27.166,42.556c1.057,-2.701 2.845,-4.423 4.317,-4.031c1.506,0.401 2.198,2.885 1.709,5.842c-0.092,-1.839 -0.928,-3.502 -2.27,-3.861c-1.287,-0.345 -2.764,0.584 -3.756,2.05Z" style="fill:#923f39;"/><path d="M41.98,44.376c0.992,-1.465 2.469,-2.394 3.756,-2.05c1.342,0.359 2.179,2.023 2.271,3.862l-0.266,1.616c-0.048,-1.965 -0.905,-3.778 -2.323,-4.156c-1.417,-0.377 -3.063,0.769 -4.082,2.45l0.644,-1.722Z" style="fill:#6a2b2b;"/><path d="M41.98,44.376l-0.317,0.421c0.973,-3.67 3.193,-6.268 4.955,-5.796c1.761,0.471 2.402,3.834 1.429,7.504l-0.04,-0.317c0.489,-2.958 -0.204,-5.442 -1.709,-5.842c-1.472,-0.392 -3.26,1.329 -4.318,4.03Z" style="fill:#e7a582;fill-opacity:0.5;"/><path d="M41.98,44.376c1.058,-2.701 2.846,-4.422 4.318,-4.03c1.505,0.4 2.198,2.884 1.709,5.842c-0.092,-1.839 -0.929,-3.503 -2.271,-3.862c-1.287,-0.344 -2.764,0.585 -3.756,2.05Z" style="fill:#923f39;"/><path d="M52.337,40.691c0.992,-1.465 2.469,-2.394 3.756,-2.05c1.342,0.359 2.178,2.023 2.27,3.862l-0.265,1.616c-0.048,-1.965 -0.906,-3.778 -2.323,-4.155c-1.418,-0.378 -3.063,0.769 -4.082,2.449l0.644,-1.722Z" style="fill:#6a2b2b;"/><path d="M52.337,40.691l-0.317,0.422c0.973,-3.671 3.193,-6.268 4.955,-5.797c1.761,0.471 2.401,3.834 1.428,7.504l-0.04,-0.317c0.489,-2.958 -0.203,-5.441 -1.709,-5.842c-1.472,-0.392 -3.26,1.33 -4.317,4.03Z" style="fill:#e7a582;fill-opacity:0.5;"/><path d="M52.337,40.691c1.057,-2.7 2.845,-4.422 4.317,-4.03c1.506,0.401 2.198,2.884 1.709,5.842c-0.092,-1.839 -0.928,-3.503 -2.27,-3.862c-1.287,-0.344 -2.764,0.585 -3.756,2.05Z" style="fill:#923f39;"/><path d="M35.599,55.003c0.992,-1.466 2.469,-2.395 3.756,-2.05c1.342,0.359 2.178,2.022 2.27,3.861l-0.265,1.616c-0.048,-1.965 -0.905,-3.778 -2.323,-4.155c-1.418,-0.378 -3.063,0.769 -4.082,2.45l0.644,-1.722Z" style="fill:#6a2b2b;"/><path d="M35.599,55.003l-0.317,0.421c0.973,-3.671 3.193,-6.268 4.955,-5.797c1.761,0.472 2.402,3.834 1.429,7.505l-0.041,-0.318c0.49,-2.957 -0.203,-5.441 -1.708,-5.842c-1.472,-0.392 -3.26,1.33 -4.318,4.031Z" style="fill:#e7a582;fill-opacity:0.5;"/><path d="M35.599,55.003c1.058,-2.701 2.846,-4.423 4.318,-4.031c1.505,0.401 2.198,2.885 1.708,5.842c-0.092,-1.839 -0.928,-3.502 -2.27,-3.861c-1.287,-0.345 -2.764,0.584 -3.756,2.05Z" style="fill:#923f39;"/><path d="M23.438,53.981c0.992,-1.466 2.47,-2.395 3.757,-2.05c1.342,0.359 2.178,2.022 2.27,3.861l-0.265,1.616c-0.049,-1.965 -0.906,-3.778 -2.323,-4.155c-1.418,-0.378 -3.063,0.769 -4.083,2.45l0.644,-1.722Z" style="fill:#6a2b2b;"/><path d="M23.438,53.981l-0.316,0.421c0.973,-3.671 3.193,-6.268 4.954,-5.797c1.762,0.472 2.402,3.834 1.429,7.505l-0.04,-0.318c0.489,-2.957 -0.203,-5.441 -1.709,-5.842c-1.472,-0.392 -3.26,1.33 -4.318,4.031Z" style="fill:#e7a582;fill-opacity:0.5;"/><path d="M23.438,53.981c1.058,-2.701 2.846,-4.423 4.318,-4.031c1.506,0.401 2.198,2.885 1.709,5.842c-0.092,-1.839 -0.928,-3.502 -2.27,-3.861c-1.287,-0.345 -2.765,0.584 -3.757,2.05Z" style="fill:#923f39;"/><path d="M9.507,51.148c0.992,-1.465 2.47,-2.395 3.757,-2.05c1.342,0.359 2.178,2.022 2.27,3.861l-0.265,1.617c-0.049,-1.965 -0.906,-3.778 -2.324,-4.156c-1.417,-0.377 -3.063,0.769 -4.082,2.45l0.644,-1.722Z" style="fill:#6a2b2b;fill-opacity:0.3;"/><path d="M9.507,51.148l-0.316,0.421c0.972,-3.67 3.193,-6.268 4.954,-5.797c1.762,0.472 2.402,3.834 1.429,7.505l-0.04,-0.318c0.489,-2.957 -0.204,-5.441 -1.709,-5.842c-1.472,-0.392 -3.26,1.33 -4.318,4.031Z" style="fill:#e7a582;fill-opacity:0.3;"/><path d="M9.507,51.148c1.058,-2.701 2.846,-4.423 4.318,-4.031c1.505,0.401 2.198,2.885 1.709,5.842c-0.092,-1.839 -0.928,-3.502 -2.27,-3.861c-1.287,-0.345 -2.765,0.585 -3.757,2.05Z" style="fill:#923f39;fill-opacity:0.3;"/><path d="M2.443,42.245c0.992,-1.465 2.47,-2.394 3.757,-2.05c1.342,0.359 2.178,2.023 2.27,3.862l-0.265,1.616c-0.049,-1.965 -0.906,-3.778 -2.324,-4.156c-1.417,-0.377 -3.063,0.769 -4.082,2.45l0.644,-1.722Z" style="fill:#6a2b2b;fill-opacity:0.3;"/><path d="M2.443,42.245l-0.317,0.421c0.973,-3.67 3.194,-6.268 4.955,-5.796c1.762,0.471 2.402,3.834 1.429,7.504l-0.04,-0.317c0.489,-2.958 -0.204,-5.442 -1.709,-5.842c-1.472,-0.392 -3.26,1.329 -4.318,4.03Z" style="fill:#e7a582;fill-opacity:0.3;"/><path d="M2.443,42.245c1.058,-2.701 2.846,-4.422 4.318,-4.03c1.505,0.4 2.198,2.884 1.709,5.842c-0.092,-1.839 -0.928,-3.503 -2.27,-3.862c-1.287,-0.344 -2.765,0.585 -3.757,2.05Z" style="fill:#923f39;fill-opacity:0.3;"/></g></g></g></g></svg>