<?xml version="1.0" encoding="UTF-8" standalone="no"?><!DOCTYPE svg PUBLIC "-//W3C//DTD SVG 1.1//EN" "http://www.w3.org/Graphics/SVG/1.1/DTD/svg11.dtd"><svg width="100%" height="100%" viewBox="0 0 21 41" version="1.1" xmlns="http://www.w3.org/2000/svg" xmlns:xlink="http://www.w3.org/1999/xlink" xml:space="preserve" xmlns:serif="http://www.serif.com/" style="fill-rule:evenodd;clip-rule:evenodd;stroke-linejoin:round;stroke-miterlimit:1.41421;"><path id="hornR" d="M18.772,29.422c0.936,1.304 0.982,3.047 0.117,4.399c-2.516,4.008 -5.592,5.75 -9.075,5.86c-15.361,0.485 -8.859,-28.287 2.134,-38.238c0.109,-0.091 0.266,-0.1 0.385,-0.021c0.119,0.078 0.172,0.225 0.132,0.362c-2.101,7.733 -0.12,18.545 6.307,27.638Z" style="fill:#923f39;"/><clipPath id="_clip1"><path d="M18.772,29.422c0.936,1.304 0.982,3.047 0.117,4.399c-2.516,4.008 -5.592,5.75 -9.075,5.86c-15.361,0.485 -8.859,-28.287 2.134,-38.238c0.109,-0.091 0.266,-0.1 0.385,-0.021c0.119,0.078 0.172,0.225 0.132,0.362c-2.101,7.733 -0.12,18.545 6.307,27.638Z"/></clipPath><g clip-path="url(#_clip1)"><path d="M-7.099,41.034c3.536,-0.799 7.181,-1.971 8.19,-9.253c2.018,-0.741 2.88,-0.395 2.365,-5.253c3.459,0.983 2.791,-4.025 2.135,-6.862c3.915,-2.495 4.723,-5.286 1.779,-8.435c3.803,-2.909 0.354,-9.011 0.557,-14.931l19.482,21.217l-22.886,26.44" style="fill:#c46751;"/><path id="hornR1" serif:id="hornR" d="M10.517,2.87c0.467,-0.51 0.945,-0.987 1.431,-1.427c0.109,-0.091 0.266,-0.1 0.385,-0.021c0.119,0.078 0.172,0.225 0.132,0.362c-2.101,7.733 -0.12,18.545 6.307,27.638c0.936,1.304 0.982,3.047 0.117,4.399c-2.516,4.008 -5.592,5.75 -9.075,5.86c-3.342,0.106 -5.649,-1.173 -7.1,-3.342c1.356,1.406 3.258,2.205 5.796,2.146c3.173,-0.073 5.969,-1.614 8.251,-5.179c0.886,-1.352 0.851,-3.11 -0.088,-4.426c-5.964,-8.481 -7.87,-18.489 -6.017,-25.647c0.04,-0.137 -0.015,-0.283 -0.134,-0.36l-0.005,-0.003Z" style="fill:#e7a582;"/></g><path d="M18.772,29.422c0.936,1.304 0.982,3.047 0.117,4.399c-2.516,4.008 -5.592,5.75 -9.075,5.86c-15.361,0.485 -8.859,-28.287 2.134,-38.238c0.109,-0.091 0.266,-0.1 0.385,-0.021c0.119,0.078 0.172,0.225 0.132,0.362c-2.101,7.733 -0.12,18.545 6.307,27.638Z" style="fill:none;stroke:#000;stroke-width:1px;"/></svg>