<?xml version="1.0" encoding="UTF-8" standalone="no"?><!DOCTYPE svg PUBLIC "-//W3C//DTD SVG 1.1//EN" "http://www.w3.org/Graphics/SVG/1.1/DTD/svg11.dtd"><svg width="100%" height="100%" viewBox="0 0 45 70" version="1.1" xmlns="http://www.w3.org/2000/svg" xmlns:xlink="http://www.w3.org/1999/xlink" xml:space="preserve" xmlns:serif="http://www.serif.com/" style="fill-rule:evenodd;clip-rule:evenodd;stroke-linejoin:round;stroke-miterlimit:1.41421;"><g id="wingR"><path d="M34.688,68.709c0,0 -0.001,0 -0.001,0c-0.001,0 -0.001,0 -0.001,-0.001c0.071,-0.255 1.823,-6.64 1.129,-10.436c-1.4,-7.659 -4.279,-10.395 -9.702,-9.404c0,0 -0.001,0.001 -0.004,0.001c-0.176,0.059 -0.37,-0.012 -0.469,-0.17c-0.098,-0.158 -0.099,-0.389 0.054,-0.496c5.958,-4.144 0.893,-15.164 -6.914,-13.716c-0.155,0.029 -0.311,-0.045 -0.386,-0.185c-0.074,-0.139 -0.049,-0.31 0.062,-0.423c6.704,-6.718 -2.86,-17.02 -9.891,-11.594c-0.325,0.251 -0.761,-0.302 -0.869,-0.698c-0.991,-3.487 -3.282,-6.564 -6.606,-8.524c-0.383,-0.221 -0.526,-0.704 -0.323,-1.097c1.198,-2.34 4.94,-9.614 4.94,-9.614c7.843,4.034 16.872,3.374 23.872,-0.949c0.448,-0.284 1.04,-0.178 1.362,0.244c13.367,17.721 17.921,39.89 6.044,62.98c0,0 -2.19,3.892 -2.297,4.082Z" style="fill:#6a2b2b;"/><clipPath id="_clip1"><path d="M34.688,68.709c0,0 -0.001,0 -0.001,0c-0.001,0 -0.001,0 -0.001,-0.001c0.071,-0.255 1.823,-6.64 1.129,-10.436c-1.4,-7.659 -4.279,-10.395 -9.702,-9.404c0,0 -0.001,0.001 -0.004,0.001c-0.176,0.059 -0.37,-0.012 -0.469,-0.17c-0.098,-0.158 -0.099,-0.389 0.054,-0.496c5.958,-4.144 0.893,-15.164 -6.914,-13.716c-0.155,0.029 -0.311,-0.045 -0.386,-0.185c-0.074,-0.139 -0.049,-0.31 0.062,-0.423c6.704,-6.718 -2.86,-17.02 -9.891,-11.594c-0.325,0.251 -0.761,-0.302 -0.869,-0.698c-0.991,-3.487 -3.282,-6.564 -6.606,-8.524c-0.383,-0.221 -0.526,-0.704 -0.323,-1.097c1.198,-2.34 4.94,-9.614 4.94,-9.614c7.843,4.034 16.872,3.374 23.872,-0.949c0.448,-0.284 1.04,-0.178 1.362,0.244c13.367,17.721 17.921,39.89 6.044,62.98c0,0 -2.19,3.892 -2.297,4.082Z"/></clipPath><g clip-path="url(#_clip1)"><path d="M29.309,77.655c0,0.001 -0.001,0.001 -0.001,0.001c-0.001,0 -0.001,-0.001 -0.001,-0.001c0.086,-0.251 2.21,-6.522 1.74,-10.352c-0.946,-7.728 -6.158,-13.458 -11.63,-12.788c0,0 -0.001,0.001 -0.004,0.001c-0.18,0.048 -0.369,-0.034 -0.458,-0.197c-0.089,-0.163 -0.055,-0.367 0.083,-0.492c1.182,-1.09 2.11,-2.401 2.722,-3.913c2.782,-6.867 -1.997,-15.294 -10.665,-18.805c-1.703,-0.69 -3.43,-1.139 -5.134,-1.333c-0.409,-0.044 -0.743,-0.346 -0.827,-0.748c-0.784,-3.54 -2.89,-6.745 -6.094,-8.898c-0.369,-0.243 -0.483,-0.733 -0.258,-1.114c1.334,-2.265 5.497,-9.307 5.497,-9.307c7.592,4.489 16.644,4.361 23.886,0.456c0.465,-0.257 1.049,-0.116 1.346,0.324c12.301,18.477 15.544,40.874 2.331,63.226c0,0 -2.415,3.757 -2.533,3.94Z" style="fill:#402a2a;"/><clipPath id="_clip2"><path d="M29.309,77.655c0,0.001 -0.001,0.001 -0.001,0.001c-0.001,0 -0.001,-0.001 -0.001,-0.001c0.086,-0.251 2.21,-6.522 1.74,-10.352c-0.946,-7.728 -6.158,-13.458 -11.63,-12.788c0,0 -0.001,0.001 -0.004,0.001c-0.18,0.048 -0.369,-0.034 -0.458,-0.197c-0.089,-0.163 -0.055,-0.367 0.083,-0.492c1.182,-1.09 2.11,-2.401 2.722,-3.913c2.782,-6.867 -1.997,-15.294 -10.665,-18.805c-1.703,-0.69 -3.43,-1.139 -5.134,-1.333c-0.409,-0.044 -0.743,-0.346 -0.827,-0.748c-0.784,-3.54 -2.89,-6.745 -6.094,-8.898c-0.369,-0.243 -0.483,-0.733 -0.258,-1.114c1.334,-2.265 5.497,-9.307 5.497,-9.307c7.592,4.489 16.644,4.361 23.886,0.456c0.465,-0.257 1.049,-0.116 1.346,0.324c12.301,18.477 15.544,40.874 2.331,63.226c0,0 -2.415,3.757 -2.533,3.94Z"/></clipPath><g clip-path="url(#_clip2)"><path d="M32.559,68.345c2.116,-0.988 8.039,-12.919 4.222,-14.339c4.247,-2.767 2.029,-6.721 -0.286,-4.468c-3.882,-1.333 -8.606,-0.909 -13.728,0.917c7.338,-5.856 12.19,-9.322 13.824,-12.31c1.024,-1.871 -6.705,0.316 -7.197,0.56c13.747,-6.009 -0.849,-6.36 -15.593,-2.516c10.518,-5.663 16.439,-9.682 17.493,-14.915c0.517,-2.566 -5.15,-2.791 -6.793,-0.667c0.008,-0.616 3.119,-5.861 1.646,-5.933c-8.666,-1.168 -15.451,3.312 -22.14,5.656l11.268,-19.136l33.322,1.028l-2.824,58.517l-15.653,15.128l2.439,-7.522Z" style="fill:#2d1c1c;"/></g><path d="M34.748,68.716c2.975,-6.562 6.121,-12.179 6.836,-22.347c0.116,-1.653 -1.343,-1.863 -2.503,-1.775c1.206,-0.183 2.812,-1.568 2.643,-2.482c3.112,-10.683 -1.702,-12.099 -5.395,-12.503c6.661,-1.813 2.87,-15.262 -5.032,-24.426c-0.532,-0.617 -1.386,1.642 -1.956,1.063c-0.469,-2.425 -2.214,-2.522 -2.676,-0.497c-0.011,0.049 0.013,0.14 -0.035,0.143c-5.511,0.345 -7.789,0.087 -13.549,2.07l2.271,-12.186l46.028,11.589l-11.638,51.234l-14.994,10.117Z" style="fill:#923f39;"/></g><path d="M34.688,68.709c0,0 -0.001,0 -0.001,0c-0.001,0 -0.001,0 -0.001,-0.001c0.071,-0.255 1.823,-6.64 1.129,-10.436c-1.4,-7.659 -4.279,-10.395 -9.702,-9.404c0,0 -0.001,0.001 -0.004,0.001c-0.176,0.059 -0.37,-0.012 -0.469,-0.17c-0.098,-0.158 -0.099,-0.389 0.054,-0.496c5.958,-4.144 0.893,-15.164 -6.914,-13.716c-0.155,0.029 -0.311,-0.045 -0.386,-0.185c-0.074,-0.139 -0.049,-0.31 0.062,-0.423c6.704,-6.718 -2.86,-17.02 -9.891,-11.594c-0.325,0.251 -0.761,-0.302 -0.869,-0.698c-0.991,-3.487 -3.282,-6.564 -6.606,-8.524c-0.383,-0.221 -0.526,-0.704 -0.323,-1.097c1.198,-2.34 4.94,-9.614 4.94,-9.614c7.843,4.034 16.872,3.374 23.872,-0.949c0.448,-0.284 1.04,-0.178 1.362,0.244c13.367,17.721 17.921,39.89 6.044,62.98c0,0 -2.19,3.892 -2.297,4.082Z" style="fill:none;stroke:#000;stroke-width:1px;"/><path d="M27.503,48.02c-0.099,0.012 -0.191,-0.052 -0.214,-0.15c-0.023,-0.097 0.031,-0.196 0.125,-0.229c4.681,-1.564 7.204,-4.062 10.651,-5.685c1.173,-0.533 1.925,-1.705 1.919,-2.994c0.041,-0.16 0.041,-0.325 0.04,-0.492c-0.013,-3.088 -2.36,-5.667 -5.434,-5.968c-4.348,-0.374 -9.641,0.189 -14.339,1.145c-0.123,0.027 -0.246,-0.046 -0.282,-0.167c-0.036,-0.121 0.028,-0.249 0.146,-0.292c3.022,-1.109 6.242,-2.421 9.243,-3.872c3.248,-1.593 5.666,-4.491 6.654,-7.971c0.988,-3.48 0.453,-7.216 -1.473,-10.279c-0.409,-0.672 -0.641,-0.917 -0.757,-1.008c-0.064,-0.05 1.565,1.136 1.823,1.324c0.022,0.016 0.041,0.037 0.054,0.062c6.003,11.219 9.301,21.496 5.726,38.447c0,0 0,0 0,-0.001c-0.388,-2.203 -2.322,-3.797 -4.559,-3.757c-3.007,0.054 -5.898,1.262 -9.323,1.887Z" style="fill:#6a2b2b;"/><clipPath id="_clip3"><path d="M27.503,48.02c-0.099,0.012 -0.191,-0.052 -0.214,-0.15c-0.023,-0.097 0.031,-0.196 0.125,-0.229c4.681,-1.564 7.204,-4.062 10.651,-5.685c1.173,-0.533 1.925,-1.705 1.919,-2.994c0.041,-0.16 0.041,-0.325 0.04,-0.492c-0.013,-3.088 -2.36,-5.667 -5.434,-5.968c-4.348,-0.374 -9.641,0.189 -14.339,1.145c-0.123,0.027 -0.246,-0.046 -0.282,-0.167c-0.036,-0.121 0.028,-0.249 0.146,-0.292c3.022,-1.109 6.242,-2.421 9.243,-3.872c3.248,-1.593 5.666,-4.491 6.654,-7.971c0.988,-3.48 0.453,-7.216 -1.473,-10.279c-0.409,-0.672 -0.641,-0.917 -0.757,-1.008c-0.064,-0.05 1.565,1.136 1.823,1.324c0.022,0.016 0.041,0.037 0.054,0.062c6.003,11.219 9.301,21.496 5.726,38.447c0,0 0,0 0,-0.001c-0.388,-2.203 -2.322,-3.797 -4.559,-3.757c-3.007,0.054 -5.898,1.262 -9.323,1.887Z"/></clipPath><g clip-path="url(#_clip3)"><path d="M34.748,68.716c2.975,-6.562 6.121,-12.179 6.836,-22.347c0.116,-1.653 -1.343,-1.863 -2.503,-1.775c1.206,-0.183 2.812,-1.568 2.643,-2.482c3.112,-10.683 -1.702,-12.099 -5.395,-12.503c7.11,-1.935 2.583,-16.448 -6.448,-25.627c-4.789,0.466 -10.361,1.763 -16.8,3.98l2.271,-12.186l46.028,11.589l-11.638,51.234l-14.994,10.117Z" style="fill:#923f39;"/></g><path d="M10.088,12.199c5.228,1.722 11.485,0.88 18.574,-2.028c0.123,-0.051 0.264,-0.022 0.357,0.073c2.929,3.009 4.782,6.633 6.269,10.467c0.522,1.351 0.344,2.873 -0.475,4.067c-2.396,3.176 -7.999,6.001 -14.823,8.676c5.285,-0.827 10.281,-1.096 14.99,-0.81c0.96,0.06 1.884,0.39 2.664,0.952c1.094,0.827 1.762,1.851 2.057,3.08c0.465,2.012 -0.337,4.104 -2.027,5.29c-2.372,1.509 -6.207,3.643 -10.208,5.851c-0.005,0.003 -0.007,0.008 -0.005,0.012c0.002,0.005 0.007,0.007 0.012,0.006c3.525,-1.011 6.835,-1.505 9.997,-1.645c0.015,-0.001 0.029,-0.003 0.043,-0.007c0.594,-0.076 2.634,0.984 2.867,1.356c0.746,1.193 -4.608,20.291 -5.041,19.643" style="fill:none;stroke:#000;stroke-width:1px;stroke-linecap:round;stroke-miterlimit:1.5;"/></g></svg>