<?xml version="1.0" encoding="UTF-8" standalone="no"?><!DOCTYPE svg PUBLIC "-//W3C//DTD SVG 1.1//EN" "http://www.w3.org/Graphics/SVG/1.1/DTD/svg11.dtd"><svg width="100%" height="100%" viewBox="0 0 30 34" version="1.1" xmlns="http://www.w3.org/2000/svg" xmlns:xlink="http://www.w3.org/1999/xlink" xml:space="preserve" xmlns:serif="http://www.serif.com/" style="fill-rule:evenodd;clip-rule:evenodd;stroke-linejoin:round;stroke-miterlimit:1.41421;"><path id="hornL" d="M4.403,17.025c-1.586,0.246 -2.863,1.433 -3.223,2.997c-1.098,4.603 -0.188,8.019 2.173,10.583c10.41,11.305 26.397,-13.486 25.802,-28.301c-0.011,-0.142 -0.115,-0.26 -0.254,-0.29c-0.139,-0.03 -0.282,0.035 -0.351,0.16c-4.049,6.914 -13.155,13.072 -24.147,14.851Z" style="fill:#923f39;"/><clipPath id="_clip1"><path d="M4.403,17.025c-1.586,0.246 -2.863,1.433 -3.223,2.997c-1.098,4.603 -0.188,8.019 2.173,10.583c10.41,11.305 26.397,-13.486 25.802,-28.301c-0.011,-0.142 -0.115,-0.26 -0.254,-0.29c-0.139,-0.03 -0.282,0.035 -0.351,0.16c-4.049,6.914 -13.155,13.072 -24.147,14.851Z"/></clipPath><g clip-path="url(#_clip1)"><path d="M-0.507,33.071c4.296,1.191 3.84,-1.998 7.164,-8.282c2.538,0.414 4.738,1.014 5.592,-3.83c3.678,2.822 6.369,-2.52 6.346,-4.454c5.237,-0.191 4.7,-2.655 4.368,-4.949c5.23,-0.642 3.086,-8.266 5.08,-13.712l16.051,30.622l-34.133,12.252" style="fill:#c46751;"/><path id="hornL1" serif:id="hornL" d="M28.42,2.393c0.044,-0.073 0.087,-0.146 0.13,-0.219c0.069,-0.125 0.212,-0.19 0.351,-0.16c0.139,0.03 0.243,0.148 0.254,0.29c0.595,14.815 -15.392,39.606 -25.802,28.301c-1.689,-1.834 -2.636,-4.105 -2.635,-6.933c0.356,1.582 1.145,2.928 2.299,4.075c10.024,9.975 25.749,-12.114 25.403,-25.354Z" style="fill:#e7a582;"/></g><path d="M4.403,17.025c-1.586,0.246 -2.863,1.433 -3.223,2.997c-1.098,4.603 -0.188,8.019 2.173,10.583c10.41,11.305 26.397,-13.486 25.802,-28.301c-0.011,-0.142 -0.115,-0.26 -0.254,-0.29c-0.139,-0.03 -0.282,0.035 -0.351,0.16c-4.049,6.914 -13.155,13.072 -24.147,14.851Z" style="fill:none;stroke:#000;stroke-width:1px;"/></svg>