<?xml version="1.0" encoding="UTF-8" standalone="no"?><!DOCTYPE svg PUBLIC "-//W3C//DTD SVG 1.1//EN" "http://www.w3.org/Graphics/SVG/1.1/DTD/svg11.dtd"><svg width="100%" height="100%" viewBox="0 0 62 56" version="1.1" xmlns="http://www.w3.org/2000/svg" xmlns:xlink="http://www.w3.org/1999/xlink" xml:space="preserve" xmlns:serif="http://www.serif.com/" style="fill-rule:evenodd;clip-rule:evenodd;stroke-linejoin:round;stroke-miterlimit:1.41421;"><g id="wingR"><path d="M0.514,55.368c0,0.001 0.001,0.001 0.001,0.001c0.001,0 0.001,0 0.001,-0.001c0.081,-0.252 2.099,-6.558 4.753,-9.359c5.354,-5.653 9.26,-6.373 13.262,-2.581c0,0 0.001,0.001 0.003,0.003c0.116,0.145 0.317,0.192 0.485,0.113c0.169,-0.078 0.296,-0.272 0.226,-0.445c-2.728,-6.725 7.531,-13.192 13.282,-7.716c0.114,0.109 0.285,0.132 0.424,0.056c0.138,-0.076 0.211,-0.233 0.179,-0.388c-1.948,-9.289 11.689,-12.698 14.617,-4.314c0.136,0.388 0.803,0.163 1.11,-0.11c2.733,-2.381 6.332,-3.707 10.188,-3.534c0.442,0.024 0.824,-0.303 0.87,-0.743c0.273,-2.614 1.11,-10.752 1.11,-10.752c-8.774,-0.902 -15.977,-6.385 -19.481,-13.829c-0.221,-0.483 -0.774,-0.717 -1.275,-0.539c-20.874,7.549 -36.793,23.635 -39.45,49.464c0,0 -0.29,4.457 -0.305,4.674Z" style="fill:#6a2b2b;"/><clipPath id="_clip1"><path d="M0.514,55.368c0,0.001 0.001,0.001 0.001,0.001c0.001,0 0.001,0 0.001,-0.001c0.081,-0.252 2.099,-6.558 4.753,-9.359c5.354,-5.653 9.26,-6.373 13.262,-2.581c0,0 0.001,0.001 0.003,0.003c0.116,0.145 0.317,0.192 0.485,0.113c0.169,-0.078 0.296,-0.272 0.226,-0.445c-2.728,-6.725 7.531,-13.192 13.282,-7.716c0.114,0.109 0.285,0.132 0.424,0.056c0.138,-0.076 0.211,-0.233 0.179,-0.388c-1.948,-9.289 11.689,-12.698 14.617,-4.314c0.136,0.388 0.803,0.163 1.11,-0.11c2.733,-2.381 6.332,-3.707 10.188,-3.534c0.442,0.024 0.824,-0.303 0.87,-0.743c0.273,-2.614 1.11,-10.752 1.11,-10.752c-8.774,-0.902 -15.977,-6.385 -19.481,-13.829c-0.221,-0.483 -0.774,-0.717 -1.275,-0.539c-20.874,7.549 -36.793,23.635 -39.45,49.464c0,0 -0.29,4.457 -0.305,4.674Z"/></clipPath><g clip-path="url(#_clip1)"><path d="M0.136,65.8c0,0.001 0.001,0.001 0.001,0.001c0.001,0 0.001,0 0.001,0c0.065,-0.257 1.71,-6.671 4.194,-9.623c5.013,-5.958 12.507,-7.913 16.726,-4.363c0,0 0.001,0.001 0.002,0.003c0.125,0.138 0.328,0.173 0.492,0.084c0.164,-0.088 0.246,-0.277 0.199,-0.457c-0.395,-1.559 -0.456,-3.164 -0.144,-4.765c1.419,-7.272 10.023,-11.722 19.203,-9.931c1.803,0.352 3.495,0.919 5.029,1.686c0.366,0.187 0.811,0.116 1.101,-0.175c2.589,-2.537 6.104,-4.073 9.963,-4.127c0.443,-0.002 0.806,-0.351 0.825,-0.793c0.119,-2.625 0.476,-10.798 0.476,-10.798c-8.811,-0.385 -16.325,-5.435 -20.26,-12.66c-0.249,-0.469 -0.815,-0.67 -1.304,-0.463c-20.395,8.763 -35.341,25.757 -36.474,51.698c0,0 -0.028,4.466 -0.03,4.683Z" style="fill:#402a2a;"/><clipPath id="_clip2"><path d="M0.136,65.8c0,0.001 0.001,0.001 0.001,0.001c0.001,0 0.001,0 0.001,0c0.065,-0.257 1.71,-6.671 4.194,-9.623c5.013,-5.958 12.507,-7.913 16.726,-4.363c0,0 0.001,0.001 0.002,0.003c0.125,0.138 0.328,0.173 0.492,0.084c0.164,-0.088 0.246,-0.277 0.199,-0.457c-0.395,-1.559 -0.456,-3.164 -0.144,-4.765c1.419,-7.272 10.023,-11.722 19.203,-9.931c1.803,0.352 3.495,0.919 5.029,1.686c0.366,0.187 0.811,0.116 1.101,-0.175c2.589,-2.537 6.104,-4.073 9.963,-4.127c0.443,-0.002 0.806,-0.351 0.825,-0.793c0.119,-2.625 0.476,-10.798 0.476,-10.798c-8.811,-0.385 -16.325,-5.435 -20.26,-12.66c-0.249,-0.469 -0.815,-0.67 -1.304,-0.463c-20.395,8.763 -35.341,25.757 -36.474,51.698c0,0 -0.028,4.466 -0.03,4.683Z"/></clipPath><g clip-path="url(#_clip2)"><path d="M2.497,56.226c-1.234,-1.983 0.318,-15.213 4.292,-14.319c-2.048,-4.636 1.969,-6.738 2.678,-3.587c3.981,1.003 7.707,3.937 11.001,8.264c-2.95,-8.913 -5.122,-14.466 -4.861,-17.861c0.164,-2.127 5.446,3.926 5.725,4.399c-8.237,-12.541 4.183,-4.866 14.437,6.405c-5.72,-10.487 -8.486,-17.087 -6.512,-22.046c0.968,-2.432 5.838,0.473 6.055,3.15c0.33,-0.52 0.587,-6.614 1.86,-5.87c7.898,3.753 11.137,11.212 15.462,16.827l1.007,-22.184l-28.478,-17.332l-29.584,50.567l4.854,21.22l2.064,-7.633Z" style="fill:#2d1c1c;"/></g><path d="M0.46,55.341c1.091,-7.121 1.522,-13.545 6.475,-22.454c0.805,-1.449 2.142,-0.828 3.066,-0.121c-0.912,-0.811 -1.501,-2.849 -0.859,-3.522c3.225,-10.649 8.032,-9.207 11.346,-7.529c-4.591,-5.156 5.928,-14.354 17.552,-17.717c0.783,-0.226 0.265,2.132 1.059,1.958c1.717,-1.775 3.231,-0.903 2.512,1.045c-0.017,0.047 -0.087,0.111 -0.048,0.14c4.428,3.297 6.478,4.325 10.221,9.131l4.751,-11.449l-44.889,-15.422l-18.224,49.278l7.038,16.662Z" style="fill:#923f39;"/></g><path d="M0.514,55.368c0,0.001 0.001,0.001 0.001,0.001c0.001,0 0.001,0 0.001,-0.001c0.081,-0.252 2.099,-6.558 4.753,-9.359c5.354,-5.653 9.26,-6.373 13.262,-2.581c0,0 0.001,0.001 0.003,0.003c0.116,0.145 0.317,0.192 0.485,0.113c0.169,-0.078 0.296,-0.272 0.226,-0.445c-2.728,-6.725 7.531,-13.192 13.282,-7.716c0.114,0.109 0.285,0.132 0.424,0.056c0.138,-0.076 0.211,-0.233 0.179,-0.388c-1.948,-9.289 11.689,-12.698 14.617,-4.314c0.136,0.388 0.803,0.163 1.11,-0.11c2.733,-2.381 6.332,-3.707 10.188,-3.534c0.442,0.024 0.824,-0.303 0.87,-0.743c0.273,-2.614 1.11,-10.752 1.11,-10.752c-8.774,-0.902 -15.977,-6.385 -19.481,-13.829c-0.221,-0.483 -0.774,-0.717 -1.275,-0.539c-20.874,7.549 -36.793,23.635 -39.45,49.464c0,0 -0.29,4.457 -0.305,4.674Z" style="fill:none;stroke:#000;stroke-width:1px;"/><path d="M17.83,41.958c0.076,0.064 0.189,0.06 0.261,-0.008c0.072,-0.069 0.081,-0.181 0.021,-0.261c-3.069,-3.866 -3.818,-7.337 -5.82,-10.578c-0.692,-1.087 -0.681,-2.48 0.027,-3.556c0.053,-0.157 0.143,-0.294 0.235,-0.434c1.697,-2.581 5.071,-3.459 7.811,-2.033c3.847,2.061 7.974,5.422 11.388,8.788c0.089,0.09 0.231,0.096 0.327,0.014c0.096,-0.081 0.113,-0.224 0.037,-0.325c-1.925,-2.578 -3.906,-5.434 -5.628,-8.287c-1.851,-3.109 -2.296,-6.858 -1.223,-10.314c1.073,-3.455 3.562,-6.294 6.848,-7.808c0.708,-0.34 1.036,-0.418 1.182,-0.43c0.082,-0.007 -1.931,0.097 -2.25,0.113c-0.027,0.002 -0.054,0.01 -0.079,0.023c-11.154,6.121 -19.529,12.931 -25.789,29.084c0,0 0,0 0,-0.001c1.529,-1.633 4.019,-1.913 5.871,-0.659c2.49,1.688 4.253,4.279 6.781,6.672Z" style="fill:#6a2b2b;"/><clipPath id="_clip3"><path d="M17.83,41.958c0.076,0.064 0.189,0.06 0.261,-0.008c0.072,-0.069 0.081,-0.181 0.021,-0.261c-3.069,-3.866 -3.818,-7.337 -5.82,-10.578c-0.692,-1.087 -0.681,-2.48 0.027,-3.556c0.053,-0.157 0.143,-0.294 0.235,-0.434c1.697,-2.581 5.071,-3.459 7.811,-2.033c3.847,2.061 7.974,5.422 11.388,8.788c0.089,0.09 0.231,0.096 0.327,0.014c0.096,-0.081 0.113,-0.224 0.037,-0.325c-1.925,-2.578 -3.906,-5.434 -5.628,-8.287c-1.851,-3.109 -2.296,-6.858 -1.223,-10.314c1.073,-3.455 3.562,-6.294 6.848,-7.808c0.708,-0.34 1.036,-0.418 1.182,-0.43c0.082,-0.007 -1.931,0.097 -2.25,0.113c-0.027,0.002 -0.054,0.01 -0.079,0.023c-11.154,6.121 -19.529,12.931 -25.789,29.084c0,0 0,0 0,-0.001c1.529,-1.633 4.019,-1.913 5.871,-0.659c2.49,1.688 4.253,4.279 6.781,6.672Z"/></clipPath><g clip-path="url(#_clip3)"><path d="M0.46,55.341c1.091,-7.121 1.522,-13.545 6.475,-22.454c0.805,-1.449 2.142,-0.828 3.066,-0.121c-0.912,-0.811 -1.501,-2.849 -0.859,-3.522c3.225,-10.649 8.032,-9.207 11.346,-7.529c-4.9,-5.503 6.816,-15.191 19.394,-17.95c3.758,3.006 7.718,7.134 11.902,12.507l4.751,-11.449l-44.889,-15.422l-18.224,49.278l7.038,16.662Z" style="fill:#923f39;"/></g><path d="M51.978,21.456c-5.319,-1.412 -10.103,-5.533 -14.453,-11.84c-0.076,-0.11 -0.21,-0.163 -0.34,-0.134c-4.097,0.922 -7.628,2.946 -10.966,5.346c-1.175,0.847 -1.857,2.219 -1.824,3.667c0.274,3.968 3.426,9.395 7.682,15.362c-3.976,-3.578 -8.015,-6.532 -12.116,-8.864c-0.837,-0.474 -1.791,-0.701 -2.752,-0.656c-1.367,0.095 -2.487,0.588 -3.405,1.457c-1.488,1.431 -1.958,3.622 -1.19,5.539c1.163,2.559 3.211,6.441 5.358,10.476c0.002,0.004 0.001,0.009 -0.003,0.012c-0.004,0.003 -0.01,0.002 -0.013,-0.002c-2.402,-2.771 -4.905,-4.992 -7.477,-6.836c-0.012,-0.009 -0.023,-0.019 -0.033,-0.029c-0.456,-0.388 -2.744,-0.614 -3.141,-0.43c-1.277,0.593 -7.219,19.516 -6.502,19.209" style="fill:none;stroke:#000;stroke-width:1px;stroke-linecap:round;stroke-miterlimit:1.5;"/></g></svg>