<?xml version="1.0" encoding="UTF-8" standalone="no"?><!DOCTYPE svg PUBLIC "-//W3C//DTD SVG 1.1//EN" "http://www.w3.org/Graphics/SVG/1.1/DTD/svg11.dtd"><svg width="100%" height="100%" viewBox="0 0 10 17" version="1.1" xmlns="http://www.w3.org/2000/svg" xmlns:xlink="http://www.w3.org/1999/xlink" xml:space="preserve" xmlns:serif="http://www.serif.com/" style="fill-rule:evenodd;clip-rule:evenodd;stroke-linejoin:round;stroke-miterlimit:1.41421;"><path id="wingRHorn3" d="M7.6,10.153c0.663,0.55 1.065,1.351 1.11,2.211c0.046,0.859 -0.27,1.699 -0.871,2.315c-0.382,0.413 -0.844,0.707 -1.368,0.904c-5.246,1.981 -6.556,-8.228 -4.228,-13.398c0.067,-0.122 0.207,-0.186 0.344,-0.158c0.137,0.029 0.24,0.143 0.253,0.283c0.389,2.628 2.067,5.598 4.76,7.843Z" style="fill:#923f39;"/><clipPath id="_clip1"><path d="M7.6,10.153c0.663,0.55 1.065,1.351 1.11,2.211c0.046,0.859 -0.27,1.699 -0.871,2.315c-0.382,0.413 -0.844,0.707 -1.368,0.904c-5.246,1.981 -6.556,-8.228 -4.228,-13.398c0.067,-0.122 0.207,-0.186 0.344,-0.158c0.137,0.029 0.24,0.143 0.253,0.283c0.389,2.628 2.067,5.598 4.76,7.843Z"/></clipPath><g clip-path="url(#_clip1)"><path d="M1.879,1.803c1.602,0.548 0.774,1.449 0.467,4.131c0.883,0.415 1.701,0.699 0.929,2.399c1.758,-0.095 1.454,2.156 1.032,2.757c1.599,1.184 0.902,1.84 0.306,2.487c1.5,1.324 -0.807,3.252 -1.351,5.385l11.598,-6.146l-8.061,-11.162" style="fill:#c46751;"/><path d="M1.672,-0.916c0.064,-0.095 0.129,-0.188 0.196,-0.279c0.042,-0.052 0.115,-0.07 0.179,-0.044c0.064,0.027 0.105,0.091 0.101,0.158c-0.171,3.803 1.908,8.687 5.899,12.373c0.579,0.528 0.785,1.339 0.521,2.048c-0.761,2.097 -2.025,3.184 -3.655,3.542c-0.69,0.152 -1.314,0.16 -1.874,0.045c0.11,-0.01 0.222,-0.025 0.336,-0.043c1.652,-0.262 2.983,-1.27 3.871,-3.314c0.307,-0.69 0.149,-1.51 -0.398,-2.07c-3.685,-3.82 -5.472,-8.671 -5.176,-12.416Z" style="fill:#e7a582;"/></g><path d="M7.6,10.153c0.663,0.55 1.065,1.351 1.11,2.211c0.046,0.859 -0.27,1.699 -0.871,2.315c-0.382,0.413 -0.844,0.707 -1.368,0.904c-5.246,1.981 -6.556,-8.228 -4.228,-13.398c0.067,-0.122 0.207,-0.186 0.344,-0.158c0.137,0.029 0.24,0.143 0.253,0.283c0.389,2.628 2.067,5.598 4.76,7.843Z" style="fill:none;stroke:#000;stroke-width:1px;"/></svg>