<?xml version="1.0" encoding="UTF-8" standalone="no"?><!DOCTYPE svg PUBLIC "-//W3C//DTD SVG 1.1//EN" "http://www.w3.org/Graphics/SVG/1.1/DTD/svg11.dtd"><svg width="100%" height="100%" viewBox="0 0 12 19" version="1.1" xmlns="http://www.w3.org/2000/svg" xmlns:xlink="http://www.w3.org/1999/xlink" xml:space="preserve" xmlns:serif="http://www.serif.com/" style="fill-rule:evenodd;clip-rule:evenodd;stroke-linejoin:round;stroke-miterlimit:1.41421;"><path id="wingRHorn2" d="M2.793,10.955c-1.155,0.691 -1.869,1.932 -1.887,3.277c-0.018,1.346 0.662,2.605 1.798,3.327c0.059,0.05 0.124,0.091 0.191,0.129c5.869,3.41 9.443,-8.678 7.581,-15.199c-0.048,-0.132 -0.177,-0.217 -0.318,-0.209c-0.14,0.008 -0.259,0.106 -0.293,0.242c-0.913,3.044 -3.453,6.265 -7.072,8.433Z" style="fill:#923f39;"/><clipPath id="_clip1"><path d="M2.793,10.955c-1.155,0.691 -1.869,1.932 -1.887,3.277c-0.018,1.346 0.662,2.605 1.798,3.327c0.059,0.05 0.124,0.091 0.191,0.129c5.869,3.41 9.443,-8.678 7.581,-15.199c-0.048,-0.132 -0.177,-0.217 -0.318,-0.209c-0.14,0.008 -0.259,0.106 -0.293,0.242c-0.913,3.044 -3.453,6.265 -7.072,8.433Z"/></clipPath><g clip-path="url(#_clip1)"><path id="hornR" d="M10.091,1.849c0.017,-0.009 0.036,-0.014 0.056,-0.016c0.065,-0.006 0.125,0.031 0.15,0.091c2.25,6.356 -1.359,19.275 -7.402,15.764c-0.605,-0.351 -1.11,-0.813 -1.497,-1.405c1.732,-0.393 3.169,-0.819 2.638,-2.5c2.91,0.967 3.625,-0.086 2.522,-2.814c1.533,-0.245 3.972,-0.951 1.678,-2.673c2.293,-0.76 1.679,-1.167 0.885,-2.455c1.496,-1.295 1.531,-2.648 0.97,-3.992Z" style="fill:#c46751;"/><path d="M9.345,1.674c0.005,-0.026 0.01,-0.052 0.015,-0.078c0.011,-0.065 0.068,-0.111 0.139,-0.113c0.071,-0.002 0.14,0.04 0.171,0.103c2.866,6.688 -0.38,19.803 -7.282,15.828c-0.895,-0.515 -1.614,-1.21 -2.118,-2.127c0.397,0.437 0.863,0.803 1.389,1.106c6.538,3.765 9.796,-7.804 7.686,-14.719Z" style="fill:#e7a582;"/></g><path d="M2.793,10.955c-1.155,0.691 -1.869,1.932 -1.887,3.277c-0.018,1.346 0.662,2.605 1.798,3.327c0.059,0.05 0.124,0.091 0.191,0.129c5.869,3.41 9.443,-8.678 7.581,-15.199c-0.048,-0.132 -0.177,-0.217 -0.318,-0.209c-0.14,0.008 -0.259,0.106 -0.293,0.242c-0.913,3.044 -3.453,6.265 -7.072,8.433Z" style="fill:none;stroke:#000;stroke-width:1px;"/></svg>