<?xml version="1.0" encoding="UTF-8" standalone="no"?><!DOCTYPE svg PUBLIC "-//W3C//DTD SVG 1.1//EN" "http://www.w3.org/Graphics/SVG/1.1/DTD/svg11.dtd"><svg width="100%" height="100%" viewBox="0 0 66 66" version="1.1" xmlns="http://www.w3.org/2000/svg" xmlns:xlink="http://www.w3.org/1999/xlink" xml:space="preserve" xmlns:serif="http://www.serif.com/" style="fill-rule:evenodd;clip-rule:evenodd;stroke-linejoin:round;stroke-miterlimit:1.41421;"><circle id="body" cx="33.041" cy="32.582" r="32.028" style="fill:#b74f4f;"/><clipPath id="_clip1"><circle cx="33.041" cy="32.582" r="32.028"/></clipPath><g clip-path="url(#_clip1)"><ellipse cx="31.694" cy="34.044" rx="30.164" ry="30.567" style="fill:#782b2b;"/><path id="body1" serif:id="body" d="M1.013,32.531c0.027,-17.653 14.368,-31.977 32.028,-31.977c1.932,0 3.824,0.171 5.661,0.499c-6.308,-0.668 -12.446,0.706 -17.684,3.637c-5.378,4.249 -9.329,10.36 -10.767,17.603c-3.211,16.17 7.311,31.905 23.481,35.115c7.244,1.438 14.4,0.121 20.382,-3.226c5.12,-4.046 8.946,-9.777 10.543,-16.568c-0.059,0.36 -0.124,0.721 -0.196,1.081c-0.828,4.174 -2.435,7.996 -4.639,11.347l0.171,-0.159c-1.821,2.829 -4.075,5.353 -6.668,7.479c-0.181,0.107 -0.362,0.212 -0.545,0.316c-7.09,5.542 -16.46,8.084 -25.971,6.196c-15.22,-3.022 -25.774,-16.392 -25.796,-31.343Z" style="fill:#4b2222;"/><path id="body2" serif:id="body" d="M33.063,0.554c17.667,0.012 32.006,14.358 32.006,32.028c0,0.307 -0.004,0.613 -0.013,0.918c-5.244,-0.383 -13.161,-5.071 -20.304,-12.495c-7.001,-7.275 -11.348,-15.191 -11.689,-20.451Z" style="fill:#b74f4f;"/></g><circle cx="33.041" cy="32.582" r="32.028" style="fill:none;stroke:#000;stroke-width:1px;"/></svg>