<?xml version="1.0" encoding="UTF-8" standalone="no"?><!DOCTYPE svg PUBLIC "-//W3C//DTD SVG 1.1//EN" "http://www.w3.org/Graphics/SVG/1.1/DTD/svg11.dtd"><svg width="100%" height="100%" viewBox="0 0 15 26" version="1.1" xmlns="http://www.w3.org/2000/svg" xmlns:xlink="http://www.w3.org/1999/xlink" xml:space="preserve" xmlns:serif="http://www.serif.com/" style="fill-rule:evenodd;clip-rule:evenodd;stroke-linejoin:round;stroke-miterlimit:1.41421;"><path id="wingRHorn1" d="M3.007,17.899c-1.083,1.374 -1.124,3.3 -0.1,4.718c1.21,1.723 2.725,2.579 4.463,2.783c9.258,1.087 6.994,-16.353 0.979,-23.265c-0.099,-0.101 -0.253,-0.126 -0.379,-0.061c-0.125,0.066 -0.193,0.206 -0.168,0.345c0.678,4.58 -0.927,10.524 -4.795,15.48Z" style="fill:#923f39;"/><clipPath id="_clip1"><path d="M3.007,17.899c-1.083,1.374 -1.124,3.3 -0.1,4.718c1.21,1.723 2.725,2.579 4.463,2.783c9.258,1.087 6.994,-16.353 0.979,-23.265c-0.099,-0.101 -0.253,-0.126 -0.379,-0.061c-0.125,0.066 -0.193,0.206 -0.168,0.345c0.678,4.58 -0.927,10.524 -4.795,15.48Z"/></clipPath><g clip-path="url(#_clip1)"><path id="hornR" d="M7.773,1.841c0.016,-0.021 0.037,-0.038 0.06,-0.051c0.078,-0.042 0.173,-0.028 0.236,0.033c6.222,6.683 8.702,24.681 -0.699,23.577c-0.942,-0.111 -1.818,-0.413 -2.617,-0.939c1.94,-1.422 3.495,-2.726 1.929,-4.529c4.137,-0.367 4.458,-2.061 1.617,-4.856c1.773,-1.13 4.422,-3.322 0.644,-4.226c2.439,-2.179 1.458,-2.354 -0.224,-3.527c1.161,-2.416 0.475,-4.115 -0.946,-5.482Z" style="fill:#c46751;"/><path d="M6.903,2.038c-0.007,-0.035 -0.014,-0.07 -0.022,-0.106c-0.021,-0.086 0.024,-0.173 0.11,-0.214c0.085,-0.041 0.192,-0.027 0.263,0.036c7.022,6.751 9.974,24.789 -0.543,23.589c-1.364,-0.155 -2.607,-0.63 -3.706,-1.495c0.715,0.328 1.476,0.53 2.279,0.621c9.962,1.137 7.839,-14.988 1.619,-22.431Z" style="fill:#e7a582;"/></g><path d="M3.007,17.899c-1.083,1.374 -1.124,3.3 -0.1,4.718c1.21,1.723 2.725,2.579 4.463,2.783c9.258,1.087 6.994,-16.353 0.979,-23.265c-0.099,-0.101 -0.253,-0.126 -0.379,-0.061c-0.125,0.066 -0.193,0.206 -0.168,0.345c0.678,4.58 -0.927,10.524 -4.795,15.48Z" style="fill:none;stroke:#000;stroke-width:1px;"/></svg>