<?xml version="1.0" encoding="UTF-8" standalone="no"?><!DOCTYPE svg PUBLIC "-//W3C//DTD SVG 1.1//EN" "http://www.w3.org/Graphics/SVG/1.1/DTD/svg11.dtd"><svg width="100%" height="100%" viewBox="0 0 30 34" version="1.1" xmlns="http://www.w3.org/2000/svg" xmlns:xlink="http://www.w3.org/1999/xlink" xml:space="preserve" xmlns:serif="http://www.serif.com/" style="fill-rule:evenodd;clip-rule:evenodd;stroke-linejoin:round;stroke-miterlimit:1.41421;"><path id="hornL" d="M4.365,16.947c-1.586,0.246 -2.862,1.433 -3.222,2.997c-1.099,4.603 -0.189,8.019 2.172,10.583c10.411,11.305 26.397,-13.486 25.803,-28.301c-0.012,-0.142 -0.115,-0.26 -0.255,-0.29c-0.139,-0.03 -0.281,0.035 -0.351,0.16c-4.049,6.914 -13.155,13.072 -24.147,14.851Z" style="fill:#923f39;"/><clipPath id="_clip1"><path d="M4.365,16.947c-1.586,0.246 -2.862,1.433 -3.222,2.997c-1.099,4.603 -0.189,8.019 2.172,10.583c10.411,11.305 26.397,-13.486 25.803,-28.301c-0.012,-0.142 -0.115,-0.26 -0.255,-0.29c-0.139,-0.03 -0.281,0.035 -0.351,0.16c-4.049,6.914 -13.155,13.072 -24.147,14.851Z"/></clipPath><g clip-path="url(#_clip1)"><path d="M-0.545,32.993c4.297,1.191 3.84,-1.998 7.165,-8.282c2.537,0.414 4.737,1.014 5.591,-3.83c3.678,2.822 6.369,-2.52 6.347,-4.454c5.236,-0.191 4.699,-2.655 4.368,-4.949c5.229,-0.642 3.086,-8.266 5.08,-13.712l16.051,30.622l-34.134,12.252" style="fill:#c46751;"/><path id="hornL1" serif:id="hornL" d="M28.382,2.315c0.044,-0.073 0.088,-0.146 0.13,-0.219c0.07,-0.125 0.212,-0.19 0.351,-0.16c0.14,0.03 0.243,0.148 0.255,0.29c0.594,14.815 -15.392,39.606 -25.803,28.301c-1.689,-1.834 -2.635,-4.105 -2.635,-6.933c0.356,1.582 1.146,2.928 2.299,4.075c10.024,9.975 25.75,-12.114 25.403,-25.354Z" style="fill:#e7a582;"/></g><path d="M4.365,16.947c-1.586,0.246 -2.862,1.433 -3.222,2.997c-1.099,4.603 -0.189,8.019 2.172,10.583c10.411,11.305 26.397,-13.486 25.803,-28.301c-0.012,-0.142 -0.115,-0.26 -0.255,-0.29c-0.139,-0.03 -0.281,0.035 -0.351,0.16c-4.049,6.914 -13.155,13.072 -24.147,14.851Z" style="fill:none;stroke:#000;stroke-width:1px;"/></svg>