<?xml version="1.0" encoding="UTF-8" standalone="no"?><!DOCTYPE svg PUBLIC "-//W3C//DTD SVG 1.1//EN" "http://www.w3.org/Graphics/SVG/1.1/DTD/svg11.dtd"><svg width="100%" height="100%" viewBox="0 0 45 70" version="1.1" xmlns="http://www.w3.org/2000/svg" xmlns:xlink="http://www.w3.org/1999/xlink" xml:space="preserve" xmlns:serif="http://www.serif.com/" style="fill-rule:evenodd;clip-rule:evenodd;stroke-linejoin:round;stroke-miterlimit:1.41421;"><g id="wingR"><path d="M34.181,68.631c-0.001,0 -0.001,0 -0.002,0c0,0 0,0 0,-0.001c0.072,-0.255 1.863,-6.629 1.193,-10.429c-1.351,-7.667 -4.214,-10.421 -9.643,-9.464c0,0 -0.001,0.001 -0.003,0.001c-0.178,0.057 -0.371,-0.014 -0.468,-0.173c-0.098,-0.158 -0.097,-0.39 0.057,-0.495c5.983,-4.108 0.987,-15.158 -6.829,-13.76c-0.155,0.029 -0.311,-0.047 -0.385,-0.186c-0.073,-0.14 -0.047,-0.311 0.064,-0.423c6.746,-6.676 -2.753,-17.038 -9.818,-11.656c-0.327,0.249 -0.76,-0.306 -0.865,-0.703c-0.969,-3.494 -3.241,-6.584 -6.553,-8.565c-0.382,-0.224 -0.521,-0.707 -0.316,-1.099c1.213,-2.332 5,-9.583 5,-9.583c7.818,4.083 16.85,3.479 23.877,-0.801c0.45,-0.281 1.041,-0.171 1.361,0.253c13.256,17.804 17.672,40 5.652,63.016c0,0 -2.214,3.879 -2.322,4.068Z" style="fill:#6a2b2b;"/><clipPath id="_clip1"><path d="M34.181,68.631c-0.001,0 -0.001,0 -0.002,0c0,0 0,0 0,-0.001c0.072,-0.255 1.863,-6.629 1.193,-10.429c-1.351,-7.667 -4.214,-10.421 -9.643,-9.464c0,0 -0.001,0.001 -0.003,0.001c-0.178,0.057 -0.371,-0.014 -0.468,-0.173c-0.098,-0.158 -0.097,-0.39 0.057,-0.495c5.983,-4.108 0.987,-15.158 -6.829,-13.76c-0.155,0.029 -0.311,-0.047 -0.385,-0.186c-0.073,-0.14 -0.047,-0.311 0.064,-0.423c6.746,-6.676 -2.753,-17.038 -9.818,-11.656c-0.327,0.249 -0.76,-0.306 -0.865,-0.703c-0.969,-3.494 -3.241,-6.584 -6.553,-8.565c-0.382,-0.224 -0.521,-0.707 -0.316,-1.099c1.213,-2.332 5,-9.583 5,-9.583c7.818,4.083 16.85,3.479 23.877,-0.801c0.45,-0.281 1.041,-0.171 1.361,0.253c13.256,17.804 17.672,40 5.652,63.016c0,0 -2.214,3.879 -2.322,4.068Z"/></clipPath><g clip-path="url(#_clip1)"><path d="M28.746,77.544c0,0 -0.001,0 -0.001,0c-0.001,0 -0.001,-0.001 -0.001,-0.001c0.087,-0.251 2.25,-6.508 1.805,-10.341c-0.899,-7.734 -6.075,-13.496 -11.551,-12.859c0,0 -0.001,0 -0.003,0.001c-0.181,0.046 -0.369,-0.037 -0.457,-0.201c-0.088,-0.164 -0.053,-0.367 0.085,-0.491c1.189,-1.083 2.125,-2.388 2.747,-3.896c2.825,-6.85 -1.902,-15.306 -10.548,-18.871c-1.699,-0.7 -3.423,-1.16 -5.126,-1.365c-0.408,-0.047 -0.74,-0.351 -0.822,-0.753c-0.762,-3.544 -2.848,-6.763 -6.038,-8.936c-0.368,-0.245 -0.479,-0.736 -0.251,-1.115c1.347,-2.257 5.554,-9.273 5.554,-9.273c7.565,4.536 16.617,4.464 23.883,0.605c0.466,-0.254 1.049,-0.11 1.344,0.332c12.186,18.553 15.29,40.97 1.937,63.24c0,0 -2.438,3.741 -2.557,3.924Z" style="fill:#402a2a;"/><clipPath id="_clip2"><path d="M28.746,77.544c0,0 -0.001,0 -0.001,0c-0.001,0 -0.001,-0.001 -0.001,-0.001c0.087,-0.251 2.25,-6.508 1.805,-10.341c-0.899,-7.734 -6.075,-13.496 -11.551,-12.859c0,0 -0.001,0 -0.003,0.001c-0.181,0.046 -0.369,-0.037 -0.457,-0.201c-0.088,-0.164 -0.053,-0.367 0.085,-0.491c1.189,-1.083 2.125,-2.388 2.747,-3.896c2.825,-6.85 -1.902,-15.306 -10.548,-18.871c-1.699,-0.7 -3.423,-1.16 -5.126,-1.365c-0.408,-0.047 -0.74,-0.351 -0.822,-0.753c-0.762,-3.544 -2.848,-6.763 -6.038,-8.936c-0.368,-0.245 -0.479,-0.736 -0.251,-1.115c1.347,-2.257 5.554,-9.273 5.554,-9.273c7.565,4.536 16.617,4.464 23.883,0.605c0.466,-0.254 1.049,-0.11 1.344,0.332c12.186,18.553 15.29,40.97 1.937,63.24c0,0 -2.438,3.741 -2.557,3.924Z"/></clipPath><g clip-path="url(#_clip2)"><path d="M32.054,68.254c2.122,-0.975 8.119,-12.869 4.311,-14.313c4.264,-2.74 2.071,-6.708 -0.258,-4.47c-3.874,-1.356 -8.6,-0.962 -13.733,0.833c7.374,-5.811 12.247,-9.247 13.9,-12.224c1.035,-1.865 -6.708,0.274 -7.201,0.515c13.785,-5.924 -0.809,-6.366 -15.577,-2.614c10.554,-5.597 16.499,-9.579 17.586,-14.805c0.533,-2.563 -5.132,-2.823 -6.789,-0.71c0.011,-0.615 3.155,-5.841 1.683,-5.922c-8.658,-1.222 -15.472,3.216 -22.175,5.518l11.387,-19.065l33.315,1.235l-3.188,58.498l-15.747,15.031l2.486,-7.507Z" style="fill:#2d1c1c;"/></g><path d="M34.241,68.638c3.015,-6.543 6.196,-12.14 6.974,-22.303c0.126,-1.653 -1.331,-1.873 -2.492,-1.792c1.208,-0.174 2.823,-1.549 2.659,-2.465c3.179,-10.663 -1.627,-12.109 -5.317,-12.536c6.672,-1.771 2.965,-15.244 -4.88,-24.457c-0.529,-0.62 -1.397,1.633 -1.963,1.05c-0.454,-2.427 -2.198,-2.534 -2.672,-0.513c-0.012,0.049 0.012,0.141 -0.037,0.143c-5.512,0.311 -7.789,0.038 -13.561,1.986l2.347,-12.172l45.955,11.875l-11.957,51.161l-15.056,10.023Z" style="fill:#923f39;"/></g><path d="M34.181,68.631c-0.001,0 -0.001,0 -0.002,0c0,0 0,0 0,-0.001c0.072,-0.255 1.863,-6.629 1.193,-10.429c-1.351,-7.667 -4.214,-10.421 -9.643,-9.464c0,0 -0.001,0.001 -0.003,0.001c-0.178,0.057 -0.371,-0.014 -0.468,-0.173c-0.098,-0.158 -0.097,-0.39 0.057,-0.495c5.983,-4.108 0.987,-15.158 -6.829,-13.76c-0.155,0.029 -0.311,-0.047 -0.385,-0.186c-0.073,-0.14 -0.047,-0.311 0.064,-0.423c6.746,-6.676 -2.753,-17.038 -9.818,-11.656c-0.327,0.249 -0.76,-0.306 -0.865,-0.703c-0.969,-3.494 -3.241,-6.584 -6.553,-8.565c-0.382,-0.224 -0.521,-0.707 -0.316,-1.099c1.213,-2.332 5,-9.583 5,-9.583c7.818,4.083 16.85,3.479 23.877,-0.801c0.45,-0.281 1.041,-0.171 1.361,0.253c13.256,17.804 17.672,40 5.652,63.016c0,0 -2.214,3.879 -2.322,4.068Z" style="fill:none;stroke:#000;stroke-width:1px;"/><path d="M27.125,47.898c-0.099,0.011 -0.191,-0.054 -0.214,-0.151c-0.022,-0.098 0.032,-0.196 0.127,-0.229c4.691,-1.535 7.229,-4.017 10.686,-5.619c1.177,-0.525 1.935,-1.693 1.938,-2.981c0.042,-0.16 0.042,-0.325 0.043,-0.492c0.006,-3.089 -2.325,-5.681 -5.397,-6.002c-4.346,-0.401 -9.642,0.129 -14.346,1.055c-0.123,0.027 -0.246,-0.046 -0.281,-0.168c-0.035,-0.121 0.03,-0.248 0.148,-0.291c3.028,-1.091 6.257,-2.382 9.267,-3.814c3.257,-1.574 5.694,-4.456 6.704,-7.93c1.009,-3.474 0.497,-7.213 -1.41,-10.287c-0.404,-0.676 -0.635,-0.922 -0.75,-1.013c-0.065,-0.051 1.557,1.145 1.814,1.335c0.022,0.016 0.041,0.037 0.054,0.062c5.932,11.256 9.167,21.554 5.487,38.482c0,0 0,0 0,-0.001c-0.375,-2.206 -2.298,-3.811 -4.535,-3.786c-3.008,0.036 -5.907,1.226 -9.335,1.83Z" style="fill:#6a2b2b;"/><clipPath id="_clip3"><path d="M27.125,47.898c-0.099,0.011 -0.191,-0.054 -0.214,-0.151c-0.022,-0.098 0.032,-0.196 0.127,-0.229c4.691,-1.535 7.229,-4.017 10.686,-5.619c1.177,-0.525 1.935,-1.693 1.938,-2.981c0.042,-0.16 0.042,-0.325 0.043,-0.492c0.006,-3.089 -2.325,-5.681 -5.397,-6.002c-4.346,-0.401 -9.642,0.129 -14.346,1.055c-0.123,0.027 -0.246,-0.046 -0.281,-0.168c-0.035,-0.121 0.03,-0.248 0.148,-0.291c3.028,-1.091 6.257,-2.382 9.267,-3.814c3.257,-1.574 5.694,-4.456 6.704,-7.93c1.009,-3.474 0.497,-7.213 -1.41,-10.287c-0.404,-0.676 -0.635,-0.922 -0.75,-1.013c-0.065,-0.051 1.557,1.145 1.814,1.335c0.022,0.016 0.041,0.037 0.054,0.062c5.932,11.256 9.167,21.554 5.487,38.482c0,0 0,0 0,-0.001c-0.375,-2.206 -2.298,-3.811 -4.535,-3.786c-3.008,0.036 -5.907,1.226 -9.335,1.83Z"/></clipPath><g clip-path="url(#_clip3)"><path d="M34.241,68.638c3.015,-6.543 6.196,-12.14 6.974,-22.303c0.126,-1.653 -1.331,-1.873 -2.492,-1.792c1.208,-0.174 2.823,-1.549 2.659,-2.465c3.179,-10.663 -1.627,-12.109 -5.317,-12.536c7.122,-1.891 2.685,-16.432 -6.288,-25.667c-4.793,0.437 -10.373,1.699 -16.825,3.876l2.347,-12.172l45.955,11.875l-11.957,51.161l-15.056,10.023Z" style="fill:#923f39;"/></g><path d="M9.932,11.969c5.217,1.754 11.48,0.952 18.586,-1.912c0.124,-0.05 0.265,-0.02 0.357,0.075c2.911,3.027 4.741,6.663 6.204,10.505c0.513,1.355 0.326,2.875 -0.5,4.065c-2.415,3.16 -8.036,5.95 -14.877,8.583c5.29,-0.794 10.288,-1.032 14.995,-0.717c0.96,0.066 1.881,0.402 2.658,0.969c1.088,0.834 1.751,1.862 2.038,3.093c0.452,2.014 -0.363,4.102 -2.06,5.277c-2.381,1.494 -6.23,3.605 -10.245,5.788c-0.004,0.002 -0.006,0.007 -0.004,0.012c0.002,0.004 0.007,0.007 0.012,0.005c3.531,-0.988 6.844,-1.462 10.007,-1.582c0.014,-0.001 0.029,-0.003 0.043,-0.007c0.595,-0.072 2.628,1 2.858,1.374c0.739,1.198 -4.734,20.262 -5.163,19.611" style="fill:none;stroke:#000;stroke-width:1px;stroke-linecap:round;stroke-miterlimit:1.5;"/></g></svg>