<?xml version="1.0" encoding="UTF-8" standalone="no"?><!DOCTYPE svg PUBLIC "-//W3C//DTD SVG 1.1//EN" "http://www.w3.org/Graphics/SVG/1.1/DTD/svg11.dtd"><svg width="100%" height="100%" viewBox="0 0 63 56" version="1.1" xmlns="http://www.w3.org/2000/svg" xmlns:xlink="http://www.w3.org/1999/xlink" xml:space="preserve" xmlns:serif="http://www.serif.com/" style="fill-rule:evenodd;clip-rule:evenodd;stroke-linejoin:round;stroke-miterlimit:1.41421;"><g id="wingL"><path d="M1.278,55.369c0,0 0,0.001 0.001,0.001c0,0 0.001,0 0.001,-0.001c0.078,-0.253 2.054,-6.572 4.688,-9.392c5.316,-5.688 9.217,-6.435 13.245,-2.67c0,0 0.001,0 0.003,0.002c0.117,0.145 0.318,0.19 0.486,0.111c0.168,-0.08 0.294,-0.275 0.223,-0.447c-2.774,-6.706 7.441,-13.243 13.229,-7.806c0.115,0.108 0.286,0.13 0.424,0.053c0.138,-0.077 0.21,-0.235 0.177,-0.389c-2.012,-9.276 11.602,-12.777 14.587,-4.413c0.138,0.387 0.804,0.158 1.109,-0.118c2.717,-2.399 6.307,-3.749 10.164,-3.603c0.442,0.021 0.822,-0.309 0.865,-0.749c0.255,-2.616 1.037,-10.759 1.037,-10.759c-8.779,-0.843 -16.02,-6.276 -19.575,-13.696c-0.224,-0.482 -0.778,-0.712 -1.278,-0.531c-20.822,7.69 -36.632,23.884 -39.113,49.731c0,0 -0.261,4.458 -0.273,4.676Z" style="fill:#6a2b2b;"/><clipPath id="_clip1"><path d="M1.278,55.369c0,0 0,0.001 0.001,0.001c0,0 0.001,0 0.001,-0.001c0.078,-0.253 2.054,-6.572 4.688,-9.392c5.316,-5.688 9.217,-6.435 13.245,-2.67c0,0 0.001,0 0.003,0.002c0.117,0.145 0.318,0.19 0.486,0.111c0.168,-0.08 0.294,-0.275 0.223,-0.447c-2.774,-6.706 7.441,-13.243 13.229,-7.806c0.115,0.108 0.286,0.13 0.424,0.053c0.138,-0.077 0.21,-0.235 0.177,-0.389c-2.012,-9.276 11.602,-12.777 14.587,-4.413c0.138,0.387 0.804,0.158 1.109,-0.118c2.717,-2.399 6.307,-3.749 10.164,-3.603c0.442,0.021 0.822,-0.309 0.865,-0.749c0.255,-2.616 1.037,-10.759 1.037,-10.759c-8.779,-0.843 -16.02,-6.276 -19.575,-13.696c-0.224,-0.482 -0.778,-0.712 -1.278,-0.531c-20.822,7.69 -36.632,23.884 -39.113,49.731c0,0 -0.261,4.458 -0.273,4.676Z"/></clipPath><g clip-path="url(#_clip1)"><path d="M0.97,65.803c0,0.001 0.001,0.001 0.001,0.001c0.001,0 0.001,0 0.001,-0.001c0.064,-0.257 1.665,-6.681 4.129,-9.651c4.972,-5.991 12.453,-7.997 16.696,-4.476c0,0 0.001,0.001 0.002,0.003c0.126,0.137 0.329,0.171 0.492,0.081c0.163,-0.089 0.244,-0.279 0.196,-0.458c-0.405,-1.556 -0.478,-3.161 -0.176,-4.764c1.369,-7.282 9.943,-11.79 19.135,-10.061c1.805,0.339 3.501,0.894 5.041,1.652c0.367,0.184 0.811,0.11 1.1,-0.183c2.571,-2.555 6.075,-4.114 9.934,-4.195c0.443,-0.005 0.803,-0.356 0.819,-0.798c0.102,-2.626 0.403,-10.801 0.403,-10.801c-8.813,-0.326 -16.361,-5.324 -20.346,-12.522c-0.252,-0.467 -0.819,-0.665 -1.307,-0.455c-20.334,8.901 -35.165,25.996 -36.122,51.944c0,0 0.002,4.467 0.002,4.684Z" style="fill:#402a2a;"/><clipPath id="_clip2"><path d="M0.97,65.803c0,0.001 0.001,0.001 0.001,0.001c0.001,0 0.001,0 0.001,-0.001c0.064,-0.257 1.665,-6.681 4.129,-9.651c4.972,-5.991 12.453,-7.997 16.696,-4.476c0,0 0.001,0.001 0.002,0.003c0.126,0.137 0.329,0.171 0.492,0.081c0.163,-0.089 0.244,-0.279 0.196,-0.458c-0.405,-1.556 -0.478,-3.161 -0.176,-4.764c1.369,-7.282 9.943,-11.79 19.135,-10.061c1.805,0.339 3.501,0.894 5.041,1.652c0.367,0.184 0.811,0.11 1.1,-0.183c2.571,-2.555 6.075,-4.114 9.934,-4.195c0.443,-0.005 0.803,-0.356 0.819,-0.798c0.102,-2.626 0.403,-10.801 0.403,-10.801c-8.813,-0.326 -16.361,-5.324 -20.346,-12.522c-0.252,-0.467 -0.819,-0.665 -1.307,-0.455c-20.334,8.901 -35.165,25.996 -36.122,51.944c0,0 0.002,4.467 0.002,4.684Z"/></clipPath><g clip-path="url(#_clip2)"><path d="M3.266,56.213c-1.247,-1.975 0.215,-15.215 4.194,-14.347c-2.079,-4.623 1.924,-6.752 2.655,-3.606c3.987,0.977 7.733,3.885 11.056,8.19c-3.01,-8.893 -5.22,-14.431 -4.981,-17.828c0.149,-2.128 5.472,3.888 5.753,4.36c-8.321,-12.485 4.151,-4.894 14.481,6.307c-5.791,-10.448 -8.602,-17.029 -6.662,-22.002c0.952,-2.438 5.842,0.434 6.077,3.109c0.326,-0.522 0.542,-6.617 1.82,-5.882c7.924,3.699 11.213,11.136 15.575,16.722l0.857,-22.191l-28.595,-17.138l-29.24,50.766l4.998,21.187l2.012,-7.647Z" style="fill:#2d1c1c;"/></g><path d="M1.223,55.342c1.042,-7.128 1.43,-13.555 6.322,-22.497c0.796,-1.455 2.137,-0.843 3.066,-0.142c-0.917,-0.805 -1.52,-2.839 -0.883,-3.517c3.152,-10.67 7.969,-9.261 11.294,-7.605c-4.626,-5.125 5.831,-14.394 17.432,-17.835c0.781,-0.232 0.279,2.13 1.072,1.95c1.705,-1.786 3.225,-0.925 2.52,1.028c-0.017,0.047 -0.087,0.111 -0.048,0.14c4.451,3.267 6.508,4.281 10.283,9.062l4.673,-11.481l-44.993,-15.117l-17.888,49.4l7.15,16.614Z" style="fill:#923f39;"/></g><path d="M1.278,55.369c0,0 0,0.001 0.001,0.001c0,0 0.001,0 0.001,-0.001c0.078,-0.253 2.054,-6.572 4.688,-9.392c5.316,-5.688 9.217,-6.435 13.245,-2.67c0,0 0.001,0 0.003,0.002c0.117,0.145 0.318,0.19 0.486,0.111c0.168,-0.08 0.294,-0.275 0.223,-0.447c-2.774,-6.706 7.441,-13.243 13.229,-7.806c0.115,0.108 0.286,0.13 0.424,0.053c0.138,-0.077 0.21,-0.235 0.177,-0.389c-2.012,-9.276 11.602,-12.777 14.587,-4.413c0.138,0.387 0.804,0.158 1.109,-0.118c2.717,-2.399 6.307,-3.749 10.164,-3.603c0.442,0.021 0.822,-0.309 0.865,-0.749c0.255,-2.616 1.037,-10.759 1.037,-10.759c-8.779,-0.843 -16.02,-6.276 -19.575,-13.696c-0.224,-0.482 -0.778,-0.712 -1.278,-0.531c-20.822,7.69 -36.632,23.884 -39.113,49.731c0,0 -0.261,4.458 -0.273,4.676Z" style="fill:none;stroke:#000;stroke-width:1px;"/><path d="M18.502,41.841c0.076,0.064 0.189,0.06 0.261,-0.01c0.072,-0.069 0.08,-0.181 0.019,-0.26c-3.095,-3.846 -3.868,-7.311 -5.891,-10.539c-0.7,-1.082 -0.699,-2.475 0.002,-3.556c0.052,-0.157 0.141,-0.295 0.232,-0.436c1.68,-2.592 5.048,-3.493 7.798,-2.086c3.861,2.035 8.01,5.368 11.447,8.711c0.089,0.089 0.232,0.095 0.327,0.012c0.096,-0.082 0.111,-0.224 0.035,-0.325c-1.942,-2.565 -3.943,-5.408 -5.684,-8.249c-1.872,-3.096 -2.342,-6.842 -1.293,-10.305c1.049,-3.463 3.519,-6.318 6.795,-7.855c0.705,-0.344 1.033,-0.424 1.179,-0.438c0.081,-0.007 -1.931,0.11 -2.249,0.129c-0.028,0.002 -0.055,0.01 -0.079,0.023c-11.113,6.197 -19.441,13.064 -25.592,29.258c0,0 0.001,0 0.001,0c1.517,-1.644 4.005,-1.941 5.866,-0.699c2.501,1.67 4.282,4.249 6.826,6.625Z" style="fill:#6a2b2b;"/><clipPath id="_clip3"><path d="M18.502,41.841c0.076,0.064 0.189,0.06 0.261,-0.01c0.072,-0.069 0.08,-0.181 0.019,-0.26c-3.095,-3.846 -3.868,-7.311 -5.891,-10.539c-0.7,-1.082 -0.699,-2.475 0.002,-3.556c0.052,-0.157 0.141,-0.295 0.232,-0.436c1.68,-2.592 5.048,-3.493 7.798,-2.086c3.861,2.035 8.01,5.368 11.447,8.711c0.089,0.089 0.232,0.095 0.327,0.012c0.096,-0.082 0.111,-0.224 0.035,-0.325c-1.942,-2.565 -3.943,-5.408 -5.684,-8.249c-1.872,-3.096 -2.342,-6.842 -1.293,-10.305c1.049,-3.463 3.519,-6.318 6.795,-7.855c0.705,-0.344 1.033,-0.424 1.179,-0.438c0.081,-0.007 -1.931,0.11 -2.249,0.129c-0.028,0.002 -0.055,0.01 -0.079,0.023c-11.113,6.197 -19.441,13.064 -25.592,29.258c0,0 0.001,0 0.001,0c1.517,-1.644 4.005,-1.941 5.866,-0.699c2.501,1.67 4.282,4.249 6.826,6.625Z"/></clipPath><g clip-path="url(#_clip3)"><path d="M1.223,55.342c1.042,-7.128 1.43,-13.555 6.322,-22.497c0.796,-1.455 2.137,-0.843 3.066,-0.142c-0.917,-0.805 -1.52,-2.839 -0.883,-3.517c3.152,-10.67 7.969,-9.261 11.294,-7.605c-4.937,-5.47 6.713,-15.237 19.272,-18.081c3.779,2.98 7.767,7.081 11.987,12.426l4.673,-11.481l-44.993,-15.117l-17.888,49.4l7.15,16.614Z" style="fill:#923f39;"/></g><path d="M52.51,21.108c-5.329,-1.375 -10.14,-5.464 -14.533,-11.741c-0.076,-0.11 -0.211,-0.162 -0.341,-0.132c-4.09,0.949 -7.608,2.998 -10.93,5.42c-1.169,0.855 -1.842,2.232 -1.798,3.68c0.3,3.966 3.489,9.371 7.785,15.309c-4,-3.551 -8.058,-6.477 -12.175,-8.781c-0.841,-0.469 -1.796,-0.69 -2.757,-0.638c-1.366,0.105 -2.482,0.605 -3.394,1.48c-1.479,1.442 -1.934,3.636 -1.153,5.547c1.181,2.551 3.255,6.419 5.429,10.439c0.002,0.004 0.001,0.01 -0.003,0.013c-0.004,0.002 -0.01,0.002 -0.013,-0.002c-2.421,-2.755 -4.939,-4.959 -7.524,-6.785c-0.011,-0.009 -0.022,-0.019 -0.032,-0.029c-0.459,-0.386 -2.748,-0.596 -3.145,-0.409c-1.273,0.601 -7.086,19.565 -6.371,19.253" style="fill:none;stroke:#000;stroke-width:1px;stroke-linecap:round;stroke-miterlimit:1.5;"/></g></svg>