<?xml version="1.0" encoding="UTF-8" standalone="no"?><!DOCTYPE svg PUBLIC "-//W3C//DTD SVG 1.1//EN" "http://www.w3.org/Graphics/SVG/1.1/DTD/svg11.dtd"><svg width="100%" height="100%" viewBox="0 0 59 59" version="1.1" xmlns="http://www.w3.org/2000/svg" xmlns:xlink="http://www.w3.org/1999/xlink" xml:space="preserve" xmlns:serif="http://www.serif.com/" style="fill-rule:evenodd;clip-rule:evenodd;stroke-linejoin:round;stroke-miterlimit:1.41421;"><g id="feather"><g><g><g opacity="0.8"><path d="M43.939,10.343c0.992,-1.466 2.469,-2.395 3.756,-2.051c1.342,0.359 2.178,2.023 2.27,3.862l-0.265,1.616c-0.048,-1.965 -0.905,-3.778 -2.323,-4.155c-1.418,-0.378 -3.063,0.769 -4.082,2.45l0.644,-1.722Z" style="fill:#6a2b2b;"/><path d="M43.939,10.343l-0.317,0.421c0.973,-3.671 3.193,-6.268 4.955,-5.797c1.761,0.471 2.402,3.834 1.429,7.505l-0.041,-0.318c0.49,-2.957 -0.203,-5.441 -1.709,-5.842c-1.471,-0.392 -3.259,1.33 -4.317,4.031Z" style="fill:#e7a582;fill-opacity:0.5;"/><path d="M43.939,10.343c1.058,-2.701 2.846,-4.423 4.317,-4.031c1.506,0.401 2.199,2.885 1.709,5.842c-0.092,-1.839 -0.928,-3.503 -2.27,-3.862c-1.287,-0.344 -2.764,0.585 -3.756,2.051Z" style="fill:#923f39;"/><path d="M47.69,19.502c0.992,-1.465 2.469,-2.394 3.756,-2.05c1.342,0.359 2.178,2.023 2.27,3.862l-0.265,1.616c-0.048,-1.965 -0.905,-3.778 -2.323,-4.156c-1.418,-0.377 -3.063,0.77 -4.082,2.45l0.644,-1.722Z" style="fill:#6a2b2b;"/><path d="M47.69,19.502l-0.317,0.422c0.973,-3.671 3.193,-6.268 4.955,-5.797c1.761,0.471 2.402,3.834 1.429,7.504l-0.041,-0.317c0.49,-2.958 -0.203,-5.441 -1.708,-5.842c-1.472,-0.392 -3.26,1.33 -4.318,4.03Z" style="fill:#e7a582;fill-opacity:0.5;"/><path d="M47.69,19.502c1.058,-2.7 2.846,-4.422 4.318,-4.03c1.505,0.401 2.198,2.884 1.708,5.842c-0.092,-1.839 -0.928,-3.503 -2.27,-3.862c-1.287,-0.344 -2.764,0.585 -3.756,2.05Z" style="fill:#923f39;"/><path d="M35.125,14.662c0.992,-1.465 2.469,-2.394 3.756,-2.05c1.342,0.359 2.178,2.023 2.27,3.862l-0.265,1.616c-0.048,-1.965 -0.905,-3.778 -2.323,-4.155c-1.418,-0.378 -3.063,0.769 -4.082,2.45l0.644,-1.723Z" style="fill:#6a2b2b;"/><path d="M35.125,14.662l-0.317,0.422c0.973,-3.671 3.193,-6.268 4.955,-5.797c1.761,0.471 2.402,3.834 1.429,7.505l-0.041,-0.318c0.49,-2.957 -0.203,-5.441 -1.708,-5.842c-1.472,-0.392 -3.26,1.33 -4.318,4.03Z" style="fill:#e7a582;fill-opacity:0.5;"/><path d="M35.125,14.662c1.058,-2.7 2.846,-4.422 4.318,-4.03c1.505,0.401 2.198,2.885 1.708,5.842c-0.092,-1.839 -0.928,-3.503 -2.27,-3.862c-1.287,-0.344 -2.764,0.585 -3.756,2.05Z" style="fill:#923f39;"/><path d="M27.069,5.664c0.992,-1.465 2.469,-2.394 3.756,-2.05c1.342,0.359 2.179,2.023 2.271,3.862l-0.266,1.616c-0.048,-1.965 -0.905,-3.778 -2.323,-4.156c-1.417,-0.377 -3.063,0.77 -4.082,2.45l0.644,-1.722Z" style="fill:#6a2b2b;"/><path d="M27.069,5.664l-0.317,0.422c0.973,-3.671 3.193,-6.268 4.955,-5.797c1.761,0.471 2.402,3.834 1.429,7.504l-0.04,-0.317c0.489,-2.958 -0.204,-5.441 -1.709,-5.842c-1.472,-0.392 -3.26,1.33 -4.318,4.03Z" style="fill:#e7a582;fill-opacity:0.5;"/><path d="M27.069,5.664c1.058,-2.7 2.846,-4.422 4.318,-4.03c1.505,0.401 2.198,2.884 1.709,5.842c-0.092,-1.839 -0.929,-3.503 -2.271,-3.862c-1.287,-0.344 -2.764,0.585 -3.756,2.05Z" style="fill:#923f39;"/><path d="M10.973,10.162c0.992,-1.465 2.47,-2.394 3.757,-2.05c1.342,0.359 2.178,2.023 2.27,3.862l-0.265,1.616c-0.049,-1.965 -0.906,-3.778 -2.323,-4.155c-1.418,-0.378 -3.063,0.769 -4.083,2.449l0.644,-1.722Z" style="fill:#6a2b2b;"/><path d="M10.973,10.162l-0.316,0.422c0.973,-3.671 3.193,-6.268 4.954,-5.797c1.762,0.471 2.402,3.834 1.429,7.504l-0.04,-0.317c0.489,-2.958 -0.203,-5.441 -1.709,-5.842c-1.472,-0.392 -3.26,1.33 -4.318,4.03Z" style="fill:#e7a582;fill-opacity:0.5;"/><path d="M10.973,10.162c1.058,-2.7 2.846,-4.422 4.318,-4.03c1.506,0.401 2.198,2.884 1.709,5.842c-0.092,-1.839 -0.928,-3.503 -2.27,-3.862c-1.287,-0.344 -2.765,0.585 -3.757,2.05Z" style="fill:#923f39;"/><path d="M19.761,15.378c0.992,-1.465 2.469,-2.394 3.756,-2.05c1.342,0.359 2.178,2.023 2.27,3.862l-0.265,1.616c-0.048,-1.965 -0.905,-3.778 -2.323,-4.156c-1.418,-0.377 -3.063,0.769 -4.082,2.45l0.644,-1.722Z" style="fill:#6a2b2b;"/><path d="M19.761,15.378l-0.317,0.421c0.973,-3.67 3.193,-6.268 4.955,-5.796c1.761,0.471 2.402,3.834 1.429,7.504l-0.041,-0.317c0.49,-2.958 -0.203,-5.442 -1.708,-5.842c-1.472,-0.392 -3.26,1.329 -4.318,4.03Z" style="fill:#e7a582;fill-opacity:0.5;"/><path d="M19.761,15.378c1.058,-2.701 2.846,-4.422 4.318,-4.03c1.505,0.4 2.198,2.884 1.708,5.842c-0.092,-1.839 -0.928,-3.503 -2.27,-3.862c-1.287,-0.344 -2.764,0.585 -3.756,2.05Z" style="fill:#923f39;"/><path d="M32.867,24.858c0.992,-1.465 2.469,-2.394 3.756,-2.05c1.342,0.359 2.179,2.023 2.271,3.862l-0.266,1.616c-0.048,-1.965 -0.905,-3.778 -2.323,-4.156c-1.417,-0.377 -3.063,0.769 -4.082,2.45l0.644,-1.722Z" style="fill:#6a2b2b;"/><path d="M32.867,24.858l-0.317,0.421c0.973,-3.67 3.193,-6.268 4.955,-5.796c1.762,0.471 2.402,3.834 1.429,7.504l-0.04,-0.317c0.489,-2.958 -0.204,-5.442 -1.709,-5.842c-1.472,-0.392 -3.26,1.329 -4.318,4.03Z" style="fill:#e7a582;fill-opacity:0.5;"/><path d="M32.867,24.858c1.058,-2.701 2.846,-4.422 4.318,-4.03c1.505,0.4 2.198,2.884 1.709,5.842c-0.092,-1.839 -0.929,-3.503 -2.271,-3.862c-1.287,-0.344 -2.764,0.585 -3.756,2.05Z" style="fill:#923f39;"/><path d="M52.168,29.904c0.992,-1.465 2.469,-2.394 3.756,-2.05c1.342,0.359 2.178,2.023 2.27,3.862l-0.265,1.616c-0.048,-1.965 -0.905,-3.778 -2.323,-4.156c-1.418,-0.377 -3.063,0.769 -4.082,2.45l0.644,-1.722Z" style="fill:#6a2b2b;"/><path d="M52.168,29.904l-0.317,0.421c0.973,-3.67 3.193,-6.268 4.955,-5.796c1.761,0.471 2.401,3.834 1.428,7.504l-0.04,-0.317c0.489,-2.958 -0.203,-5.441 -1.709,-5.842c-1.472,-0.392 -3.26,1.33 -4.317,4.03Z" style="fill:#e7a582;fill-opacity:0.5;"/><path d="M52.168,29.904c1.057,-2.7 2.845,-4.422 4.317,-4.03c1.506,0.401 2.198,2.884 1.709,5.842c-0.092,-1.839 -0.928,-3.503 -2.27,-3.862c-1.287,-0.344 -2.764,0.585 -3.756,2.05Z" style="fill:#923f39;"/><path d="M10.096,18.916c0.992,-1.465 2.469,-2.394 3.756,-2.05c1.342,0.359 2.178,2.023 2.27,3.862l-0.265,1.616c-0.048,-1.965 -0.906,-3.778 -2.323,-4.156c-1.418,-0.377 -3.063,0.77 -4.083,2.45l0.645,-1.722Z" style="fill:#6a2b2b;"/><path d="M10.096,18.916l-0.317,0.421c0.973,-3.67 3.193,-6.267 4.954,-5.796c1.762,0.471 2.402,3.834 1.429,7.504l-0.04,-0.317c0.489,-2.958 -0.203,-5.441 -1.709,-5.842c-1.472,-0.392 -3.26,1.33 -4.317,4.03Z" style="fill:#e7a582;fill-opacity:0.5;"/><path d="M10.096,18.916c1.057,-2.7 2.845,-4.422 4.317,-4.03c1.506,0.401 2.198,2.884 1.709,5.842c-0.092,-1.839 -0.928,-3.503 -2.27,-3.862c-1.287,-0.344 -2.764,0.585 -3.756,2.05Z" style="fill:#923f39;"/><path d="M0.649,25.057c0.992,-1.466 2.469,-2.395 3.756,-2.051c1.342,0.359 2.178,2.023 2.27,3.862l-0.265,1.616c-0.048,-1.965 -0.906,-3.778 -2.323,-4.155c-1.418,-0.378 -3.063,0.769 -4.082,2.45l0.644,-1.722Z" style="fill:#6a2b2b;fill-opacity:0.3;"/><path d="M0.649,25.057l-0.317,0.421c0.973,-3.671 3.193,-6.268 4.955,-5.797c1.761,0.471 2.401,3.834 1.428,7.505l-0.04,-0.318c0.489,-2.957 -0.203,-5.441 -1.709,-5.842c-1.472,-0.392 -3.26,1.33 -4.317,4.031Z" style="fill:#e7a582;fill-opacity:0.3;"/><path d="M0.649,25.057c1.057,-2.701 2.845,-4.423 4.317,-4.031c1.506,0.401 2.198,2.885 1.709,5.842c-0.092,-1.839 -0.928,-3.503 -2.27,-3.862c-1.287,-0.344 -2.764,0.585 -3.756,2.051Z" style="fill:#923f39;fill-opacity:0.3;"/><path d="M21.427,27.58c0.992,-1.465 2.469,-2.394 3.756,-2.05c1.342,0.359 2.178,2.022 2.27,3.862l-0.265,1.616c-0.048,-1.965 -0.906,-3.778 -2.323,-4.156c-1.418,-0.377 -3.063,0.769 -4.083,2.45l0.645,-1.722Z" style="fill:#6a2b2b;"/><path d="M21.427,27.58l-0.317,0.421c0.973,-3.67 3.193,-6.268 4.954,-5.796c1.762,0.471 2.402,3.833 1.429,7.504l-0.04,-0.317c0.489,-2.958 -0.203,-5.442 -1.709,-5.843c-1.472,-0.392 -3.26,1.33 -4.317,4.031Z" style="fill:#e7a582;fill-opacity:0.5;"/><path d="M21.427,27.58c1.057,-2.701 2.845,-4.423 4.317,-4.031c1.506,0.401 2.198,2.885 1.709,5.843c-0.092,-1.84 -0.928,-3.503 -2.27,-3.862c-1.287,-0.344 -2.764,0.585 -3.756,2.05Z" style="fill:#923f39;"/><path d="M36.191,35.098c0.992,-1.465 2.47,-2.395 3.757,-2.05c1.342,0.359 2.178,2.022 2.27,3.862l-0.265,1.616c-0.049,-1.965 -0.906,-3.778 -2.324,-4.156c-1.417,-0.377 -3.063,0.769 -4.082,2.45l0.644,-1.722Z" style="fill:#6a2b2b;"/><path d="M36.191,35.098l-0.317,0.421c0.973,-3.67 3.194,-6.268 4.955,-5.796c1.762,0.471 2.402,3.833 1.429,7.504l-0.04,-0.317c0.489,-2.958 -0.204,-5.442 -1.709,-5.843c-1.472,-0.392 -3.26,1.33 -4.318,4.031Z" style="fill:#e7a582;fill-opacity:0.5;"/><path d="M36.191,35.098c1.058,-2.701 2.846,-4.423 4.318,-4.031c1.505,0.401 2.198,2.885 1.709,5.843c-0.092,-1.84 -0.928,-3.503 -2.27,-3.862c-1.287,-0.345 -2.765,0.585 -3.757,2.05Z" style="fill:#923f39;"/><path d="M6.041,32.626c0.992,-1.465 2.469,-2.394 3.756,-2.05c1.342,0.359 2.178,2.023 2.27,3.862l-0.265,1.616c-0.048,-1.965 -0.905,-3.778 -2.323,-4.155c-1.418,-0.378 -3.063,0.769 -4.082,2.449l0.644,-1.722Z" style="fill:#6a2b2b;"/><path d="M6.041,32.626l-0.317,0.422c0.973,-3.671 3.193,-6.268 4.955,-5.797c1.761,0.471 2.402,3.834 1.429,7.504l-0.041,-0.317c0.49,-2.958 -0.203,-5.441 -1.708,-5.842c-1.472,-0.392 -3.26,1.33 -4.318,4.03Z" style="fill:#e7a582;fill-opacity:0.5;"/><path d="M6.041,32.626c1.058,-2.7 2.846,-4.422 4.318,-4.03c1.505,0.401 2.198,2.884 1.708,5.842c-0.092,-1.839 -0.928,-3.503 -2.27,-3.862c-1.287,-0.344 -2.764,0.585 -3.756,2.05Z" style="fill:#923f39;"/><path d="M16.831,38.511c0.992,-1.465 2.469,-2.394 3.756,-2.05c1.342,0.359 2.178,2.023 2.27,3.862l-0.265,1.616c-0.048,-1.965 -0.905,-3.778 -2.323,-4.155c-1.418,-0.378 -3.063,0.769 -4.082,2.45l0.644,-1.723Z" style="fill:#6a2b2b;"/><path d="M16.831,38.511l-0.317,0.422c0.973,-3.671 3.193,-6.268 4.955,-5.797c1.761,0.471 2.402,3.834 1.429,7.505l-0.041,-0.318c0.49,-2.957 -0.203,-5.441 -1.708,-5.842c-1.472,-0.392 -3.26,1.33 -4.318,4.03Z" style="fill:#e7a582;fill-opacity:0.5;"/><path d="M16.831,38.511c1.058,-2.7 2.846,-4.422 4.318,-4.03c1.505,0.401 2.198,2.885 1.708,5.842c-0.092,-1.839 -0.928,-3.503 -2.27,-3.862c-1.287,-0.344 -2.764,0.585 -3.756,2.05Z" style="fill:#923f39;"/><path d="M27.128,42.478c0.992,-1.466 2.47,-2.395 3.757,-2.05c1.342,0.359 2.178,2.022 2.27,3.861l-0.265,1.617c-0.049,-1.965 -0.906,-3.779 -2.324,-4.156c-1.417,-0.378 -3.063,0.769 -4.082,2.45l0.644,-1.722Z" style="fill:#6a2b2b;"/><path d="M27.128,42.478l-0.317,0.421c0.973,-3.67 3.194,-6.268 4.955,-5.797c1.762,0.472 2.402,3.834 1.429,7.505l-0.04,-0.318c0.489,-2.957 -0.204,-5.441 -1.709,-5.842c-1.472,-0.392 -3.26,1.33 -4.318,4.031Z" style="fill:#e7a582;fill-opacity:0.5;"/><path d="M27.128,42.478c1.058,-2.701 2.846,-4.423 4.318,-4.031c1.505,0.401 2.198,2.885 1.709,5.842c-0.092,-1.839 -0.928,-3.502 -2.27,-3.861c-1.287,-0.345 -2.765,0.584 -3.757,2.05Z" style="fill:#923f39;"/><path d="M41.943,44.298c0.992,-1.465 2.469,-2.394 3.756,-2.05c1.342,0.359 2.178,2.023 2.27,3.862l-0.265,1.616c-0.048,-1.965 -0.906,-3.778 -2.323,-4.156c-1.418,-0.377 -3.063,0.769 -4.083,2.45l0.645,-1.722Z" style="fill:#6a2b2b;"/><path d="M41.943,44.298l-0.317,0.421c0.973,-3.67 3.193,-6.268 4.954,-5.796c1.762,0.471 2.402,3.834 1.429,7.504l-0.04,-0.317c0.489,-2.958 -0.203,-5.442 -1.709,-5.842c-1.472,-0.392 -3.26,1.329 -4.317,4.03Z" style="fill:#e7a582;fill-opacity:0.5;"/><path d="M41.943,44.298c1.057,-2.701 2.845,-4.422 4.317,-4.03c1.506,0.4 2.198,2.884 1.709,5.842c-0.092,-1.839 -0.928,-3.503 -2.27,-3.862c-1.287,-0.344 -2.764,0.585 -3.756,2.05Z" style="fill:#923f39;"/><path d="M52.299,40.613c0.992,-1.465 2.47,-2.394 3.757,-2.05c1.342,0.359 2.178,2.023 2.27,3.862l-0.265,1.616c-0.049,-1.965 -0.906,-3.778 -2.324,-4.155c-1.417,-0.378 -3.063,0.769 -4.082,2.449l0.644,-1.722Z" style="fill:#6a2b2b;"/><path d="M52.299,40.613l-0.317,0.422c0.973,-3.671 3.193,-6.268 4.955,-5.797c1.762,0.471 2.402,3.834 1.429,7.504l-0.04,-0.317c0.489,-2.958 -0.204,-5.441 -1.709,-5.842c-1.472,-0.392 -3.26,1.33 -4.318,4.03Z" style="fill:#e7a582;fill-opacity:0.5;"/><path d="M52.299,40.613c1.058,-2.7 2.846,-4.422 4.318,-4.03c1.505,0.401 2.198,2.884 1.709,5.842c-0.092,-1.839 -0.928,-3.503 -2.27,-3.862c-1.287,-0.344 -2.765,0.585 -3.757,2.05Z" style="fill:#923f39;"/><path d="M35.561,54.925c0.992,-1.466 2.47,-2.395 3.757,-2.05c1.342,0.359 2.178,2.022 2.27,3.861l-0.265,1.616c-0.049,-1.965 -0.906,-3.778 -2.323,-4.155c-1.418,-0.378 -3.064,0.769 -4.083,2.45l0.644,-1.722Z" style="fill:#6a2b2b;"/><path d="M35.561,54.925l-0.316,0.421c0.973,-3.671 3.193,-6.268 4.954,-5.797c1.762,0.471 2.402,3.834 1.429,7.505l-0.04,-0.318c0.489,-2.957 -0.203,-5.441 -1.709,-5.842c-1.472,-0.392 -3.26,1.33 -4.318,4.031Z" style="fill:#e7a582;fill-opacity:0.5;"/><path d="M35.561,54.925c1.058,-2.701 2.846,-4.423 4.318,-4.031c1.506,0.401 2.198,2.885 1.709,5.842c-0.092,-1.839 -0.928,-3.502 -2.27,-3.861c-1.287,-0.345 -2.765,0.584 -3.757,2.05Z" style="fill:#923f39;"/><path d="M23.401,53.903c0.992,-1.466 2.469,-2.395 3.756,-2.05c1.342,0.359 2.178,2.022 2.27,3.861l-0.265,1.616c-0.048,-1.965 -0.905,-3.778 -2.323,-4.155c-1.418,-0.378 -3.063,0.769 -4.082,2.45l0.644,-1.722Z" style="fill:#6a2b2b;"/><path d="M23.401,53.903l-0.317,0.421c0.973,-3.671 3.193,-6.268 4.955,-5.797c1.761,0.471 2.402,3.834 1.429,7.505l-0.041,-0.318c0.49,-2.957 -0.203,-5.441 -1.708,-5.842c-1.472,-0.392 -3.26,1.33 -4.318,4.031Z" style="fill:#e7a582;fill-opacity:0.5;"/><path d="M23.401,53.903c1.058,-2.701 2.846,-4.423 4.318,-4.031c1.505,0.401 2.198,2.885 1.708,5.842c-0.092,-1.839 -0.928,-3.502 -2.27,-3.861c-1.287,-0.345 -2.764,0.584 -3.756,2.05Z" style="fill:#923f39;"/><path d="M9.47,51.07c0.992,-1.466 2.469,-2.395 3.756,-2.05c1.342,0.359 2.178,2.022 2.27,3.861l-0.265,1.617c-0.048,-1.965 -0.905,-3.778 -2.323,-4.156c-1.418,-0.378 -3.063,0.769 -4.082,2.45l0.644,-1.722Z" style="fill:#6a2b2b;fill-opacity:0.3;"/><path d="M9.47,51.07l-0.317,0.421c0.973,-3.67 3.193,-6.268 4.955,-5.797c1.761,0.472 2.401,3.834 1.428,7.505l-0.04,-0.318c0.489,-2.957 -0.203,-5.441 -1.709,-5.842c-1.472,-0.392 -3.259,1.33 -4.317,4.031Z" style="fill:#e7a582;fill-opacity:0.3;"/><path d="M9.47,51.07c1.058,-2.701 2.845,-4.423 4.317,-4.031c1.506,0.401 2.198,2.885 1.709,5.842c-0.092,-1.839 -0.928,-3.502 -2.27,-3.861c-1.287,-0.345 -2.764,0.584 -3.756,2.05Z" style="fill:#923f39;fill-opacity:0.3;"/><path d="M2.406,42.167c0.992,-1.465 2.469,-2.394 3.756,-2.05c1.342,0.359 2.178,2.023 2.27,3.862l-0.265,1.616c-0.048,-1.965 -0.905,-3.778 -2.323,-4.156c-1.418,-0.377 -3.063,0.769 -4.082,2.45l0.644,-1.722Z" style="fill:#6a2b2b;fill-opacity:0.3;"/><path d="M2.406,42.167l-0.317,0.421c0.973,-3.67 3.193,-6.268 4.955,-5.796c1.761,0.471 2.401,3.834 1.428,7.504l-0.04,-0.317c0.489,-2.958 -0.203,-5.442 -1.709,-5.842c-1.472,-0.392 -3.26,1.329 -4.317,4.03Z" style="fill:#e7a582;fill-opacity:0.3;"/><path d="M2.406,42.167c1.057,-2.701 2.845,-4.422 4.317,-4.03c1.506,0.4 2.198,2.884 1.709,5.842c-0.092,-1.839 -0.928,-3.503 -2.27,-3.862c-1.287,-0.344 -2.764,0.585 -3.756,2.05Z" style="fill:#923f39;fill-opacity:0.3;"/></g></g></g></g></svg>