<?xml version="1.0" encoding="UTF-8" standalone="no"?><!DOCTYPE svg PUBLIC "-//W3C//DTD SVG 1.1//EN" "http://www.w3.org/Graphics/SVG/1.1/DTD/svg11.dtd"><svg width="100%" height="100%" viewBox="0 0 21 41" version="1.1" xmlns="http://www.w3.org/2000/svg" xmlns:xlink="http://www.w3.org/1999/xlink" xml:space="preserve" xmlns:serif="http://www.serif.com/" style="fill-rule:evenodd;clip-rule:evenodd;stroke-linejoin:round;stroke-miterlimit:1.41421;"><path id="hornR" d="M18.735,29.344c0.935,1.304 0.981,3.047 0.117,4.399c-2.516,4.007 -5.592,5.75 -9.076,5.86c-15.361,0.485 -8.858,-28.288 2.134,-38.238c0.11,-0.091 0.266,-0.1 0.385,-0.021c0.119,0.078 0.173,0.225 0.132,0.362c-2.1,7.733 -0.12,18.545 6.308,27.638Z" style="fill:#923f39;"/><clipPath id="_clip1"><path d="M18.735,29.344c0.935,1.304 0.981,3.047 0.117,4.399c-2.516,4.007 -5.592,5.75 -9.076,5.86c-15.361,0.485 -8.858,-28.288 2.134,-38.238c0.11,-0.091 0.266,-0.1 0.385,-0.021c0.119,0.078 0.173,0.225 0.132,0.362c-2.1,7.733 -0.12,18.545 6.308,27.638Z"/></clipPath><g clip-path="url(#_clip1)"><path d="M-7.136,40.956c3.536,-0.799 7.18,-1.971 8.189,-9.254c2.019,-0.74 2.88,-0.394 2.366,-5.252c3.459,0.983 2.79,-4.025 2.134,-6.862c3.916,-2.495 4.723,-5.286 1.78,-8.435c3.802,-2.909 0.353,-9.011 0.557,-14.931l19.482,21.217l-22.887,26.44" style="fill:#c46751;"/><path id="hornR1" serif:id="hornR" d="M10.48,2.792c0.467,-0.51 0.944,-0.987 1.43,-1.427c0.11,-0.091 0.266,-0.1 0.385,-0.021c0.119,0.078 0.173,0.225 0.132,0.362c-2.1,7.733 -0.12,18.545 6.308,27.638c0.935,1.304 0.981,3.047 0.117,4.399c-2.516,4.007 -5.592,5.75 -9.076,5.86c-3.341,0.106 -5.648,-1.173 -7.1,-3.342c1.356,1.406 3.258,2.205 5.797,2.146c3.172,-0.073 5.968,-1.614 8.251,-5.179c0.885,-1.352 0.85,-3.11 -0.088,-4.426c-5.964,-8.481 -7.871,-18.489 -6.017,-25.647c0.039,-0.137 -0.015,-0.283 -0.134,-0.36l-0.005,-0.003Z" style="fill:#e7a582;"/></g><path d="M18.735,29.344c0.935,1.304 0.981,3.047 0.117,4.399c-2.516,4.007 -5.592,5.75 -9.076,5.86c-15.361,0.485 -8.858,-28.288 2.134,-38.238c0.11,-0.091 0.266,-0.1 0.385,-0.021c0.119,0.078 0.173,0.225 0.132,0.362c-2.1,7.733 -0.12,18.545 6.308,27.638Z" style="fill:none;stroke:#000;stroke-width:1px;"/></svg>