<?xml version="1.0" encoding="UTF-8" standalone="no"?><!DOCTYPE svg PUBLIC "-//W3C//DTD SVG 1.1//EN" "http://www.w3.org/Graphics/SVG/1.1/DTD/svg11.dtd"><svg width="100%" height="100%" viewBox="0 0 21 41" version="1.1" xmlns="http://www.w3.org/2000/svg" xmlns:xlink="http://www.w3.org/1999/xlink" xml:space="preserve" xmlns:serif="http://www.serif.com/" style="fill-rule:evenodd;clip-rule:evenodd;stroke-linejoin:round;stroke-miterlimit:1.41421;"><path id="hornR" d="M2.175,29.529c-0.935,1.305 -0.981,3.048 -0.117,4.4c2.516,4.007 5.592,5.75 9.076,5.86c15.361,0.485 8.858,-28.288 -2.134,-38.238c-0.11,-0.092 -0.266,-0.1 -0.385,-0.022c-0.119,0.079 -0.173,0.226 -0.132,0.363c2.101,7.732 0.12,18.545 -6.308,27.637Z" style="fill:#923f39;"/><clipPath id="_clip1"><path d="M2.175,29.529c-0.935,1.305 -0.981,3.048 -0.117,4.4c2.516,4.007 5.592,5.75 9.076,5.86c15.361,0.485 8.858,-28.288 -2.134,-38.238c-0.11,-0.092 -0.266,-0.1 -0.385,-0.022c-0.119,0.079 -0.173,0.226 -0.132,0.363c2.101,7.732 0.12,18.545 -6.308,27.637Z"/></clipPath><g clip-path="url(#_clip1)"><path id="hornR1" serif:id="hornR" d="M8.524,1.62c0.023,-0.035 0.054,-0.066 0.091,-0.091c0.119,-0.078 0.275,-0.07 0.385,0.022c10.992,9.95 17.495,38.723 2.134,38.238c-1.539,-0.049 -2.998,-0.416 -4.365,-1.156c2.942,-2.57 5.278,-4.895 2.495,-7.594c6.642,-1.166 6.927,-3.952 1.944,-8.08c2.712,-2.074 6.694,-5.986 0.456,-6.925c3.644,-3.864 2.032,-4.011 -0.851,-5.676c1.544,-4.069 0.199,-6.723 -2.289,-8.738Z" style="fill:#c46751;"/><path d="M8.528,2.06c-0.015,-0.057 -0.03,-0.113 -0.045,-0.168c-0.041,-0.137 0.013,-0.284 0.132,-0.363c0.119,-0.078 0.275,-0.07 0.385,0.022c10.992,9.95 17.495,38.723 2.134,38.238c-1.991,-0.063 -3.848,-0.659 -5.544,-1.906c1.074,0.431 2.2,0.653 3.372,0.69c14.551,0.459 9.484,-25.333 -0.434,-36.513Z" style="fill:#e7a582;"/></g><path d="M2.175,29.529c-0.935,1.305 -0.981,3.048 -0.117,4.4c2.516,4.007 5.592,5.75 9.076,5.86c15.361,0.485 8.858,-28.288 -2.134,-38.238c-0.11,-0.092 -0.266,-0.1 -0.385,-0.022c-0.119,0.079 -0.173,0.226 -0.132,0.363c2.101,7.732 0.12,18.545 -6.308,27.637Z" style="fill:none;stroke:#000;stroke-width:1px;"/></svg>