<?xml version="1.0" encoding="UTF-8" standalone="no"?><!DOCTYPE svg PUBLIC "-//W3C//DTD SVG 1.1//EN" "http://www.w3.org/Graphics/SVG/1.1/DTD/svg11.dtd"><svg width="100%" height="100%" viewBox="0 0 29 37" version="1.1" xmlns="http://www.w3.org/2000/svg" xmlns:xlink="http://www.w3.org/1999/xlink" xml:space="preserve" xmlns:serif="http://www.serif.com/" style="fill-rule:evenodd;clip-rule:evenodd;stroke-linejoin:round;stroke-miterlimit:1.41421;"><path id="eye" d="M10.208,0.918c7.246,-1.79 15.055,4.552 17.427,14.154c2.372,9.601 -1.585,18.85 -8.831,20.64c-7.247,1.791 -15.056,-4.551 -17.428,-14.153c-2.372,-9.602 1.585,-18.85 8.832,-20.641Z" style="fill:#a8a6a6;"/><clipPath id="_clip1"><path d="M10.208,0.918c7.246,-1.79 15.055,4.552 17.427,14.154c2.372,9.601 -1.585,18.85 -8.831,20.64c-7.247,1.791 -15.056,-4.551 -17.428,-14.153c-2.372,-9.602 1.585,-18.85 8.832,-20.641Z"/></clipPath><g clip-path="url(#_clip1)"><path d="M10.888,0.774c-6.117,1.978 -9.381,10.039 -7.316,18.397c2.135,8.642 9.163,14.349 15.685,12.738c6.307,-1.558 9.846,-9.395 8.14,-17.726c0.085,0.293 0.164,0.589 0.238,0.889c2.372,9.601 -1.585,18.85 -8.831,20.64c-7.247,1.791 -15.056,-4.551 -17.428,-14.153c-2.372,-9.602 1.585,-18.85 8.832,-20.641c0.226,-0.055 0.453,-0.103 0.68,-0.144Z" style="fill-opacity:0.4;"/><path d="M14.586,7.58c3.907,-0.965 8.117,2.455 9.396,7.631c1.279,5.177 -0.854,10.164 -4.761,11.129c-3.907,0.965 -8.117,-2.454 -9.396,-7.631c-1.279,-5.177 0.854,-10.163 4.761,-11.129Z"/><path id="eye1" serif:id="eye" d="M13.635,0.657c5.164,0.455 10.136,4.621 12.774,10.756c-0.674,2.711 -2.387,4.799 -4.761,5.386c-3.865,0.955 -8.03,-2.428 -9.295,-7.549c-0.808,-3.27 -0.24,-6.463 1.282,-8.593Z" style="fill:#fff;fill-opacity:0.4;"/></g><path d="M10.208,0.918c7.246,-1.79 15.055,4.552 17.427,14.154c2.372,9.601 -1.585,18.85 -8.831,20.64c-7.247,1.791 -15.056,-4.551 -17.428,-14.153c-2.372,-9.602 1.585,-18.85 8.832,-20.641Z" style="fill:none;stroke:#000;stroke-width:1px;"/></svg>