<?xml version="1.0" encoding="UTF-8" standalone="no"?><!DOCTYPE svg PUBLIC "-//W3C//DTD SVG 1.1//EN" "http://www.w3.org/Graphics/SVG/1.1/DTD/svg11.dtd"><svg width="100%" height="100%" viewBox="0 0 67 50" version="1.1" xmlns="http://www.w3.org/2000/svg" xmlns:xlink="http://www.w3.org/1999/xlink" xml:space="preserve" xmlns:serif="http://www.serif.com/" style="fill-rule:evenodd;clip-rule:evenodd;stroke-linejoin:round;stroke-miterlimit:1.41421;"><g id="wingL"><path d="M0.659,0.8c0,-0.001 0,-0.001 0.001,-0.001c0,0 0.001,0 0.001,0c0.115,0.239 2.993,6.202 6.012,8.605c6.09,4.85 10.058,5.018 13.493,0.705c0,0 0,-0.001 0.002,-0.003c0.095,-0.16 0.287,-0.234 0.465,-0.18c0.178,0.055 0.331,0.229 0.285,0.409c-1.763,7.04 9.298,12.013 14.229,5.788c0.097,-0.124 0.264,-0.17 0.412,-0.114c0.147,0.056 0.241,0.201 0.232,0.359c-0.634,9.47 13.345,10.943 15.075,2.232c0.08,-0.403 0.772,-0.274 1.114,-0.046c3.039,1.976 6.788,2.787 10.582,2.079c0.434,-0.086 0.859,0.184 0.965,0.614c0.635,2.55 2.6,10.491 2.6,10.491c-8.562,2.118 -14.931,8.552 -17.362,16.412c-0.151,0.509 -0.666,0.818 -1.186,0.712c-21.724,-4.563 -39.732,-18.27 -45.966,-43.476c0,0 -0.91,-4.373 -0.954,-4.586Z" style="fill:#6a2b2b;"/><clipPath id="_clip1"><path d="M0.659,0.8c0,-0.001 0,-0.001 0.001,-0.001c0,0 0.001,0 0.001,0c0.115,0.239 2.993,6.202 6.012,8.605c6.09,4.85 10.058,5.018 13.493,0.705c0,0 0,-0.001 0.002,-0.003c0.095,-0.16 0.287,-0.234 0.465,-0.18c0.178,0.055 0.331,0.229 0.285,0.409c-1.763,7.04 9.298,12.013 14.229,5.788c0.097,-0.124 0.264,-0.17 0.412,-0.114c0.147,0.056 0.241,0.201 0.232,0.359c-0.634,9.47 13.345,10.943 15.075,2.232c0.08,-0.403 0.772,-0.274 1.114,-0.046c3.039,1.976 6.788,2.787 10.582,2.079c0.434,-0.086 0.859,0.184 0.965,0.614c0.635,2.55 2.6,10.491 2.6,10.491c-8.562,2.118 -14.931,8.552 -17.362,16.412c-0.151,0.509 -0.666,0.818 -1.186,0.712c-21.724,-4.563 -39.732,-18.27 -45.966,-43.476c0,0 -0.91,-4.373 -0.954,-4.586Z"/></clipPath><g clip-path="url(#_clip1)"><path d="M-1.171,-9.478c0,0 0,-0.001 0.001,-0.001c0,0 0.001,0 0.001,0.001c0.1,0.245 2.624,6.367 5.495,8.944c5.795,5.199 13.489,6.089 17.171,1.986c0,0 0.001,-0.001 0.002,-0.003c0.105,-0.154 0.301,-0.217 0.475,-0.153c0.175,0.065 0.283,0.241 0.261,0.426c-0.173,1.598 -0.01,3.196 0.522,4.738c2.42,7.003 11.561,10.209 20.401,7.155c1.737,-0.6 3.333,-1.397 4.745,-2.372c0.337,-0.235 0.787,-0.227 1.115,0.02c2.917,2.151 6.612,3.181 10.441,2.697c0.439,-0.06 0.847,0.235 0.927,0.67c0.485,2.583 1.979,10.626 1.979,10.626c-8.672,1.611 -15.408,7.659 -18.297,15.363c-0.181,0.499 -0.713,0.777 -1.226,0.641c-21.418,-5.832 -38.589,-20.575 -43.33,-46.104c0,0 -0.651,-4.418 -0.683,-4.634Z" style="fill:#402a2a;"/><clipPath id="_clip2"><path d="M-1.171,-9.478c0,0 0,-0.001 0.001,-0.001c0,0 0.001,0 0.001,0.001c0.1,0.245 2.624,6.367 5.495,8.944c5.795,5.199 13.489,6.089 17.171,1.986c0,0 0.001,-0.001 0.002,-0.003c0.105,-0.154 0.301,-0.217 0.475,-0.153c0.175,0.065 0.283,0.241 0.261,0.426c-0.173,1.598 -0.01,3.196 0.522,4.738c2.42,7.003 11.561,10.209 20.401,7.155c1.737,-0.6 3.333,-1.397 4.745,-2.372c0.337,-0.235 0.787,-0.227 1.115,0.02c2.917,2.151 6.612,3.181 10.441,2.697c0.439,-0.06 0.847,0.235 0.927,0.67c0.485,2.583 1.979,10.626 1.979,10.626c-8.672,1.611 -15.408,7.659 -18.297,15.363c-0.181,0.499 -0.713,0.777 -1.226,0.641c-21.418,-5.832 -38.589,-20.575 -43.33,-46.104c0,0 -0.651,-4.418 -0.683,-4.634Z"/></clipPath><g clip-path="url(#_clip2)"><path d="M2.502,-0.326c-0.944,2.136 2.438,15.02 6.248,13.58c-1.381,4.877 2.89,6.398 3.153,3.178c3.801,-1.549 7.082,-4.974 9.74,-9.718c-1.678,9.237 -3.054,15.039 -2.321,18.365c0.459,2.083 4.845,-4.648 5.054,-5.155c-6.406,13.567 4.822,4.234 13.403,-8.357c-4.201,11.183 -6.019,18.104 -3.373,22.739c1.298,2.273 5.715,-1.283 5.557,-3.963c0.399,0.468 1.504,6.466 2.661,5.552c7.297,-4.818 9.464,-12.656 12.962,-18.82l4.093,21.827l-25.782,21.136l-36.349,-45.944l1.846,-21.691l3.108,7.271Z" style="fill:#2d1c1c;"/></g><path d="M0.609,0.834c2.073,6.9 3.397,13.201 9.544,21.331c1,1.322 2.237,0.521 3.053,-0.308c-0.789,0.931 -1.088,3.03 -0.359,3.608c4.679,10.095 9.238,7.996 12.285,5.872c-3.826,5.746 7.874,13.386 19.853,15.094c0.807,0.115 -0.035,-2.148 0.775,-2.086c1.948,1.518 3.326,0.444 2.342,-1.385c-0.023,-0.044 -0.102,-0.097 -0.067,-0.131c3.925,-3.884 5.811,-5.187 8.847,-10.469l6.302,10.675l-42.299,21.534l-24.92,-46.253l4.644,-17.482Z" style="fill:#923f39;"/></g><path d="M0.659,0.8c0,-0.001 0,-0.001 0.001,-0.001c0,0 0.001,0 0.001,0c0.115,0.239 2.993,6.202 6.012,8.605c6.09,4.85 10.058,5.018 13.493,0.705c0,0 0,-0.001 0.002,-0.003c0.095,-0.16 0.287,-0.234 0.465,-0.18c0.178,0.055 0.331,0.229 0.285,0.409c-1.763,7.04 9.298,12.013 14.229,5.788c0.097,-0.124 0.264,-0.17 0.412,-0.114c0.147,0.056 0.241,0.201 0.232,0.359c-0.634,9.47 13.345,10.943 15.075,2.232c0.08,-0.403 0.772,-0.274 1.114,-0.046c3.039,1.976 6.788,2.787 10.582,2.079c0.434,-0.086 0.859,0.184 0.965,0.614c0.635,2.55 2.6,10.491 2.6,10.491c-8.562,2.118 -14.931,8.552 -17.362,16.412c-0.151,0.509 -0.666,0.818 -1.186,0.712c-21.724,-4.563 -39.732,-18.27 -45.966,-43.476c0,0 -0.91,-4.373 -0.954,-4.586Z" style="fill:none;stroke:#000;stroke-width:1px;"/><path d="M19.676,11.663c0.067,-0.074 0.179,-0.086 0.26,-0.028c0.081,0.058 0.106,0.168 0.057,0.255c-2.499,4.256 -2.757,7.798 -4.287,11.287c-0.533,1.173 -0.329,2.55 0.523,3.517c0.074,0.148 0.183,0.271 0.293,0.397c2.041,2.319 5.504,2.718 8.018,0.924c3.522,-2.578 7.14,-6.482 10.051,-10.291c0.075,-0.102 0.215,-0.128 0.322,-0.061c0.106,0.068 0.142,0.206 0.082,0.317c-1.547,2.821 -3.11,5.926 -4.417,8.992c-1.399,3.337 -1.316,7.111 0.228,10.383c1.544,3.272 4.405,5.735 7.87,6.776c0.749,0.238 1.085,0.27 1.231,0.261c0.081,-0.004 -1.926,0.174 -2.244,0.202c-0.027,0.002 -0.055,-0.001 -0.081,-0.011c-11.899,-4.506 -21.143,-10.08 -29.595,-25.201c0,0 0,0 0,0c1.742,1.405 4.246,1.334 5.906,-0.167c2.23,-2.018 3.614,-4.829 5.783,-7.552Z" style="fill:#6a2b2b;"/><clipPath id="_clip3"><path d="M19.676,11.663c0.067,-0.074 0.179,-0.086 0.26,-0.028c0.081,0.058 0.106,0.168 0.057,0.255c-2.499,4.256 -2.757,7.798 -4.287,11.287c-0.533,1.173 -0.329,2.55 0.523,3.517c0.074,0.148 0.183,0.271 0.293,0.397c2.041,2.319 5.504,2.718 8.018,0.924c3.522,-2.578 7.14,-6.482 10.051,-10.291c0.075,-0.102 0.215,-0.128 0.322,-0.061c0.106,0.068 0.142,0.206 0.082,0.317c-1.547,2.821 -3.11,5.926 -4.417,8.992c-1.399,3.337 -1.316,7.111 0.228,10.383c1.544,3.272 4.405,5.735 7.87,6.776c0.749,0.238 1.085,0.27 1.231,0.261c0.081,-0.004 -1.926,0.174 -2.244,0.202c-0.027,0.002 -0.055,-0.001 -0.081,-0.011c-11.899,-4.506 -21.143,-10.08 -29.595,-25.201c0,0 0,0 0,0c1.742,1.405 4.246,1.334 5.906,-0.167c2.23,-2.018 3.614,-4.829 5.783,-7.552Z"/></clipPath><g clip-path="url(#_clip3)"><path d="M0.609,0.834c2.073,6.9 3.397,13.201 9.544,21.331c1,1.322 2.237,0.521 3.053,-0.308c-0.789,0.931 -1.088,3.03 -0.359,3.608c4.679,10.095 9.238,7.996 12.285,5.872c-4.084,6.133 8.869,14.091 21.709,15.069c3.302,-3.501 6.648,-8.142 10.041,-14.046l6.302,10.675l-42.299,21.534l-24.92,-46.253l4.644,-17.482Z" style="fill:#923f39;"/></g><path d="M56.351,27.2c-5.071,2.14 -9.232,6.889 -12.66,13.741c-0.06,0.119 -0.185,0.19 -0.318,0.179c-4.185,-0.34 -7.964,-1.852 -11.605,-3.763c-1.282,-0.675 -2.148,-1.938 -2.317,-3.377c-0.283,-3.967 2.081,-9.78 5.463,-16.283c-3.438,4.098 -7.025,7.585 -10.76,10.467c-0.763,0.586 -1.676,0.945 -2.634,1.034c-1.368,0.096 -2.545,-0.235 -3.575,-0.968c-1.673,-1.209 -2.445,-3.313 -1.951,-5.318c0.795,-2.697 2.281,-6.827 3.844,-11.121c0.001,-0.005 -0.001,-0.01 -0.005,-0.012c-0.004,-0.002 -0.01,-0.001 -0.012,0.003c-1.992,3.08 -4.161,5.629 -6.451,7.813c-0.01,0.011 -0.02,0.022 -0.028,0.034c-0.398,0.448 -2.631,0.991 -3.051,0.863c-1.347,-0.408 -9.871,-18.317 -9.118,-18.113" style="fill:none;stroke:#000;stroke-width:1px;stroke-linecap:round;stroke-miterlimit:1.5;"/></g></svg>