<?xml version="1.0" encoding="UTF-8" standalone="no"?><!DOCTYPE svg PUBLIC "-//W3C//DTD SVG 1.1//EN" "http://www.w3.org/Graphics/SVG/1.1/DTD/svg11.dtd"><svg width="100%" height="100%" viewBox="0 0 14 26" version="1.1" xmlns="http://www.w3.org/2000/svg" xmlns:xlink="http://www.w3.org/1999/xlink" xml:space="preserve" xmlns:serif="http://www.serif.com/" style="fill-rule:evenodd;clip-rule:evenodd;stroke-linejoin:round;stroke-miterlimit:1.41421;"><path id="wingRHorn1" d="M11.655,17.579c1.099,1.361 1.164,3.286 0.157,4.717c-1.188,1.734 -2.69,2.607 -4.423,2.832c-9.237,1.2 -7.188,-16.252 -1.263,-23.232c0.098,-0.103 0.251,-0.129 0.377,-0.065c0.127,0.064 0.197,0.203 0.173,0.342c-0.621,4.584 1.055,10.502 4.979,15.406Z" style="fill:#923f39;"/><clipPath id="_clip1"><path d="M11.655,17.579c1.099,1.361 1.164,3.286 0.157,4.717c-1.188,1.734 -2.69,2.607 -4.423,2.832c-9.237,1.2 -7.188,-16.252 -1.263,-23.232c0.098,-0.103 0.251,-0.129 0.377,-0.065c0.127,0.064 0.197,0.203 0.173,0.342c-0.621,4.584 1.055,10.502 4.979,15.406Z"/></clipPath><g clip-path="url(#_clip1)"><path d="M5.274,1.678c2.322,1.462 0.681,2.576 -0.801,6.691c1.239,0.984 2.423,1.737 0.572,4.131c2.808,0.505 1.492,3.943 0.602,4.734c2.082,2.462 0.738,3.239 -0.443,4.038c1.874,2.646 -2.484,4.828 -4.136,7.991l20.585,-5.379l-8.563,-20.609" style="fill:#c46751;"/><path d="M5.702,1.608c0.101,-0.119 0.202,-0.236 0.305,-0.349c0.064,-0.065 0.163,-0.081 0.243,-0.039c0.08,0.042 0.122,0.132 0.105,0.221c-0.879,5.042 1.008,11.769 5.613,17.112c0.668,0.766 0.8,1.869 0.331,2.783c-1.36,2.706 -3.207,4.013 -5.407,4.312c-0.933,0.126 -1.753,0.068 -2.469,-0.147c0.147,-0.002 0.297,-0.009 0.45,-0.02c2.213,-0.167 4.133,-1.362 5.65,-3.984c0.522,-0.886 0.457,-1.994 -0.165,-2.799c-4.179,-5.487 -5.689,-12.139 -4.656,-17.09Z" style="fill:#e7a582;"/></g><path d="M11.655,17.579c1.099,1.361 1.164,3.286 0.157,4.717c-1.188,1.734 -2.69,2.607 -4.423,2.832c-9.237,1.2 -7.188,-16.252 -1.263,-23.232c0.098,-0.103 0.251,-0.129 0.377,-0.065c0.127,0.064 0.197,0.203 0.173,0.342c-0.621,4.584 1.055,10.502 4.979,15.406Z" style="fill:none;stroke:#000;stroke-width:1px;"/></svg>