<?xml version="1.0" encoding="UTF-8" standalone="no"?><!DOCTYPE svg PUBLIC "-//W3C//DTD SVG 1.1//EN" "http://www.w3.org/Graphics/SVG/1.1/DTD/svg11.dtd"><svg width="100%" height="100%" viewBox="0 0 13 13" version="1.1" xmlns="http://www.w3.org/2000/svg" xmlns:xlink="http://www.w3.org/1999/xlink" xml:space="preserve" xmlns:serif="http://www.serif.com/" style="fill-rule:evenodd;clip-rule:evenodd;stroke-linejoin:round;stroke-miterlimit:1.41421;"><path id="wingRHorn3" d="M9.542,5.954c0.855,0.099 1.63,0.55 2.137,1.246c0.507,0.695 0.701,1.571 0.534,2.415c-0.094,0.555 -0.321,1.053 -0.652,1.505c-3.314,4.523 -9.985,-3.315 -10.858,-8.916c-0.01,-0.14 0.072,-0.27 0.202,-0.321c0.131,-0.051 0.279,-0.011 0.366,0.099c1.762,1.99 4.789,3.561 8.271,3.972Z" style="fill:#923f39;"/><clipPath id="_clip1"><path d="M9.542,5.954c0.855,0.099 1.63,0.55 2.137,1.246c0.507,0.695 0.701,1.571 0.534,2.415c-0.094,0.555 -0.321,1.053 -0.652,1.505c-3.314,4.523 -9.985,-3.315 -10.858,-8.916c-0.01,-0.14 0.072,-0.27 0.202,-0.321c0.131,-0.051 0.279,-0.011 0.366,0.099c1.762,1.99 4.789,3.561 8.271,3.972Z"/></clipPath><g clip-path="url(#_clip1)"><path d="M0.19,2.081c1.641,-0.414 1.44,0.792 2.646,3.206c0.967,-0.134 1.807,-0.343 2.089,1.503c1.421,-1.039 2.395,1.013 2.37,1.747c1.986,0.118 1.76,1.049 1.614,1.916c1.979,0.29 1.099,3.165 1.808,5.25l6.361,-11.482l-12.848,-4.95" style="fill:#c46751;"/><path d="M0.655,1.88c-0.011,-0.102 -0.02,-0.203 -0.028,-0.303c-0.002,-0.06 0.031,-0.113 0.083,-0.132c0.051,-0.018 0.108,0.003 0.139,0.052c1.852,2.712 5.576,4.895 9.807,5.171c0.61,0.035 1.147,0.476 1.356,1.113c0.63,1.873 0.447,3.337 -0.324,4.506c-0.326,0.496 -0.688,0.854 -1.075,1.093c0.059,-0.07 0.118,-0.144 0.175,-0.221c0.834,-1.115 1.096,-2.562 0.567,-4.471c-0.174,-0.648 -0.687,-1.124 -1.295,-1.199c-4.119,-0.541 -7.656,-2.866 -9.405,-5.609Z" style="fill:#e7a582;"/></g><path d="M9.542,5.954c0.855,0.099 1.63,0.55 2.137,1.246c0.507,0.695 0.701,1.571 0.534,2.415c-0.094,0.555 -0.321,1.053 -0.652,1.505c-3.314,4.523 -9.985,-3.315 -10.858,-8.916c-0.01,-0.14 0.072,-0.27 0.202,-0.321c0.131,-0.051 0.279,-0.011 0.366,0.099c1.762,1.99 4.789,3.561 8.271,3.972Z" style="fill:none;stroke:#000;stroke-width:1px;"/></svg>