<?xml version="1.0" encoding="UTF-8" standalone="no"?><!DOCTYPE svg PUBLIC "-//W3C//DTD SVG 1.1//EN" "http://www.w3.org/Graphics/SVG/1.1/DTD/svg11.dtd"><svg width="100%" height="100%" viewBox="0 0 13 18" version="1.1" xmlns="http://www.w3.org/2000/svg" xmlns:xlink="http://www.w3.org/1999/xlink" xml:space="preserve" xmlns:serif="http://www.serif.com/" style="fill-rule:evenodd;clip-rule:evenodd;stroke-linejoin:round;stroke-miterlimit:1.41421;"><path id="wingRHorn2" d="M9.264,10.153c1.162,0.749 1.842,2.055 1.791,3.437c-0.052,1.381 -0.829,2.633 -2.044,3.293c0.009,0.018 0.008,0.019 0.006,0.019c-5.955,3.23 -9.167,-8.934 -7.12,-15.386c0.053,-0.131 0.184,-0.212 0.324,-0.2c0.141,0.011 0.257,0.113 0.287,0.251c0.818,3.048 3.237,6.318 6.756,8.586Z" style="fill:#923f39;"/><clipPath id="_clip1"><path d="M9.264,10.153c1.162,0.749 1.842,2.055 1.791,3.437c-0.052,1.381 -0.829,2.633 -2.044,3.293c0.009,0.018 0.008,0.019 0.006,0.019c-5.955,3.23 -9.167,-8.934 -7.12,-15.386c0.053,-0.131 0.184,-0.212 0.324,-0.2c0.141,0.011 0.257,0.113 0.287,0.251c0.818,3.048 3.237,6.318 6.756,8.586Z"/></clipPath><g clip-path="url(#_clip1)"><path d="M1.343,1.323c1.986,0.39 1.152,1.592 1.223,4.818c1.114,0.348 2.128,0.552 1.49,2.691c2.066,-0.397 2.072,2.318 1.669,3.099c2.086,1.142 1.367,2.033 0.766,2.896c1.992,1.324 -0.429,3.982 -0.727,6.598l12.741,-9.162l-11.359,-11.914" style="fill:#c46751;"/><path d="M1.967,1.304c0.04,-0.114 0.081,-0.226 0.123,-0.336c0.028,-0.065 0.091,-0.105 0.156,-0.098c0.064,0.006 0.115,0.057 0.125,0.126c0.633,3.827 3.559,8.043 7.995,10.489c0.642,0.349 1.001,1.091 0.905,1.875c-0.264,2.313 -1.201,3.776 -2.625,4.628c-0.603,0.36 -1.176,0.558 -1.715,0.614c0.1,-0.044 0.2,-0.093 0.301,-0.145c1.465,-0.762 2.479,-2.168 2.871,-4.466c0.139,-0.779 -0.176,-1.546 -0.796,-1.935c-4.182,-2.672 -6.833,-6.944 -7.34,-10.752Z" style="fill:#e7a582;"/></g><path d="M9.264,10.153c1.162,0.749 1.842,2.055 1.791,3.437c-0.052,1.381 -0.829,2.633 -2.044,3.293c0.009,0.018 0.008,0.019 0.006,0.019c-5.955,3.23 -9.167,-8.934 -7.12,-15.386c0.053,-0.131 0.184,-0.212 0.324,-0.2c0.141,0.011 0.257,0.113 0.287,0.251c0.818,3.048 3.237,6.318 6.756,8.586Z" style="fill:none;stroke:#000;stroke-width:1px;"/></svg>