<?xml version="1.0" encoding="UTF-8" standalone="no"?><!DOCTYPE svg PUBLIC "-//W3C//DTD SVG 1.1//EN" "http://www.w3.org/Graphics/SVG/1.1/DTD/svg11.dtd"><svg width="100%" height="100%" viewBox="0 0 22 41" version="1.1" xmlns="http://www.w3.org/2000/svg" xmlns:xlink="http://www.w3.org/1999/xlink" xml:space="preserve" xmlns:serif="http://www.serif.com/" style="fill-rule:evenodd;clip-rule:evenodd;stroke-linejoin:round;stroke-miterlimit:1.41421;"><path id="hornR" d="M2.582,29.422c-0.936,1.304 -0.982,3.047 -0.117,4.399c2.516,4.008 5.592,5.75 9.075,5.86c15.361,0.485 8.859,-28.287 -2.134,-38.238c-0.109,-0.091 -0.266,-0.1 -0.385,-0.021c-0.119,0.078 -0.172,0.225 -0.132,0.362c2.101,7.733 0.12,18.545 -6.307,27.638Z" style="fill:#923f39;"/><clipPath id="_clip1"><path d="M2.582,29.422c-0.936,1.304 -0.982,3.047 -0.117,4.399c2.516,4.008 5.592,5.75 9.075,5.86c15.361,0.485 8.859,-28.287 -2.134,-38.238c-0.109,-0.091 -0.266,-0.1 -0.385,-0.021c-0.119,0.078 -0.172,0.225 -0.132,0.362c2.101,7.733 0.12,18.545 -6.307,27.638Z"/></clipPath><g clip-path="url(#_clip1)"><path d="M3.125,-1.812c5.337,2.493 10.638,5.357 8.095,12.062c2.883,1.665 4.495,1.813 0.851,5.676c6.237,0.939 2.255,4.851 -0.457,6.925c4.983,4.128 4.698,6.914 -1.944,8.08c4.558,4.422 -4.615,7.838 -7.694,12.972l44.177,-8.036l-22.287,-34.203" style="fill:#c46751;"/><path d="M8.934,1.952c-0.015,-0.056 -0.03,-0.112 -0.045,-0.168c-0.04,-0.137 0.013,-0.284 0.132,-0.362c0.119,-0.079 0.276,-0.07 0.385,0.021c10.993,9.951 17.495,38.723 2.134,38.238c-1.99,-0.063 -3.848,-0.659 -5.544,-1.906c1.074,0.431 2.2,0.653 3.372,0.69c14.551,0.46 9.484,-25.333 -0.434,-36.513Z" style="fill:#e7a582;"/></g><path d="M2.582,29.422c-0.936,1.304 -0.982,3.047 -0.117,4.399c2.516,4.008 5.592,5.75 9.075,5.86c15.361,0.485 8.859,-28.287 -2.134,-38.238c-0.109,-0.091 -0.266,-0.1 -0.385,-0.021c-0.119,0.078 -0.172,0.225 -0.132,0.362c2.101,7.733 0.12,18.545 -6.307,27.638Z" style="fill:none;stroke:#000;stroke-width:1px;"/></svg>