<?xml version="1.0" encoding="UTF-8" standalone="no"?><!DOCTYPE svg PUBLIC "-//W3C//DTD SVG 1.1//EN" "http://www.w3.org/Graphics/SVG/1.1/DTD/svg11.dtd"><svg width="100%" height="100%" viewBox="0 0 19 22" version="1.1" xmlns="http://www.w3.org/2000/svg" xmlns:xlink="http://www.w3.org/1999/xlink" xml:space="preserve" xmlns:serif="http://www.serif.com/" style="fill-rule:evenodd;clip-rule:evenodd;stroke-linejoin:round;stroke-miterlimit:1.41421;"><path id="wingLHorn1" d="M7.894,16.943c0.047,1.749 1.249,3.254 2.944,3.688c2.032,0.548 3.744,0.236 5.21,-0.72c7.807,-5.094 -5.1,-17.039 -14.147,-18.497c-0.14,-0.014 -0.274,0.066 -0.329,0.196c-0.054,0.131 -0.017,0.282 0.092,0.372c3.453,3.084 6.026,8.678 6.23,14.961Z" style="fill:#923f39;"/><clipPath id="_clip1"><path d="M7.894,16.943c0.047,1.749 1.249,3.254 2.944,3.688c2.032,0.548 3.744,0.236 5.21,-0.72c7.807,-5.094 -5.1,-17.039 -14.147,-18.497c-0.14,-0.014 -0.274,0.066 -0.329,0.196c-0.054,0.131 -0.017,0.282 0.092,0.372c3.453,3.084 6.026,8.678 6.23,14.961Z"/></clipPath><g clip-path="url(#_clip1)"><path id="hornR" d="M1.271,1.557c-0.001,-0.026 0.004,-0.052 0.014,-0.078c0.032,-0.081 0.114,-0.132 0.202,-0.125c9.059,1.149 22.488,13.385 14.561,18.557c-0.795,0.518 -1.661,0.847 -2.612,0.955c0.579,-2.335 0.939,-4.333 -1.418,-4.714c2.943,-2.932 2.104,-4.439 -1.867,-4.766c0.638,-2.004 1.269,-5.383 -2.212,-3.658c0.478,-3.236 -0.388,-2.742 -2.431,-2.566c-0.655,-2.598 -2.27,-3.465 -4.237,-3.605Z" style="fill:#c46751;"/><path d="M0.619,2.343c-0.029,-0.023 -0.057,-0.045 -0.085,-0.067c-0.072,-0.053 -0.093,-0.148 -0.052,-0.236c0.04,-0.087 0.133,-0.145 0.228,-0.143c9.821,0.616 23.701,12.538 14.709,18.453c-1.166,0.766 -2.443,1.21 -3.856,1.26c0.768,-0.213 1.493,-0.552 2.18,-1.004c8.517,-5.602 -3.487,-16.595 -13.124,-18.263Z" style="fill:#e7a582;"/></g><path d="M7.894,16.943c0.047,1.749 1.249,3.254 2.944,3.688c2.032,0.548 3.744,0.236 5.21,-0.72c7.807,-5.094 -5.1,-17.039 -14.147,-18.497c-0.14,-0.014 -0.274,0.066 -0.329,0.196c-0.054,0.131 -0.017,0.282 0.092,0.372c3.453,3.084 6.026,8.678 6.23,14.961Z" style="fill:none;stroke:#000;stroke-width:1px;"/></svg>