<?xml version="1.0" encoding="UTF-8" standalone="no"?><!DOCTYPE svg PUBLIC "-//W3C//DTD SVG 1.1//EN" "http://www.w3.org/Graphics/SVG/1.1/DTD/svg11.dtd"><svg width="100%" height="100%" viewBox="0 0 9 16" version="1.1" xmlns="http://www.w3.org/2000/svg" xmlns:xlink="http://www.w3.org/1999/xlink" xml:space="preserve" xmlns:serif="http://www.serif.com/" style="fill-rule:evenodd;clip-rule:evenodd;stroke-linejoin:round;stroke-miterlimit:1.41421;"><path id="wingLHorn3" d="M2.182,9.987c-0.699,0.711 -1.017,1.711 -0.856,2.695c0.16,0.983 0.78,1.831 1.668,2.282c0.23,0.101 0.465,0.19 0.712,0.258c5.265,1.443 5.615,-8.552 2.9,-13.367c-0.079,-0.116 -0.223,-0.166 -0.357,-0.125c-0.133,0.041 -0.225,0.164 -0.225,0.304c-0.146,2.558 -1.481,5.549 -3.842,7.953Z" style="fill:#923f39;"/><clipPath id="_clip1"><path d="M2.182,9.987c-0.699,0.711 -1.017,1.711 -0.856,2.695c0.16,0.983 0.78,1.831 1.668,2.282c0.23,0.101 0.465,0.19 0.712,0.258c5.265,1.443 5.615,-8.552 2.9,-13.367c-0.079,-0.116 -0.223,-0.166 -0.357,-0.125c-0.133,0.041 -0.225,0.164 -0.225,0.304c-0.146,2.558 -1.481,5.549 -3.842,7.953Z"/></clipPath><g clip-path="url(#_clip1)"><path id="hornR" d="M6.07,1.259c0.011,-0.011 0.025,-0.019 0.04,-0.025c0.05,-0.018 0.105,-0.001 0.137,0.041c3.095,4.533 2.946,15.45 -2.541,13.947c-0.549,-0.151 -1.043,-0.409 -1.471,-0.794c1.282,-0.67 2.323,-1.305 1.555,-2.517c2.492,0.155 2.835,-0.823 1.399,-2.74c1.156,-0.512 2.927,-1.575 0.764,-2.453c1.646,-1.075 1.078,-1.268 0.185,-2.116c0.907,-1.331 0.653,-2.402 -0.068,-3.343Z" style="fill:#c46751;"/><path d="M5.212,1.22c-0.002,-0.022 -0.003,-0.043 -0.005,-0.065c-0.006,-0.053 0.03,-0.101 0.088,-0.117c0.058,-0.016 0.125,0.004 0.164,0.048c3.868,4.718 4.176,15.746 -2.391,13.982c-0.851,-0.228 -1.599,-0.635 -2.22,-1.259c0.424,0.266 0.89,0.462 1.391,0.597c6.22,1.67 6.272,-8.136 2.973,-13.186Z" style="fill:#e7a582;"/></g><path d="M2.182,9.987c-0.699,0.711 -1.017,1.711 -0.856,2.695c0.16,0.983 0.78,1.831 1.668,2.282c0.23,0.101 0.465,0.19 0.712,0.258c5.265,1.443 5.615,-8.552 2.9,-13.367c-0.079,-0.116 -0.223,-0.166 -0.357,-0.125c-0.133,0.041 -0.225,0.164 -0.225,0.304c-0.146,2.558 -1.481,5.549 -3.842,7.953Z" style="fill:none;stroke:#000;stroke-width:1px;"/></svg>