<?xml version="1.0" encoding="UTF-8" standalone="no"?><!DOCTYPE svg PUBLIC "-//W3C//DTD SVG 1.1//EN" "http://www.w3.org/Graphics/SVG/1.1/DTD/svg11.dtd"><svg width="100%" height="100%" viewBox="0 0 66 66" version="1.1" xmlns="http://www.w3.org/2000/svg" xmlns:xlink="http://www.w3.org/1999/xlink" xml:space="preserve" xmlns:serif="http://www.serif.com/" style="fill-rule:evenodd;clip-rule:evenodd;stroke-linejoin:round;stroke-miterlimit:1.41421;"><circle id="body" cx="33.313" cy="32.582" r="32.028" style="fill:#b74f4f;"/><clipPath id="_clip1"><circle cx="33.313" cy="32.582" r="32.028"/></clipPath><g clip-path="url(#_clip1)"><ellipse cx="31.824" cy="33.526" rx="30.164" ry="30.567" style="fill:#782b2b;"/><path id="body1" serif:id="body" d="M33.313,0.554l0.248,0.001l0.072,0l0.189,0.003l0.065,0.001l0.251,0.005l0.273,0.008c-6.971,0.244 -13.338,2.882 -18.303,7.115c-4.448,5.216 -7.133,11.979 -7.133,19.363c0,16.486 13.384,29.871 29.87,29.871c7.385,0 14.147,-2.686 19.363,-7.133c4.234,-4.966 6.871,-11.333 7.115,-18.304c0.006,0.174 0.01,0.349 0.013,0.524l0.001,0.065l0.003,0.189l0,0.072l0.001,0.248c0,0 0,0.203 0,0.203l-0.001,0.068l-0.001,0.135l-0.001,0.081l-0.002,0.122l-0.002,0.086l-0.003,0.116l-0.002,0.09l-0.003,0.112l-0.003,0.092l-0.004,0.11l-0.004,0.093l-0.004,0.108l-0.005,0.094l-0.005,0.108l-0.005,0.094l-0.005,0.106l-0.006,0.095l-0.006,0.106l-0.006,0.094l-0.007,0.106l-0.007,0.095l-0.008,0.105l-0.007,0.095l-0.008,0.104l-0.008,0.095l-0.009,0.104l-0.009,0.095l-0.009,0.104l-0.009,0.095l-0.01,0.104l-0.01,0.095l-0.011,0.103l-0.01,0.095l-0.011,0.102l-0.011,0.095l-0.012,0.103l-0.011,0.095l-0.013,0.102l-0.012,0.095l-0.013,0.101l-0.013,0.095l-0.014,0.101l-0.013,0.095l-0.014,0.101l-0.014,0.095l-0.015,0.1l-0.014,0.096l-0.015,0.097l-0.016,0.098l-0.014,0.088l-0.017,0.104l-0.019,0.112l-0.013,0.08l-0.019,0.109l-0.015,0.084l-0.02,0.108l-0.015,0.085l-0.021,0.108l-0.016,0.085l-0.02,0.107l-0.017,0.085l-0.022,0.107l-0.016,0.084l-0.023,0.108l-0.017,0.083l-0.023,0.109l-0.018,0.082l-0.024,0.109l-0.017,0.081l-0.025,0.11l-0.018,0.079l-0.026,0.111l-0.018,0.078l-0.027,0.112l-0.018,0.076l-0.028,0.113l-0.018,0.075l-0.029,0.114l-0.019,0.073l-0.029,0.116l-0.019,0.07l-0.031,0.118l-0.018,0.067l-0.032,0.121l-0.018,0.063l-0.034,0.124l-0.017,0.059l-0.036,0.128l-0.015,0.053l-0.039,0.133l-0.013,0.046l-0.042,0.14l-0.011,0.037l-0.045,0.148l-0.007,0.023l-0.05,0.162l0,0c-0.263,0.845 -0.561,1.674 -0.891,2.487c-1.322,3.254 -3.163,6.242 -5.421,8.861c-0.366,0.425 -0.743,0.84 -1.131,1.246l-0.008,0.007l-0.135,0.141l-0.013,0.013l-0.133,0.136l-0.014,0.015l-0.134,0.135l-0.012,0.012l-0.143,0.142l-0.003,0.004c-0.249,0.246 -0.501,0.489 -0.758,0.727l-0.007,0.006l-0.143,0.132l-0.019,0.018l-0.133,0.121l-0.025,0.023l-0.128,0.115l-0.028,0.024l-0.128,0.114l-0.027,0.023l-0.133,0.117l-0.022,0.019l-0.146,0.126l-0.008,0.008c-0.212,0.181 -0.426,0.36 -0.642,0.536l-0.017,0.014l-0.142,0.114l-0.03,0.024l-0.129,0.103l-0.038,0.03l-0.124,0.097l-0.04,0.032l-0.123,0.095l-0.04,0.031l-0.126,0.097l-0.037,0.028l-0.134,0.101l-0.029,0.022l-0.155,0.116l-0.009,0.006c-0.167,0.124 -0.336,0.246 -0.507,0.367l-0.026,0.019l-0.14,0.099l-0.041,0.028l-0.126,0.088l-0.048,0.033l-0.121,0.083l-0.051,0.035l-0.119,0.08l-0.052,0.035l-0.121,0.08l-0.05,0.034l-0.126,0.082l-0.045,0.03l-0.139,0.09l-0.032,0.021c-0.175,0.112 -0.35,0.222 -0.527,0.331l-0.033,0.02l-0.141,0.086l-0.049,0.03l-0.125,0.075l-0.057,0.034l-0.119,0.07l-0.061,0.036l-0.116,0.068l-0.062,0.036l-0.117,0.067l-0.061,0.035l-0.121,0.068l-0.058,0.033l-0.129,0.072l-0.049,0.027l-0.152,0.084l-0.027,0.014l-0.184,0.1l-0.182,0.096l-0.039,0.021l-0.142,0.074l-0.057,0.029l-0.125,0.065l-0.064,0.032l-0.119,0.06l-0.068,0.034l-0.116,0.058l-0.069,0.034l-0.116,0.057l-0.07,0.034l-0.117,0.056l-0.068,0.033l-0.123,0.058l-0.062,0.029l-0.138,0.064l-0.048,0.023l-0.187,0.085l-0.19,0.085l-0.041,0.018l-0.147,0.065l-0.062,0.027l-0.126,0.055l-0.071,0.03l-0.118,0.05l-0.075,0.031l-0.115,0.048l-0.077,0.032l-0.115,0.047l-0.076,0.031l-0.117,0.047l-0.075,0.03l-0.12,0.047l-0.072,0.028l-0.129,0.05l-0.063,0.024l-0.16,0.06l-0.033,0.013l-0.195,0.072l-0.037,0.013l-0.157,0.057l-0.066,0.023l-0.128,0.046l-0.075,0.026l-0.121,0.042l-0.079,0.027l-0.117,0.04l-0.081,0.027l-0.116,0.038l-0.082,0.027l-0.116,0.038l-0.081,0.026l-0.119,0.038l-0.079,0.025l-0.126,0.039l-0.072,0.022l-0.144,0.044l-0.055,0.016l-0.2,0.059l-0.021,0.006l-0.178,0.051l-0.067,0.019l-0.133,0.037l-0.078,0.022l-0.123,0.033l-0.083,0.022l-0.119,0.032l-0.085,0.022l-0.117,0.03l-0.086,0.022l-0.118,0.029l-0.085,0.022l-0.12,0.029l-0.084,0.02l-0.124,0.029l-0.079,0.019l-0.137,0.031l-0.067,0.015l-0.194,0.043l-0.01,0.003l-0.206,0.044l-0.064,0.013l-0.141,0.029l-0.079,0.016l-0.127,0.026l-0.085,0.016l-0.121,0.024l-0.088,0.016l-0.12,0.022l-0.089,0.017l-0.119,0.021l-0.089,0.016l-0.121,0.02l-0.088,0.015l-0.124,0.021l-0.084,0.013l-0.133,0.021l-0.076,0.012l-0.164,0.025l-0.045,0.006l-0.21,0.03l-0.056,0.008l-0.153,0.021l-0.079,0.01l-0.132,0.017l-0.086,0.011l-0.125,0.015l-0.09,0.011l-0.122,0.014l-0.091,0.01l-0.122,0.013l-0.091,0.01l-0.123,0.012l-0.09,0.009l-0.126,0.012l-0.087,0.008l-0.132,0.012l-0.082,0.006l-0.151,0.013l-0.062,0.005l-0.214,0.015l-0.04,0.003l-0.174,0.011l-0.076,0.005l-0.139,0.008l-0.086,0.005l-0.129,0.007l-0.091,0.004l-0.125,0.005l-0.093,0.004l-0.123,0.005l-0.094,0.003l-0.124,0.004l-0.093,0.003l-0.126,0.003l-0.091,0.002l-0.132,0.002l-0.085,0.002l-0.146,0.001l-0.071,0.001l-0.218,0.001c-5.862,0 -11.358,-1.579 -16.086,-4.333l-0.018,-0.01l-0.144,-0.085c-1.899,-1.121 -3.672,-2.432 -5.294,-3.908c-0.191,-0.174 -0.381,-0.35 -0.568,-0.529c-0.365,-0.348 -0.722,-0.705 -1.07,-1.071l-0.132,-0.139l-0.042,-0.044c-0.11,-0.118 -0.219,-0.236 -0.327,-0.354c-0.733,-0.805 -1.426,-1.648 -2.075,-2.525l-0.021,-0.027l-0.04,-0.056c-0.101,-0.136 -0.2,-0.274 -0.299,-0.412c-0.037,-0.052 -0.074,-0.105 -0.111,-0.157l-0.11,-0.159l-0.11,-0.158c0,0 -0.082,-0.122 -0.082,-0.122c-0.073,-0.107 -0.145,-0.215 -0.217,-0.323l-0.023,-0.036l-0.044,-0.067c-3.298,-5.034 -5.215,-11.052 -5.215,-17.514c0,0 0,-0.217 0,-0.217l0.001,-0.072l0.002,-0.146l0.001,-0.085l0.002,-0.132l0.002,-0.091l0.003,-0.126l0.003,-0.093l0.004,-0.124l0.003,-0.094l0.005,-0.123l0.004,-0.093l0.005,-0.125l0.005,-0.091l0.006,-0.129l0.005,-0.086l0.008,-0.138l0.005,-0.077l0.011,-0.174l0.003,-0.04l0.016,-0.214l0.005,-0.061l0.012,-0.152l0.007,-0.081l0.011,-0.132l0.008,-0.088l0.012,-0.125l0.009,-0.091l0.012,-0.122l0.01,-0.092l0.013,-0.121l0.01,-0.092l0.014,-0.122l0.011,-0.09l0.015,-0.124l0.011,-0.087l0.017,-0.131l0.01,-0.079l0.021,-0.154l0.008,-0.056l0.03,-0.21l0.007,-0.045l0.024,-0.164l0.012,-0.075l0.021,-0.134l0.014,-0.084l0.02,-0.124l0.015,-0.088l0.021,-0.121l0.015,-0.089l0.022,-0.119l0.016,-0.089l0.022,-0.119l0.017,-0.088l0.023,-0.122l0.017,-0.085l0.025,-0.127l0.016,-0.079l0.029,-0.141l0.014,-0.064l0.044,-0.205l0.002,-0.011l0.043,-0.194l0.015,-0.067l0.031,-0.136l0.019,-0.08l0.029,-0.124l0.02,-0.084l0.03,-0.119l0.021,-0.086l0.029,-0.118l0.022,-0.086l0.03,-0.117l0.023,-0.085l0.031,-0.119l0.022,-0.083l0.034,-0.122l0.021,-0.078l0.037,-0.134l0.019,-0.066l0.051,-0.179l0.006,-0.021l0.059,-0.2l0.017,-0.054l0.043,-0.144l0.022,-0.073l0.039,-0.126l0.025,-0.078l0.038,-0.119l0.026,-0.082l0.038,-0.116l0.027,-0.082l0.038,-0.116l0.027,-0.081l0.04,-0.117l0.027,-0.079l0.042,-0.12l0.026,-0.075l0.046,-0.129l0.023,-0.066l0.057,-0.157l0.013,-0.037l0.073,-0.195l0.012,-0.033l0.06,-0.16l0.024,-0.062l0.05,-0.13l0.028,-0.072l0.048,-0.12l0.03,-0.075l0.046,-0.116l0.031,-0.077l0.047,-0.115l0.032,-0.076l0.048,-0.116l0.031,-0.075l0.051,-0.118l0.03,-0.071l0.054,-0.126l0.027,-0.062l0.065,-0.147l0.018,-0.041l0.085,-0.19l0.086,-0.187l0.022,-0.048l0.064,-0.138l0.029,-0.062l0.058,-0.123l0.033,-0.068l0.056,-0.117l0.034,-0.07l0.057,-0.115l0.034,-0.07l0.058,-0.116l0.034,-0.068l0.06,-0.118l0.033,-0.065l0.064,-0.125l0.029,-0.057l0.074,-0.142l0.021,-0.038l0.097,-0.183l0.099,-0.183l0.015,-0.027l0.083,-0.152l0.027,-0.05l0.072,-0.129l0.033,-0.058l0.068,-0.12l0.035,-0.061l0.067,-0.118l0.036,-0.061l0.068,-0.117l0.036,-0.061l0.07,-0.119l0.034,-0.056l0.075,-0.126l0.03,-0.049l0.086,-0.14l0.021,-0.034c0.108,-0.177 0.219,-0.352 0.33,-0.526l0.021,-0.033l0.09,-0.139l0.03,-0.045l0.083,-0.126l0.033,-0.05l0.08,-0.121l0.035,-0.051l0.081,-0.12l0.034,-0.051l0.083,-0.121l0.033,-0.047l0.088,-0.127l0.029,-0.041l0.098,-0.14l0.019,-0.026c0.121,-0.17 0.243,-0.339 0.367,-0.507l0.006,-0.008l0.116,-0.156l0.022,-0.028l0.101,-0.135l0.029,-0.037l0.096,-0.126l0.031,-0.04l0.096,-0.123l0.031,-0.04l0.097,-0.124l0.03,-0.037l0.103,-0.13l0.024,-0.03l0.115,-0.142l0.013,-0.016c0.176,-0.217 0.355,-0.431 0.537,-0.642l0.007,-0.009l0.126,-0.146l0.019,-0.022l0.117,-0.133l0.023,-0.027l0.114,-0.128l0.025,-0.028l0.115,-0.128l0.023,-0.025l0.12,-0.132l0.018,-0.02l0.132,-0.143l0.006,-0.007c0.239,-0.256 0.481,-0.509 0.727,-0.758l0.004,-0.003l0.142,-0.143l0.012,-0.011l0.136,-0.135l0.014,-0.014l0.136,-0.132l0.013,-0.013l0.141,-0.136l0.008,-0.008c0.405,-0.387 0.82,-0.764 1.245,-1.131c2.619,-2.258 5.607,-4.099 8.861,-5.42c0.813,-0.331 1.643,-0.628 2.487,-0.892l0,0l0.162,-0.05l0.023,-0.007l0.149,-0.045l0.036,-0.011l0.14,-0.041l0.046,-0.014l0.133,-0.039l0.054,-0.015l0.127,-0.036l0.059,-0.017l0.124,-0.034l0.064,-0.017l0.12,-0.033l0.067,-0.018l0.119,-0.031l0.069,-0.018l0.117,-0.03l0.072,-0.019l0.114,-0.028l0.075,-0.019l0.113,-0.027l0.076,-0.019l0.112,-0.026l0.078,-0.019l0.111,-0.025l0.08,-0.019l0.11,-0.024l0.08,-0.018l0.11,-0.024l0.081,-0.018l0.109,-0.023l0.083,-0.017l0.108,-0.022l0.084,-0.017l0.108,-0.022l0.084,-0.016l0.108,-0.021l0.085,-0.016l0.107,-0.02l0.085,-0.016l0.108,-0.019l0.085,-0.015l0.108,-0.019l0.08,-0.014l0.113,-0.019l0.103,-0.017l0.089,-0.014l0.097,-0.015l0.098,-0.016l0.095,-0.014l0.1,-0.015l0.095,-0.014l0.101,-0.014l0.095,-0.013l0.101,-0.014l0.095,-0.013l0.102,-0.013l0.095,-0.012l0.101,-0.012l0.096,-0.012l0.102,-0.012l0.095,-0.011l0.102,-0.011l0.096,-0.01l0.103,-0.011l0.095,-0.01l0.103,-0.01l0.095,-0.009l0.104,-0.009l0.095,-0.009l0.104,-0.009l0.095,-0.007l0.104,-0.009l0.095,-0.007l0.105,-0.008l0.095,-0.006l0.106,-0.007l0.094,-0.006l0.106,-0.007l0.095,-0.005l0.107,-0.006l0.094,-0.005l0.107,-0.005l0.094,-0.004l0.109,-0.005l0.092,-0.004l0.111,-0.003l0.091,-0.003l0.112,-0.004l0.09,-0.002l0.116,-0.003l0.086,-0.002l0.122,-0.001l0.081,-0.002l0.135,-0.001l0.068,-0.001l0.203,0l0,0Z" style="fill:#4b2222;"/><path id="body2" serif:id="body" d="M33.656,0.556c16.969,0.178 30.792,13.58 31.644,30.381c-5.246,-0.608 -12.89,-5.063 -19.871,-12.045c-6.327,-6.327 -10.58,-13.199 -11.773,-18.336Z" style="fill:#b74f4f;"/></g><circle cx="33.313" cy="32.582" r="32.028" style="fill:none;stroke:#000;stroke-width:1px;"/></svg>