<?xml version="1.0" encoding="UTF-8" standalone="no"?><!DOCTYPE svg PUBLIC "-//W3C//DTD SVG 1.1//EN" "http://www.w3.org/Graphics/SVG/1.1/DTD/svg11.dtd"><svg width="100%" height="100%" viewBox="0 0 10 19" version="1.1" xmlns="http://www.w3.org/2000/svg" xmlns:xlink="http://www.w3.org/1999/xlink" xml:space="preserve" xmlns:serif="http://www.serif.com/" style="fill-rule:evenodd;clip-rule:evenodd;stroke-linejoin:round;stroke-miterlimit:1.41421;"><path id="wingLHorn2" d="M1.764,13.393c-0.401,1.284 -0.108,2.685 0.774,3.701c0.883,1.017 2.229,1.503 3.557,1.285c0.077,-0.002 0.153,-0.015 0.228,-0.031c6.649,-1.364 1.267,-12.762 -4.464,-16.388c-0.124,-0.066 -0.277,-0.043 -0.376,0.056c-0.1,0.099 -0.123,0.252 -0.058,0.376c1.345,2.879 1.596,6.973 0.339,11.001Z" style="fill:#923f39;"/><clipPath id="_clip1"><path d="M1.764,13.393c-0.401,1.284 -0.108,2.685 0.774,3.701c0.883,1.017 2.229,1.503 3.557,1.285c0.077,-0.002 0.153,-0.015 0.228,-0.031c6.649,-1.364 1.267,-12.762 -4.464,-16.388c-0.124,-0.066 -0.277,-0.043 -0.376,0.056c-0.1,0.099 -0.123,0.252 -0.058,0.376c1.345,2.879 1.596,6.973 0.339,11.001Z"/></clipPath><g clip-path="url(#_clip1)"><path id="hornR" d="M1.146,1.739c0.007,-0.018 0.017,-0.034 0.031,-0.049c0.044,-0.047 0.114,-0.06 0.172,-0.031c5.911,3.243 11.82,15.285 4.974,16.689c-0.685,0.141 -1.37,0.132 -2.052,-0.051c1.03,-1.447 1.819,-2.721 0.303,-3.622c2.815,-1.216 2.648,-2.479 0.008,-3.779c0.981,-1.204 2.33,-3.354 -0.528,-3.112c1.205,-2.093 0.476,-1.988 -0.974,-2.421c0.254,-1.962 -0.621,-2.994 -1.934,-3.624Z" style="fill:#c46751;"/><path d="M0.386,2.126c-0.013,-0.023 -0.027,-0.046 -0.04,-0.069c-0.035,-0.055 -0.024,-0.127 0.029,-0.176c0.053,-0.049 0.134,-0.065 0.199,-0.038c6.672,3.062 13.03,14.997 5.122,16.655c-1.025,0.214 -2.038,0.177 -3.037,-0.168c0.595,0.06 1.194,0.021 1.798,-0.106c7.491,-1.57 2.181,-12.361 -4.071,-16.098Z" style="fill:#e7a582;"/></g><path d="M1.764,13.393c-0.401,1.284 -0.108,2.685 0.774,3.701c0.883,1.017 2.229,1.503 3.557,1.285c0.077,-0.002 0.153,-0.015 0.228,-0.031c6.649,-1.364 1.267,-12.762 -4.464,-16.388c-0.124,-0.066 -0.277,-0.043 -0.376,0.056c-0.1,0.099 -0.123,0.252 -0.058,0.376c1.345,2.879 1.596,6.973 0.339,11.001Z" style="fill:none;stroke:#000;stroke-width:1px;"/></svg>