<?xml version="1.0" encoding="UTF-8" standalone="no"?><!DOCTYPE svg PUBLIC "-//W3C//DTD SVG 1.1//EN" "http://www.w3.org/Graphics/SVG/1.1/DTD/svg11.dtd"><svg width="100%" height="100%" viewBox="0 0 62 56" version="1.1" xmlns="http://www.w3.org/2000/svg" xmlns:xlink="http://www.w3.org/1999/xlink" xml:space="preserve" xmlns:serif="http://www.serif.com/" style="fill-rule:evenodd;clip-rule:evenodd;stroke-linejoin:round;stroke-miterlimit:1.41421;"><g id="wingL"><path d="M61.2,55.433c0,0.001 0,0.001 -0.001,0.001c0,0 -0.001,0 -0.001,0c-0.079,-0.253 -2.08,-6.565 -4.725,-9.374c-5.338,-5.667 -9.242,-6.399 -13.256,-2.619c0,0 0,0.001 -0.002,0.003c-0.117,0.145 -0.317,0.191 -0.486,0.112c-0.168,-0.079 -0.295,-0.273 -0.224,-0.445c2.747,-6.718 -7.494,-13.214 -13.26,-7.755c-0.114,0.109 -0.286,0.131 -0.424,0.055c-0.138,-0.076 -0.21,-0.234 -0.178,-0.388c1.975,-9.284 -11.652,-12.732 -14.605,-4.356c-0.136,0.387 -0.803,0.161 -1.109,-0.113c-2.727,-2.389 -6.322,-3.725 -10.178,-3.564c-0.442,0.023 -0.824,-0.305 -0.868,-0.745c-0.266,-2.615 -1.079,-10.755 -1.079,-10.755c8.776,-0.877 15.995,-6.339 19.521,-13.773c0.222,-0.482 0.776,-0.715 1.276,-0.536c20.852,7.609 36.725,23.74 39.308,49.577c0,0 0.278,4.458 0.291,4.675Z" style="fill:#6a2b2b;"/><clipPath id="_clip1"><path d="M61.2,55.433c0,0.001 0,0.001 -0.001,0.001c0,0 -0.001,0 -0.001,0c-0.079,-0.253 -2.08,-6.565 -4.725,-9.374c-5.338,-5.667 -9.242,-6.399 -13.256,-2.619c0,0 0,0.001 -0.002,0.003c-0.117,0.145 -0.317,0.191 -0.486,0.112c-0.168,-0.079 -0.295,-0.273 -0.224,-0.445c2.747,-6.718 -7.494,-13.214 -13.26,-7.755c-0.114,0.109 -0.286,0.131 -0.424,0.055c-0.138,-0.076 -0.21,-0.234 -0.178,-0.388c1.975,-9.284 -11.652,-12.732 -14.605,-4.356c-0.136,0.387 -0.803,0.161 -1.109,-0.113c-2.727,-2.389 -6.322,-3.725 -10.178,-3.564c-0.442,0.023 -0.824,-0.305 -0.868,-0.745c-0.266,-2.615 -1.079,-10.755 -1.079,-10.755c8.776,-0.877 15.995,-6.339 19.521,-13.773c0.222,-0.482 0.776,-0.715 1.276,-0.536c20.852,7.609 36.725,23.74 39.308,49.577c0,0 0.278,4.458 0.291,4.675Z"/></clipPath><g clip-path="url(#_clip1)"><path d="M61.548,65.866c0,0.001 0,0.001 -0.001,0.001c0,0.001 -0.001,0 -0.001,0c-0.064,-0.257 -1.69,-6.676 -4.166,-9.635c-4.995,-5.972 -12.484,-7.948 -16.713,-4.411c0,0 -0.001,0.001 -0.003,0.003c-0.125,0.138 -0.328,0.172 -0.491,0.083c-0.164,-0.089 -0.246,-0.278 -0.198,-0.458c0.399,-1.557 0.465,-3.162 0.158,-4.764c-1.399,-7.276 -9.99,-11.751 -19.175,-9.986c-1.804,0.346 -3.498,0.908 -5.034,1.671c-0.367,0.186 -0.811,0.114 -1.101,-0.178c-2.581,-2.545 -6.092,-4.09 -9.951,-4.156c-0.442,-0.003 -0.804,-0.353 -0.822,-0.795c-0.112,-2.626 -0.445,-10.8 -0.445,-10.8c8.812,-0.359 16.34,-5.387 20.297,-12.601c0.25,-0.468 0.816,-0.668 1.305,-0.46c20.369,8.822 35.266,25.859 36.325,51.803c0,0 0.016,4.466 0.016,4.683Z" style="fill:#402a2a;"/><clipPath id="_clip2"><path d="M61.548,65.866c0,0.001 0,0.001 -0.001,0.001c0,0.001 -0.001,0 -0.001,0c-0.064,-0.257 -1.69,-6.676 -4.166,-9.635c-4.995,-5.972 -12.484,-7.948 -16.713,-4.411c0,0 -0.001,0.001 -0.003,0.003c-0.125,0.138 -0.328,0.172 -0.491,0.083c-0.164,-0.089 -0.246,-0.278 -0.198,-0.458c0.399,-1.557 0.465,-3.162 0.158,-4.764c-1.399,-7.276 -9.99,-11.751 -19.175,-9.986c-1.804,0.346 -3.498,0.908 -5.034,1.671c-0.367,0.186 -0.811,0.114 -1.101,-0.178c-2.581,-2.545 -6.092,-4.09 -9.951,-4.156c-0.442,-0.003 -0.804,-0.353 -0.822,-0.795c-0.112,-2.626 -0.445,-10.8 -0.445,-10.8c8.812,-0.359 16.34,-5.387 20.297,-12.601c0.25,-0.468 0.816,-0.668 1.305,-0.46c20.369,8.822 35.266,25.859 36.325,51.803c0,0 0.016,4.466 0.016,4.683Z"/></clipPath><g clip-path="url(#_clip2)"><path d="M59.215,56.285c1.239,-1.979 -0.275,-15.213 -4.25,-14.33c2.06,-4.631 -1.95,-6.745 -2.669,-3.596c-3.983,0.992 -7.718,3.916 -11.024,8.233c2.975,-8.905 5.164,-14.451 4.912,-17.847c-0.158,-2.127 -5.457,3.91 -5.737,4.382c8.272,-12.516 -4.17,-4.877 -14.456,6.364c5.75,-10.471 8.536,-17.062 6.576,-22.027c-0.961,-2.435 -5.84,0.456 -6.065,3.132c-0.328,-0.521 -0.568,-6.615 -1.843,-5.875c-7.909,3.731 -11.169,11.18 -15.51,16.783l-0.943,-22.187l28.528,-17.251l29.438,50.652l-4.915,21.207l-2.042,-7.64Z" style="fill:#2d1c1c;"/></g><path d="M61.254,55.406c-1.07,-7.124 -1.482,-13.549 -6.41,-22.472c-0.801,-1.451 -2.14,-0.834 -3.065,-0.13c0.913,-0.809 1.508,-2.844 0.869,-3.52c-3.195,-10.658 -8.006,-9.23 -11.324,-7.561c4.605,-5.143 -5.888,-14.371 -17.502,-17.767c-0.782,-0.229 -0.271,2.131 -1.064,1.955c-1.712,-1.78 -3.229,-0.913 -2.516,1.037c0.017,0.047 0.087,0.111 0.048,0.14c-4.438,3.285 -6.491,4.307 -10.247,9.103l-4.718,-11.463l44.933,-15.293l18.082,49.329l-7.086,16.642Z" style="fill:#923f39;"/></g><path d="M61.2,55.433c0,0.001 0,0.001 -0.001,0.001c0,0 -0.001,0 -0.001,0c-0.079,-0.253 -2.08,-6.565 -4.725,-9.374c-5.338,-5.667 -9.242,-6.399 -13.256,-2.619c0,0 0,0.001 -0.002,0.003c-0.117,0.145 -0.317,0.191 -0.486,0.112c-0.168,-0.079 -0.295,-0.273 -0.224,-0.445c2.747,-6.718 -7.494,-13.214 -13.26,-7.755c-0.114,0.109 -0.286,0.131 -0.424,0.055c-0.138,-0.076 -0.21,-0.234 -0.178,-0.388c1.975,-9.284 -11.652,-12.732 -14.605,-4.356c-0.136,0.387 -0.803,0.161 -1.109,-0.113c-2.727,-2.389 -6.322,-3.725 -10.178,-3.564c-0.442,0.023 -0.824,-0.305 -0.868,-0.745c-0.266,-2.615 -1.079,-10.755 -1.079,-10.755c8.776,-0.877 15.995,-6.339 19.521,-13.773c0.222,-0.482 0.776,-0.715 1.276,-0.536c20.852,7.609 36.725,23.74 39.308,49.577c0,0 0.278,4.458 0.291,4.675Z" style="fill:none;stroke:#000;stroke-width:1px;"/><path d="M43.923,41.973c-0.076,0.064 -0.189,0.06 -0.261,-0.009c-0.072,-0.069 -0.081,-0.181 -0.02,-0.26c3.08,-3.858 3.839,-7.326 5.85,-10.562c0.695,-1.085 0.689,-2.477 -0.016,-3.556c-0.053,-0.157 -0.143,-0.294 -0.235,-0.434c-1.689,-2.586 -5.061,-3.474 -7.805,-2.056c-3.853,2.05 -7.989,5.399 -11.413,8.755c-0.089,0.09 -0.231,0.096 -0.327,0.014c-0.096,-0.082 -0.112,-0.224 -0.036,-0.325c1.932,-2.573 3.922,-5.423 5.652,-8.271c1.86,-3.104 2.315,-6.851 1.252,-10.31c-1.062,-3.459 -3.543,-6.305 -6.825,-7.828c-0.707,-0.342 -1.035,-0.421 -1.181,-0.434c-0.081,-0.007 1.931,0.103 2.249,0.12c0.028,0.002 0.055,0.009 0.08,0.023c11.136,6.153 19.491,12.987 25.705,29.158c0,0 0,-0.001 0,-0.001c-1.524,-1.638 -4.013,-1.925 -5.869,-0.676c-2.495,1.68 -4.265,4.266 -6.8,6.652Z" style="fill:#6a2b2b;"/><clipPath id="_clip3"><path d="M43.923,41.973c-0.076,0.064 -0.189,0.06 -0.261,-0.009c-0.072,-0.069 -0.081,-0.181 -0.02,-0.26c3.08,-3.858 3.839,-7.326 5.85,-10.562c0.695,-1.085 0.689,-2.477 -0.016,-3.556c-0.053,-0.157 -0.143,-0.294 -0.235,-0.434c-1.689,-2.586 -5.061,-3.474 -7.805,-2.056c-3.853,2.05 -7.989,5.399 -11.413,8.755c-0.089,0.09 -0.231,0.096 -0.327,0.014c-0.096,-0.082 -0.112,-0.224 -0.036,-0.325c1.932,-2.573 3.922,-5.423 5.652,-8.271c1.86,-3.104 2.315,-6.851 1.252,-10.31c-1.062,-3.459 -3.543,-6.305 -6.825,-7.828c-0.707,-0.342 -1.035,-0.421 -1.181,-0.434c-0.081,-0.007 1.931,0.103 2.249,0.12c0.028,0.002 0.055,0.009 0.08,0.023c11.136,6.153 19.491,12.987 25.705,29.158c0,0 0,-0.001 0,-0.001c-1.524,-1.638 -4.013,-1.925 -5.869,-0.676c-2.495,1.68 -4.265,4.266 -6.8,6.652Z"/></clipPath><g clip-path="url(#_clip3)"><path d="M61.254,55.406c-1.07,-7.124 -1.482,-13.549 -6.41,-22.472c-0.801,-1.451 -2.14,-0.834 -3.065,-0.13c0.913,-0.809 1.508,-2.844 0.869,-3.52c-3.195,-10.658 -8.006,-9.23 -11.324,-7.561c4.915,-5.489 -6.773,-15.21 -19.343,-18.006c-3.767,2.995 -7.739,7.112 -11.938,12.474l-4.718,-11.463l44.933,-15.293l18.082,49.329l-7.086,16.642Z" style="fill:#923f39;"/></g><path d="M9.834,21.374c5.324,-1.397 10.119,-5.505 14.487,-11.799c0.076,-0.109 0.21,-0.162 0.34,-0.133c4.094,0.934 7.62,2.968 10.951,5.377c1.173,0.851 1.851,2.225 1.813,3.673c-0.285,3.967 -3.452,9.384 -7.725,15.34c3.986,-3.567 8.033,-6.509 12.141,-8.829c0.838,-0.472 1.793,-0.696 2.754,-0.649c1.367,0.1 2.485,0.596 3.4,1.467c1.484,1.436 1.948,3.628 1.174,5.542c-1.17,2.556 -3.229,6.433 -5.387,10.461c-0.003,0.004 -0.001,0.009 0.003,0.012c0.004,0.003 0.009,0.002 0.012,-0.001c2.41,-2.765 4.92,-4.979 7.497,-6.815c0.012,-0.009 0.023,-0.019 0.033,-0.029c0.457,-0.387 2.746,-0.607 3.143,-0.421c1.275,0.596 7.162,19.537 6.446,19.227" style="fill:none;stroke:#000;stroke-width:1px;stroke-linecap:round;stroke-miterlimit:1.5;"/></g></svg>