<?xml version="1.0" encoding="UTF-8" standalone="no"?><!DOCTYPE svg PUBLIC "-//W3C//DTD SVG 1.1//EN" "http://www.w3.org/Graphics/SVG/1.1/DTD/svg11.dtd"><svg width="100%" height="100%" viewBox="0 0 31 34" version="1.1" xmlns="http://www.w3.org/2000/svg" xmlns:xlink="http://www.w3.org/1999/xlink" xml:space="preserve" xmlns:serif="http://www.serif.com/" style="fill-rule:evenodd;clip-rule:evenodd;stroke-linejoin:round;stroke-miterlimit:1.41421;"><path id="hornL" d="M25.951,17.025c1.586,0.246 2.863,1.433 3.223,2.997c1.098,4.603 0.188,8.019 -2.173,10.583c-10.41,11.305 -26.397,-13.486 -25.802,-28.301c0.011,-0.142 0.115,-0.26 0.254,-0.29c0.139,-0.03 0.282,0.035 0.351,0.16c4.049,6.914 13.155,13.072 24.147,14.851Z" style="fill:#923f39;"/><clipPath id="_clip1"><path d="M25.951,17.025c1.586,0.246 2.863,1.433 3.223,2.997c1.098,4.603 0.188,8.019 -2.173,10.583c-10.41,11.305 -26.397,-13.486 -25.802,-28.301c0.011,-0.142 0.115,-0.26 0.254,-0.29c0.139,-0.03 0.282,0.035 0.351,0.16c4.049,6.914 13.155,13.072 24.147,14.851Z"/></clipPath><g clip-path="url(#_clip1)"><path d="M-0.968,-0.961c4.436,0.449 2.853,3.255 3.669,10.317c2.515,0.536 4.782,0.776 3.82,5.599c4.451,-1.295 5.02,4.66 4.296,6.454c4.81,2.079 3.415,4.18 2.274,6.197c4.639,2.497 -0.126,8.822 -0.245,14.621l26.073,-22.706l-27.357,-23.808" style="fill:#c46751;"/><path d="M1.183,3.028c0.001,-0.244 0.006,-0.485 0.016,-0.724c0.011,-0.142 0.115,-0.26 0.254,-0.29c0.139,-0.03 0.282,0.035 0.351,0.16c4.049,6.914 13.155,13.072 24.147,14.851c1.586,0.246 2.863,1.433 3.223,2.997c1.098,4.603 0.188,8.019 -2.173,10.583c-1,1.086 -2.052,1.839 -3.136,2.3c0.176,-0.15 0.35,-0.308 0.524,-0.476c2.509,-2.418 3.621,-5.774 2.799,-10.434c-0.266,-1.583 -1.47,-2.844 -3.038,-3.184c-10.623,-2.376 -19.196,-8.822 -22.967,-15.783Z" style="fill:#e7a582;"/></g><path d="M25.951,17.025c1.586,0.246 2.863,1.433 3.223,2.997c1.098,4.603 0.188,8.019 -2.173,10.583c-10.41,11.305 -26.397,-13.486 -25.802,-28.301c0.011,-0.142 0.115,-0.26 0.254,-0.29c0.139,-0.03 0.282,0.035 0.351,0.16c4.049,6.914 13.155,13.072 24.147,14.851Z" style="fill:none;stroke:#000;stroke-width:1px;"/></svg>