<?xml version="1.0" encoding="UTF-8" standalone="no"?><!DOCTYPE svg PUBLIC "-//W3C//DTD SVG 1.1//EN" "http://www.w3.org/Graphics/SVG/1.1/DTD/svg11.dtd"><svg width="100%" height="100%" viewBox="0 0 45 69" version="1.1" xmlns="http://www.w3.org/2000/svg" xmlns:xlink="http://www.w3.org/1999/xlink" xml:space="preserve" xmlns:serif="http://www.serif.com/" style="fill-rule:evenodd;clip-rule:evenodd;stroke-linejoin:round;stroke-miterlimit:1.41421;"><g id="wingR"><path d="M10.011,68.461c0,0 0.001,0 0.001,0c0,0 0.001,0 0.001,-0.001c-0.071,-0.255 -1.823,-6.64 -1.129,-10.436c1.399,-7.659 4.279,-10.395 9.702,-9.404c0,0 0.001,0.001 0.003,0.001c0.177,0.058 0.371,-0.012 0.469,-0.17c0.099,-0.158 0.099,-0.389 -0.053,-0.496c-5.958,-4.144 -0.894,-15.164 6.914,-13.716c0.155,0.029 0.311,-0.045 0.385,-0.185c0.075,-0.139 0.05,-0.31 -0.061,-0.423c-6.704,-6.718 2.859,-17.02 9.89,-11.594c0.326,0.251 0.762,-0.302 0.87,-0.698c0.99,-3.488 3.281,-6.564 6.606,-8.524c0.383,-0.221 0.525,-0.704 0.323,-1.098c-1.198,-2.339 -4.94,-9.613 -4.94,-9.613c-7.843,4.034 -16.872,3.374 -23.872,-0.949c-0.449,-0.284 -1.04,-0.178 -1.362,0.244c-13.367,17.721 -17.921,39.89 -6.044,62.98c0,0 2.19,3.892 2.297,4.082Z" style="fill:#6a2b2b;"/><clipPath id="_clip1"><path d="M10.011,68.461c0,0 0.001,0 0.001,0c0,0 0.001,0 0.001,-0.001c-0.071,-0.255 -1.823,-6.64 -1.129,-10.436c1.399,-7.659 4.279,-10.395 9.702,-9.404c0,0 0.001,0.001 0.003,0.001c0.177,0.058 0.371,-0.012 0.469,-0.17c0.099,-0.158 0.099,-0.389 -0.053,-0.496c-5.958,-4.144 -0.894,-15.164 6.914,-13.716c0.155,0.029 0.311,-0.045 0.385,-0.185c0.075,-0.139 0.05,-0.31 -0.061,-0.423c-6.704,-6.718 2.859,-17.02 9.89,-11.594c0.326,0.251 0.762,-0.302 0.87,-0.698c0.99,-3.488 3.281,-6.564 6.606,-8.524c0.383,-0.221 0.525,-0.704 0.323,-1.098c-1.198,-2.339 -4.94,-9.613 -4.94,-9.613c-7.843,4.034 -16.872,3.374 -23.872,-0.949c-0.449,-0.284 -1.04,-0.178 -1.362,0.244c-13.367,17.721 -17.921,39.89 -6.044,62.98c0,0 2.19,3.892 2.297,4.082Z"/></clipPath><g clip-path="url(#_clip1)"><path d="M15.39,77.407c0,0.001 0.001,0.001 0.001,0.001c0.001,-0.001 0.001,-0.001 0.001,-0.002c-0.086,-0.25 -2.21,-6.521 -1.741,-10.351c0.947,-7.728 6.159,-13.458 11.631,-12.788c0,0 0.001,0.001 0.003,0.001c0.18,0.048 0.37,-0.034 0.459,-0.197c0.089,-0.164 0.054,-0.367 -0.083,-0.492c-1.182,-1.09 -2.11,-2.401 -2.723,-3.913c-2.782,-6.868 1.998,-15.294 10.666,-18.805c1.703,-0.69 3.43,-1.139 5.134,-1.333c0.409,-0.044 0.743,-0.346 0.827,-0.748c0.784,-3.54 2.89,-6.745 6.093,-8.898c0.37,-0.243 0.484,-0.733 0.258,-1.114c-1.333,-2.265 -5.496,-9.307 -5.496,-9.307c-7.593,4.488 -16.645,4.361 -23.887,0.456c-0.464,-0.257 -1.048,-0.116 -1.345,0.324c-12.302,18.477 -15.545,40.874 -2.331,63.226c0,0 2.415,3.757 2.533,3.94Z" style="fill:#402a2a;"/><clipPath id="_clip2"><path d="M15.39,77.407c0,0.001 0.001,0.001 0.001,0.001c0.001,-0.001 0.001,-0.001 0.001,-0.002c-0.086,-0.25 -2.21,-6.521 -1.741,-10.351c0.947,-7.728 6.159,-13.458 11.631,-12.788c0,0 0.001,0.001 0.003,0.001c0.18,0.048 0.37,-0.034 0.459,-0.197c0.089,-0.164 0.054,-0.367 -0.083,-0.492c-1.182,-1.09 -2.11,-2.401 -2.723,-3.913c-2.782,-6.868 1.998,-15.294 10.666,-18.805c1.703,-0.69 3.43,-1.139 5.134,-1.333c0.409,-0.044 0.743,-0.346 0.827,-0.748c0.784,-3.54 2.89,-6.745 6.093,-8.898c0.37,-0.243 0.484,-0.733 0.258,-1.114c-1.333,-2.265 -5.496,-9.307 -5.496,-9.307c-7.593,4.488 -16.645,4.361 -23.887,0.456c-0.464,-0.257 -1.048,-0.116 -1.345,0.324c-12.302,18.477 -15.545,40.874 -2.331,63.226c0,0 2.415,3.757 2.533,3.94Z"/></clipPath><g clip-path="url(#_clip2)"><path d="M12.14,68.097c-2.116,-0.988 -8.039,-12.919 -4.222,-14.339c-4.247,-2.767 -2.03,-6.721 0.285,-4.468c3.883,-1.333 8.606,-0.909 13.728,0.917c-7.337,-5.856 -12.189,-9.322 -13.824,-12.31c-1.023,-1.871 6.706,0.316 7.198,0.56c-13.748,-6.009 0.848,-6.361 15.593,-2.516c-10.519,-5.663 -16.44,-9.682 -17.493,-14.915c-0.517,-2.566 5.149,-2.791 6.792,-0.667c-0.007,-0.616 -3.118,-5.861 -1.646,-5.933c8.666,-1.168 15.452,3.312 22.141,5.656l-11.268,-19.136l-33.323,1.028l2.825,58.517l15.653,15.128l-2.439,-7.522Z" style="fill:#2d1c1c;"/></g><path d="M9.95,68.468c-2.974,-6.562 -6.12,-12.179 -6.835,-22.347c-0.116,-1.653 1.343,-1.864 2.503,-1.775c-1.207,-0.183 -2.813,-1.568 -2.643,-2.482c-3.113,-10.683 1.702,-12.099 5.395,-12.503c-6.662,-1.813 -2.87,-15.262 5.032,-24.426c0.532,-0.617 1.386,1.642 1.956,1.062c0.469,-2.424 2.214,-2.521 2.675,-0.496c0.011,0.049 -0.013,0.14 0.036,0.143c5.51,0.345 7.789,0.087 13.549,2.07l-2.271,-12.186l-46.028,11.589l11.638,51.234l14.993,10.117Z" style="fill:#923f39;"/></g><path d="M10.011,68.461c0,0 0.001,0 0.001,0c0,0 0.001,0 0.001,-0.001c-0.071,-0.255 -1.823,-6.64 -1.129,-10.436c1.399,-7.659 4.279,-10.395 9.702,-9.404c0,0 0.001,0.001 0.003,0.001c0.177,0.058 0.371,-0.012 0.469,-0.17c0.099,-0.158 0.099,-0.389 -0.053,-0.496c-5.958,-4.144 -0.894,-15.164 6.914,-13.716c0.155,0.029 0.311,-0.045 0.385,-0.185c0.075,-0.139 0.05,-0.31 -0.061,-0.423c-6.704,-6.718 2.859,-17.02 9.89,-11.594c0.326,0.251 0.762,-0.302 0.87,-0.698c0.99,-3.488 3.281,-6.564 6.606,-8.524c0.383,-0.221 0.525,-0.704 0.323,-1.098c-1.198,-2.339 -4.94,-9.613 -4.94,-9.613c-7.843,4.034 -16.872,3.374 -23.872,-0.949c-0.449,-0.284 -1.04,-0.178 -1.362,0.244c-13.367,17.721 -17.921,39.89 -6.044,62.98c0,0 2.19,3.892 2.297,4.082Z" style="fill:none;stroke:#000;stroke-width:1px;"/><path d="M17.195,47.772c0.099,0.012 0.192,-0.053 0.215,-0.15c0.023,-0.097 -0.031,-0.196 -0.125,-0.229c-4.682,-1.564 -7.205,-4.062 -10.651,-5.685c-1.174,-0.533 -1.925,-1.705 -1.92,-2.994c-0.041,-0.16 -0.04,-0.325 -0.039,-0.492c0.012,-3.088 2.36,-5.667 5.434,-5.968c4.348,-0.374 9.64,0.189 14.339,1.144c0.123,0.028 0.246,-0.045 0.282,-0.166c0.035,-0.121 -0.029,-0.249 -0.147,-0.292c-3.021,-1.109 -6.242,-2.421 -9.242,-3.872c-3.248,-1.593 -5.667,-4.491 -6.655,-7.971c-0.988,-3.48 -0.452,-7.216 1.474,-10.279c0.409,-0.672 0.641,-0.918 0.757,-1.008c0.064,-0.05 -1.565,1.136 -1.823,1.324c-0.023,0.016 -0.041,0.037 -0.054,0.062c-6.003,11.218 -9.301,21.496 -5.727,38.447c0,0 0,0 0.001,-0.001c0.388,-2.203 2.321,-3.797 4.558,-3.758c3.007,0.055 5.899,1.263 9.323,1.888Z" style="fill:#6a2b2b;"/><clipPath id="_clip3"><path d="M17.195,47.772c0.099,0.012 0.192,-0.053 0.215,-0.15c0.023,-0.097 -0.031,-0.196 -0.125,-0.229c-4.682,-1.564 -7.205,-4.062 -10.651,-5.685c-1.174,-0.533 -1.925,-1.705 -1.92,-2.994c-0.041,-0.16 -0.04,-0.325 -0.039,-0.492c0.012,-3.088 2.36,-5.667 5.434,-5.968c4.348,-0.374 9.64,0.189 14.339,1.144c0.123,0.028 0.246,-0.045 0.282,-0.166c0.035,-0.121 -0.029,-0.249 -0.147,-0.292c-3.021,-1.109 -6.242,-2.421 -9.242,-3.872c-3.248,-1.593 -5.667,-4.491 -6.655,-7.971c-0.988,-3.48 -0.452,-7.216 1.474,-10.279c0.409,-0.672 0.641,-0.918 0.757,-1.008c0.064,-0.05 -1.565,1.136 -1.823,1.324c-0.023,0.016 -0.041,0.037 -0.054,0.062c-6.003,11.218 -9.301,21.496 -5.727,38.447c0,0 0,0 0.001,-0.001c0.388,-2.203 2.321,-3.797 4.558,-3.758c3.007,0.055 5.899,1.263 9.323,1.888Z"/></clipPath><g clip-path="url(#_clip3)"><path d="M9.95,68.468c-2.974,-6.562 -6.12,-12.179 -6.835,-22.347c-0.116,-1.653 1.343,-1.864 2.503,-1.775c-1.207,-0.183 -2.813,-1.568 -2.643,-2.482c-3.113,-10.683 1.702,-12.099 5.395,-12.503c-7.11,-1.935 -2.584,-16.448 6.447,-25.627c4.79,0.466 10.362,1.763 16.801,3.98l-2.271,-12.186l-46.028,11.589l11.638,51.234l14.993,10.117Z" style="fill:#923f39;"/></g><path d="M34.611,11.951c-5.228,1.721 -11.486,0.88 -18.574,-2.028c-0.123,-0.051 -0.264,-0.022 -0.357,0.073c-2.93,3.009 -4.783,6.633 -6.269,10.467c-0.522,1.351 -0.344,2.872 0.474,4.067c2.396,3.176 8,6 14.823,8.676c-5.284,-0.827 -10.28,-1.096 -14.99,-0.81c-0.96,0.06 -1.883,0.39 -2.663,0.952c-1.094,0.827 -1.763,1.851 -2.057,3.08c-0.465,2.011 0.336,4.104 2.027,5.29c2.372,1.509 6.207,3.643 10.208,5.851c0.004,0.003 0.006,0.008 0.004,0.012c-0.001,0.005 -0.006,0.007 -0.011,0.006c-3.526,-1.011 -6.836,-1.505 -9.997,-1.645c-0.015,-0.001 -0.029,-0.003 -0.044,-0.007c-0.594,-0.076 -2.634,0.984 -2.866,1.356c-0.746,1.193 4.608,20.291 5.04,19.642" style="fill:none;stroke:#000;stroke-width:1px;stroke-linecap:round;stroke-miterlimit:1.5;"/></g></svg>