<?xml version="1.0" encoding="UTF-8" standalone="no"?><!DOCTYPE svg PUBLIC "-//W3C//DTD SVG 1.1//EN" "http://www.w3.org/Graphics/SVG/1.1/DTD/svg11.dtd"><svg width="100%" height="100%" viewBox="0 0 22 41" version="1.1" xmlns="http://www.w3.org/2000/svg" xmlns:xlink="http://www.w3.org/1999/xlink" xml:space="preserve" xmlns:serif="http://www.serif.com/" style="fill-rule:evenodd;clip-rule:evenodd;stroke-linejoin:round;stroke-miterlimit:1.41421;"><path id="hornR" d="M2.784,29.344c-0.935,1.304 -0.982,3.047 -0.117,4.399c2.516,4.007 5.592,5.75 9.076,5.86c15.361,0.485 8.858,-28.288 -2.135,-38.238c-0.109,-0.091 -0.266,-0.1 -0.385,-0.021c-0.119,0.078 -0.172,0.225 -0.131,0.362c2.1,7.733 0.12,18.545 -6.308,27.638Z" style="fill:#923f39;"/><clipPath id="_clip1"><path d="M2.784,29.344c-0.935,1.304 -0.982,3.047 -0.117,4.399c2.516,4.007 5.592,5.75 9.076,5.86c15.361,0.485 8.858,-28.288 -2.135,-38.238c-0.109,-0.091 -0.266,-0.1 -0.385,-0.021c-0.119,0.078 -0.172,0.225 -0.131,0.362c2.1,7.733 0.12,18.545 -6.308,27.638Z"/></clipPath><g clip-path="url(#_clip1)"><path d="M3.327,-1.89c5.338,2.493 10.639,5.357 8.095,12.062c2.883,1.665 4.495,1.812 0.851,5.676c6.238,0.939 2.255,4.851 -0.456,6.925c4.983,4.128 4.698,6.914 -1.944,8.08c4.558,4.421 -4.615,7.838 -7.694,12.972l44.176,-8.036l-22.286,-34.203" style="fill:#c46751;"/><path d="M9.136,1.874c-0.014,-0.056 -0.029,-0.112 -0.044,-0.168c-0.041,-0.137 0.012,-0.284 0.131,-0.362c0.119,-0.079 0.276,-0.07 0.385,0.021c10.993,9.95 17.496,38.723 2.135,38.238c-1.991,-0.063 -3.849,-0.659 -5.545,-1.906c1.074,0.431 2.2,0.653 3.373,0.69c14.55,0.459 9.483,-25.333 -0.435,-36.513Z" style="fill:#e7a582;"/></g><path d="M2.784,29.344c-0.935,1.304 -0.982,3.047 -0.117,4.399c2.516,4.007 5.592,5.75 9.076,5.86c15.361,0.485 8.858,-28.288 -2.135,-38.238c-0.109,-0.091 -0.266,-0.1 -0.385,-0.021c-0.119,0.078 -0.172,0.225 -0.131,0.362c2.1,7.733 0.12,18.545 -6.308,27.638Z" style="fill:none;stroke:#000;stroke-width:1px;"/></svg>