<?xml version="1.0" encoding="UTF-8" standalone="no"?><!DOCTYPE svg PUBLIC "-//W3C//DTD SVG 1.1//EN" "http://www.w3.org/Graphics/SVG/1.1/DTD/svg11.dtd"><svg width="100%" height="100%" viewBox="0 0 45 70" version="1.1" xmlns="http://www.w3.org/2000/svg" xmlns:xlink="http://www.w3.org/1999/xlink" xml:space="preserve" xmlns:serif="http://www.serif.com/" style="fill-rule:evenodd;clip-rule:evenodd;stroke-linejoin:round;stroke-miterlimit:1.41421;"><g id="wingR"><path d="M10.338,68.631c0,0 0.001,0 0.001,0c0.001,0 0.001,0 0.001,-0.001c-0.072,-0.255 -1.864,-6.629 -1.194,-10.429c1.352,-7.667 4.214,-10.421 9.644,-9.464c0,0 0.001,0.001 0.003,0.001c0.177,0.057 0.371,-0.014 0.468,-0.173c0.098,-0.158 0.097,-0.39 -0.057,-0.495c-5.983,-4.108 -0.987,-15.158 6.829,-13.76c0.155,0.029 0.311,-0.047 0.384,-0.186c0.074,-0.14 0.048,-0.311 -0.063,-0.423c-6.746,-6.676 2.753,-17.038 9.818,-11.656c0.327,0.249 0.759,-0.306 0.865,-0.703c0.968,-3.494 3.24,-6.584 6.553,-8.565c0.381,-0.224 0.52,-0.707 0.316,-1.099c-1.213,-2.332 -5,-9.583 -5,-9.583c-7.818,4.083 -16.851,3.479 -23.877,-0.801c-0.451,-0.281 -1.041,-0.171 -1.361,0.253c-13.256,17.804 -17.672,40 -5.652,63.016c0,0 2.214,3.879 2.322,4.068Z" style="fill:#6a2b2b;"/><clipPath id="_clip1"><path d="M10.338,68.631c0,0 0.001,0 0.001,0c0.001,0 0.001,0 0.001,-0.001c-0.072,-0.255 -1.864,-6.629 -1.194,-10.429c1.352,-7.667 4.214,-10.421 9.644,-9.464c0,0 0.001,0.001 0.003,0.001c0.177,0.057 0.371,-0.014 0.468,-0.173c0.098,-0.158 0.097,-0.39 -0.057,-0.495c-5.983,-4.108 -0.987,-15.158 6.829,-13.76c0.155,0.029 0.311,-0.047 0.384,-0.186c0.074,-0.14 0.048,-0.311 -0.063,-0.423c-6.746,-6.676 2.753,-17.038 9.818,-11.656c0.327,0.249 0.759,-0.306 0.865,-0.703c0.968,-3.494 3.24,-6.584 6.553,-8.565c0.381,-0.224 0.52,-0.707 0.316,-1.099c-1.213,-2.332 -5,-9.583 -5,-9.583c-7.818,4.083 -16.851,3.479 -23.877,-0.801c-0.451,-0.281 -1.041,-0.171 -1.361,0.253c-13.256,17.804 -17.672,40 -5.652,63.016c0,0 2.214,3.879 2.322,4.068Z"/></clipPath><g clip-path="url(#_clip1)"><path d="M15.773,77.544c0,0 0.001,0 0.001,0c0.001,0 0.001,-0.001 0.001,-0.001c-0.088,-0.251 -2.251,-6.508 -1.805,-10.341c0.899,-7.734 6.074,-13.496 11.551,-12.859c0,0 0.001,0 0.003,0.001c0.18,0.046 0.369,-0.037 0.457,-0.201c0.088,-0.164 0.053,-0.367 -0.086,-0.491c-1.188,-1.083 -2.125,-2.388 -2.746,-3.896c-2.825,-6.85 1.902,-15.306 10.548,-18.871c1.698,-0.7 3.423,-1.16 5.126,-1.365c0.408,-0.047 0.74,-0.351 0.822,-0.753c0.762,-3.544 2.848,-6.763 6.038,-8.936c0.368,-0.245 0.479,-0.736 0.251,-1.115c-1.348,-2.257 -5.554,-9.273 -5.554,-9.273c-7.565,4.536 -16.617,4.464 -23.883,0.605c-0.467,-0.254 -1.05,-0.11 -1.344,0.332c-12.186,18.553 -15.29,40.97 -1.937,63.24c0,0 2.438,3.741 2.557,3.924Z" style="fill:#402a2a;"/><clipPath id="_clip2"><path d="M15.773,77.544c0,0 0.001,0 0.001,0c0.001,0 0.001,-0.001 0.001,-0.001c-0.088,-0.251 -2.251,-6.508 -1.805,-10.341c0.899,-7.734 6.074,-13.496 11.551,-12.859c0,0 0.001,0 0.003,0.001c0.18,0.046 0.369,-0.037 0.457,-0.201c0.088,-0.164 0.053,-0.367 -0.086,-0.491c-1.188,-1.083 -2.125,-2.388 -2.746,-3.896c-2.825,-6.85 1.902,-15.306 10.548,-18.871c1.698,-0.7 3.423,-1.16 5.126,-1.365c0.408,-0.047 0.74,-0.351 0.822,-0.753c0.762,-3.544 2.848,-6.763 6.038,-8.936c0.368,-0.245 0.479,-0.736 0.251,-1.115c-1.348,-2.257 -5.554,-9.273 -5.554,-9.273c-7.565,4.536 -16.617,4.464 -23.883,0.605c-0.467,-0.254 -1.05,-0.11 -1.344,0.332c-12.186,18.553 -15.29,40.97 -1.937,63.24c0,0 2.438,3.741 2.557,3.924Z"/></clipPath><g clip-path="url(#_clip2)"><path d="M12.465,68.254c-2.122,-0.975 -8.119,-12.869 -4.311,-14.313c-4.265,-2.74 -2.071,-6.708 0.257,-4.47c3.874,-1.356 8.601,-0.962 13.734,0.833c-7.374,-5.811 -12.247,-9.247 -13.9,-12.224c-1.036,-1.865 6.707,0.274 7.201,0.515c-13.785,-5.924 0.808,-6.366 15.577,-2.614c-10.554,-5.597 -16.5,-9.579 -17.586,-14.805c-0.533,-2.563 5.132,-2.823 6.788,-0.71c-0.011,-0.615 -3.155,-5.841 -1.683,-5.922c8.659,-1.222 15.472,3.216 22.176,5.518l-11.387,-19.065l-33.315,1.235l3.188,58.498l15.747,15.031l-2.486,-7.507Z" style="fill:#2d1c1c;"/></g><path d="M10.278,68.638c-3.015,-6.543 -6.196,-12.14 -6.974,-22.303c-0.127,-1.653 1.331,-1.873 2.491,-1.792c-1.207,-0.174 -2.822,-1.549 -2.658,-2.465c-3.179,-10.663 1.627,-12.109 5.317,-12.536c-6.673,-1.771 -2.965,-15.244 4.88,-24.457c0.528,-0.62 1.396,1.633 1.963,1.05c0.454,-2.427 2.198,-2.534 2.672,-0.513c0.011,0.049 -0.012,0.141 0.036,0.143c5.513,0.311 7.79,0.038 13.562,1.986l-2.347,-12.172l-45.955,11.875l11.957,51.161l15.056,10.023Z" style="fill:#923f39;"/></g><path d="M10.338,68.631c0,0 0.001,0 0.001,0c0.001,0 0.001,0 0.001,-0.001c-0.072,-0.255 -1.864,-6.629 -1.194,-10.429c1.352,-7.667 4.214,-10.421 9.644,-9.464c0,0 0.001,0.001 0.003,0.001c0.177,0.057 0.371,-0.014 0.468,-0.173c0.098,-0.158 0.097,-0.39 -0.057,-0.495c-5.983,-4.108 -0.987,-15.158 6.829,-13.76c0.155,0.029 0.311,-0.047 0.384,-0.186c0.074,-0.14 0.048,-0.311 -0.063,-0.423c-6.746,-6.676 2.753,-17.038 9.818,-11.656c0.327,0.249 0.759,-0.306 0.865,-0.703c0.968,-3.494 3.24,-6.584 6.553,-8.565c0.381,-0.224 0.52,-0.707 0.316,-1.099c-1.213,-2.332 -5,-9.583 -5,-9.583c-7.818,4.083 -16.851,3.479 -23.877,-0.801c-0.451,-0.281 -1.041,-0.171 -1.361,0.253c-13.256,17.804 -17.672,40 -5.652,63.016c0,0 2.214,3.879 2.322,4.068Z" style="fill:none;stroke:#000;stroke-width:1px;"/><path d="M17.394,47.898c0.099,0.011 0.191,-0.054 0.213,-0.151c0.023,-0.098 -0.032,-0.196 -0.126,-0.229c-4.691,-1.535 -7.23,-4.017 -10.686,-5.619c-1.177,-0.525 -1.935,-1.693 -1.938,-2.981c-0.042,-0.16 -0.043,-0.325 -0.043,-0.492c-0.006,-3.089 2.325,-5.681 5.397,-6.002c4.346,-0.401 9.642,0.129 14.346,1.055c0.123,0.027 0.246,-0.046 0.281,-0.168c0.035,-0.121 -0.03,-0.248 -0.149,-0.291c-3.027,-1.091 -6.256,-2.382 -9.266,-3.814c-3.258,-1.574 -5.694,-4.456 -6.704,-7.93c-1.009,-3.474 -0.497,-7.213 1.41,-10.287c0.404,-0.676 0.635,-0.922 0.75,-1.013c0.064,-0.051 -1.557,1.145 -1.814,1.335c-0.023,0.016 -0.041,0.037 -0.054,0.062c-5.933,11.256 -9.167,21.554 -5.487,38.482c0,0 0,0 0,-0.001c0.375,-2.206 2.298,-3.811 4.535,-3.786c3.008,0.036 5.907,1.226 9.335,1.83Z" style="fill:#6a2b2b;"/><clipPath id="_clip3"><path d="M17.394,47.898c0.099,0.011 0.191,-0.054 0.213,-0.151c0.023,-0.098 -0.032,-0.196 -0.126,-0.229c-4.691,-1.535 -7.23,-4.017 -10.686,-5.619c-1.177,-0.525 -1.935,-1.693 -1.938,-2.981c-0.042,-0.16 -0.043,-0.325 -0.043,-0.492c-0.006,-3.089 2.325,-5.681 5.397,-6.002c4.346,-0.401 9.642,0.129 14.346,1.055c0.123,0.027 0.246,-0.046 0.281,-0.168c0.035,-0.121 -0.03,-0.248 -0.149,-0.291c-3.027,-1.091 -6.256,-2.382 -9.266,-3.814c-3.258,-1.574 -5.694,-4.456 -6.704,-7.93c-1.009,-3.474 -0.497,-7.213 1.41,-10.287c0.404,-0.676 0.635,-0.922 0.75,-1.013c0.064,-0.051 -1.557,1.145 -1.814,1.335c-0.023,0.016 -0.041,0.037 -0.054,0.062c-5.933,11.256 -9.167,21.554 -5.487,38.482c0,0 0,0 0,-0.001c0.375,-2.206 2.298,-3.811 4.535,-3.786c3.008,0.036 5.907,1.226 9.335,1.83Z"/></clipPath><g clip-path="url(#_clip3)"><path d="M10.278,68.638c-3.015,-6.543 -6.196,-12.14 -6.974,-22.303c-0.127,-1.653 1.331,-1.873 2.491,-1.792c-1.207,-0.174 -2.822,-1.549 -2.658,-2.465c-3.179,-10.663 1.627,-12.109 5.317,-12.536c-7.122,-1.891 -2.686,-16.432 6.288,-25.667c4.793,0.437 10.372,1.699 16.825,3.876l-2.347,-12.172l-45.955,11.875l11.957,51.161l15.056,10.023Z" style="fill:#923f39;"/></g><path d="M34.586,11.969c-5.217,1.754 -11.479,0.952 -18.586,-1.912c-0.123,-0.05 -0.264,-0.02 -0.357,0.075c-2.91,3.027 -4.741,6.663 -6.203,10.505c-0.514,1.355 -0.327,2.875 0.499,4.065c2.416,3.16 8.037,5.95 14.877,8.583c-5.289,-0.794 -10.287,-1.032 -14.995,-0.717c-0.959,0.066 -1.881,0.402 -2.657,0.969c-1.089,0.834 -1.751,1.862 -2.038,3.093c-0.453,2.014 0.362,4.102 2.06,5.277c2.381,1.494 6.23,3.605 10.244,5.788c0.005,0.002 0.007,0.007 0.005,0.012c-0.002,0.004 -0.007,0.007 -0.012,0.005c-3.532,-0.988 -6.844,-1.462 -10.007,-1.582c-0.014,-0.001 -0.029,-0.003 -0.043,-0.007c-0.595,-0.072 -2.628,1 -2.858,1.374c-0.739,1.198 4.734,20.262 5.162,19.611" style="fill:none;stroke:#000;stroke-width:1px;stroke-linecap:round;stroke-miterlimit:1.5;"/></g></svg>