<?xml version="1.0" encoding="UTF-8" standalone="no"?><!DOCTYPE svg PUBLIC "-//W3C//DTD SVG 1.1//EN" "http://www.w3.org/Graphics/SVG/1.1/DTD/svg11.dtd"><svg width="100%" height="100%" viewBox="0 0 62 60" version="1.1" xmlns="http://www.w3.org/2000/svg" xmlns:xlink="http://www.w3.org/1999/xlink" xml:space="preserve" xmlns:serif="http://www.serif.com/" style="fill-rule:evenodd;clip-rule:evenodd;stroke-linejoin:round;stroke-miterlimit:1.41421;"><g id="feather"><g><g><g opacity="0.8"><path d="M36.029,6.926c0.399,-1.724 1.443,-3.122 2.768,-3.263c1.382,-0.148 2.76,1.104 3.507,2.787l0.333,1.604c-0.751,-1.817 -2.203,-3.2 -3.662,-3.043c-1.458,0.157 -2.581,1.819 -2.928,3.753l-0.018,-1.838Z" style="fill:#6a2b2b;"/><path d="M36.029,6.926l-0.145,0.507c-0.411,-3.775 0.727,-6.997 2.541,-7.19c1.813,-0.194 3.619,2.714 4.03,6.489l-0.151,-0.282c-0.607,-2.935 -2.146,-5.004 -3.695,-4.837c-1.514,0.163 -2.564,2.413 -2.58,5.313Z" style="fill:#e7a582;fill-opacity:0.5;"/><path d="M36.029,6.926c0.016,-2.9 1.066,-5.15 2.58,-5.313c1.549,-0.167 3.088,1.902 3.695,4.837c-0.747,-1.683 -2.125,-2.935 -3.507,-2.787c-1.325,0.141 -2.369,1.539 -2.768,3.263Z" style="fill:#923f39;"/><path d="M42.821,14.125c0.399,-1.724 1.444,-3.122 2.769,-3.263c1.381,-0.147 2.759,1.104 3.506,2.788l0.334,1.603c-0.752,-1.816 -2.203,-3.2 -3.662,-3.043c-1.458,0.157 -2.582,1.819 -2.929,3.754l-0.018,-1.839Z" style="fill:#6a2b2b;"/><path d="M42.821,14.125l-0.144,0.507c-0.411,-3.775 0.727,-6.997 2.54,-7.19c1.813,-0.193 3.619,2.714 4.031,6.489l-0.152,-0.281c-0.606,-2.936 -2.145,-5.005 -3.694,-4.838c-1.515,0.163 -2.564,2.413 -2.581,5.313Z" style="fill:#e7a582;fill-opacity:0.5;"/><path d="M42.821,14.125c0.017,-2.9 1.066,-5.15 2.581,-5.313c1.549,-0.167 3.088,1.902 3.694,4.838c-0.747,-1.684 -2.125,-2.935 -3.506,-2.788c-1.325,0.141 -2.37,1.539 -2.769,3.263Z" style="fill:#923f39;"/><path d="M29.357,14.125c0.399,-1.724 1.443,-3.122 2.768,-3.263c1.381,-0.147 2.76,1.104 3.506,2.788l0.334,1.603c-0.751,-1.816 -2.203,-3.2 -3.662,-3.043c-1.458,0.157 -2.582,1.819 -2.929,3.754l-0.017,-1.839Z" style="fill:#6a2b2b;"/><path d="M29.357,14.125l-0.145,0.507c-0.411,-3.775 0.727,-6.997 2.54,-7.19c1.814,-0.193 3.62,2.714 4.031,6.489l-0.152,-0.281c-0.606,-2.936 -2.145,-5.005 -3.694,-4.838c-1.515,0.163 -2.564,2.413 -2.58,5.313Z" style="fill:#e7a582;fill-opacity:0.5;"/><path d="M29.357,14.125c0.016,-2.9 1.065,-5.15 2.58,-5.313c1.549,-0.167 3.088,1.902 3.694,4.838c-0.746,-1.684 -2.125,-2.935 -3.506,-2.788c-1.325,0.141 -2.369,1.539 -2.768,3.263Z" style="fill:#923f39;"/><path d="M18.605,8.624c0.399,-1.724 1.443,-3.122 2.768,-3.264c1.382,-0.147 2.76,1.105 3.507,2.788l0.333,1.604c-0.751,-1.817 -2.203,-3.2 -3.662,-3.043c-1.458,0.157 -2.581,1.819 -2.928,3.753l-0.018,-1.838Z" style="fill:#6a2b2b;"/><path d="M18.605,8.624l-0.145,0.507c-0.411,-3.775 0.727,-6.997 2.541,-7.19c1.813,-0.194 3.619,2.714 4.03,6.489l-0.151,-0.282c-0.607,-2.936 -2.146,-5.004 -3.695,-4.837c-1.514,0.163 -2.564,2.412 -2.58,5.313Z" style="fill:#e7a582;fill-opacity:0.5;"/><path d="M18.605,8.624c0.016,-2.901 1.066,-5.15 2.58,-5.313c1.549,-0.167 3.088,1.901 3.695,4.837c-0.747,-1.683 -2.125,-2.935 -3.507,-2.788c-1.325,0.142 -2.369,1.54 -2.768,3.264Z" style="fill:#923f39;"/><path d="M5.202,18.607c0.399,-1.724 1.443,-3.122 2.768,-3.264c1.381,-0.147 2.76,1.105 3.506,2.788l0.334,1.604c-0.751,-1.817 -2.203,-3.201 -3.662,-3.043c-1.458,0.157 -2.582,1.818 -2.929,3.753l-0.017,-1.838Z" style="fill:#6a2b2b;"/><path d="M5.202,18.607l-0.145,0.507c-0.411,-3.775 0.727,-6.997 2.54,-7.19c1.814,-0.194 3.62,2.714 4.031,6.489l-0.152,-0.282c-0.606,-2.936 -2.145,-5.004 -3.694,-4.837c-1.515,0.163 -2.564,2.412 -2.58,5.313Z" style="fill:#e7a582;fill-opacity:0.5;"/><path d="M5.202,18.607c0.016,-2.901 1.065,-5.15 2.58,-5.313c1.549,-0.167 3.088,1.901 3.694,4.837c-0.746,-1.683 -2.125,-2.935 -3.506,-2.788c-1.325,0.142 -2.369,1.54 -2.768,3.264Z" style="fill:#923f39;"/><path d="M15.276,20.315c0.4,-1.724 1.444,-3.122 2.769,-3.263c1.381,-0.147 2.759,1.105 3.506,2.788l0.334,1.603c-0.752,-1.816 -2.203,-3.2 -3.662,-3.043c-1.458,0.158 -2.582,1.819 -2.929,3.754l-0.018,-1.839Z" style="fill:#6a2b2b;"/><path d="M15.276,20.315l-0.144,0.507c-0.411,-3.775 0.727,-6.996 2.54,-7.19c1.813,-0.193 3.62,2.714 4.031,6.489l-0.152,-0.281c-0.606,-2.936 -2.145,-5.005 -3.694,-4.838c-1.515,0.163 -2.564,2.413 -2.581,5.313Z" style="fill:#e7a582;fill-opacity:0.5;"/><path d="M15.276,20.315c0.017,-2.9 1.066,-5.15 2.581,-5.313c1.549,-0.167 3.088,1.902 3.694,4.838c-0.747,-1.683 -2.125,-2.935 -3.506,-2.788c-1.325,0.141 -2.369,1.539 -2.769,3.263Z" style="fill:#923f39;"/><path d="M30.914,24.451c0.399,-1.724 1.444,-3.122 2.769,-3.263c1.381,-0.148 2.759,1.104 3.506,2.787l0.334,1.604c-0.752,-1.816 -2.203,-3.2 -3.662,-3.043c-1.459,0.157 -2.582,1.819 -2.929,3.753l-0.018,-1.838Z" style="fill:#6a2b2b;"/><path d="M30.914,24.451l-0.144,0.507c-0.411,-3.775 0.727,-6.997 2.54,-7.19c1.813,-0.194 3.619,2.714 4.031,6.489l-0.152,-0.282c-0.606,-2.935 -2.145,-5.004 -3.694,-4.837c-1.515,0.163 -2.564,2.413 -2.581,5.313Z" style="fill:#e7a582;fill-opacity:0.5;"/><path d="M30.914,24.451c0.017,-2.9 1.066,-5.15 2.581,-5.313c1.549,-0.167 3.088,1.902 3.694,4.837c-0.747,-1.683 -2.125,-2.935 -3.506,-2.787c-1.325,0.141 -2.37,1.539 -2.769,3.263Z" style="fill:#923f39;"/><path d="M50.739,22.222c0.399,-1.724 1.443,-3.122 2.768,-3.263c1.382,-0.147 2.76,1.105 3.507,2.788l0.333,1.603c-0.751,-1.816 -2.203,-3.2 -3.661,-3.043c-1.459,0.158 -2.582,1.819 -2.929,3.754l-0.018,-1.839Z" style="fill:#6a2b2b;"/><path d="M50.739,22.222l-0.144,0.507c-0.412,-3.775 0.726,-6.996 2.54,-7.19c1.813,-0.193 3.619,2.715 4.03,6.49l-0.151,-0.282c-0.607,-2.936 -2.146,-5.005 -3.695,-4.838c-1.514,0.164 -2.564,2.413 -2.58,5.313Z" style="fill:#e7a582;fill-opacity:0.5;"/><path d="M50.739,22.222c0.016,-2.9 1.066,-5.149 2.58,-5.313c1.549,-0.167 3.088,1.902 3.695,4.838c-0.747,-1.683 -2.125,-2.935 -3.507,-2.788c-1.325,0.141 -2.369,1.539 -2.768,3.263Z" style="fill:#923f39;"/><path d="M7.529,27.091c0.399,-1.724 1.443,-3.122 2.768,-3.263c1.382,-0.148 2.76,1.104 3.507,2.787l0.333,1.604c-0.751,-1.816 -2.203,-3.2 -3.662,-3.043c-1.458,0.157 -2.581,1.819 -2.928,3.753l-0.018,-1.838Z" style="fill:#6a2b2b;"/><path d="M7.529,27.091l-0.145,0.507c-0.411,-3.775 0.727,-6.997 2.541,-7.19c1.813,-0.194 3.619,2.714 4.03,6.489l-0.151,-0.282c-0.607,-2.935 -2.146,-5.004 -3.695,-4.837c-1.514,0.163 -2.564,2.413 -2.58,5.313Z" style="fill:#e7a582;fill-opacity:0.5;"/><path d="M7.529,27.091c0.016,-2.9 1.066,-5.15 2.58,-5.313c1.549,-0.167 3.088,1.902 3.695,4.837c-0.747,-1.683 -2.125,-2.935 -3.507,-2.787c-1.325,0.141 -2.369,1.539 -2.768,3.263Z" style="fill:#923f39;"/><path d="M0.92,36.216c0.399,-1.723 1.444,-3.121 2.769,-3.263c1.381,-0.147 2.759,1.105 3.506,2.788l0.334,1.603c-0.752,-1.816 -2.203,-3.2 -3.662,-3.042c-1.459,0.157 -2.582,1.818 -2.929,3.753l-0.018,-1.839Z" style="fill:#6a2b2b;fill-opacity:0.3;"/><path d="M0.92,36.216l-0.144,0.508c-0.411,-3.775 0.727,-6.997 2.54,-7.191c1.813,-0.193 3.619,2.715 4.031,6.49l-0.152,-0.282c-0.606,-2.936 -2.145,-5.005 -3.694,-4.838c-1.515,0.164 -2.564,2.413 -2.581,5.313Z" style="fill:#e7a582;fill-opacity:0.3;"/><path d="M0.92,36.216c0.017,-2.9 1.066,-5.149 2.581,-5.313c1.549,-0.167 3.088,1.902 3.694,4.838c-0.747,-1.683 -2.125,-2.935 -3.506,-2.788c-1.325,0.142 -2.37,1.54 -2.769,3.263Z" style="fill:#923f39;fill-opacity:0.3;"/><path d="M21.217,31.103c0.399,-1.724 1.443,-3.122 2.768,-3.263c1.381,-0.148 2.76,1.104 3.506,2.787l0.334,1.604c-0.751,-1.816 -2.203,-3.2 -3.662,-3.043c-1.458,0.157 -2.582,1.819 -2.929,3.753l-0.017,-1.838Z" style="fill:#6a2b2b;"/><path d="M21.217,31.103l-0.145,0.507c-0.411,-3.775 0.727,-6.997 2.54,-7.19c1.814,-0.194 3.62,2.714 4.031,6.489l-0.152,-0.282c-0.606,-2.935 -2.145,-5.004 -3.694,-4.837c-1.515,0.163 -2.564,2.413 -2.58,5.313Z" style="fill:#e7a582;fill-opacity:0.5;"/><path d="M21.217,31.103c0.016,-2.9 1.065,-5.15 2.58,-5.313c1.549,-0.167 3.088,1.902 3.694,4.837c-0.746,-1.683 -2.125,-2.935 -3.506,-2.787c-1.325,0.141 -2.369,1.539 -2.768,3.263Z" style="fill:#923f39;"/><path d="M37.697,32.812c0.399,-1.724 1.443,-3.122 2.768,-3.264c1.382,-0.147 2.76,1.105 3.507,2.788l0.333,1.603c-0.751,-1.816 -2.203,-3.2 -3.662,-3.042c-1.458,0.157 -2.581,1.818 -2.928,3.753l-0.018,-1.838Z" style="fill:#6a2b2b;"/><path d="M37.697,32.812l-0.145,0.507c-0.411,-3.775 0.727,-6.997 2.541,-7.191c1.813,-0.193 3.619,2.715 4.03,6.49l-0.151,-0.282c-0.607,-2.936 -2.146,-5.004 -3.695,-4.837c-1.514,0.163 -2.564,2.412 -2.58,5.313Z" style="fill:#e7a582;fill-opacity:0.5;"/><path d="M37.697,32.812c0.016,-2.901 1.066,-5.15 2.58,-5.313c1.549,-0.167 3.088,1.901 3.695,4.837c-0.747,-1.683 -2.125,-2.935 -3.507,-2.788c-1.325,0.142 -2.369,1.54 -2.768,3.264Z" style="fill:#923f39;"/><path d="M8.673,41.342c0.399,-1.724 1.444,-3.122 2.768,-3.263c1.382,-0.147 2.76,1.105 3.507,2.788l0.333,1.603c-0.751,-1.816 -2.203,-3.2 -3.661,-3.043c-1.459,0.158 -2.582,1.819 -2.929,3.754l-0.018,-1.839Z" style="fill:#6a2b2b;"/><path d="M8.673,41.342l-0.144,0.507c-0.412,-3.775 0.727,-6.996 2.54,-7.19c1.813,-0.193 3.619,2.715 4.03,6.489l-0.151,-0.281c-0.607,-2.936 -2.146,-5.005 -3.695,-4.838c-1.514,0.164 -2.564,2.413 -2.58,5.313Z" style="fill:#e7a582;fill-opacity:0.5;"/><path d="M8.673,41.342c0.016,-2.9 1.066,-5.149 2.58,-5.313c1.549,-0.167 3.088,1.902 3.695,4.838c-0.747,-1.683 -2.125,-2.935 -3.507,-2.788c-1.324,0.141 -2.369,1.539 -2.768,3.263Z" style="fill:#923f39;"/><path d="M20.857,42.956c0.399,-1.724 1.444,-3.122 2.769,-3.263c1.381,-0.148 2.759,1.104 3.506,2.787l0.334,1.604c-0.752,-1.817 -2.203,-3.2 -3.662,-3.043c-1.459,0.157 -2.582,1.819 -2.929,3.753l-0.018,-1.838Z" style="fill:#6a2b2b;"/><path d="M20.857,42.956l-0.144,0.507c-0.411,-3.775 0.727,-6.997 2.54,-7.19c1.813,-0.194 3.619,2.714 4.031,6.489l-0.152,-0.282c-0.606,-2.936 -2.145,-5.004 -3.694,-4.837c-1.515,0.163 -2.564,2.413 -2.581,5.313Z" style="fill:#e7a582;fill-opacity:0.5;"/><path d="M20.857,42.956c0.017,-2.9 1.066,-5.15 2.581,-5.313c1.549,-0.167 3.088,1.901 3.694,4.837c-0.747,-1.683 -2.125,-2.935 -3.506,-2.787c-1.325,0.141 -2.37,1.539 -2.769,3.263Z" style="fill:#923f39;"/><path d="M31.892,42.956c0.399,-1.724 1.444,-3.122 2.768,-3.263c1.382,-0.148 2.76,1.104 3.507,2.787l0.333,1.604c-0.751,-1.817 -2.203,-3.2 -3.661,-3.043c-1.459,0.157 -2.582,1.819 -2.929,3.753l-0.018,-1.838Z" style="fill:#6a2b2b;"/><path d="M31.892,42.956l-0.144,0.507c-0.412,-3.775 0.727,-6.997 2.54,-7.19c1.813,-0.194 3.619,2.714 4.03,6.489l-0.151,-0.282c-0.607,-2.936 -2.146,-5.004 -3.695,-4.837c-1.514,0.163 -2.564,2.413 -2.58,5.313Z" style="fill:#e7a582;fill-opacity:0.5;"/><path d="M31.892,42.956c0.016,-2.9 1.066,-5.15 2.58,-5.313c1.549,-0.167 3.088,1.901 3.695,4.837c-0.747,-1.683 -2.125,-2.935 -3.507,-2.787c-1.324,0.141 -2.369,1.539 -2.768,3.263Z" style="fill:#923f39;"/><path d="M46.37,39.33c0.4,-1.724 1.444,-3.122 2.769,-3.264c1.381,-0.147 2.759,1.105 3.506,2.788l0.334,1.604c-0.752,-1.817 -2.203,-3.201 -3.662,-3.043c-1.458,0.157 -2.582,1.818 -2.929,3.753l-0.018,-1.838Z" style="fill:#6a2b2b;"/><path d="M46.37,39.33l-0.144,0.507c-0.411,-3.775 0.727,-6.997 2.54,-7.19c1.814,-0.194 3.62,2.714 4.031,6.489l-0.152,-0.282c-0.606,-2.936 -2.145,-5.004 -3.694,-4.837c-1.515,0.163 -2.564,2.412 -2.581,5.313Z" style="fill:#e7a582;fill-opacity:0.5;"/><path d="M46.37,39.33c0.017,-2.901 1.066,-5.15 2.581,-5.313c1.549,-0.167 3.088,1.901 3.694,4.837c-0.747,-1.683 -2.125,-2.935 -3.506,-2.788c-1.325,0.142 -2.369,1.54 -2.769,3.264Z" style="fill:#923f39;"/><path d="M54.711,32.169c0.399,-1.724 1.443,-3.122 2.768,-3.264c1.381,-0.147 2.76,1.105 3.507,2.788l0.333,1.604c-0.751,-1.817 -2.203,-3.2 -3.662,-3.043c-1.458,0.157 -2.581,1.819 -2.928,3.753l-0.018,-1.838Z" style="fill:#6a2b2b;"/><path d="M54.711,32.169l-0.145,0.507c-0.411,-3.775 0.727,-6.997 2.54,-7.19c1.814,-0.194 3.62,2.714 4.031,6.489l-0.151,-0.282c-0.607,-2.936 -2.146,-5.004 -3.695,-4.837c-1.514,0.163 -2.564,2.412 -2.58,5.313Z" style="fill:#e7a582;fill-opacity:0.5;"/><path d="M54.711,32.169c0.016,-2.901 1.066,-5.15 2.58,-5.313c1.549,-0.167 3.088,1.901 3.695,4.837c-0.747,-1.683 -2.126,-2.935 -3.507,-2.788c-1.325,0.142 -2.369,1.54 -2.768,3.264Z" style="fill:#923f39;"/><path d="M44.235,51.54c0.399,-1.724 1.444,-3.122 2.769,-3.264c1.381,-0.147 2.759,1.105 3.506,2.788l0.334,1.604c-0.752,-1.817 -2.203,-3.201 -3.662,-3.043c-1.458,0.157 -2.582,1.818 -2.929,3.753l-0.018,-1.838Z" style="fill:#6a2b2b;"/><path d="M44.235,51.54l-0.144,0.507c-0.411,-3.775 0.727,-6.997 2.54,-7.19c1.813,-0.194 3.62,2.714 4.031,6.489l-0.152,-0.282c-0.606,-2.936 -2.145,-5.004 -3.694,-4.837c-1.515,0.163 -2.564,2.412 -2.581,5.313Z" style="fill:#e7a582;fill-opacity:0.5;"/><path d="M44.235,51.54c0.017,-2.901 1.066,-5.15 2.581,-5.313c1.549,-0.167 3.088,1.901 3.694,4.837c-0.747,-1.683 -2.125,-2.935 -3.506,-2.788c-1.325,0.142 -2.37,1.54 -2.769,3.264Z" style="fill:#923f39;"/><path d="M32.52,54.957c0.399,-1.724 1.444,-3.122 2.769,-3.263c1.381,-0.148 2.759,1.104 3.506,2.787l0.334,1.604c-0.752,-1.816 -2.203,-3.2 -3.662,-3.043c-1.459,0.157 -2.582,1.819 -2.929,3.753l-0.018,-1.838Z" style="fill:#6a2b2b;"/><path d="M32.52,54.957l-0.144,0.507c-0.411,-3.775 0.727,-6.997 2.54,-7.19c1.813,-0.194 3.619,2.714 4.031,6.489l-0.152,-0.282c-0.606,-2.935 -2.145,-5.004 -3.694,-4.837c-1.515,0.163 -2.564,2.413 -2.581,5.313Z" style="fill:#e7a582;fill-opacity:0.5;"/><path d="M32.52,54.957c0.017,-2.9 1.066,-5.15 2.581,-5.313c1.549,-0.167 3.088,1.902 3.694,4.837c-0.747,-1.683 -2.125,-2.935 -3.506,-2.787c-1.325,0.141 -2.37,1.539 -2.769,3.263Z" style="fill:#923f39;"/><path d="M18.502,57.321c0.399,-1.724 1.444,-3.122 2.768,-3.264c1.382,-0.147 2.76,1.105 3.507,2.788l0.333,1.604c-0.751,-1.817 -2.203,-3.201 -3.661,-3.043c-1.459,0.157 -2.582,1.818 -2.929,3.753l-0.018,-1.838Z" style="fill:#6a2b2b;fill-opacity:0.3;"/><path d="M18.502,57.321l-0.144,0.507c-0.412,-3.775 0.727,-6.997 2.54,-7.19c1.813,-0.194 3.619,2.714 4.03,6.489l-0.151,-0.282c-0.607,-2.936 -2.146,-5.004 -3.695,-4.837c-1.514,0.163 -2.564,2.412 -2.58,5.313Z" style="fill:#e7a582;fill-opacity:0.3;"/><path d="M18.502,57.321c0.016,-2.901 1.066,-5.15 2.58,-5.313c1.549,-0.167 3.088,1.901 3.695,4.837c-0.747,-1.683 -2.125,-2.935 -3.507,-2.788c-1.324,0.142 -2.369,1.54 -2.768,3.264Z" style="fill:#923f39;fill-opacity:0.3;"/><path d="M8.71,51.552c0.399,-1.724 1.444,-3.122 2.768,-3.263c1.382,-0.148 2.76,1.104 3.507,2.787l0.333,1.604c-0.751,-1.816 -2.203,-3.2 -3.661,-3.043c-1.459,0.157 -2.582,1.819 -2.929,3.753l-0.018,-1.838Z" style="fill:#6a2b2b;fill-opacity:0.3;"/><path d="M8.71,51.552l-0.144,0.507c-0.412,-3.775 0.727,-6.997 2.54,-7.19c1.813,-0.194 3.619,2.714 4.03,6.489l-0.151,-0.282c-0.607,-2.935 -2.146,-5.004 -3.695,-4.837c-1.514,0.163 -2.564,2.413 -2.58,5.313Z" style="fill:#e7a582;fill-opacity:0.3;"/><path d="M8.71,51.552c0.016,-2.9 1.066,-5.15 2.58,-5.313c1.549,-0.167 3.088,1.902 3.695,4.837c-0.747,-1.683 -2.125,-2.935 -3.507,-2.787c-1.324,0.141 -2.369,1.539 -2.768,3.263Z" style="fill:#923f39;fill-opacity:0.3;"/></g></g></g></g></svg>