<?xml version="1.0" encoding="UTF-8" standalone="no"?><!DOCTYPE svg PUBLIC "-//W3C//DTD SVG 1.1//EN" "http://www.w3.org/Graphics/SVG/1.1/DTD/svg11.dtd"><svg width="100%" height="100%" viewBox="0 0 31 34" version="1.1" xmlns="http://www.w3.org/2000/svg" xmlns:xlink="http://www.w3.org/1999/xlink" xml:space="preserve" xmlns:serif="http://www.serif.com/" style="fill-rule:evenodd;clip-rule:evenodd;stroke-linejoin:round;stroke-miterlimit:1.41421;"><path id="hornL" d="M26.153,16.947c1.587,0.246 2.863,1.433 3.223,2.997c1.099,4.603 0.189,8.019 -2.172,10.583c-10.411,11.305 -26.397,-13.486 -25.803,-28.301c0.012,-0.142 0.115,-0.26 0.254,-0.29c0.14,-0.03 0.282,0.035 0.351,0.16c4.05,6.914 13.155,13.072 24.147,14.851Z" style="fill:#923f39;"/><clipPath id="_clip1"><path d="M26.153,16.947c1.587,0.246 2.863,1.433 3.223,2.997c1.099,4.603 0.189,8.019 -2.172,10.583c-10.411,11.305 -26.397,-13.486 -25.803,-28.301c0.012,-0.142 0.115,-0.26 0.254,-0.29c0.14,-0.03 0.282,0.035 0.351,0.16c4.05,6.914 13.155,13.072 24.147,14.851Z"/></clipPath><g clip-path="url(#_clip1)"><path d="M-0.765,-1.039c4.436,0.449 2.852,3.255 3.669,10.317c2.514,0.536 4.782,0.776 3.819,5.599c4.452,-1.295 5.02,4.66 4.296,6.454c4.81,2.079 3.416,4.18 2.274,6.197c4.639,2.497 -0.126,8.822 -0.245,14.621l26.073,-22.706l-27.356,-23.808" style="fill:#c46751;"/><path d="M1.385,2.95c0.001,-0.244 0.006,-0.485 0.016,-0.724c0.012,-0.142 0.115,-0.26 0.254,-0.29c0.14,-0.03 0.282,0.035 0.351,0.16c4.05,6.914 13.155,13.072 24.147,14.851c1.587,0.246 2.863,1.433 3.223,2.997c1.099,4.603 0.189,8.019 -2.172,10.583c-1.001,1.086 -2.053,1.839 -3.136,2.3c0.175,-0.15 0.35,-0.308 0.523,-0.476c2.51,-2.418 3.622,-5.774 2.799,-10.434c-0.266,-1.583 -1.469,-2.844 -3.038,-3.184c-10.623,-2.376 -19.196,-8.822 -22.967,-15.783Z" style="fill:#e7a582;"/></g><path d="M26.153,16.947c1.587,0.246 2.863,1.433 3.223,2.997c1.099,4.603 0.189,8.019 -2.172,10.583c-10.411,11.305 -26.397,-13.486 -25.803,-28.301c0.012,-0.142 0.115,-0.26 0.254,-0.29c0.14,-0.03 0.282,0.035 0.351,0.16c4.05,6.914 13.155,13.072 24.147,14.851Z" style="fill:none;stroke:#000;stroke-width:1px;"/></svg>