<?xml version="1.0" encoding="UTF-8" standalone="no"?><!DOCTYPE svg PUBLIC "-//W3C//DTD SVG 1.1//EN" "http://www.w3.org/Graphics/SVG/1.1/DTD/svg11.dtd"><svg width="100%" height="100%" viewBox="0 0 62 56" version="1.1" xmlns="http://www.w3.org/2000/svg" xmlns:xlink="http://www.w3.org/1999/xlink" xml:space="preserve" xmlns:serif="http://www.serif.com/" style="fill-rule:evenodd;clip-rule:evenodd;stroke-linejoin:round;stroke-miterlimit:1.41421;"><g id="wingL"><path d="M61.241,55.369c0,0 0,0.001 -0.001,0.001c0,0 -0.001,0 -0.001,-0.001c-0.078,-0.253 -2.054,-6.572 -4.689,-9.392c-5.315,-5.688 -9.216,-6.435 -13.245,-2.67c0,0 0,0 -0.002,0.002c-0.117,0.145 -0.318,0.19 -0.486,0.111c-0.169,-0.08 -0.294,-0.275 -0.223,-0.447c2.774,-6.706 -7.442,-13.243 -13.229,-7.806c-0.115,0.108 -0.287,0.13 -0.424,0.053c-0.138,-0.077 -0.21,-0.235 -0.177,-0.389c2.011,-9.276 -11.602,-12.777 -14.587,-4.413c-0.139,0.387 -0.804,0.158 -1.109,-0.118c-2.718,-2.399 -6.308,-3.749 -10.164,-3.603c-0.442,0.021 -0.823,-0.309 -0.865,-0.749c-0.256,-2.616 -1.037,-10.759 -1.037,-10.759c8.779,-0.843 16.02,-6.276 19.574,-13.696c0.224,-0.482 0.779,-0.712 1.278,-0.531c20.823,7.69 36.633,23.884 39.114,49.731c0,0 0.26,4.458 0.273,4.676Z" style="fill:#6a2b2b;"/><clipPath id="_clip1"><path d="M61.241,55.369c0,0 0,0.001 -0.001,0.001c0,0 -0.001,0 -0.001,-0.001c-0.078,-0.253 -2.054,-6.572 -4.689,-9.392c-5.315,-5.688 -9.216,-6.435 -13.245,-2.67c0,0 0,0 -0.002,0.002c-0.117,0.145 -0.318,0.19 -0.486,0.111c-0.169,-0.08 -0.294,-0.275 -0.223,-0.447c2.774,-6.706 -7.442,-13.243 -13.229,-7.806c-0.115,0.108 -0.287,0.13 -0.424,0.053c-0.138,-0.077 -0.21,-0.235 -0.177,-0.389c2.011,-9.276 -11.602,-12.777 -14.587,-4.413c-0.139,0.387 -0.804,0.158 -1.109,-0.118c-2.718,-2.399 -6.308,-3.749 -10.164,-3.603c-0.442,0.021 -0.823,-0.309 -0.865,-0.749c-0.256,-2.616 -1.037,-10.759 -1.037,-10.759c8.779,-0.843 16.02,-6.276 19.574,-13.696c0.224,-0.482 0.779,-0.712 1.278,-0.531c20.823,7.69 36.633,23.884 39.114,49.731c0,0 0.26,4.458 0.273,4.676Z"/></clipPath><g clip-path="url(#_clip1)"><path d="M61.548,65.803c0,0.001 0,0.001 -0.001,0.001c0,0 0,0 -0.001,-0.001c-0.063,-0.257 -1.664,-6.681 -4.128,-9.651c-4.972,-5.991 -12.453,-7.997 -16.696,-4.476c0,0 -0.001,0.001 -0.002,0.003c-0.126,0.137 -0.329,0.171 -0.493,0.081c-0.163,-0.089 -0.244,-0.279 -0.196,-0.458c0.406,-1.556 0.478,-3.161 0.177,-4.764c-1.37,-7.282 -9.944,-11.79 -19.135,-10.061c-1.806,0.339 -3.502,0.894 -5.041,1.652c-0.367,0.184 -0.812,0.11 -1.1,-0.183c-2.571,-2.555 -6.076,-4.114 -9.935,-4.195c-0.442,-0.005 -0.802,-0.356 -0.819,-0.798c-0.101,-2.626 -0.403,-10.801 -0.403,-10.801c8.814,-0.326 16.362,-5.324 20.346,-12.522c0.252,-0.467 0.82,-0.665 1.307,-0.455c20.335,8.901 35.165,25.996 36.123,51.944c0,0 -0.003,4.467 -0.003,4.684Z" style="fill:#402a2a;"/><clipPath id="_clip2"><path d="M61.548,65.803c0,0.001 0,0.001 -0.001,0.001c0,0 0,0 -0.001,-0.001c-0.063,-0.257 -1.664,-6.681 -4.128,-9.651c-4.972,-5.991 -12.453,-7.997 -16.696,-4.476c0,0 -0.001,0.001 -0.002,0.003c-0.126,0.137 -0.329,0.171 -0.493,0.081c-0.163,-0.089 -0.244,-0.279 -0.196,-0.458c0.406,-1.556 0.478,-3.161 0.177,-4.764c-1.37,-7.282 -9.944,-11.79 -19.135,-10.061c-1.806,0.339 -3.502,0.894 -5.041,1.652c-0.367,0.184 -0.812,0.11 -1.1,-0.183c-2.571,-2.555 -6.076,-4.114 -9.935,-4.195c-0.442,-0.005 -0.802,-0.356 -0.819,-0.798c-0.101,-2.626 -0.403,-10.801 -0.403,-10.801c8.814,-0.326 16.362,-5.324 20.346,-12.522c0.252,-0.467 0.82,-0.665 1.307,-0.455c20.335,8.901 35.165,25.996 36.123,51.944c0,0 -0.003,4.467 -0.003,4.684Z"/></clipPath><g clip-path="url(#_clip2)"><path d="M59.253,56.213c1.247,-1.975 -0.216,-15.215 -4.195,-14.347c2.079,-4.623 -1.923,-6.752 -2.654,-3.606c-3.987,0.977 -7.733,3.885 -11.056,8.19c3.01,-8.893 5.22,-14.431 4.981,-17.828c-0.15,-2.128 -5.472,3.888 -5.754,4.36c8.322,-12.485 -4.15,-4.894 -14.48,6.307c5.791,-10.448 8.602,-17.029 6.662,-22.002c-0.952,-2.438 -5.842,0.434 -6.077,3.109c-0.327,-0.522 -0.543,-6.617 -1.82,-5.882c-7.924,3.699 -11.213,11.136 -15.576,16.722l-0.857,-22.191l28.596,-17.138l29.239,50.766l-4.997,21.187l-2.012,-7.647Z" style="fill:#2d1c1c;"/></g><path d="M61.295,55.342c-1.042,-7.128 -1.429,-13.555 -6.321,-22.497c-0.796,-1.455 -2.137,-0.843 -3.066,-0.142c0.917,-0.805 1.52,-2.839 0.883,-3.517c-3.152,-10.67 -7.969,-9.261 -11.294,-7.605c4.625,-5.125 -5.832,-14.394 -17.432,-17.835c-0.782,-0.232 -0.28,2.13 -1.072,1.95c-1.705,-1.786 -3.225,-0.925 -2.52,1.028c0.017,0.047 0.087,0.111 0.048,0.14c-4.451,3.267 -6.508,4.281 -10.283,9.062l-4.673,-11.481l44.993,-15.117l17.888,49.4l-7.151,16.614Z" style="fill:#923f39;"/></g><path d="M61.241,55.369c0,0 0,0.001 -0.001,0.001c0,0 -0.001,0 -0.001,-0.001c-0.078,-0.253 -2.054,-6.572 -4.689,-9.392c-5.315,-5.688 -9.216,-6.435 -13.245,-2.67c0,0 0,0 -0.002,0.002c-0.117,0.145 -0.318,0.19 -0.486,0.111c-0.169,-0.08 -0.294,-0.275 -0.223,-0.447c2.774,-6.706 -7.442,-13.243 -13.229,-7.806c-0.115,0.108 -0.287,0.13 -0.424,0.053c-0.138,-0.077 -0.21,-0.235 -0.177,-0.389c2.011,-9.276 -11.602,-12.777 -14.587,-4.413c-0.139,0.387 -0.804,0.158 -1.109,-0.118c-2.718,-2.399 -6.308,-3.749 -10.164,-3.603c-0.442,0.021 -0.823,-0.309 -0.865,-0.749c-0.256,-2.616 -1.037,-10.759 -1.037,-10.759c8.779,-0.843 16.02,-6.276 19.574,-13.696c0.224,-0.482 0.779,-0.712 1.278,-0.531c20.823,7.69 36.633,23.884 39.114,49.731c0,0 0.26,4.458 0.273,4.676Z" style="fill:none;stroke:#000;stroke-width:1px;"/><path d="M44.017,41.841c-0.077,0.064 -0.189,0.06 -0.261,-0.01c-0.072,-0.069 -0.08,-0.181 -0.019,-0.26c3.094,-3.846 3.868,-7.311 5.891,-10.539c0.699,-1.082 0.698,-2.475 -0.002,-3.556c-0.052,-0.157 -0.142,-0.295 -0.233,-0.436c-1.679,-2.592 -5.047,-3.493 -7.797,-2.086c-3.861,2.035 -8.01,5.368 -11.447,8.711c-0.089,0.089 -0.232,0.095 -0.328,0.012c-0.095,-0.082 -0.11,-0.224 -0.034,-0.325c1.942,-2.565 3.943,-5.408 5.684,-8.249c1.872,-3.096 2.342,-6.842 1.293,-10.305c-1.049,-3.463 -3.519,-6.318 -6.795,-7.855c-0.706,-0.344 -1.033,-0.424 -1.179,-0.438c-0.081,-0.007 1.93,0.11 2.249,0.129c0.028,0.002 0.055,0.01 0.079,0.023c11.112,6.197 19.441,13.064 25.591,29.258c0,0 0,0 0,0c-1.517,-1.644 -4.005,-1.941 -5.866,-0.699c-2.502,1.67 -4.282,4.249 -6.826,6.625Z" style="fill:#6a2b2b;"/><clipPath id="_clip3"><path d="M44.017,41.841c-0.077,0.064 -0.189,0.06 -0.261,-0.01c-0.072,-0.069 -0.08,-0.181 -0.019,-0.26c3.094,-3.846 3.868,-7.311 5.891,-10.539c0.699,-1.082 0.698,-2.475 -0.002,-3.556c-0.052,-0.157 -0.142,-0.295 -0.233,-0.436c-1.679,-2.592 -5.047,-3.493 -7.797,-2.086c-3.861,2.035 -8.01,5.368 -11.447,8.711c-0.089,0.089 -0.232,0.095 -0.328,0.012c-0.095,-0.082 -0.11,-0.224 -0.034,-0.325c1.942,-2.565 3.943,-5.408 5.684,-8.249c1.872,-3.096 2.342,-6.842 1.293,-10.305c-1.049,-3.463 -3.519,-6.318 -6.795,-7.855c-0.706,-0.344 -1.033,-0.424 -1.179,-0.438c-0.081,-0.007 1.93,0.11 2.249,0.129c0.028,0.002 0.055,0.01 0.079,0.023c11.112,6.197 19.441,13.064 25.591,29.258c0,0 0,0 0,0c-1.517,-1.644 -4.005,-1.941 -5.866,-0.699c-2.502,1.67 -4.282,4.249 -6.826,6.625Z"/></clipPath><g clip-path="url(#_clip3)"><path d="M61.295,55.342c-1.042,-7.128 -1.429,-13.555 -6.321,-22.497c-0.796,-1.455 -2.137,-0.843 -3.066,-0.142c0.917,-0.805 1.52,-2.839 0.883,-3.517c-3.152,-10.67 -7.969,-9.261 -11.294,-7.605c4.937,-5.47 -6.713,-15.237 -19.272,-18.081c-3.779,2.98 -7.767,7.081 -11.987,12.426l-4.673,-11.481l44.993,-15.117l17.888,49.4l-7.151,16.614Z" style="fill:#923f39;"/></g><path d="M10.008,21.108c5.33,-1.375 10.141,-5.464 14.534,-11.741c0.076,-0.11 0.211,-0.162 0.34,-0.132c4.091,0.949 7.608,2.998 10.93,5.42c1.17,0.855 1.842,2.232 1.799,3.68c-0.301,3.966 -3.489,9.371 -7.786,15.309c4,-3.551 8.059,-6.477 12.176,-8.781c0.84,-0.469 1.796,-0.69 2.756,-0.638c1.367,0.105 2.483,0.605 3.395,1.48c1.478,1.442 1.934,3.636 1.152,5.547c-1.18,2.551 -3.254,6.419 -5.428,10.439c-0.002,0.004 -0.001,0.01 0.003,0.013c0.004,0.002 0.009,0.002 0.013,-0.002c2.42,-2.755 4.938,-4.959 7.523,-6.785c0.012,-0.009 0.023,-0.019 0.033,-0.029c0.459,-0.386 2.748,-0.596 3.144,-0.409c1.273,0.601 7.086,19.565 6.372,19.253" style="fill:none;stroke:#000;stroke-width:1px;stroke-linecap:round;stroke-miterlimit:1.5;"/></g></svg>