<?xml version="1.0" encoding="UTF-8" standalone="no"?><!DOCTYPE svg PUBLIC "-//W3C//DTD SVG 1.1//EN" "http://www.w3.org/Graphics/SVG/1.1/DTD/svg11.dtd"><svg width="100%" height="100%" viewBox="0 0 16 10" version="1.1" xmlns="http://www.w3.org/2000/svg" xmlns:xlink="http://www.w3.org/1999/xlink" xml:space="preserve" xmlns:serif="http://www.serif.com/" style="fill-rule:evenodd;clip-rule:evenodd;stroke-linejoin:round;stroke-miterlimit:1.41421;"><path id="wingRHorn3" d="M9.543,7.625c0.66,0.746 1.637,1.133 2.629,1.041c0.992,-0.092 1.881,-0.651 2.392,-1.506c0.117,-0.222 0.222,-0.451 0.307,-0.692c1.805,-5.152 -8.141,-6.196 -13.133,-3.822c-0.121,0.07 -0.181,0.211 -0.149,0.347c0.031,0.137 0.148,0.236 0.287,0.246c2.542,0.323 5.433,1.863 7.667,4.386Z" style="fill:#923f39;"/><clipPath id="_clip1"><path d="M9.543,7.625c0.66,0.746 1.637,1.133 2.629,1.041c0.992,-0.092 1.881,-0.651 2.392,-1.506c0.117,-0.222 0.222,-0.451 0.307,-0.692c1.805,-5.152 -8.141,-6.196 -13.133,-3.822c-0.121,0.07 -0.181,0.211 -0.149,0.347c0.031,0.137 0.148,0.236 0.287,0.246c2.542,0.323 5.433,1.863 7.667,4.386Z"/></clipPath><g clip-path="url(#_clip1)"><path id="hornR" d="M1.106,3.14c-0.009,-0.013 -0.017,-0.027 -0.021,-0.043c-0.015,-0.05 0.006,-0.105 0.05,-0.133c4.736,-2.773 15.617,-1.865 13.736,3.504c-0.189,0.538 -0.481,1.012 -0.894,1.412c-0.58,-1.325 -1.14,-2.408 -2.403,-1.726c0.328,-2.475 -0.624,-2.886 -2.636,-1.586c-0.43,-1.188 -1.368,-3.03 -2.394,-0.932c-0.958,-1.717 -1.189,-1.164 -2.098,-0.332c-1.265,-0.998 -2.351,-0.818 -3.34,-0.164Z" style="fill:#c46751;"/><path d="M0.968,4.119c-0.022,0 -0.043,0 -0.065,0c-0.054,0.003 -0.099,-0.037 -0.11,-0.097c-0.012,-0.06 0.013,-0.127 0.06,-0.164c5.013,-3.65 16.058,-3.26 13.79,3.333c-0.294,0.855 -0.758,1.592 -1.43,2.188c0.299,-0.417 0.531,-0.88 0.704,-1.383c2.148,-6.246 -7.648,-6.925 -12.949,-3.877Z" style="fill:#e7a582;"/></g><path d="M9.543,7.625c0.66,0.746 1.637,1.133 2.629,1.041c0.992,-0.092 1.881,-0.651 2.392,-1.506c0.117,-0.222 0.222,-0.451 0.307,-0.692c1.805,-5.152 -8.141,-6.196 -13.133,-3.822c-0.121,0.07 -0.181,0.211 -0.149,0.347c0.031,0.137 0.148,0.236 0.287,0.246c2.542,0.323 5.433,1.863 7.667,4.386Z" style="fill:none;stroke:#000;stroke-width:1px;"/></svg>