<?xml version="1.0" encoding="UTF-8" standalone="no"?><!DOCTYPE svg PUBLIC "-//W3C//DTD SVG 1.1//EN" "http://www.w3.org/Graphics/SVG/1.1/DTD/svg11.dtd"><svg width="100%" height="100%" viewBox="0 0 12 19" version="1.1" xmlns="http://www.w3.org/2000/svg" xmlns:xlink="http://www.w3.org/1999/xlink" xml:space="preserve" xmlns:serif="http://www.serif.com/" style="fill-rule:evenodd;clip-rule:evenodd;stroke-linejoin:round;stroke-miterlimit:1.41421;"><path id="wingLHorn2" d="M3.289,7.69c-1.059,-0.831 -1.611,-2.152 -1.459,-3.489c0.152,-1.337 0.986,-2.5 2.204,-3.073c0.064,-0.043 0.134,-0.074 0.206,-0.104c6.252,-2.642 8.272,9.8 5.603,16.034c-0.065,0.125 -0.204,0.193 -0.342,0.167c-0.138,-0.025 -0.244,-0.137 -0.261,-0.277c-0.522,-3.135 -2.634,-6.65 -5.951,-9.258Z" style="fill:#923f39;"/><clipPath id="_clip1"><path d="M3.289,7.69c-1.059,-0.831 -1.611,-2.152 -1.459,-3.489c0.152,-1.337 0.986,-2.5 2.204,-3.073c0.064,-0.043 0.134,-0.074 0.206,-0.104c6.252,-2.642 8.272,9.8 5.603,16.034c-0.065,0.125 -0.204,0.193 -0.342,0.167c-0.138,-0.025 -0.244,-0.137 -0.261,-0.277c-0.522,-3.135 -2.634,-6.65 -5.951,-9.258Z"/></clipPath><g clip-path="url(#_clip1)"><path id="hornR" d="M9.38,17.644c0.016,0.011 0.034,0.019 0.053,0.024c0.064,0.013 0.129,-0.016 0.16,-0.072c3.035,-6.021 1.084,-19.292 -5.353,-16.572c-0.645,0.272 -1.204,0.667 -1.663,1.205c1.669,0.608 3.04,1.212 2.301,2.813c3.009,-0.592 3.586,0.543 2.148,3.11c1.49,0.436 3.82,1.444 1.327,2.863c2.178,1.043 1.519,1.369 0.568,2.547c1.321,1.474 1.185,2.82 0.459,4.082Z" style="fill:#c46751;"/><path d="M8.753,17.672c0.002,0.026 0.004,0.053 0.006,0.079c0.003,0.066 0.052,0.118 0.121,0.13c0.069,0.012 0.142,-0.021 0.179,-0.079c3.559,-6.223 1.918,-19.614 -5.252,-16.611c-0.93,0.389 -1.709,0.98 -2.305,1.818c0.436,-0.378 0.931,-0.677 1.479,-0.907c6.792,-2.844 8.622,9.021 5.772,15.57Z" style="fill:#e7a582;"/></g><path d="M3.289,7.69c-1.059,-0.831 -1.611,-2.152 -1.459,-3.489c0.152,-1.337 0.986,-2.5 2.204,-3.073c0.064,-0.043 0.134,-0.074 0.206,-0.104c6.252,-2.642 8.272,9.8 5.603,16.034c-0.065,0.125 -0.204,0.193 -0.342,0.167c-0.138,-0.025 -0.244,-0.137 -0.261,-0.277c-0.522,-3.135 -2.634,-6.65 -5.951,-9.258Z" style="fill:none;stroke:#000;stroke-width:1px;"/></svg>