<?xml version="1.0" encoding="UTF-8" standalone="no"?><!DOCTYPE svg PUBLIC "-//W3C//DTD SVG 1.1//EN" "http://www.w3.org/Graphics/SVG/1.1/DTD/svg11.dtd"><svg width="100%" height="100%" viewBox="0 0 30 34" version="1.1" xmlns="http://www.w3.org/2000/svg" xmlns:xlink="http://www.w3.org/1999/xlink" xml:space="preserve" xmlns:serif="http://www.serif.com/" style="fill-rule:evenodd;clip-rule:evenodd;stroke-linejoin:round;stroke-miterlimit:1.41421;"><path id="hornL" d="M4.356,16.836c-1.587,0.246 -2.863,1.434 -3.223,2.998c-1.099,4.602 -0.189,8.018 2.172,10.582c10.411,11.306 26.397,-13.485 25.803,-28.301c-0.012,-0.142 -0.115,-0.259 -0.254,-0.289c-0.14,-0.03 -0.282,0.034 -0.351,0.159c-4.05,6.915 -13.155,13.073 -24.147,14.851Z" style="fill:#923f39;"/><clipPath id="_clip1"><path d="M4.356,16.836c-1.587,0.246 -2.863,1.434 -3.223,2.998c-1.099,4.602 -0.189,8.018 2.172,10.582c10.411,11.306 26.397,-13.485 25.803,-28.301c-0.012,-0.142 -0.115,-0.259 -0.254,-0.289c-0.14,-0.03 -0.282,0.034 -0.351,0.159c-4.05,6.915 -13.155,13.073 -24.147,14.851Z"/></clipPath><g clip-path="url(#_clip1)"><path d="M-0.554,32.882c4.296,1.192 3.839,-1.998 7.164,-8.281c2.537,0.413 4.737,1.013 5.591,-3.83c3.678,2.822 6.37,-2.521 6.347,-4.455c5.236,-0.191 4.7,-2.655 4.368,-4.948c5.229,-0.642 3.086,-8.266 5.08,-13.712l16.051,30.622l-34.133,12.251" style="fill:#c46751;"/><path id="hornL1" serif:id="hornL" d="M28.373,2.204c0.044,-0.073 0.087,-0.146 0.13,-0.219c0.069,-0.125 0.211,-0.189 0.351,-0.159c0.139,0.03 0.242,0.147 0.254,0.289c0.594,14.816 -15.392,39.607 -25.803,28.301c-1.689,-1.834 -2.635,-4.104 -2.635,-6.933c0.356,1.583 1.146,2.928 2.299,4.076c10.024,9.975 25.75,-12.115 25.404,-25.355Z" style="fill:#e7a582;"/></g><path d="M4.356,16.836c-1.587,0.246 -2.863,1.434 -3.223,2.998c-1.099,4.602 -0.189,8.018 2.172,10.582c10.411,11.306 26.397,-13.485 25.803,-28.301c-0.012,-0.142 -0.115,-0.259 -0.254,-0.289c-0.14,-0.03 -0.282,0.034 -0.351,0.159c-4.05,6.915 -13.155,13.073 -24.147,14.851Z" style="fill:none;stroke:#000;stroke-width:1px;"/></svg>