<?xml version="1.0" encoding="UTF-8" standalone="no"?><!DOCTYPE svg PUBLIC "-//W3C//DTD SVG 1.1//EN" "http://www.w3.org/Graphics/SVG/1.1/DTD/svg11.dtd"><svg width="100%" height="100%" viewBox="0 0 60 62" version="1.1" xmlns="http://www.w3.org/2000/svg" xmlns:xlink="http://www.w3.org/1999/xlink" xml:space="preserve" xmlns:serif="http://www.serif.com/" style="fill-rule:evenodd;clip-rule:evenodd;stroke-linejoin:round;stroke-miterlimit:1.41421;"><g id="feather"><g><g><g><path d="M28.125,60.614c-0.05,-1.864 -0.834,-3.518 -2.153,-3.908c-1.333,-0.394 -2.914,0.589 -3.963,2.124l-0.491,1.206c1.066,-1.651 2.744,-2.75 4.15,-2.333c1.406,0.418 2.212,2.255 2.204,4.22l0.253,-1.309Z" style="fill:#6a2b2b;"/><path d="M40.546,57.439c-0.026,-1.899 -0.815,-3.621 -2.165,-4.02c-1.293,-0.383 -2.821,0.532 -3.88,2.021l-0.548,1.346c1.066,-1.651 2.744,-2.75 4.15,-2.332c1.406,0.417 2.212,2.254 2.204,4.22l0.239,-1.235Z" style="fill:#6a2b2b;"/><path d="M14.611,52.928c-0.07,-1.783 -0.848,-3.376 -2.14,-3.758c-1.367,-0.405 -2.997,0.641 -4.063,2.249l-0.428,1.052c1.066,-1.651 2.744,-2.75 4.15,-2.332c1.406,0.417 2.212,2.254 2.204,4.22l0.277,-1.431Z" style="fill:#6a2b2b;"/><path d="M47.397,47.349c-0.034,-1.891 -0.821,-3.591 -2.161,-3.988c-1.294,-0.382 -2.822,0.533 -3.868,2.004l-0.585,1.44c1.067,-1.651 2.744,-2.751 4.15,-2.333c1.407,0.418 2.212,2.254 2.204,4.22l0.26,-1.343Z" style="fill:#6a2b2b;"/><path d="M32.502,44.764c-0.057,-1.822 -0.838,-3.453 -2.147,-3.84c-1.332,-0.394 -2.914,0.589 -3.972,2.135l-0.516,1.267c1.067,-1.651 2.745,-2.75 4.151,-2.332c1.406,0.417 2.211,2.254 2.204,4.22l0.28,-1.45Z" style="fill:#6a2b2b;"/><path d="M7.725,43.368c-0.101,-1.736 -0.871,-3.25 -2.126,-3.621c-1.382,-0.409 -3.033,0.666 -4.137,2.341l-0.398,0.979c1.067,-1.651 2.744,-2.75 4.151,-2.333c1.406,0.418 2.211,2.255 2.204,4.22l0.306,-1.586Z" style="fill:#6a2b2b;"/><path d="M58.654,41.446c-0.021,-1.907 -0.811,-3.643 -2.167,-4.044c-1.272,-0.376 -2.772,0.503 -3.809,1.932l-0.638,1.569c1.066,-1.651 2.744,-2.751 4.15,-2.333c1.406,0.418 2.212,2.255 2.204,4.22l0.26,-1.344Z" style="fill:#6a2b2b;"/><path d="M22.476,40.354c-0.082,-1.776 -0.858,-3.34 -2.135,-3.718c-1.363,-0.403 -2.987,0.635 -4.051,2.233l-0.47,1.156c1.067,-1.651 2.744,-2.751 4.151,-2.333c1.406,0.418 2.211,2.255 2.204,4.22l0.301,-1.558Z" style="fill:#6a2b2b;"/><path d="M11.647,34.149c-0.12,-1.731 -0.886,-3.206 -2.122,-3.572c-1.383,-0.409 -3.034,0.665 -4.139,2.345l-0.422,1.036c1.067,-1.651 2.744,-2.751 4.15,-2.333c1.407,0.418 2.212,2.254 2.205,4.22l0.328,-1.696Z" style="fill:#6a2b2b;"/><path d="M27.365,25.346c-0.102,-1.767 -0.873,-3.286 -2.13,-3.658c-1.367,-0.404 -2.997,0.642 -4.053,2.237l-0.499,1.226c1.067,-1.651 2.744,-2.75 4.15,-2.333c1.407,0.418 2.212,2.255 2.204,4.22l0.328,-1.692Z" style="fill:#6a2b2b;"/><path d="M6.787,25.957c-0.143,-1.683 -0.902,-3.101 -2.11,-3.458c-1.402,-0.415 -3.081,0.696 -4.152,2.359l0.615,-1.508c-0.428,0.766 -0.785,1.623 -1.061,2.553c1.066,-1.651 2.744,-2.75 4.15,-2.333c1.406,0.418 2.212,2.255 2.204,4.22l0.354,-1.833Z" style="fill:#6a2b2b;"/><path d="M53.846,22.557c-0.055,-1.803 -0.837,-3.434 -2.145,-3.821c-1.309,-0.387 -2.858,0.554 -3.901,2.046l-0.629,1.545c1.067,-1.651 2.744,-2.75 4.15,-2.332c1.407,0.417 2.212,2.254 2.204,4.22l0.321,-1.658Z" style="fill:#6a2b2b;"/><path d="M44.666,16.988c-0.084,-1.741 -0.859,-3.294 -2.131,-3.67c-1.34,-0.396 -2.932,0.6 -3.998,2.167l-0.572,1.406c1.067,-1.651 2.744,-2.751 4.151,-2.333c1.406,0.418 2.211,2.255 2.204,4.22l0.346,-1.79Z" style="fill:#6a2b2b;"/><path d="M28.537,12.761c-0.117,-1.702 -0.883,-3.178 -2.119,-3.543c-1.382,-0.409 -3.033,0.665 -4.097,2.291l-0.498,1.226c1.066,-1.651 2.744,-2.751 4.15,-2.333c1.406,0.418 2.212,2.254 2.204,4.22l0.36,-1.861Z" style="fill:#6a2b2b;"/><path d="M17.638,11.511c-0.143,-1.652 -0.901,-3.064 -2.107,-3.42c-1.402,-0.415 -3.08,0.696 -4.151,2.359l0.55,-1.351c-0.396,0.721 -0.753,1.578 -1.03,2.508c1.067,-1.651 2.745,-2.75 4.151,-2.333c1.406,0.418 2.211,2.255 2.204,4.22l0.383,-1.983Z" style="fill:#6a2b2b;"/><path d="M39.418,7.424c-0.082,-1.768 -0.857,-3.331 -2.135,-3.709c-1.332,-0.394 -2.913,0.589 -3.952,2.11l-0.617,1.517c1.067,-1.651 2.744,-2.751 4.151,-2.333c1.406,0.418 2.211,2.254 2.204,4.22l0.349,-1.805Z" style="fill:#6a2b2b;"/></g></g><g><g opacity="0.8"><path d="M28.125,60.614l0.032,0.326c1.085,-3.639 0.546,-7.014 -1.202,-7.531c-1.749,-0.517 -4.05,2.018 -5.135,5.656l0.189,-0.235c1.12,-2.964 3.087,-4.862 4.632,-4.403c1.546,0.459 2.158,3.123 1.484,6.187Z" style="fill:#e7a582;fill-opacity:0.5;"/><path d="M40.546,57.439l0.021,0.213c1.085,-3.638 0.546,-7.013 -1.202,-7.53c-1.749,-0.517 -4.05,2.017 -5.135,5.656l0.271,-0.338c1.118,-2.877 3.051,-4.715 4.575,-4.263c1.559,0.463 2.168,3.168 1.47,6.262Z" style="fill:#e7a582;fill-opacity:0.5;"/><path d="M14.611,52.928l0.045,0.475c1.086,-3.639 0.547,-7.013 -1.202,-7.53c-1.748,-0.517 -4.049,2.017 -5.134,5.656l0.088,-0.11c1.117,-3.053 3.124,-5.023 4.695,-4.557c1.524,0.453 2.14,3.049 1.508,6.066Z" style="fill:#e7a582;fill-opacity:0.5;"/><path d="M47.397,47.349l0.024,0.246c1.085,-3.639 0.546,-7.013 -1.202,-7.53c-1.749,-0.518 -4.05,2.017 -5.135,5.656l0.284,-0.356c1.125,-2.825 3.032,-4.617 4.538,-4.169c1.537,0.456 2.151,3.092 1.491,6.153Z" style="fill:#e7a582;fill-opacity:0.5;"/><path d="M32.502,44.764l0.038,0.393c1.085,-3.638 0.547,-7.013 -1.202,-7.53c-1.748,-0.517 -4.049,2.017 -5.135,5.656l0.18,-0.224c1.118,-2.924 3.071,-4.798 4.608,-4.342c1.524,0.453 2.14,3.049 1.511,6.047Z" style="fill:#e7a582;fill-opacity:0.5;"/><path d="M7.725,43.368l0.059,0.613c1.086,-3.639 0.547,-7.013 -1.202,-7.53c-1.748,-0.518 -4.049,2.017 -5.134,5.656l0.014,-0.019c1.097,-3.077 3.135,-5.103 4.726,-4.63c1.493,0.444 2.115,2.946 1.537,5.91Z" style="fill:#e7a582;fill-opacity:0.5;"/><path d="M58.654,41.446l0.018,0.19c1.086,-3.639 0.547,-7.013 -1.201,-7.531c-1.749,-0.517 -4.05,2.018 -5.135,5.657l0.342,-0.428c1.127,-2.747 3,-4.481 4.485,-4.04c1.537,0.456 2.151,3.093 1.491,6.152Z" style="fill:#e7a582;fill-opacity:0.5;"/><path d="M22.476,40.354l0.05,0.516c1.085,-3.639 0.546,-7.013 -1.202,-7.53c-1.749,-0.517 -4.05,2.017 -5.135,5.656l0.101,-0.127c1.109,-2.982 3.095,-4.916 4.654,-4.453c1.493,0.443 2.115,2.946 1.532,5.938Z" style="fill:#e7a582;fill-opacity:0.5;"/><path d="M11.647,34.149l0.063,0.662c1.085,-3.639 0.547,-7.013 -1.202,-7.53c-1.748,-0.518 -4.049,2.017 -5.134,5.656l0.012,-0.015c1.098,-3.046 3.12,-5.043 4.702,-4.573c1.476,0.438 2.1,2.888 1.559,5.8Z" style="fill:#e7a582;fill-opacity:0.5;"/><path d="M27.365,25.346l0.055,0.576c1.085,-3.639 0.547,-7.013 -1.202,-7.53c-1.748,-0.517 -4.049,2.017 -5.134,5.656l0.098,-0.123c1.112,-2.944 3.079,-4.842 4.624,-4.383c1.477,0.439 2.101,2.888 1.559,5.804Z" style="fill:#e7a582;fill-opacity:0.5;"/><path d="M6.787,25.957l0.075,0.776c1.085,-3.639 0.547,-7.013 -1.202,-7.531c-1.489,-0.44 -3.379,1.333 -4.52,4.148c1.157,-2.155 2.759,-3.443 4.062,-3.056c1.447,0.43 2.076,2.793 1.585,5.663Z" style="fill:#e7a582;fill-opacity:0.5;"/><path d="M53.846,22.557l0.04,0.412c1.085,-3.639 0.546,-7.013 -1.202,-7.53c-1.749,-0.517 -4.05,2.017 -5.135,5.656l0.251,-0.313c1.136,-2.77 3.01,-4.505 4.495,-4.064c1.484,0.441 2.107,2.917 1.551,5.839Z" style="fill:#e7a582;fill-opacity:0.5;"/><path d="M44.666,16.988l0.054,0.564c1.085,-3.639 0.547,-7.013 -1.202,-7.531c-1.749,-0.517 -4.049,2.018 -5.135,5.656l0.154,-0.192c1.128,-2.848 3.041,-4.652 4.552,-4.203c1.46,0.434 2.087,2.835 1.577,5.706Z" style="fill:#e7a582;fill-opacity:0.5;"/><path d="M28.537,12.761l0.066,0.691c1.086,-3.639 0.547,-7.014 -1.202,-7.531c-1.748,-0.517 -4.049,2.017 -5.134,5.656l0.054,-0.068c1.113,-2.945 3.08,-4.842 4.625,-4.383c1.447,0.429 2.076,2.793 1.591,5.635Z" style="fill:#e7a582;fill-opacity:0.5;"/><path d="M17.638,11.511l0.079,0.814c1.085,-3.639 0.546,-7.014 -1.202,-7.531c-1.52,-0.449 -3.456,1.406 -4.585,4.305c1.189,-2.2 2.791,-3.488 4.094,-3.101c1.425,0.423 2.056,2.72 1.614,5.513Z" style="fill:#e7a582;fill-opacity:0.5;"/><path d="M39.418,7.424l0.05,0.525c1.085,-3.639 0.547,-7.014 -1.202,-7.531c-1.748,-0.517 -4.049,2.017 -5.134,5.656l0.199,-0.249c1.126,-2.779 3.013,-4.536 4.507,-4.092c1.46,0.433 2.087,2.835 1.58,5.691Z" style="fill:#e7a582;fill-opacity:0.5;"/><path d="M28.125,60.614c0.674,-3.064 0.062,-5.728 -1.484,-6.187c-1.545,-0.459 -3.512,1.439 -4.632,4.403c1.049,-1.535 2.63,-2.518 3.963,-2.124c1.319,0.39 2.103,2.044 2.153,3.908Z" style="fill:#923f39;"/><path d="M40.546,57.439c0.698,-3.094 0.089,-5.799 -1.47,-6.262c-1.524,-0.452 -3.457,1.386 -4.575,4.263c1.059,-1.489 2.587,-2.404 3.88,-2.021c1.35,0.399 2.139,2.121 2.165,4.02Z" style="fill:#923f39;"/><path d="M14.611,52.928c0.632,-3.017 0.016,-5.613 -1.508,-6.066c-1.571,-0.466 -3.578,1.504 -4.695,4.557c1.066,-1.608 2.696,-2.654 4.063,-2.249c1.292,0.382 2.07,1.975 2.14,3.758Z" style="fill:#923f39;"/><path d="M47.397,47.349c0.66,-3.061 0.046,-5.697 -1.491,-6.153c-1.506,-0.448 -3.413,1.344 -4.538,4.169c1.046,-1.471 2.574,-2.386 3.868,-2.004c1.34,0.397 2.127,2.097 2.161,3.988Z" style="fill:#923f39;"/><path d="M32.502,44.764c0.629,-2.998 0.013,-5.594 -1.511,-6.047c-1.537,-0.456 -3.49,1.418 -4.608,4.342c1.058,-1.546 2.64,-2.529 3.972,-2.135c1.309,0.387 2.09,2.018 2.147,3.84Z" style="fill:#923f39;"/><path d="M7.725,43.368c0.578,-2.964 -0.044,-5.466 -1.537,-5.91c-1.591,-0.473 -3.629,1.553 -4.726,4.63c1.104,-1.675 2.755,-2.75 4.137,-2.341c1.255,0.371 2.025,1.885 2.126,3.621Z" style="fill:#923f39;"/><path d="M58.654,41.446c0.66,-3.059 0.046,-5.696 -1.491,-6.152c-1.485,-0.441 -3.358,1.293 -4.485,4.04c1.037,-1.429 2.537,-2.308 3.809,-1.932c1.356,0.401 2.146,2.137 2.167,4.044Z" style="fill:#923f39;"/><path d="M22.476,40.354c0.583,-2.992 -0.039,-5.495 -1.532,-5.938c-1.559,-0.463 -3.545,1.471 -4.654,4.453c1.064,-1.598 2.688,-2.636 4.051,-2.233c1.277,0.378 2.053,1.942 2.135,3.718Z" style="fill:#923f39;"/><path d="M11.647,34.149c0.541,-2.912 -0.083,-5.362 -1.559,-5.8c-1.582,-0.47 -3.604,1.527 -4.702,4.573c1.105,-1.68 2.756,-2.754 4.139,-2.345c1.236,0.366 2.002,1.841 2.122,3.572Z" style="fill:#923f39;"/><path d="M27.365,25.346c0.542,-2.916 -0.082,-5.365 -1.559,-5.804c-1.545,-0.459 -3.512,1.439 -4.624,4.383c1.056,-1.595 2.686,-2.641 4.053,-2.237c1.257,0.372 2.028,1.891 2.13,3.658Z" style="fill:#923f39;"/><path d="M40.773,25.986c-0.102,-1.766 -0.873,-3.285 -2.13,-3.657c-1.367,-0.404 -2.997,0.642 -4.053,2.237l-0.499,1.226c1.067,-1.651 2.744,-2.751 4.151,-2.333c1.406,0.418 2.211,2.254 2.204,4.22l0.327,-1.693Z" style="fill:#6a2b2b;"/><path d="M40.773,25.986l0.055,0.577c1.086,-3.639 0.547,-7.013 -1.201,-7.531c-1.749,-0.517 -4.05,2.018 -5.135,5.657l0.098,-0.123c1.113,-2.945 3.079,-4.842 4.625,-4.383c1.476,0.438 2.1,2.888 1.558,5.803Z" style="fill:#e7a582;fill-opacity:0.5;"/><path d="M40.773,25.986c0.542,-2.915 -0.082,-5.365 -1.558,-5.803c-1.546,-0.459 -3.512,1.438 -4.625,4.383c1.056,-1.595 2.686,-2.641 4.053,-2.237c1.257,0.372 2.028,1.891 2.13,3.657Z" style="fill:#923f39;"/><path d="M6.787,25.957c0.491,-2.87 -0.138,-5.233 -1.585,-5.663c-1.303,-0.387 -2.905,0.901 -4.062,3.056l-0.615,1.508c1.071,-1.663 2.75,-2.774 4.152,-2.359c1.208,0.357 1.967,1.775 2.11,3.458Z" style="fill:#923f39;"/><path d="M53.846,22.557c0.556,-2.922 -0.067,-5.398 -1.551,-5.839c-1.485,-0.441 -3.359,1.294 -4.495,4.064c1.043,-1.492 2.592,-2.433 3.901,-2.046c1.308,0.387 2.09,2.018 2.145,3.821Z" style="fill:#923f39;"/><path d="M44.666,16.988c0.51,-2.871 -0.117,-5.272 -1.577,-5.706c-1.511,-0.449 -3.424,1.355 -4.552,4.203c1.066,-1.567 2.658,-2.563 3.998,-2.167c1.272,0.376 2.047,1.929 2.131,3.67Z" style="fill:#923f39;"/><path d="M28.537,12.761c0.485,-2.842 -0.144,-5.206 -1.591,-5.635c-1.545,-0.459 -3.512,1.438 -4.625,4.383c1.064,-1.626 2.715,-2.7 4.097,-2.291c1.236,0.365 2.002,1.841 2.119,3.543Z" style="fill:#923f39;"/><path d="M17.638,11.511c0.442,-2.793 -0.189,-5.09 -1.614,-5.513c-1.303,-0.387 -2.905,0.901 -4.094,3.101l-0.55,1.351c1.071,-1.663 2.749,-2.774 4.151,-2.359c1.206,0.356 1.964,1.768 2.107,3.42Z" style="fill:#923f39;"/><path d="M39.418,7.424c0.507,-2.856 -0.12,-5.258 -1.58,-5.691c-1.494,-0.444 -3.381,1.313 -4.507,4.092c1.039,-1.521 2.62,-2.504 3.952,-2.11c1.278,0.378 2.053,1.941 2.135,3.709Z" style="fill:#923f39;"/></g></g></g></g></svg>