<?xml version="1.0" encoding="UTF-8" standalone="no"?><!DOCTYPE svg PUBLIC "-//W3C//DTD SVG 1.1//EN" "http://www.w3.org/Graphics/SVG/1.1/DTD/svg11.dtd"><svg width="100%" height="100%" viewBox="0 0 29 31" version="1.1" xmlns="http://www.w3.org/2000/svg" xmlns:xlink="http://www.w3.org/1999/xlink" xml:space="preserve" xmlns:serif="http://www.serif.com/" style="fill-rule:evenodd;clip-rule:evenodd;stroke-linejoin:round;stroke-miterlimit:1.41421;"><path id="eyeN3" d="M4.8,1.034c-1.573,2.188 -2.809,4.822 -3.535,7.761c-2.372,9.602 1.586,18.85 8.832,20.64c7.246,1.791 15.055,-4.551 17.427,-14.153c0.618,-2.499 0.806,-4.975 0.62,-7.301c-2.958,1.479 -7.405,1.842 -12.065,0.711c-3.893,-0.944 -7.176,-2.747 -9.288,-4.872c-0.881,-0.885 -1.558,-1.827 -1.991,-2.786Z" style="fill:#a8a6a6;"/><clipPath id="_clip1"><path d="M4.8,1.034c-1.573,2.188 -2.809,4.822 -3.535,7.761c-2.372,9.602 1.586,18.85 8.832,20.64c7.246,1.791 15.055,-4.551 17.427,-14.153c0.618,-2.499 0.806,-4.975 0.62,-7.301c-2.958,1.479 -7.405,1.842 -12.065,0.711c-3.893,-0.944 -7.176,-2.747 -9.288,-4.872c-0.881,-0.885 -1.558,-1.827 -1.991,-2.786Z"/></clipPath><g clip-path="url(#_clip1)"><path d="M18.863,-5.306c-6.365,-0.902 -12.83,4.913 -14.637,13.331c-1.867,8.703 1.95,16.913 8.518,18.323c6.353,1.363 12.968,-4.132 15.085,-12.368c-0.053,0.301 -0.112,0.602 -0.176,0.904c-2.075,9.67 -9.685,16.25 -16.983,14.684c-7.298,-1.566 -11.539,-10.688 -9.464,-20.359c2.075,-9.67 9.685,-16.25 16.983,-14.684c0.228,0.049 0.452,0.105 0.674,0.169Z" style="fill-opacity:0.4;"/><path d="M16.712,8.101c-3.907,-0.965 -8.117,2.454 -9.396,7.631c-1.279,5.176 0.855,10.163 4.762,11.128c3.906,0.965 8.117,-2.454 9.396,-7.631c1.278,-5.177 -0.855,-10.163 -4.762,-11.128Z"/><path id="eye" d="M28.103,8.29c0.038,0.188 0.074,0.378 0.107,0.569c0.037,2.51 -0.379,5.167 -1.301,7.805c-0.049,0.141 -0.099,0.282 -0.151,0.421c-1.751,1.096 -3.719,1.456 -5.525,0.825c-3.08,-1.076 -4.737,-4.702 -4.277,-8.717c2.932,0.705 5.738,0.777 8.045,0.285c1.182,-0.251 2.232,-0.651 3.102,-1.188Z" style="fill:#fff;fill-opacity:0.4;"/></g><path d="M4.8,1.034c-1.573,2.188 -2.809,4.822 -3.535,7.761c-2.372,9.602 1.586,18.85 8.832,20.64c7.246,1.791 15.055,-4.551 17.427,-14.153c0.618,-2.499 0.806,-4.975 0.62,-7.301c-2.958,1.479 -7.405,1.842 -12.065,0.711c-3.893,-0.944 -7.176,-2.747 -9.288,-4.872c-0.881,-0.885 -1.558,-1.827 -1.991,-2.786Z" style="fill:none;stroke:#000;stroke-width:1px;"/></svg>