<?xml version="1.0" encoding="UTF-8" standalone="no"?><!DOCTYPE svg PUBLIC "-//W3C//DTD SVG 1.1//EN" "http://www.w3.org/Graphics/SVG/1.1/DTD/svg11.dtd"><svg width="100%" height="100%" viewBox="0 0 18 14" version="1.1" xmlns="http://www.w3.org/2000/svg" xmlns:xlink="http://www.w3.org/1999/xlink" xml:space="preserve" xmlns:serif="http://www.serif.com/" style="fill-rule:evenodd;clip-rule:evenodd;stroke-linejoin:round;stroke-miterlimit:1.41421;"><path id="wingRHorn2" d="M12.626,8.789c1.345,0.068 2.628,-0.565 3.392,-1.674c0.763,-1.108 0.898,-2.533 0.356,-3.765c-0.021,-0.074 -0.054,-0.144 -0.087,-0.213c-2.981,-6.098 -12.675,1.96 -14.755,8.414c-0.033,0.137 0.027,0.279 0.148,0.351c0.121,0.072 0.275,0.056 0.379,-0.038c2.452,-2.022 6.354,-3.286 10.567,-3.075Z" style="fill:#923f39;"/><clipPath id="_clip1"><path d="M12.626,8.789c1.345,0.068 2.628,-0.565 3.392,-1.674c0.763,-1.108 0.898,-2.533 0.356,-3.765c-0.021,-0.074 -0.054,-0.144 -0.087,-0.213c-2.981,-6.098 -12.675,1.96 -14.755,8.414c-0.033,0.137 0.027,0.279 0.148,0.351c0.121,0.072 0.275,0.056 0.379,-0.038c2.452,-2.022 6.354,-3.286 10.567,-3.075Z"/></clipPath><g clip-path="url(#_clip1)"><path id="hornR" d="M1.496,12.297c-0.019,-0.002 -0.038,-0.008 -0.055,-0.017c-0.057,-0.032 -0.087,-0.096 -0.073,-0.16c1.664,-6.533 11.849,-15.262 14.919,-8.983c0.307,0.629 0.47,1.294 0.462,2c-1.658,-0.636 -3.089,-1.081 -3.583,0.611c-1.88,-2.422 -3.061,-1.945 -3.661,0.935c-1.41,-0.649 -3.829,-1.419 -2.881,1.289c-2.328,-0.644 -2.044,0.035 -2.101,1.548c-1.964,0.244 -2.745,1.348 -3.027,2.777Z" style="fill:#c46751;"/><path d="M2.209,13.216c-0.019,0.019 -0.038,0.039 -0.056,0.058c-0.045,0.049 -0.118,0.054 -0.18,0.012c-0.062,-0.041 -0.099,-0.119 -0.091,-0.192c1.16,-7.489 11.047,-16.782 14.821,-9.169c0.489,0.987 0.73,2.021 0.667,3.116c-0.105,-0.617 -0.307,-1.215 -0.595,-1.796c-3.575,-7.211 -12.635,0.747 -14.566,7.971Z" style="fill:#e7a582;"/></g><path d="M12.626,8.789c1.345,0.068 2.628,-0.565 3.392,-1.674c0.763,-1.108 0.898,-2.533 0.356,-3.765c-0.021,-0.074 -0.054,-0.144 -0.087,-0.213c-2.981,-6.098 -12.675,1.96 -14.755,8.414c-0.033,0.137 0.027,0.279 0.148,0.351c0.121,0.072 0.275,0.056 0.379,-0.038c2.452,-2.022 6.354,-3.286 10.567,-3.075Z" style="fill:none;stroke:#000;stroke-width:1px;"/></svg>