<?xml version="1.0" encoding="UTF-8" standalone="no"?><!DOCTYPE svg PUBLIC "-//W3C//DTD SVG 1.1//EN" "http://www.w3.org/Graphics/SVG/1.1/DTD/svg11.dtd"><svg width="100%" height="100%" viewBox="0 0 15 11" version="1.1" xmlns="http://www.w3.org/2000/svg" xmlns:xlink="http://www.w3.org/1999/xlink" xml:space="preserve" xmlns:serif="http://www.serif.com/" style="fill-rule:evenodd;clip-rule:evenodd;stroke-linejoin:round;stroke-miterlimit:1.41421;"><path id="wingLHorn3" d="M4.033,7.702c-0.988,0.129 -1.979,-0.22 -2.666,-0.941c-0.688,-0.721 -0.991,-1.726 -0.816,-2.707c0.058,-0.244 0.128,-0.486 0.223,-0.723c2.021,-5.071 10.208,0.672 12.415,5.74c0.044,0.133 -0.002,0.279 -0.116,0.36c-0.113,0.082 -0.266,0.081 -0.378,-0.003c-2.129,-1.425 -5.32,-2.162 -8.662,-1.726Z" style="fill:#923f39;"/><clipPath id="_clip1"><path d="M4.033,7.702c-0.988,0.129 -1.979,-0.22 -2.666,-0.941c-0.688,-0.721 -0.991,-1.726 -0.816,-2.707c0.058,-0.244 0.128,-0.486 0.223,-0.723c2.021,-5.071 10.208,0.672 12.415,5.74c0.044,0.133 -0.002,0.279 -0.116,0.36c-0.113,0.082 -0.266,0.081 -0.378,-0.003c-2.129,-1.425 -5.32,-2.162 -8.662,-1.726Z"/></clipPath><g clip-path="url(#_clip1)"><path id="hornR" d="M13.341,9.858c0.016,-0.002 0.031,-0.008 0.044,-0.017c0.045,-0.029 0.065,-0.083 0.05,-0.134c-1.752,-5.201 -10.555,-11.661 -12.661,-6.376c-0.211,0.529 -0.302,1.078 -0.253,1.652c1.307,-0.619 2.441,-1.068 2.946,0.276c1.378,-2.082 2.365,-1.767 3.029,0.534c1.105,-0.613 3.021,-1.387 2.418,0.869c1.85,-0.666 1.661,-0.097 1.8,1.128c1.609,0.077 2.311,0.926 2.627,2.068Z" style="fill:#c46751;"/><path d="M12.898,10.468c0.017,0.014 0.033,0.028 0.05,0.042c0.039,0.037 0.098,0.037 0.145,0.001c0.047,-0.035 0.072,-0.099 0.06,-0.156c-1.475,-5.837 -10.114,-12.673 -12.607,-6.5c-0.324,0.8 -0.443,1.626 -0.313,2.484c0.04,-0.49 0.159,-0.97 0.35,-1.441c2.361,-5.848 10.237,-0.022 12.315,5.57Z" style="fill:#e7a582;"/></g><path d="M4.033,7.702c-0.988,0.129 -1.979,-0.22 -2.666,-0.941c-0.688,-0.721 -0.991,-1.726 -0.816,-2.707c0.058,-0.244 0.128,-0.486 0.223,-0.723c2.021,-5.071 10.208,0.672 12.415,5.74c0.044,0.133 -0.002,0.279 -0.116,0.36c-0.113,0.082 -0.266,0.081 -0.378,-0.003c-2.129,-1.425 -5.32,-2.162 -8.662,-1.726Z" style="fill:none;stroke:#000;stroke-width:1px;"/></svg>