<?xml version="1.0" encoding="UTF-8" standalone="no"?><!DOCTYPE svg PUBLIC "-//W3C//DTD SVG 1.1//EN" "http://www.w3.org/Graphics/SVG/1.1/DTD/svg11.dtd"><svg width="100%" height="100%" viewBox="0 0 45 69" version="1.1" xmlns="http://www.w3.org/2000/svg" xmlns:xlink="http://www.w3.org/1999/xlink" xml:space="preserve" xmlns:serif="http://www.serif.com/" style="fill-rule:evenodd;clip-rule:evenodd;stroke-linejoin:round;stroke-miterlimit:1.41421;"><g id="wingR"><path d="M10.677,0.864c0,-0.001 0,-0.001 0.001,-0.001c0,0 0.001,0.001 0,0.001c-0.072,0.256 -1.863,6.629 -1.193,10.429c1.352,7.668 4.214,10.421 9.643,9.464c0,0 0.001,0 0.004,-0.001c0.177,-0.057 0.37,0.015 0.468,0.173c0.097,0.159 0.096,0.39 -0.057,0.496c-5.983,4.107 -0.988,15.158 6.828,13.759c0.156,-0.028 0.311,0.047 0.385,0.187c0.073,0.14 0.048,0.311 -0.064,0.423c-6.746,6.676 2.753,17.037 9.818,11.656c0.327,-0.25 0.76,0.306 0.865,0.703c0.969,3.493 3.241,6.583 6.553,8.565c0.382,0.223 0.521,0.707 0.316,1.099c-1.213,2.332 -5,9.583 -5,9.583c-7.817,-4.083 -16.85,-3.479 -23.877,0.8c-0.45,0.281 -1.041,0.172 -1.36,-0.252c-13.257,-17.805 -17.673,-40.001 -5.652,-63.017c0,0 2.214,-3.878 2.322,-4.067Z" style="fill:#6a2b2b;"/><clipPath id="_clip1"><path d="M10.677,0.864c0,-0.001 0,-0.001 0.001,-0.001c0,0 0.001,0.001 0,0.001c-0.072,0.256 -1.863,6.629 -1.193,10.429c1.352,7.668 4.214,10.421 9.643,9.464c0,0 0.001,0 0.004,-0.001c0.177,-0.057 0.37,0.015 0.468,0.173c0.097,0.159 0.096,0.39 -0.057,0.496c-5.983,4.107 -0.988,15.158 6.828,13.759c0.156,-0.028 0.311,0.047 0.385,0.187c0.073,0.14 0.048,0.311 -0.064,0.423c-6.746,6.676 2.753,17.037 9.818,11.656c0.327,-0.25 0.76,0.306 0.865,0.703c0.969,3.493 3.241,6.583 6.553,8.565c0.382,0.223 0.521,0.707 0.316,1.099c-1.213,2.332 -5,9.583 -5,9.583c-7.817,-4.083 -16.85,-3.479 -23.877,0.8c-0.45,0.281 -1.041,0.172 -1.36,-0.252c-13.257,-17.805 -17.673,-40.001 -5.652,-63.017c0,0 2.214,-3.878 2.322,-4.067Z"/></clipPath><g clip-path="url(#_clip1)"><path d="M16.111,-8.049c0.001,-0.001 0.001,-0.001 0.002,-0.001c0,0.001 0,0.001 0,0.002c-0.087,0.25 -2.25,6.508 -1.805,10.34c0.899,7.734 6.075,13.496 11.551,12.86c0,0 0.001,-0.001 0.004,-0.001c0.18,-0.047 0.369,0.036 0.457,0.2c0.088,0.164 0.052,0.367 -0.086,0.492c-1.189,1.082 -2.125,2.388 -2.747,3.896c-2.824,6.85 1.902,15.305 10.548,18.871c1.699,0.7 3.423,1.16 5.126,1.365c0.409,0.046 0.741,0.35 0.823,0.753c0.761,3.544 2.848,6.762 6.038,8.935c0.368,0.246 0.478,0.737 0.251,1.116c-1.348,2.256 -5.555,9.272 -5.555,9.272c-7.564,-4.535 -16.617,-4.463 -23.883,-0.604c-0.466,0.254 -1.049,0.11 -1.343,-0.332c-12.187,-18.553 -15.291,-40.971 -1.938,-63.24c0,0 2.438,-3.742 2.557,-3.924Z" style="fill:#402a2a;"/><clipPath id="_clip2"><path d="M16.111,-8.049c0.001,-0.001 0.001,-0.001 0.002,-0.001c0,0.001 0,0.001 0,0.002c-0.087,0.25 -2.25,6.508 -1.805,10.34c0.899,7.734 6.075,13.496 11.551,12.86c0,0 0.001,-0.001 0.004,-0.001c0.18,-0.047 0.369,0.036 0.457,0.2c0.088,0.164 0.052,0.367 -0.086,0.492c-1.189,1.082 -2.125,2.388 -2.747,3.896c-2.824,6.85 1.902,15.305 10.548,18.871c1.699,0.7 3.423,1.16 5.126,1.365c0.409,0.046 0.741,0.35 0.823,0.753c0.761,3.544 2.848,6.762 6.038,8.935c0.368,0.246 0.478,0.737 0.251,1.116c-1.348,2.256 -5.555,9.272 -5.555,9.272c-7.564,-4.535 -16.617,-4.463 -23.883,-0.604c-0.466,0.254 -1.049,0.11 -1.343,-0.332c-12.187,-18.553 -15.291,-40.971 -1.938,-63.24c0,0 2.438,-3.742 2.557,-3.924Z"/></clipPath><g clip-path="url(#_clip2)"><path d="M12.803,1.241c-2.122,0.974 -8.119,12.869 -4.311,14.312c-4.264,2.741 -2.071,6.708 0.258,4.47c3.874,1.357 8.6,0.963 13.734,-0.832c-7.375,5.811 -12.248,9.247 -13.901,12.224c-1.035,1.865 6.708,-0.274 7.201,-0.515c-13.784,5.923 0.809,6.366 15.577,2.613c-10.554,5.598 -16.499,9.579 -17.586,14.805c-0.532,2.563 5.133,2.823 6.789,0.71c-0.011,0.616 -3.155,5.842 -1.683,5.923c8.659,1.222 15.472,-3.216 22.175,-5.518l-11.387,19.065l-33.315,-1.235l3.188,-58.498l15.747,-15.031l-2.486,7.507Z" style="fill:#2d1c1c;"/></g><path d="M10.616,0.857c-3.015,6.542 -6.196,12.14 -6.974,22.303c-0.126,1.653 1.331,1.872 2.492,1.791c-1.208,0.175 -2.822,1.55 -2.658,2.466c-3.179,10.662 1.626,12.109 5.316,12.535c-6.672,1.772 -2.964,15.245 4.881,24.457c0.528,0.621 1.396,-1.633 1.962,-1.05c0.454,2.428 2.198,2.535 2.672,0.514c0.012,-0.049 -0.012,-0.141 0.037,-0.144c5.512,-0.31 7.789,-0.038 13.562,-1.985l-2.347,12.171l-45.955,-11.875l11.956,-51.16l15.056,-10.023Z" style="fill:#923f39;"/></g><path d="M10.677,0.864c0,-0.001 0,-0.001 0.001,-0.001c0,0 0.001,0.001 0,0.001c-0.072,0.256 -1.863,6.629 -1.193,10.429c1.352,7.668 4.214,10.421 9.643,9.464c0,0 0.001,0 0.004,-0.001c0.177,-0.057 0.37,0.015 0.468,0.173c0.097,0.159 0.096,0.39 -0.057,0.496c-5.983,4.107 -0.988,15.158 6.828,13.759c0.156,-0.028 0.311,0.047 0.385,0.187c0.073,0.14 0.048,0.311 -0.064,0.423c-6.746,6.676 2.753,17.037 9.818,11.656c0.327,-0.25 0.76,0.306 0.865,0.703c0.969,3.493 3.241,6.583 6.553,8.565c0.382,0.223 0.521,0.707 0.316,1.099c-1.213,2.332 -5,9.583 -5,9.583c-7.817,-4.083 -16.85,-3.479 -23.877,0.8c-0.45,0.281 -1.041,0.172 -1.36,-0.252c-13.257,-17.805 -17.673,-40.001 -5.652,-63.017c0,0 2.214,-3.878 2.322,-4.067Z" style="fill:none;stroke:#000;stroke-width:1px;"/><path d="M17.732,21.597c0.1,-0.011 0.192,0.053 0.214,0.151c0.022,0.097 -0.032,0.196 -0.126,0.229c-4.692,1.534 -7.23,4.017 -10.687,5.618c-1.176,0.526 -1.935,1.693 -1.938,2.982c-0.042,0.16 -0.042,0.324 -0.042,0.492c-0.007,3.088 2.324,5.681 5.396,6.002c4.346,0.4 9.642,-0.129 14.346,-1.056c0.123,-0.026 0.246,0.047 0.281,0.168c0.035,0.121 -0.03,0.249 -0.148,0.292c-3.028,1.09 -6.257,2.382 -9.266,3.814c-3.258,1.573 -5.695,4.455 -6.704,7.929c-1.01,3.474 -0.498,7.214 1.409,10.288c0.405,0.675 0.636,0.922 0.751,1.013c0.064,0.05 -1.558,-1.146 -1.815,-1.335c-0.022,-0.017 -0.041,-0.038 -0.054,-0.063c-5.932,-11.255 -9.167,-21.553 -5.487,-38.481c0,0 0,0 0.001,0c0.374,2.206 2.298,3.812 4.535,3.786c3.007,-0.035 5.906,-1.225 9.334,-1.829Z" style="fill:#6a2b2b;"/><clipPath id="_clip3"><path d="M17.732,21.597c0.1,-0.011 0.192,0.053 0.214,0.151c0.022,0.097 -0.032,0.196 -0.126,0.229c-4.692,1.534 -7.23,4.017 -10.687,5.618c-1.176,0.526 -1.935,1.693 -1.938,2.982c-0.042,0.16 -0.042,0.324 -0.042,0.492c-0.007,3.088 2.324,5.681 5.396,6.002c4.346,0.4 9.642,-0.129 14.346,-1.056c0.123,-0.026 0.246,0.047 0.281,0.168c0.035,0.121 -0.03,0.249 -0.148,0.292c-3.028,1.09 -6.257,2.382 -9.266,3.814c-3.258,1.573 -5.695,4.455 -6.704,7.929c-1.01,3.474 -0.498,7.214 1.409,10.288c0.405,0.675 0.636,0.922 0.751,1.013c0.064,0.05 -1.558,-1.146 -1.815,-1.335c-0.022,-0.017 -0.041,-0.038 -0.054,-0.063c-5.932,-11.255 -9.167,-21.553 -5.487,-38.481c0,0 0,0 0.001,0c0.374,2.206 2.298,3.812 4.535,3.786c3.007,-0.035 5.906,-1.225 9.334,-1.829Z"/></clipPath><g clip-path="url(#_clip3)"><path d="M10.616,0.857c-3.015,6.542 -6.196,12.14 -6.974,22.303c-0.126,1.653 1.331,1.872 2.492,1.791c-1.208,0.175 -2.822,1.55 -2.658,2.466c-3.179,10.662 1.626,12.109 5.316,12.535c-7.121,1.891 -2.685,16.432 6.289,25.667c4.792,-0.436 10.372,-1.698 16.825,-3.875l-2.347,12.171l-45.955,-11.875l11.956,-51.16l15.056,-10.023Z" style="fill:#923f39;"/></g><path d="M34.925,57.526c-5.217,-1.755 -11.48,-0.952 -18.586,1.912c-0.123,0.05 -0.265,0.02 -0.357,-0.076c-2.911,-3.027 -4.741,-6.662 -6.204,-10.505c-0.513,-1.354 -0.326,-2.875 0.5,-4.065c2.416,-3.16 8.037,-5.95 14.877,-8.583c-5.29,0.794 -10.288,1.032 -14.995,0.717c-0.96,-0.066 -1.881,-0.402 -2.658,-0.969c-1.088,-0.833 -1.751,-1.861 -2.038,-3.092c-0.452,-2.015 0.363,-4.102 2.06,-5.277c2.382,-1.495 6.23,-3.605 10.245,-5.788c0.004,-0.003 0.006,-0.008 0.004,-0.012c-0.002,-0.005 -0.007,-0.007 -0.011,-0.006c-3.532,0.989 -6.845,1.462 -10.007,1.582c-0.015,0.002 -0.029,0.004 -0.044,0.007c-0.594,0.073 -2.628,-1 -2.858,-1.373c-0.739,-1.198 4.734,-20.262 5.163,-19.611" style="fill:none;stroke:#000;stroke-width:1px;stroke-linecap:round;stroke-miterlimit:1.5;"/></g></svg>