<?xml version="1.0" encoding="UTF-8" standalone="no"?><!DOCTYPE svg PUBLIC "-//W3C//DTD SVG 1.1//EN" "http://www.w3.org/Graphics/SVG/1.1/DTD/svg11.dtd"><svg width="100%" height="100%" viewBox="0 0 14 26" version="1.1" xmlns="http://www.w3.org/2000/svg" xmlns:xlink="http://www.w3.org/1999/xlink" xml:space="preserve" xmlns:serif="http://www.serif.com/" style="fill-rule:evenodd;clip-rule:evenodd;stroke-linejoin:round;stroke-miterlimit:1.41421;"><path id="wingLHorn1" d="M2.078,7.334c-0.659,-1.62 -0.165,-3.481 1.212,-4.56c1.641,-1.319 3.334,-1.722 5.06,-1.436c9.197,1.523 2.184,17.651 -5.512,22.624c-0.123,0.07 -0.278,0.051 -0.38,-0.047c-0.103,-0.098 -0.13,-0.251 -0.066,-0.377c1.921,-4.213 2.027,-10.369 -0.314,-16.204Z" style="fill:#923f39;"/><clipPath id="_clip1"><path d="M2.078,7.334c-0.659,-1.62 -0.165,-3.481 1.212,-4.56c1.641,-1.319 3.334,-1.722 5.06,-1.436c9.197,1.523 2.184,17.651 -5.512,22.624c-0.123,0.07 -0.278,0.051 -0.38,-0.047c-0.103,-0.098 -0.13,-0.251 -0.066,-0.377c1.921,-4.213 2.027,-10.369 -0.314,-16.204Z"/></clipPath><g clip-path="url(#_clip1)"><path id="hornR" d="M2.203,24.085c0.01,0.024 0.025,0.046 0.044,0.065c0.063,0.062 0.158,0.076 0.235,0.034c7.833,-4.696 15.206,-21.3 5.868,-22.846c-0.935,-0.155 -1.861,-0.108 -2.775,0.176c1.47,1.905 2.602,3.589 0.598,4.886c3.873,1.5 3.711,3.218 0.207,5.115c1.39,1.577 3.327,4.418 -0.554,4.238c1.739,2.77 0.748,2.667 -1.193,3.327c0.445,2.643 -0.685,4.085 -2.43,5.005Z" style="fill:#c46751;"/><path d="M1.94,23.757c-0.016,0.032 -0.032,0.064 -0.049,0.096c-0.042,0.077 -0.025,0.173 0.04,0.235c0.066,0.062 0.166,0.076 0.246,0.035c8.132,-4.636 15.683,-21.205 5.926,-22.834c-1.265,-0.211 -2.509,-0.083 -3.729,0.458c0.73,-0.126 1.467,-0.119 2.212,0.005c9.242,1.543 2.955,16.491 -4.646,22.005Z" style="fill:#e7a582;"/></g><path d="M2.078,7.334c-0.659,-1.62 -0.165,-3.481 1.212,-4.56c1.641,-1.319 3.334,-1.722 5.06,-1.436c9.197,1.523 2.184,17.651 -5.512,22.624c-0.123,0.07 -0.278,0.051 -0.38,-0.047c-0.103,-0.098 -0.13,-0.251 -0.066,-0.377c1.921,-4.213 2.027,-10.369 -0.314,-16.204Z" style="fill:none;stroke:#000;stroke-width:1px;"/></svg>