<?xml version="1.0" encoding="UTF-8" standalone="no"?><!DOCTYPE svg PUBLIC "-//W3C//DTD SVG 1.1//EN" "http://www.w3.org/Graphics/SVG/1.1/DTD/svg11.dtd"><svg width="100%" height="100%" viewBox="0 0 16 25" version="1.1" xmlns="http://www.w3.org/2000/svg" xmlns:xlink="http://www.w3.org/1999/xlink" xml:space="preserve" xmlns:serif="http://www.serif.com/" style="fill-rule:evenodd;clip-rule:evenodd;stroke-linejoin:round;stroke-miterlimit:1.41421;"><path id="wingRHorn1" d="M13.228,10.832c1.561,-0.789 2.41,-2.517 2.08,-4.235c-0.371,-2.072 -1.384,-3.487 -2.874,-4.405c-7.936,-4.891 -13.237,11.878 -10.697,20.683c0.047,0.133 0.176,0.22 0.317,0.214c0.142,-0.007 0.263,-0.105 0.298,-0.242c1.317,-4.438 5.279,-9.151 10.876,-12.015Z" style="fill:#923f39;"/><clipPath id="_clip1"><path d="M13.228,10.832c1.561,-0.789 2.41,-2.517 2.08,-4.235c-0.371,-2.072 -1.384,-3.487 -2.874,-4.405c-7.936,-4.891 -13.237,11.878 -10.697,20.683c0.047,0.133 0.176,0.22 0.317,0.214c0.142,-0.007 0.263,-0.105 0.298,-0.242c1.317,-4.438 5.279,-9.151 10.876,-12.015Z"/></clipPath><g clip-path="url(#_clip1)"><path id="hornR" d="M2.135,23.384c-0.024,0.012 -0.049,0.019 -0.077,0.02c-0.087,0.006 -0.168,-0.047 -0.199,-0.129c-2.824,-8.684 2.517,-26.049 10.575,-21.083c0.808,0.497 1.475,1.14 1.978,1.954c-2.359,0.472 -4.319,0.999 -3.659,3.293c-3.906,-1.411 -4.912,-0.01 -3.514,3.722c-2.085,0.277 -5.411,1.147 -2.366,3.56c-3.131,0.948 -2.314,1.52 -1.284,3.293c-2.071,1.701 -2.166,3.531 -1.454,5.37Z" style="fill:#c46751;"/><path d="M2.845,23.479c-0.009,0.035 -0.017,0.07 -0.026,0.105c-0.018,0.086 -0.094,0.147 -0.188,0.149c-0.093,0.002 -0.182,-0.055 -0.218,-0.14c-3.367,-8.996 1.652,-26.545 10.47,-21.144c1.143,0.7 2.044,1.64 2.652,2.874c-0.495,-0.59 -1.084,-1.085 -1.757,-1.497c-8.352,-5.116 -13.297,10.36 -10.933,19.653Z" style="fill:#e7a582;"/></g><path d="M13.228,10.832c1.561,-0.789 2.41,-2.517 2.08,-4.235c-0.371,-2.072 -1.384,-3.487 -2.874,-4.405c-7.936,-4.891 -13.237,11.878 -10.697,20.683c0.047,0.133 0.176,0.22 0.317,0.214c0.142,-0.007 0.263,-0.105 0.298,-0.242c1.317,-4.438 5.279,-9.151 10.876,-12.015Z" style="fill:none;stroke:#000;stroke-width:1px;"/></svg>