<?xml version="1.0" encoding="UTF-8" standalone="no"?><!DOCTYPE svg PUBLIC "-//W3C//DTD SVG 1.1//EN" "http://www.w3.org/Graphics/SVG/1.1/DTD/svg11.dtd"><svg width="100%" height="100%" viewBox="0 0 67 51" version="1.1" xmlns="http://www.w3.org/2000/svg" xmlns:xlink="http://www.w3.org/1999/xlink" xml:space="preserve" xmlns:serif="http://www.serif.com/" style="fill-rule:evenodd;clip-rule:evenodd;stroke-linejoin:round;stroke-miterlimit:1.41421;"><g id="wingL"><path d="M66.207,1.207c0.001,0 0,-0.001 0,-0.001c-0.001,0 -0.001,0 -0.001,0.001c-0.113,0.239 -2.947,6.223 -5.948,8.649c-6.054,4.896 -10.021,5.093 -13.487,0.806c0,0 -0.001,-0.001 -0.002,-0.003c-0.096,-0.159 -0.289,-0.232 -0.467,-0.177c-0.177,0.056 -0.329,0.231 -0.282,0.411c1.815,7.027 -9.209,12.081 -14.185,5.894c-0.099,-0.123 -0.266,-0.169 -0.413,-0.112c-0.147,0.058 -0.24,0.204 -0.229,0.361c0.704,9.465 -13.264,11.043 -15.059,2.345c-0.083,-0.403 -0.774,-0.268 -1.114,-0.038c-3.024,1.999 -6.767,2.838 -10.566,2.158c-0.435,-0.083 -0.857,0.191 -0.96,0.621c-0.617,2.555 -2.522,10.51 -2.522,10.51c8.578,2.054 14.994,8.441 17.483,16.282c0.156,0.508 0.673,0.813 1.192,0.703c21.689,-4.724 39.594,-18.565 45.641,-43.817c0,0 0.877,-4.379 0.919,-4.593Z" style="fill:#6a2b2b;"/><clipPath id="_clip1"><path d="M66.207,1.207c0.001,0 0,-0.001 0,-0.001c-0.001,0 -0.001,0 -0.001,0.001c-0.113,0.239 -2.947,6.223 -5.948,8.649c-6.054,4.896 -10.021,5.093 -13.487,0.806c0,0 -0.001,-0.001 -0.002,-0.003c-0.096,-0.159 -0.289,-0.232 -0.467,-0.177c-0.177,0.056 -0.329,0.231 -0.282,0.411c1.815,7.027 -9.209,12.081 -14.185,5.894c-0.099,-0.123 -0.266,-0.169 -0.413,-0.112c-0.147,0.058 -0.24,0.204 -0.229,0.361c0.704,9.465 -13.264,11.043 -15.059,2.345c-0.083,-0.403 -0.774,-0.268 -1.114,-0.038c-3.024,1.999 -6.767,2.838 -10.566,2.158c-0.435,-0.083 -0.857,0.191 -0.96,0.621c-0.617,2.555 -2.522,10.51 -2.522,10.51c8.578,2.054 14.994,8.441 17.483,16.282c0.156,0.508 0.673,0.813 1.192,0.703c21.689,-4.724 39.594,-18.565 45.641,-43.817c0,0 0.877,-4.379 0.919,-4.593Z"/></clipPath><g clip-path="url(#_clip1)"><path d="M67.961,-9.084c0,0 0,-0.001 -0.001,-0.001c0,0 -0.001,0 -0.001,0.001c-0.099,0.246 -2.576,6.386 -5.429,8.984c-5.756,5.243 -13.443,6.19 -17.156,2.114c0,0 0,-0.001 -0.002,-0.002c-0.105,-0.154 -0.302,-0.215 -0.476,-0.149c-0.174,0.065 -0.28,0.242 -0.257,0.427c0.185,1.597 0.034,3.196 -0.487,4.742c-2.368,7.021 -11.485,10.295 -20.347,7.306c-1.741,-0.587 -3.343,-1.372 -4.762,-2.336c-0.339,-0.233 -0.789,-0.222 -1.115,0.028c-2.902,2.173 -6.588,3.231 -10.421,2.775c-0.439,-0.057 -0.845,0.241 -0.922,0.677c-0.465,2.587 -1.899,10.64 -1.899,10.64c8.683,1.546 15.464,7.545 18.41,15.226c0.185,0.498 0.719,0.772 1.231,0.632c21.374,-5.991 38.434,-20.861 42.986,-46.425c0,0 0.618,-4.423 0.648,-4.639Z" style="fill:#402a2a;"/><clipPath id="_clip2"><path d="M67.961,-9.084c0,0 0,-0.001 -0.001,-0.001c0,0 -0.001,0 -0.001,0.001c-0.099,0.246 -2.576,6.386 -5.429,8.984c-5.756,5.243 -13.443,6.19 -17.156,2.114c0,0 0,-0.001 -0.002,-0.002c-0.105,-0.154 -0.302,-0.215 -0.476,-0.149c-0.174,0.065 -0.28,0.242 -0.257,0.427c0.185,1.597 0.034,3.196 -0.487,4.742c-2.368,7.021 -11.485,10.295 -20.347,7.306c-1.741,-0.587 -3.343,-1.372 -4.762,-2.336c-0.339,-0.233 -0.789,-0.222 -1.115,0.028c-2.902,2.173 -6.588,3.231 -10.421,2.775c-0.439,-0.057 -0.845,0.241 -0.922,0.677c-0.465,2.587 -1.899,10.64 -1.899,10.64c8.683,1.546 15.464,7.545 18.41,15.226c0.185,0.498 0.719,0.772 1.231,0.632c21.374,-5.991 38.434,-20.861 42.986,-46.425c0,0 0.618,-4.423 0.648,-4.639Z"/></clipPath><g clip-path="url(#_clip2)"><path d="M64.356,0.095c0.96,2.129 -2.326,15.037 -6.146,13.626c1.416,4.867 -2.843,6.419 -3.13,3.202c-3.812,-1.521 -7.118,-4.921 -9.812,-9.646c1.747,9.225 3.166,15.016 2.458,18.347c-0.444,2.087 -4.879,-4.611 -5.093,-5.116c6.507,13.518 -4.79,4.27 -13.464,-8.258c4.284,11.152 6.154,18.059 3.542,22.714c-1.281,2.283 -5.725,-1.241 -5.586,-3.922c-0.396,0.471 -1.456,6.478 -2.62,5.572c-7.333,-4.764 -9.558,-12.585 -13.102,-18.723l-3.93,21.857l25.938,20.943l36.006,-46.214l-2.007,-21.676l-3.054,7.294Z" style="fill:#2d1c1c;"/></g><path d="M66.258,1.241c-2.022,6.915 -3.299,13.226 -9.385,21.401c-0.99,1.33 -2.233,0.538 -3.055,-0.285c0.796,0.925 1.111,3.022 0.386,3.605c-4.604,10.13 -9.178,8.065 -12.242,5.964c3.87,5.717 -7.773,13.444 -19.739,15.242c-0.806,0.121 0.019,-2.149 -0.791,-2.081c-1.936,1.533 -3.322,0.468 -2.352,-1.367c0.023,-0.045 0.101,-0.099 0.066,-0.132c-3.954,-3.854 -5.85,-5.144 -8.925,-10.403l-6.222,10.722l42.458,21.218l24.575,-46.437l-4.774,-17.447Z" style="fill:#923f39;"/></g><path d="M66.207,1.207c0.001,0 0,-0.001 0,-0.001c-0.001,0 -0.001,0 -0.001,0.001c-0.113,0.239 -2.947,6.223 -5.948,8.649c-6.054,4.896 -10.021,5.093 -13.487,0.806c0,0 -0.001,-0.001 -0.002,-0.003c-0.096,-0.159 -0.289,-0.232 -0.467,-0.177c-0.177,0.056 -0.329,0.231 -0.282,0.411c1.815,7.027 -9.209,12.081 -14.185,5.894c-0.099,-0.123 -0.266,-0.169 -0.413,-0.112c-0.147,0.058 -0.24,0.204 -0.229,0.361c0.704,9.465 -13.264,11.043 -15.059,2.345c-0.083,-0.403 -0.774,-0.268 -1.114,-0.038c-3.024,1.999 -6.767,2.838 -10.566,2.158c-0.435,-0.083 -0.857,0.191 -0.96,0.621c-0.617,2.555 -2.522,10.51 -2.522,10.51c8.578,2.054 14.994,8.441 17.483,16.282c0.156,0.508 0.673,0.813 1.192,0.703c21.689,-4.724 39.594,-18.565 45.641,-43.817c0,0 0.877,-4.379 0.919,-4.593Z" style="fill:none;stroke:#000;stroke-width:1px;"/><path d="M47.272,12.212c-0.067,-0.074 -0.179,-0.085 -0.26,-0.027c-0.081,0.059 -0.105,0.169 -0.055,0.256c2.531,4.238 2.815,7.777 4.371,11.255c0.542,1.169 0.348,2.547 -0.497,3.521c-0.073,0.148 -0.181,0.272 -0.29,0.399c-2.023,2.333 -5.484,2.758 -8.012,0.983c-3.541,-2.552 -7.187,-6.428 -10.127,-10.216c-0.075,-0.101 -0.216,-0.126 -0.322,-0.058c-0.106,0.069 -0.141,0.207 -0.08,0.318c1.568,2.809 3.155,5.903 4.484,8.958c1.424,3.327 1.37,7.101 -0.15,10.385c-1.52,3.284 -4.362,5.768 -7.82,6.835c-0.747,0.243 -1.082,0.277 -1.228,0.27c-0.082,-0.004 1.927,0.159 2.245,0.185c0.027,0.002 0.055,-0.002 0.081,-0.012c11.865,-4.594 21.067,-10.237 29.406,-25.421c0,0 0,0 0,0c-1.731,1.418 -4.236,1.366 -5.907,-0.122c-2.245,-2.002 -3.65,-4.803 -5.839,-7.509Z" style="fill:#6a2b2b;"/><clipPath id="_clip3"><path d="M47.272,12.212c-0.067,-0.074 -0.179,-0.085 -0.26,-0.027c-0.081,0.059 -0.105,0.169 -0.055,0.256c2.531,4.238 2.815,7.777 4.371,11.255c0.542,1.169 0.348,2.547 -0.497,3.521c-0.073,0.148 -0.181,0.272 -0.29,0.399c-2.023,2.333 -5.484,2.758 -8.012,0.983c-3.541,-2.552 -7.187,-6.428 -10.127,-10.216c-0.075,-0.101 -0.216,-0.126 -0.322,-0.058c-0.106,0.069 -0.141,0.207 -0.08,0.318c1.568,2.809 3.155,5.903 4.484,8.958c1.424,3.327 1.37,7.101 -0.15,10.385c-1.52,3.284 -4.362,5.768 -7.82,6.835c-0.747,0.243 -1.082,0.277 -1.228,0.27c-0.082,-0.004 1.927,0.159 2.245,0.185c0.027,0.002 0.055,-0.002 0.081,-0.012c11.865,-4.594 21.067,-10.237 29.406,-25.421c0,0 0,0 0,0c-1.731,1.418 -4.236,1.366 -5.907,-0.122c-2.245,-2.002 -3.65,-4.803 -5.839,-7.509Z"/></clipPath><g clip-path="url(#_clip3)"><path d="M66.258,1.241c-2.022,6.915 -3.299,13.226 -9.385,21.401c-0.99,1.33 -2.233,0.538 -3.055,-0.285c0.796,0.925 1.111,3.022 0.386,3.605c-4.604,10.13 -9.178,8.065 -12.242,5.964c4.13,6.102 -8.763,14.157 -21.596,15.23c-3.328,-3.476 -6.707,-8.092 -10.145,-13.971l-6.222,10.722l42.458,21.218l24.575,-46.437l-4.774,-17.447Z" style="fill:#923f39;"/></g><path d="M10.714,28.021c5.086,2.103 9.283,6.82 12.762,13.647c0.06,0.118 0.186,0.188 0.319,0.177c4.183,-0.372 7.951,-1.912 11.577,-3.85c1.276,-0.685 2.134,-1.954 2.292,-3.394c0.253,-3.97 -2.155,-9.765 -5.585,-16.242c3.468,4.072 7.081,7.533 10.838,10.386c0.767,0.581 1.683,0.933 2.642,1.015c1.368,0.086 2.543,-0.255 3.567,-0.994c1.664,-1.222 2.42,-3.332 1.911,-5.333c-0.814,-2.691 -2.331,-6.809 -3.926,-11.092c-0.001,-0.005 0.001,-0.01 0.005,-0.012c0.004,-0.002 0.01,-0.001 0.012,0.003c2.015,3.065 4.203,5.597 6.509,7.764c0.01,0.011 0.02,0.022 0.028,0.034c0.401,0.445 2.639,0.971 3.057,0.841c1.344,-0.419 9.735,-18.391 8.984,-18.181" style="fill:none;stroke:#000;stroke-width:1px;stroke-linecap:round;stroke-miterlimit:1.5;"/></g></svg>