<?xml version="1.0" encoding="UTF-8" standalone="no"?><!DOCTYPE svg PUBLIC "-//W3C//DTD SVG 1.1//EN" "http://www.w3.org/Graphics/SVG/1.1/DTD/svg11.dtd"><svg width="100%" height="100%" viewBox="0 0 45 69" version="1.1" xmlns="http://www.w3.org/2000/svg" xmlns:xlink="http://www.w3.org/1999/xlink" xml:space="preserve" xmlns:serif="http://www.serif.com/" style="fill-rule:evenodd;clip-rule:evenodd;stroke-linejoin:round;stroke-miterlimit:1.41421;"><g id="wingR"><path d="M10.153,0.99c0,0 0,-0.001 0.001,0c0,0 0.001,0 0,0.001c-0.072,0.255 -1.863,6.629 -1.193,10.429c1.352,7.667 4.214,10.421 9.643,9.463c0,0 0.001,0 0.004,-0.001c0.177,-0.057 0.37,0.015 0.467,0.173c0.098,0.159 0.097,0.391 -0.056,0.496c-5.983,4.108 -0.988,15.158 6.828,13.759c0.156,-0.028 0.311,0.047 0.385,0.187c0.073,0.14 0.047,0.311 -0.064,0.423c-6.746,6.676 2.753,17.037 9.818,11.656c0.327,-0.249 0.76,0.306 0.865,0.703c0.969,3.493 3.241,6.584 6.553,8.565c0.382,0.223 0.521,0.707 0.316,1.099c-1.213,2.332 -5,9.583 -5,9.583c-7.818,-4.083 -16.85,-3.479 -23.877,0.801c-0.45,0.281 -1.041,0.171 -1.36,-0.253c-13.257,-17.804 -17.673,-40 -5.652,-63.016c0,0 2.214,-3.879 2.322,-4.068Z" style="fill:#6a2b2b;"/><clipPath id="_clip1"><path d="M10.153,0.99c0,0 0,-0.001 0.001,0c0,0 0.001,0 0,0.001c-0.072,0.255 -1.863,6.629 -1.193,10.429c1.352,7.667 4.214,10.421 9.643,9.463c0,0 0.001,0 0.004,-0.001c0.177,-0.057 0.37,0.015 0.467,0.173c0.098,0.159 0.097,0.391 -0.056,0.496c-5.983,4.108 -0.988,15.158 6.828,13.759c0.156,-0.028 0.311,0.047 0.385,0.187c0.073,0.14 0.047,0.311 -0.064,0.423c-6.746,6.676 2.753,17.037 9.818,11.656c0.327,-0.249 0.76,0.306 0.865,0.703c0.969,3.493 3.241,6.584 6.553,8.565c0.382,0.223 0.521,0.707 0.316,1.099c-1.213,2.332 -5,9.583 -5,9.583c-7.818,-4.083 -16.85,-3.479 -23.877,0.801c-0.45,0.281 -1.041,0.171 -1.36,-0.253c-13.257,-17.804 -17.673,-40 -5.652,-63.016c0,0 2.214,-3.879 2.322,-4.068Z"/></clipPath><g clip-path="url(#_clip1)"><path d="M15.587,-7.923c0.001,0 0.001,0 0.002,0c0,0 0,0 0,0.001c-0.087,0.25 -2.25,6.508 -1.805,10.341c0.899,7.733 6.075,13.495 11.551,12.859c0,0 0.001,0 0.004,-0.001c0.18,-0.046 0.369,0.036 0.457,0.2c0.088,0.164 0.052,0.367 -0.086,0.492c-1.189,1.083 -2.125,2.388 -2.747,3.896c-2.825,6.85 1.902,15.306 10.548,18.871c1.699,0.7 3.423,1.16 5.126,1.365c0.409,0.046 0.741,0.35 0.822,0.753c0.762,3.544 2.848,6.763 6.038,8.936c0.368,0.245 0.479,0.736 0.252,1.115c-1.348,2.257 -5.555,9.273 -5.555,9.273c-7.564,-4.536 -16.617,-4.464 -23.883,-0.605c-0.466,0.254 -1.049,0.11 -1.343,-0.332c-12.187,-18.553 -15.291,-40.97 -1.938,-63.24c0,0 2.438,-3.742 2.557,-3.924Z" style="fill:#402a2a;"/><clipPath id="_clip2"><path d="M15.587,-7.923c0.001,0 0.001,0 0.002,0c0,0 0,0 0,0.001c-0.087,0.25 -2.25,6.508 -1.805,10.341c0.899,7.733 6.075,13.495 11.551,12.859c0,0 0.001,0 0.004,-0.001c0.18,-0.046 0.369,0.036 0.457,0.2c0.088,0.164 0.052,0.367 -0.086,0.492c-1.189,1.083 -2.125,2.388 -2.747,3.896c-2.825,6.85 1.902,15.306 10.548,18.871c1.699,0.7 3.423,1.16 5.126,1.365c0.409,0.046 0.741,0.35 0.822,0.753c0.762,3.544 2.848,6.763 6.038,8.936c0.368,0.245 0.479,0.736 0.252,1.115c-1.348,2.257 -5.555,9.273 -5.555,9.273c-7.564,-4.536 -16.617,-4.464 -23.883,-0.605c-0.466,0.254 -1.049,0.11 -1.343,-0.332c-12.187,-18.553 -15.291,-40.97 -1.938,-63.24c0,0 2.438,-3.742 2.557,-3.924Z"/></clipPath><g clip-path="url(#_clip2)"><path d="M12.279,1.367c-2.122,0.975 -8.119,12.869 -4.311,14.313c-4.264,2.74 -2.071,6.708 0.258,4.469c3.874,1.357 8.6,0.963 13.734,-0.832c-7.375,5.811 -12.248,9.247 -13.901,12.224c-1.035,1.865 6.708,-0.274 7.201,-0.515c-13.785,5.924 0.809,6.366 15.577,2.613c-10.554,5.598 -16.499,9.58 -17.586,14.806c-0.533,2.562 5.132,2.823 6.789,0.709c-0.011,0.616 -3.155,5.842 -1.683,5.923c8.659,1.222 15.472,-3.216 22.175,-5.518l-11.387,19.065l-33.315,-1.235l3.188,-58.498l15.747,-15.031l-2.486,7.507Z" style="fill:#2d1c1c;"/></g><path d="M10.092,0.983c-3.015,6.542 -6.196,12.14 -6.974,22.303c-0.126,1.653 1.331,1.872 2.492,1.791c-1.208,0.175 -2.822,1.55 -2.658,2.466c-3.179,10.663 1.626,12.109 5.316,12.535c-6.672,1.772 -2.964,15.245 4.881,24.458c0.528,0.62 1.396,-1.633 1.962,-1.051c0.454,2.428 2.198,2.535 2.672,0.514c0.012,-0.049 -0.012,-0.141 0.037,-0.143c5.512,-0.311 7.789,-0.038 13.561,-1.986l-2.347,12.172l-45.954,-11.875l11.956,-51.161l15.056,-10.023Z" style="fill:#923f39;"/></g><path d="M10.153,0.99c0,0 0,-0.001 0.001,0c0,0 0.001,0 0,0.001c-0.072,0.255 -1.863,6.629 -1.193,10.429c1.352,7.667 4.214,10.421 9.643,9.463c0,0 0.001,0 0.004,-0.001c0.177,-0.057 0.37,0.015 0.467,0.173c0.098,0.159 0.097,0.391 -0.056,0.496c-5.983,4.108 -0.988,15.158 6.828,13.759c0.156,-0.028 0.311,0.047 0.385,0.187c0.073,0.14 0.047,0.311 -0.064,0.423c-6.746,6.676 2.753,17.037 9.818,11.656c0.327,-0.249 0.76,0.306 0.865,0.703c0.969,3.493 3.241,6.584 6.553,8.565c0.382,0.223 0.521,0.707 0.316,1.099c-1.213,2.332 -5,9.583 -5,9.583c-7.818,-4.083 -16.85,-3.479 -23.877,0.801c-0.45,0.281 -1.041,0.171 -1.36,-0.253c-13.257,-17.804 -17.673,-40 -5.652,-63.016c0,0 2.214,-3.879 2.322,-4.068Z" style="fill:none;stroke:#000;stroke-width:1px;"/><path d="M17.208,21.723c0.1,-0.011 0.191,0.054 0.214,0.151c0.022,0.097 -0.032,0.196 -0.126,0.229c-4.692,1.534 -7.23,4.017 -10.687,5.619c-1.176,0.525 -1.935,1.693 -1.938,2.981c-0.042,0.16 -0.042,0.325 -0.042,0.492c-0.007,3.089 2.324,5.681 5.396,6.002c4.346,0.4 9.642,-0.129 14.346,-1.056c0.123,-0.026 0.246,0.047 0.281,0.168c0.035,0.122 -0.03,0.249 -0.148,0.292c-3.028,1.09 -6.257,2.382 -9.266,3.814c-3.258,1.573 -5.695,4.456 -6.704,7.93c-1.01,3.474 -0.498,7.213 1.409,10.287c0.405,0.676 0.636,0.922 0.751,1.013c0.064,0.05 -1.558,-1.145 -1.815,-1.335c-0.022,-0.016 -0.041,-0.038 -0.054,-0.062c-5.932,-11.256 -9.167,-21.554 -5.487,-38.482c0,0 0,0 0,0.001c0.375,2.205 2.299,3.811 4.536,3.786c3.007,-0.036 5.906,-1.226 9.334,-1.83Z" style="fill:#6a2b2b;"/><clipPath id="_clip3"><path d="M17.208,21.723c0.1,-0.011 0.191,0.054 0.214,0.151c0.022,0.097 -0.032,0.196 -0.126,0.229c-4.692,1.534 -7.23,4.017 -10.687,5.619c-1.176,0.525 -1.935,1.693 -1.938,2.981c-0.042,0.16 -0.042,0.325 -0.042,0.492c-0.007,3.089 2.324,5.681 5.396,6.002c4.346,0.4 9.642,-0.129 14.346,-1.056c0.123,-0.026 0.246,0.047 0.281,0.168c0.035,0.122 -0.03,0.249 -0.148,0.292c-3.028,1.09 -6.257,2.382 -9.266,3.814c-3.258,1.573 -5.695,4.456 -6.704,7.93c-1.01,3.474 -0.498,7.213 1.409,10.287c0.405,0.676 0.636,0.922 0.751,1.013c0.064,0.05 -1.558,-1.145 -1.815,-1.335c-0.022,-0.016 -0.041,-0.038 -0.054,-0.062c-5.932,-11.256 -9.167,-21.554 -5.487,-38.482c0,0 0,0 0,0.001c0.375,2.205 2.299,3.811 4.536,3.786c3.007,-0.036 5.906,-1.226 9.334,-1.83Z"/></clipPath><g clip-path="url(#_clip3)"><path d="M10.092,0.983c-3.015,6.542 -6.196,12.14 -6.974,22.303c-0.126,1.653 1.331,1.872 2.492,1.791c-1.208,0.175 -2.822,1.55 -2.658,2.466c-3.179,10.663 1.626,12.109 5.316,12.535c-7.121,1.891 -2.685,16.432 6.289,25.667c4.792,-0.436 10.372,-1.698 16.824,-3.875l-2.347,12.172l-45.954,-11.875l11.956,-51.161l15.056,-10.023Z" style="fill:#923f39;"/></g><path d="M34.401,57.652c-5.217,-1.754 -11.48,-0.952 -18.586,1.912c-0.123,0.05 -0.265,0.02 -0.357,-0.075c-2.911,-3.027 -4.741,-6.663 -6.204,-10.506c-0.513,-1.354 -0.326,-2.874 0.5,-4.064c2.416,-3.16 8.036,-5.95 14.877,-8.584c-5.29,0.794 -10.288,1.032 -14.995,0.718c-0.96,-0.066 -1.881,-0.402 -2.658,-0.97c-1.088,-0.833 -1.751,-1.861 -2.038,-3.092c-0.452,-2.014 0.363,-4.102 2.06,-5.277c2.382,-1.495 6.23,-3.605 10.245,-5.788c0.004,-0.002 0.006,-0.007 0.004,-0.012c-0.002,-0.005 -0.007,-0.007 -0.011,-0.006c-3.532,0.989 -6.845,1.463 -10.007,1.583c-0.015,0.001 -0.029,0.003 -0.044,0.006c-0.594,0.073 -2.628,-1 -2.858,-1.373c-0.739,-1.198 4.734,-20.262 5.163,-19.611" style="fill:none;stroke:#000;stroke-width:1px;stroke-linecap:round;stroke-miterlimit:1.5;"/></g></svg>