<?xml version="1.0" encoding="UTF-8" standalone="no"?><!DOCTYPE svg PUBLIC "-//W3C//DTD SVG 1.1//EN" "http://www.w3.org/Graphics/SVG/1.1/DTD/svg11.dtd"><svg width="100%" height="100%" viewBox="0 0 68 50" version="1.1" xmlns="http://www.w3.org/2000/svg" xmlns:xlink="http://www.w3.org/1999/xlink" xml:space="preserve" xmlns:serif="http://www.serif.com/" style="fill-rule:evenodd;clip-rule:evenodd;stroke-linejoin:round;stroke-miterlimit:1.41421;"><g id="wingL"><path d="M66.717,0.649c0,0 0,-0.001 0,-0.001c-0.001,0 -0.001,0 -0.002,0.001c-0.114,0.239 -2.993,6.201 -6.011,8.605c-6.091,4.85 -10.059,5.018 -13.493,0.705c0,0 -0.001,-0.001 -0.002,-0.003c-0.095,-0.16 -0.287,-0.235 -0.465,-0.18c-0.178,0.054 -0.331,0.228 -0.286,0.409c1.763,7.04 -9.298,12.012 -14.229,5.788c-0.097,-0.125 -0.264,-0.171 -0.411,-0.115c-0.148,0.056 -0.242,0.201 -0.232,0.359c0.633,9.47 -13.346,10.943 -15.076,2.232c-0.08,-0.403 -0.772,-0.273 -1.114,-0.045c-3.039,1.976 -6.788,2.787 -10.582,2.078c-0.434,-0.086 -0.858,0.185 -0.965,0.614c-0.635,2.55 -2.599,10.492 -2.599,10.492c8.562,2.117 14.93,8.551 17.361,16.411c0.152,0.509 0.667,0.818 1.187,0.712c21.723,-4.562 39.731,-18.27 45.966,-43.476c0,0 0.909,-4.373 0.953,-4.586Z" style="fill:#6a2b2b;"/><clipPath id="_clip1"><path d="M66.717,0.649c0,0 0,-0.001 0,-0.001c-0.001,0 -0.001,0 -0.002,0.001c-0.114,0.239 -2.993,6.201 -6.011,8.605c-6.091,4.85 -10.059,5.018 -13.493,0.705c0,0 -0.001,-0.001 -0.002,-0.003c-0.095,-0.16 -0.287,-0.235 -0.465,-0.18c-0.178,0.054 -0.331,0.228 -0.286,0.409c1.763,7.04 -9.298,12.012 -14.229,5.788c-0.097,-0.125 -0.264,-0.171 -0.411,-0.115c-0.148,0.056 -0.242,0.201 -0.232,0.359c0.633,9.47 -13.346,10.943 -15.076,2.232c-0.08,-0.403 -0.772,-0.273 -1.114,-0.045c-3.039,1.976 -6.788,2.787 -10.582,2.078c-0.434,-0.086 -0.858,0.185 -0.965,0.614c-0.635,2.55 -2.599,10.492 -2.599,10.492c8.562,2.117 14.93,8.551 17.361,16.411c0.152,0.509 0.667,0.818 1.187,0.712c21.723,-4.562 39.731,-18.27 45.966,-43.476c0,0 0.909,-4.373 0.953,-4.586Z"/></clipPath><g clip-path="url(#_clip1)"><path d="M68.547,-9.628c0,-0.001 0,-0.001 0,-0.001c-0.001,0 -0.001,0 -0.002,0c-0.1,0.246 -2.623,6.367 -5.495,8.944c-5.795,5.2 -13.489,6.09 -17.171,1.986c0,0 -0.001,-0.001 -0.002,-0.003c-0.104,-0.154 -0.3,-0.217 -0.475,-0.152c-0.174,0.065 -0.282,0.24 -0.261,0.425c0.174,1.598 0.011,3.197 -0.522,4.738c-2.42,7.003 -11.561,10.209 -20.401,7.155c-1.736,-0.6 -3.333,-1.397 -4.745,-2.371c-0.336,-0.236 -0.786,-0.228 -1.114,0.02c-2.918,2.151 -6.613,3.181 -10.442,2.696c-0.438,-0.059 -0.846,0.235 -0.927,0.67c-0.484,2.584 -1.978,10.627 -1.978,10.627c8.671,1.61 15.407,7.659 18.296,15.362c0.181,0.499 0.713,0.777 1.227,0.641c21.417,-5.832 38.588,-20.574 43.33,-46.103c0,0 0.651,-4.419 0.682,-4.634Z" style="fill:#402a2a;"/><clipPath id="_clip2"><path d="M68.547,-9.628c0,-0.001 0,-0.001 0,-0.001c-0.001,0 -0.001,0 -0.002,0c-0.1,0.246 -2.623,6.367 -5.495,8.944c-5.795,5.2 -13.489,6.09 -17.171,1.986c0,0 -0.001,-0.001 -0.002,-0.003c-0.104,-0.154 -0.3,-0.217 -0.475,-0.152c-0.174,0.065 -0.282,0.24 -0.261,0.425c0.174,1.598 0.011,3.197 -0.522,4.738c-2.42,7.003 -11.561,10.209 -20.401,7.155c-1.736,-0.6 -3.333,-1.397 -4.745,-2.371c-0.336,-0.236 -0.786,-0.228 -1.114,0.02c-2.918,2.151 -6.613,3.181 -10.442,2.696c-0.438,-0.059 -0.846,0.235 -0.927,0.67c-0.484,2.584 -1.978,10.627 -1.978,10.627c8.671,1.61 15.407,7.659 18.296,15.362c0.181,0.499 0.713,0.777 1.227,0.641c21.417,-5.832 38.588,-20.574 43.33,-46.103c0,0 0.651,-4.419 0.682,-4.634Z"/></clipPath><g clip-path="url(#_clip2)"><path d="M64.874,-0.477c0.945,2.136 -2.438,15.02 -6.247,13.58c1.38,4.877 -2.891,6.398 -3.154,3.179c-3.801,-1.549 -7.081,-4.974 -9.739,-9.719c1.677,9.238 3.053,15.039 2.32,18.365c-0.459,2.083 -4.844,-4.647 -5.054,-5.155c6.406,13.567 -4.822,4.235 -13.403,-8.357c4.201,11.183 6.02,18.104 3.373,22.74c-1.298,2.273 -5.715,-1.284 -5.557,-3.964c-0.399,0.468 -1.504,6.467 -2.66,5.552c-7.298,-4.818 -9.464,-12.655 -12.963,-18.819l-4.093,21.826l25.782,21.137l36.349,-45.945l-1.845,-21.691l-3.109,7.271Z" style="fill:#2d1c1c;"/></g><path d="M66.767,0.684c-2.073,6.899 -3.396,13.2 -9.544,21.33c-0.999,1.323 -2.237,0.522 -3.053,-0.307c0.789,0.93 1.089,3.03 0.359,3.607c-4.679,10.095 -9.237,7.997 -12.285,5.872c3.827,5.747 -7.873,13.387 -19.853,15.095c-0.806,0.115 0.036,-2.148 -0.775,-2.087c-1.947,1.518 -3.325,0.444 -2.342,-1.385c0.024,-0.044 0.102,-0.097 0.068,-0.131c-3.925,-3.883 -5.812,-5.187 -8.847,-10.469l-6.302,10.675l42.298,21.534l24.92,-46.253l-4.644,-17.481Z" style="fill:#923f39;"/></g><path d="M66.717,0.649c0,0 0,-0.001 0,-0.001c-0.001,0 -0.001,0 -0.002,0.001c-0.114,0.239 -2.993,6.201 -6.011,8.605c-6.091,4.85 -10.059,5.018 -13.493,0.705c0,0 -0.001,-0.001 -0.002,-0.003c-0.095,-0.16 -0.287,-0.235 -0.465,-0.18c-0.178,0.054 -0.331,0.228 -0.286,0.409c1.763,7.04 -9.298,12.012 -14.229,5.788c-0.097,-0.125 -0.264,-0.171 -0.411,-0.115c-0.148,0.056 -0.242,0.201 -0.232,0.359c0.633,9.47 -13.346,10.943 -15.076,2.232c-0.08,-0.403 -0.772,-0.273 -1.114,-0.045c-3.039,1.976 -6.788,2.787 -10.582,2.078c-0.434,-0.086 -0.858,0.185 -0.965,0.614c-0.635,2.55 -2.599,10.492 -2.599,10.492c8.562,2.117 14.93,8.551 17.361,16.411c0.152,0.509 0.667,0.818 1.187,0.712c21.723,-4.562 39.731,-18.27 45.966,-43.476c0,0 0.909,-4.373 0.953,-4.586Z" style="fill:none;stroke:#000;stroke-width:1px;"/><path d="M47.7,11.512c-0.066,-0.074 -0.178,-0.086 -0.259,-0.028c-0.082,0.058 -0.106,0.168 -0.057,0.255c2.499,4.257 2.757,7.798 4.286,11.287c0.534,1.173 0.329,2.55 -0.522,3.518c-0.074,0.147 -0.183,0.271 -0.294,0.396c-2.04,2.319 -5.504,2.718 -8.018,0.924c-3.522,-2.578 -7.139,-6.482 -10.051,-10.291c-0.074,-0.102 -0.215,-0.128 -0.321,-0.06c-0.107,0.067 -0.143,0.206 -0.083,0.317c1.547,2.821 3.111,5.926 4.417,8.991c1.4,3.337 1.317,7.111 -0.227,10.383c-1.545,3.273 -4.406,5.736 -7.871,6.777c-0.748,0.237 -1.084,0.269 -1.23,0.261c-0.082,-0.005 1.925,0.173 2.243,0.201c0.028,0.003 0.056,-0.001 0.082,-0.011c11.899,-4.505 21.142,-10.08 29.595,-25.201c0,0 -0.001,0 -0.001,0c-1.741,1.405 -4.246,1.334 -5.905,-0.166c-2.23,-2.018 -3.614,-4.83 -5.784,-7.553Z" style="fill:#6a2b2b;"/><clipPath id="_clip3"><path d="M47.7,11.512c-0.066,-0.074 -0.178,-0.086 -0.259,-0.028c-0.082,0.058 -0.106,0.168 -0.057,0.255c2.499,4.257 2.757,7.798 4.286,11.287c0.534,1.173 0.329,2.55 -0.522,3.518c-0.074,0.147 -0.183,0.271 -0.294,0.396c-2.04,2.319 -5.504,2.718 -8.018,0.924c-3.522,-2.578 -7.139,-6.482 -10.051,-10.291c-0.074,-0.102 -0.215,-0.128 -0.321,-0.06c-0.107,0.067 -0.143,0.206 -0.083,0.317c1.547,2.821 3.111,5.926 4.417,8.991c1.4,3.337 1.317,7.111 -0.227,10.383c-1.545,3.273 -4.406,5.736 -7.871,6.777c-0.748,0.237 -1.084,0.269 -1.23,0.261c-0.082,-0.005 1.925,0.173 2.243,0.201c0.028,0.003 0.056,-0.001 0.082,-0.011c11.899,-4.505 21.142,-10.08 29.595,-25.201c0,0 -0.001,0 -0.001,0c-1.741,1.405 -4.246,1.334 -5.905,-0.166c-2.23,-2.018 -3.614,-4.83 -5.784,-7.553Z"/></clipPath><g clip-path="url(#_clip3)"><path d="M66.767,0.684c-2.073,6.899 -3.396,13.2 -9.544,21.33c-0.999,1.323 -2.237,0.522 -3.053,-0.307c0.789,0.93 1.089,3.03 0.359,3.607c-4.679,10.095 -9.237,7.997 -12.285,5.872c4.084,6.134 -8.869,14.092 -21.709,15.069c-3.302,-3.5 -6.647,-8.141 -10.04,-14.046l-6.302,10.675l42.298,21.534l24.92,-46.253l-4.644,-17.481Z" style="fill:#923f39;"/></g><path d="M11.025,27.049c5.071,2.141 9.233,6.889 12.661,13.741c0.059,0.119 0.185,0.19 0.317,0.18c4.186,-0.341 7.965,-1.853 11.606,-3.764c1.281,-0.675 2.148,-1.938 2.317,-3.376c0.282,-3.968 -2.082,-9.781 -5.464,-16.284c3.438,4.098 7.025,7.586 10.761,10.467c0.762,0.587 1.676,0.945 2.634,1.034c1.367,0.097 2.544,-0.235 3.574,-0.967c1.673,-1.21 2.445,-3.314 1.951,-5.319c-0.794,-2.696 -2.281,-6.826 -3.843,-11.121c-0.002,-0.004 0,-0.009 0.005,-0.012c0.004,-0.002 0.009,0 0.012,0.004c1.992,3.079 4.16,5.628 6.45,7.812c0.011,0.011 0.02,0.022 0.029,0.034c0.397,0.448 2.631,0.991 3.05,0.864c1.347,-0.409 9.871,-18.318 9.119,-18.114" style="fill:none;stroke:#000;stroke-width:1px;stroke-linecap:round;stroke-miterlimit:1.5;"/></g></svg>