<?xml version="1.0" encoding="UTF-8" standalone="no"?><!DOCTYPE svg PUBLIC "-//W3C//DTD SVG 1.1//EN" "http://www.w3.org/Graphics/SVG/1.1/DTD/svg11.dtd"><svg width="100%" height="100%" viewBox="0 0 22 41" version="1.1" xmlns="http://www.w3.org/2000/svg" xmlns:xlink="http://www.w3.org/1999/xlink" xml:space="preserve" xmlns:serif="http://www.serif.com/" style="fill-rule:evenodd;clip-rule:evenodd;stroke-linejoin:round;stroke-miterlimit:1.41421;"><path id="hornR" d="M19.201,29.379c0.935,1.304 0.982,3.047 0.117,4.399c-2.516,4.008 -5.592,5.75 -9.076,5.86c-15.361,0.485 -8.858,-28.288 2.135,-38.238c0.109,-0.091 0.265,-0.1 0.384,-0.021c0.119,0.078 0.173,0.225 0.132,0.362c-2.1,7.733 -0.12,18.545 6.308,27.638Z" style="fill:#923f39;"/><clipPath id="_clip1"><path d="M19.201,29.379c0.935,1.304 0.982,3.047 0.117,4.399c-2.516,4.008 -5.592,5.75 -9.076,5.86c-15.361,0.485 -8.858,-28.288 2.135,-38.238c0.109,-0.091 0.265,-0.1 0.384,-0.021c0.119,0.078 0.173,0.225 0.132,0.362c-2.1,7.733 -0.12,18.545 6.308,27.638Z"/></clipPath><g clip-path="url(#_clip1)"><path d="M3.707,46.137c3.04,-1.975 6.053,-4.337 4.477,-11.518c1.637,-1.394 2.565,-1.368 0.399,-5.746c3.585,-0.277 1.223,-4.743 -0.375,-7.177c2.809,-3.697 2.599,-6.595 -1.253,-8.53c2.559,-4.045 -2.79,-8.575 -4.65,-14.199l25.626,13.154l-12.309,32.731" style="fill:#c46751;"/><path id="hornR1" serif:id="hornR" d="M10.946,2.827c0.467,-0.51 0.944,-0.987 1.431,-1.427c0.109,-0.091 0.265,-0.1 0.384,-0.021c0.119,0.078 0.173,0.225 0.132,0.362c-2.1,7.733 -0.12,18.545 6.308,27.638c0.935,1.304 0.982,3.047 0.117,4.399c-2.516,4.008 -5.592,5.75 -9.076,5.86c-3.341,0.106 -5.648,-1.173 -7.099,-3.342c1.355,1.406 3.258,2.205 5.796,2.146c3.172,-0.073 5.969,-1.614 8.251,-5.179c0.885,-1.352 0.85,-3.11 -0.088,-4.426c-5.964,-8.481 -7.871,-18.489 -6.017,-25.647c0.039,-0.137 -0.015,-0.283 -0.134,-0.36l-0.005,-0.003Z" style="fill:#e7a582;"/></g><path d="M19.201,29.379c0.935,1.304 0.982,3.047 0.117,4.399c-2.516,4.008 -5.592,5.75 -9.076,5.86c-15.361,0.485 -8.858,-28.288 2.135,-38.238c0.109,-0.091 0.265,-0.1 0.384,-0.021c0.119,0.078 0.173,0.225 0.132,0.362c-2.1,7.733 -0.12,18.545 6.308,27.638Z" style="fill:none;stroke:#000;stroke-width:1px;"/></svg>