<?xml version="1.0" encoding="UTF-8" standalone="no"?><!DOCTYPE svg PUBLIC "-//W3C//DTD SVG 1.1//EN" "http://www.w3.org/Graphics/SVG/1.1/DTD/svg11.dtd"><svg width="100%" height="100%" viewBox="0 0 61 63" version="1.1" xmlns="http://www.w3.org/2000/svg" xmlns:xlink="http://www.w3.org/1999/xlink" xml:space="preserve" xmlns:serif="http://www.serif.com/" style="fill-rule:evenodd;clip-rule:evenodd;stroke-linejoin:round;stroke-miterlimit:1.41421;"><g id="feather"><g><g><g><path d="M28.952,60.741c-0.051,-1.864 -0.835,-3.519 -2.154,-3.909c-1.332,-0.394 -2.914,0.589 -3.963,2.124l-0.491,1.206c1.067,-1.651 2.744,-2.75 4.15,-2.332c1.407,0.417 2.212,2.254 2.204,4.22l0.254,-1.309Z" style="fill:#6a2b2b;"/><path d="M41.372,57.565c-0.026,-1.898 -0.815,-3.621 -2.164,-4.02c-1.294,-0.382 -2.822,0.533 -3.881,2.021l-0.548,1.347c1.067,-1.651 2.744,-2.751 4.15,-2.333c1.407,0.418 2.212,2.255 2.204,4.22l0.239,-1.235Z" style="fill:#6a2b2b;"/><path d="M15.437,53.055c-0.07,-1.784 -0.848,-3.377 -2.14,-3.759c-1.367,-0.404 -2.997,0.641 -4.063,2.249l-0.428,1.053c1.066,-1.651 2.744,-2.751 4.15,-2.333c1.406,0.418 2.212,2.254 2.204,4.22l0.277,-1.43Z" style="fill:#6a2b2b;"/><path d="M48.223,47.475c-0.034,-1.891 -0.821,-3.591 -2.161,-3.987c-1.294,-0.383 -2.821,0.532 -3.867,2.004l-0.586,1.439c1.067,-1.651 2.744,-2.751 4.15,-2.333c1.407,0.418 2.212,2.255 2.204,4.22l0.26,-1.343Z" style="fill:#6a2b2b;"/><path d="M33.328,44.89c-0.056,-1.822 -0.838,-3.453 -2.147,-3.84c-1.332,-0.394 -2.913,0.589 -3.972,2.135l-0.515,1.267c1.066,-1.65 2.744,-2.75 4.15,-2.332c1.406,0.418 2.212,2.254 2.204,4.22l0.28,-1.45Z" style="fill:#6a2b2b;"/><path d="M8.551,43.494c-0.101,-1.735 -0.871,-3.249 -2.126,-3.62c-1.382,-0.409 -3.033,0.665 -4.137,2.341l-0.398,0.978c1.067,-1.651 2.744,-2.75 4.151,-2.332c1.406,0.417 2.211,2.254 2.204,4.22l0.306,-1.587Z" style="fill:#6a2b2b;"/><path d="M59.48,41.572c-0.021,-1.907 -0.811,-3.643 -2.167,-4.044c-1.272,-0.376 -2.772,0.504 -3.809,1.932l-0.638,1.569c1.066,-1.651 2.744,-2.75 4.15,-2.333c1.406,0.418 2.212,2.255 2.204,4.22l0.26,-1.344Z" style="fill:#6a2b2b;"/><path d="M23.302,40.48c-0.082,-1.776 -0.858,-3.339 -2.135,-3.717c-1.363,-0.403 -2.987,0.635 -4.051,2.233l-0.47,1.155c1.067,-1.651 2.744,-2.75 4.151,-2.333c1.406,0.418 2.211,2.255 2.204,4.22l0.301,-1.558Z" style="fill:#6a2b2b;"/><path d="M12.473,34.275c-0.12,-1.731 -0.886,-3.206 -2.122,-3.572c-1.382,-0.409 -3.033,0.666 -4.139,2.345l-0.422,1.036c1.067,-1.651 2.744,-2.751 4.151,-2.333c1.406,0.418 2.211,2.255 2.204,4.22l0.328,-1.696Z" style="fill:#6a2b2b;"/><path d="M28.105,29.187c-0.102,-1.766 -0.872,-3.285 -2.129,-3.657c-1.367,-0.405 -2.997,0.641 -4.054,2.237l-0.498,1.225c1.066,-1.651 2.744,-2.75 4.15,-2.332c1.406,0.417 2.212,2.254 2.204,4.22l0.327,-1.693Z" style="fill:#6a2b2b;"/><path d="M7.614,26.083c-0.144,-1.683 -0.903,-3.1 -2.111,-3.458c-1.402,-0.415 -3.081,0.696 -4.151,2.36l0.614,-1.509c-0.428,0.767 -0.785,1.624 -1.061,2.553c1.066,-1.651 2.744,-2.75 4.15,-2.332c1.406,0.417 2.212,2.254 2.204,4.22l0.355,-1.834Z" style="fill:#6a2b2b;"/><path d="M54.672,22.683c-0.055,-1.803 -0.837,-3.434 -2.145,-3.821c-1.309,-0.387 -2.858,0.555 -3.901,2.046l-0.629,1.545c1.067,-1.65 2.744,-2.75 4.15,-2.332c1.407,0.418 2.212,2.254 2.205,4.22l0.32,-1.658Z" style="fill:#6a2b2b;"/><path d="M45.492,17.115c-0.084,-1.742 -0.859,-3.294 -2.131,-3.671c-1.34,-0.396 -2.932,0.601 -3.998,2.168l-0.572,1.405c1.067,-1.651 2.744,-2.75 4.151,-2.333c1.406,0.418 2.211,2.255 2.204,4.22l0.346,-1.789Z" style="fill:#6a2b2b;"/><path d="M29.363,12.887c-0.117,-1.702 -0.883,-3.177 -2.119,-3.543c-1.382,-0.409 -3.033,0.665 -4.097,2.292l-0.498,1.225c1.066,-1.651 2.744,-2.75 4.15,-2.333c1.406,0.418 2.212,2.255 2.204,4.22l0.36,-1.861Z" style="fill:#6a2b2b;"/><path d="M18.464,11.638c-0.143,-1.653 -0.901,-3.064 -2.106,-3.421c-1.403,-0.415 -3.081,0.696 -4.152,2.36l0.55,-1.351c-0.396,0.721 -0.753,1.578 -1.029,2.507c1.066,-1.651 2.744,-2.75 4.15,-2.332c1.406,0.417 2.212,2.254 2.204,4.22l0.383,-1.983Z" style="fill:#6a2b2b;"/><path d="M40.244,7.55c-0.082,-1.768 -0.857,-3.331 -2.135,-3.709c-1.332,-0.394 -2.913,0.589 -3.952,2.11l-0.617,1.517c1.067,-1.651 2.744,-2.75 4.151,-2.333c1.406,0.418 2.211,2.255 2.204,4.22l0.349,-1.805Z" style="fill:#6a2b2b;"/></g></g><g><g opacity="0.8"><path d="M28.952,60.741l0.031,0.325c1.085,-3.639 0.547,-7.013 -1.202,-7.53c-1.749,-0.518 -4.05,2.017 -5.135,5.656l0.189,-0.236c1.12,-2.964 3.087,-4.862 4.632,-4.403c1.546,0.459 2.158,3.123 1.485,6.188Z" style="fill:#e7a582;fill-opacity:0.5;"/><path d="M41.372,57.565l0.021,0.214c1.085,-3.639 0.546,-7.013 -1.202,-7.531c-1.749,-0.517 -4.05,2.018 -5.135,5.657l0.271,-0.339c1.118,-2.876 3.052,-4.715 4.575,-4.262c1.559,0.463 2.168,3.167 1.47,6.261Z" style="fill:#e7a582;fill-opacity:0.5;"/><path d="M15.437,53.055l0.045,0.475c1.086,-3.639 0.547,-7.014 -1.201,-7.531c-1.749,-0.517 -4.05,2.018 -5.135,5.656l0.088,-0.11c1.117,-3.053 3.124,-5.023 4.695,-4.556c1.524,0.452 2.14,3.048 1.508,6.066Z" style="fill:#e7a582;fill-opacity:0.5;"/><path d="M48.223,47.475l0.024,0.246c1.085,-3.639 0.546,-7.013 -1.202,-7.53c-1.749,-0.517 -4.05,2.017 -5.135,5.656l0.285,-0.355c1.124,-2.826 3.031,-4.618 4.537,-4.17c1.537,0.456 2.151,3.093 1.491,6.153Z" style="fill:#e7a582;fill-opacity:0.5;"/><path d="M33.328,44.89l0.038,0.394c1.085,-3.639 0.547,-7.013 -1.202,-7.531c-1.748,-0.517 -4.049,2.018 -5.134,5.657l0.179,-0.225c1.118,-2.924 3.071,-4.798 4.608,-4.342c1.524,0.453 2.14,3.049 1.511,6.047Z" style="fill:#e7a582;fill-opacity:0.5;"/><path d="M8.551,43.494l0.059,0.613c1.086,-3.639 0.547,-7.013 -1.201,-7.53c-1.749,-0.517 -4.05,2.017 -5.135,5.656l0.014,-0.018c1.097,-3.078 3.135,-5.103 4.726,-4.631c1.493,0.444 2.115,2.946 1.537,5.91Z" style="fill:#e7a582;fill-opacity:0.5;"/><path d="M59.48,41.572l0.018,0.19c1.086,-3.639 0.547,-7.013 -1.201,-7.53c-1.749,-0.517 -4.05,2.017 -5.135,5.656l0.342,-0.428c1.127,-2.747 3.001,-4.481 4.485,-4.04c1.537,0.456 2.151,3.093 1.491,6.152Z" style="fill:#e7a582;fill-opacity:0.5;"/><path d="M23.302,40.48l0.05,0.516c1.085,-3.638 0.547,-7.013 -1.202,-7.53c-1.749,-0.517 -4.049,2.017 -5.135,5.656l0.101,-0.126c1.109,-2.983 3.095,-4.917 4.654,-4.454c1.493,0.444 2.115,2.946 1.532,5.938Z" style="fill:#e7a582;fill-opacity:0.5;"/><path d="M12.473,34.275l0.063,0.662c1.086,-3.639 0.547,-7.013 -1.202,-7.53c-1.748,-0.517 -4.049,2.017 -5.134,5.656l0.012,-0.015c1.098,-3.045 3.12,-5.043 4.702,-4.573c1.476,0.438 2.1,2.888 1.559,5.8Z" style="fill:#e7a582;fill-opacity:0.5;"/><path d="M28.105,29.187l0.056,0.577c1.085,-3.639 0.547,-7.014 -1.202,-7.531c-1.749,-0.517 -4.049,2.017 -5.135,5.656l0.098,-0.122c1.113,-2.945 3.08,-4.843 4.625,-4.384c1.476,0.439 2.101,2.888 1.558,5.804Z" style="fill:#e7a582;fill-opacity:0.5;"/><path d="M7.614,26.083l0.074,0.776c1.085,-3.639 0.547,-7.013 -1.202,-7.53c-1.489,-0.441 -3.379,1.332 -4.52,4.147c1.157,-2.155 2.759,-3.443 4.062,-3.056c1.447,0.43 2.076,2.793 1.586,5.663Z" style="fill:#e7a582;fill-opacity:0.5;"/><path d="M54.672,22.683l0.04,0.413c1.085,-3.639 0.547,-7.013 -1.202,-7.531c-1.749,-0.517 -4.05,2.018 -5.135,5.656l0.251,-0.313c1.136,-2.77 3.01,-4.505 4.495,-4.064c1.484,0.441 2.107,2.917 1.551,5.839Z" style="fill:#e7a582;fill-opacity:0.5;"/><path d="M45.492,17.115l0.054,0.563c1.085,-3.639 0.547,-7.013 -1.202,-7.53c-1.748,-0.518 -4.049,2.017 -5.135,5.656l0.154,-0.192c1.128,-2.849 3.041,-4.653 4.552,-4.204c1.46,0.434 2.087,2.836 1.577,5.707Z" style="fill:#e7a582;fill-opacity:0.5;"/><path d="M29.363,12.887l0.066,0.691c1.086,-3.639 0.547,-7.013 -1.201,-7.53c-1.749,-0.518 -4.05,2.017 -5.135,5.656l0.054,-0.068c1.113,-2.945 3.08,-4.843 4.625,-4.384c1.447,0.43 2.076,2.793 1.591,5.635Z" style="fill:#e7a582;fill-opacity:0.5;"/><path d="M18.464,11.638l0.079,0.813c1.085,-3.639 0.546,-7.013 -1.202,-7.53c-1.52,-0.45 -3.456,1.405 -4.585,4.305c1.189,-2.201 2.791,-3.489 4.094,-3.102c1.425,0.423 2.056,2.72 1.614,5.514Z" style="fill:#e7a582;fill-opacity:0.5;"/><path d="M40.244,7.55l0.05,0.525c1.085,-3.639 0.547,-7.013 -1.202,-7.53c-1.748,-0.518 -4.049,2.017 -5.134,5.656l0.199,-0.25c1.127,-2.778 3.013,-4.536 4.507,-4.092c1.46,0.434 2.087,2.835 1.58,5.691Z" style="fill:#e7a582;fill-opacity:0.5;"/><path d="M28.952,60.741c0.673,-3.065 0.061,-5.729 -1.485,-6.188c-1.545,-0.459 -3.512,1.439 -4.632,4.403c1.049,-1.535 2.631,-2.518 3.963,-2.124c1.319,0.39 2.103,2.045 2.154,3.909Z" style="fill:#923f39;"/><path d="M41.372,57.565c0.698,-3.094 0.089,-5.798 -1.47,-6.261c-1.523,-0.453 -3.457,1.386 -4.575,4.262c1.059,-1.488 2.587,-2.403 3.881,-2.021c1.349,0.399 2.138,2.122 2.164,4.02Z" style="fill:#923f39;"/><path d="M15.437,53.055c0.632,-3.018 0.016,-5.614 -1.508,-6.066c-1.571,-0.467 -3.578,1.503 -4.695,4.556c1.066,-1.608 2.696,-2.653 4.063,-2.249c1.292,0.382 2.07,1.975 2.14,3.759Z" style="fill:#923f39;"/><path d="M48.223,47.475c0.66,-3.06 0.046,-5.697 -1.491,-6.153c-1.506,-0.448 -3.413,1.344 -4.537,4.17c1.046,-1.472 2.573,-2.387 3.867,-2.004c1.34,0.396 2.127,2.096 2.161,3.987Z" style="fill:#923f39;"/><path d="M33.328,44.89c0.629,-2.998 0.013,-5.594 -1.511,-6.047c-1.537,-0.456 -3.49,1.418 -4.608,4.342c1.059,-1.546 2.64,-2.529 3.972,-2.135c1.309,0.387 2.091,2.018 2.147,3.84Z" style="fill:#923f39;"/><path d="M8.551,43.494c0.578,-2.964 -0.044,-5.466 -1.537,-5.91c-1.591,-0.472 -3.629,1.553 -4.726,4.631c1.104,-1.676 2.755,-2.75 4.137,-2.341c1.255,0.371 2.025,1.885 2.126,3.62Z" style="fill:#923f39;"/><path d="M59.48,41.572c0.66,-3.059 0.046,-5.696 -1.491,-6.152c-1.484,-0.441 -3.358,1.293 -4.485,4.04c1.037,-1.428 2.537,-2.308 3.809,-1.932c1.356,0.401 2.146,2.137 2.167,4.044Z" style="fill:#923f39;"/><path d="M23.302,40.48c0.583,-2.992 -0.039,-5.494 -1.532,-5.938c-1.559,-0.463 -3.545,1.471 -4.654,4.454c1.064,-1.598 2.688,-2.636 4.051,-2.233c1.277,0.378 2.053,1.941 2.135,3.717Z" style="fill:#923f39;"/><path d="M12.473,34.275c0.541,-2.912 -0.083,-5.362 -1.559,-5.8c-1.582,-0.47 -3.604,1.528 -4.702,4.573c1.106,-1.679 2.757,-2.754 4.139,-2.345c1.236,0.366 2.002,1.841 2.122,3.572Z" style="fill:#923f39;"/><path d="M28.105,29.187c0.543,-2.916 -0.082,-5.365 -1.558,-5.804c-1.545,-0.459 -3.512,1.439 -4.625,4.384c1.057,-1.596 2.687,-2.642 4.054,-2.237c1.257,0.372 2.027,1.891 2.129,3.657Z" style="fill:#923f39;"/><path d="M7.614,26.083c0.49,-2.87 -0.139,-5.233 -1.586,-5.663c-1.303,-0.387 -2.905,0.901 -4.062,3.056l-0.614,1.509c1.07,-1.664 2.749,-2.775 4.151,-2.36c1.208,0.358 1.967,1.775 2.111,3.458Z" style="fill:#923f39;"/><path d="M54.672,22.683c0.556,-2.922 -0.067,-5.398 -1.551,-5.839c-1.485,-0.441 -3.359,1.294 -4.495,4.064c1.043,-1.491 2.592,-2.433 3.901,-2.046c1.308,0.387 2.09,2.018 2.145,3.821Z" style="fill:#923f39;"/><path d="M45.492,17.115c0.51,-2.871 -0.117,-5.273 -1.577,-5.707c-1.511,-0.449 -3.424,1.355 -4.552,4.204c1.066,-1.567 2.658,-2.564 3.998,-2.168c1.272,0.377 2.047,1.929 2.131,3.671Z" style="fill:#923f39;"/><path d="M29.363,12.887c0.485,-2.842 -0.144,-5.205 -1.591,-5.635c-1.545,-0.459 -3.512,1.439 -4.625,4.384c1.064,-1.627 2.715,-2.701 4.097,-2.292c1.236,0.366 2.002,1.841 2.119,3.543Z" style="fill:#923f39;"/><path d="M18.464,11.638c0.442,-2.794 -0.189,-5.091 -1.614,-5.514c-1.303,-0.387 -2.905,0.901 -4.094,3.102l-0.55,1.351c1.071,-1.664 2.749,-2.775 4.152,-2.36c1.205,0.357 1.963,1.768 2.106,3.421Z" style="fill:#923f39;"/><path d="M40.244,7.55c0.507,-2.856 -0.12,-5.257 -1.58,-5.691c-1.494,-0.444 -3.38,1.314 -4.507,4.092c1.039,-1.521 2.62,-2.504 3.952,-2.11c1.278,0.378 2.053,1.941 2.135,3.709Z" style="fill:#923f39;"/></g></g></g></g></svg>