<?xml version="1.0" encoding="UTF-8" standalone="no"?><!DOCTYPE svg PUBLIC "-//W3C//DTD SVG 1.1//EN" "http://www.w3.org/Graphics/SVG/1.1/DTD/svg11.dtd"><svg width="100%" height="100%" viewBox="0 0 30 38" version="1.1" xmlns="http://www.w3.org/2000/svg" xmlns:xlink="http://www.w3.org/1999/xlink" xml:space="preserve" xmlns:serif="http://www.serif.com/" style="fill-rule:evenodd;clip-rule:evenodd;stroke-linejoin:round;stroke-miterlimit:1.41421;"><path id="eye" d="M19.169,1.768c-7.247,-1.79 -15.056,4.552 -17.428,14.153c-2.372,9.602 1.585,18.851 8.832,20.641c7.246,1.79 15.055,-4.552 17.427,-14.154c2.372,-9.601 -1.585,-18.85 -8.831,-20.64Z" style="fill:#a8a6a6;"/><clipPath id="_clip1"><path d="M19.169,1.768c-7.247,-1.79 -15.056,4.552 -17.428,14.153c-2.372,9.602 1.585,18.851 8.832,20.641c7.246,1.79 15.055,-4.552 17.427,-14.154c2.372,-9.601 -1.585,-18.85 -8.831,-20.64Z"/></clipPath><g clip-path="url(#_clip1)"><path d="M19.063,1.752c-6.379,-0.802 -12.751,5.115 -14.424,13.56c-1.73,8.732 2.216,16.881 8.806,18.186c6.374,1.263 12.901,-4.336 14.887,-12.604c-0.047,0.301 -0.101,0.603 -0.161,0.906c-1.922,9.702 -9.426,16.401 -16.748,14.951c-7.322,-1.45 -11.707,-10.505 -9.785,-20.206c1.921,-9.702 9.426,-16.402 16.748,-14.951c0.229,0.045 0.454,0.098 0.677,0.158Z" style="fill-opacity:0.4;"/><path d="M14.79,8.43c-3.907,-0.965 -8.117,2.454 -9.396,7.631c-1.279,5.176 0.855,10.163 4.762,11.128c3.907,0.965 8.117,-2.454 9.396,-7.631c1.279,-5.176 -0.855,-10.163 -4.762,-11.128Z"/><path id="eye1" serif:id="eye" d="M18.413,1.611c0.252,0.042 0.504,0.095 0.756,0.157c4.815,1.189 8.178,5.672 9.196,11.364c-1.791,3.701 -5.207,5.898 -8.417,5.106c-3.865,-0.955 -5.975,-5.888 -4.71,-11.01c0.569,-2.303 1.724,-4.254 3.175,-5.617Z" style="fill:#fff;fill-opacity:0.5;"/></g><path d="M19.169,1.768c-7.247,-1.79 -15.056,4.552 -17.428,14.153c-2.372,9.602 1.585,18.851 8.832,20.641c7.246,1.79 15.055,-4.552 17.427,-14.154c2.372,-9.601 -1.585,-18.85 -8.831,-20.64Z" style="fill:none;stroke:#000;stroke-width:1px;"/></svg>