<?xml version="1.0" encoding="UTF-8" standalone="no"?><!DOCTYPE svg PUBLIC "-//W3C//DTD SVG 1.1//EN" "http://www.w3.org/Graphics/SVG/1.1/DTD/svg11.dtd"><svg width="100%" height="100%" viewBox="0 0 66 66" version="1.1" xmlns="http://www.w3.org/2000/svg" xmlns:xlink="http://www.w3.org/1999/xlink" xml:space="preserve" xmlns:serif="http://www.serif.com/" style="fill-rule:evenodd;clip-rule:evenodd;stroke-linejoin:round;stroke-miterlimit:1.41421;"><circle id="body" cx="33.47" cy="32.539" r="32.028" style="fill:#b74f4f;"/><clipPath id="_clip1"><circle cx="33.47" cy="32.539" r="32.028"/></clipPath><g clip-path="url(#_clip1)"><ellipse cx="32.494" cy="33.483" rx="30.164" ry="30.567" style="fill:#782b2b;"/><path d="M30.442,0.654c-0.363,0.035 -0.727,0.075 -1.092,0.123c-17.53,2.273 -29.916,18.351 -27.643,35.881c2.274,17.531 18.352,29.917 35.882,27.644c17.53,-2.274 29.916,-18.352 27.643,-35.882c-0.047,-0.365 -0.101,-0.727 -0.16,-1.087c1.503,15.935 -9.901,30.335 -25.898,32.41c-16.349,2.12 -31.343,-9.431 -33.464,-25.78c-2.074,-15.997 8.941,-30.698 24.732,-33.309Z" style="fill:#4b2222;"/><path id="body1" serif:id="body" d="M40.07,1.193c14.515,3.046 25.428,15.932 25.428,31.346c0,0.434 -0.009,0.866 -0.026,1.296c-4.219,-2.05 -8.974,-5.491 -13.456,-9.974c-8.356,-8.356 -13.094,-17.661 -11.946,-22.668Z" style="fill:#b74f4f;"/></g><circle cx="33.47" cy="32.539" r="32.028" style="fill:none;stroke:#000;stroke-width:1px;"/></svg>